<?xml version="1.0" encoding="UTF-8" standalone="no"?>
<svg
   width="308.72855pt"
   height="303.76727pt"
   viewBox="0 0 308.72855 303.76727"
   version="1.1"
   id="svg81"
   sodipodi:docname="annual_catch_wio.svg"
   inkscape:version="1.4 (86a8ad7, 2024-10-11)"
   inkscape:export-filename="annual_catch_wio.png"
   inkscape:export-xdpi="300"
   inkscape:export-ydpi="300"
   xmlns:inkscape="http://www.inkscape.org/namespaces/inkscape"
   xmlns:sodipodi="http://sodipodi.sourceforge.net/DTD/sodipodi-0.dtd"
   xmlns="http://www.w3.org/2000/svg"
   xmlns:svg="http://www.w3.org/2000/svg">
  <defs
     id="defs81" />
  <sodipodi:namedview
     id="namedview81"
     pagecolor="#ffffff"
     bordercolor="#000000"
     borderopacity="0.25"
     inkscape:showpageshadow="2"
     inkscape:pageopacity="0.0"
     inkscape:pagecheckerboard="0"
     inkscape:deskcolor="#d1d1d1"
     inkscape:document-units="pt"
     inkscape:zoom="1.3871581"
     inkscape:cx="137.69159"
     inkscape:cy="3.2440427"
     inkscape:window-width="2560"
     inkscape:window-height="1494"
     inkscape:window-x="-11"
     inkscape:window-y="-11"
     inkscape:window-maximized="1"
     inkscape:current-layer="g81" />
  <g
     class="svglite"
     id="g81"
     transform="translate(-110.87109)">
    <defs
       id="defs1">
      <style
         type="text/css"
         id="style1"><![CDATA[
    .svglite line, .svglite polyline, .svglite polygon, .svglite path, .svglite rect, .svglite circle {
      fill: none;
      stroke: #000000;
      stroke-linecap: round;
      stroke-linejoin: round;
      stroke-miterlimit: 10.00;
    }
    .svglite text {
      white-space: pre;
    }
    .svglite g.glyphgroup path {
      fill: inherit;
      stroke: none;
    }
  ]]></style>
    </defs>
    <defs
       id="defs2">
      <clipPath
         id="cpMC4wMHw1MzIuMDB8MC4wMHwzMjkuMDA=">
        <rect
           x="0"
           y="0"
           width="532"
           height="329"
           id="rect2" />
      </clipPath>
    </defs>
    <g
       clip-path="url(#cpMC4wMHw1MzIuMDB8MC4wMHwzMjkuMDA=)"
       id="g2" />
    <defs
       id="defs3">
      <clipPath
         id="cpMTE3Ljc3fDQxNC4yM3wyNC4xNHwzMDQuODY=">
        <rect
           x="117.77"
           y="24.139999"
           width="296.45999"
           height="280.73001"
           id="rect3" />
      </clipPath>
    </defs>
    <g
       clip-path="url(#cpMC4wMHw1MzIuMDB8MC4wMHwzMjkuMDA=)"
       id="g5" />
    <defs
       id="defs5">
      <clipPath
         id="cpMTkxLjM0fDQwNy4zNHwzMS4wM3wyODMuMDM=">
        <rect
           x="191.34"
           y="31.030001"
           width="216"
           height="252"
           id="rect5" />
      </clipPath>
    </defs>
    <g
       clip-path="url(#cpMTkxLjM0fDQwNy4zNHwzMS4wM3wyODMuMDM=)"
       id="g6" />
    <g
       clip-path="url(#cpMC4wMHw1MzIuMDB8MC4wMHwzMjkuMDA=)"
       id="g7" />
    <defs
       id="defs7">
      <clipPath
         id="cpMTIzLjI1fDQwOC43NXwyOS42MnwyOTkuMzg=">
        <rect
           x="123.25"
           y="29.620001"
           width="285.51001"
           height="269.76999"
           id="rect7" />
      </clipPath>
    </defs>
    <g
       clip-path="url(#cpMTIzLjI1fDQwOC43NXwyOS42MnwyOTkuMzg=)"
       id="g8">
      <rect
         x="123.25"
         y="29.620001"
         width="285.51001"
         height="269.76999"
         style="stroke:none;stroke-width:1.07"
         id="rect8" />
    </g>
    <g
       clip-path="url(#cpMC4wMHw1MzIuMDB8MC4wMHwzMjkuMDA=)"
       id="g9" />
    <g
       clip-path="url(#cpMTkxLjM0fDQwNy4zNHwzMS4wM3wyODMuMDM=)"
       id="g26">
      <rect
         x="191.34"
         y="31.030001"
         width="216"
         height="252"
         style="stroke:none;stroke-width:1.07"
         id="rect9" />
      <polygon
         points="204.04,259.35 207.22,254.58 210.39,253.4 213.57,253.95 216.75,254.64 219.92,253.62 223.1,255.46 226.28,254.68 229.45,253.28 232.63,250.52 235.81,243.67 238.98,242.36 242.16,239.04 245.34,233.11 248.51,226.5 251.69,228.58 254.87,219.15 258.04,220.67 261.22,225.04 264.39,221.64 267.57,217.58 270.75,211.92 273.92,204.88 277.1,195.83 280.28,207.89 283.45,212.31 286.63,202.18 289.81,198.78 292.98,194.61 296.16,186.99 299.34,179.23 302.51,170.81 305.69,161.07 308.87,149.91 312.04,137.15 315.22,140.51 318.39,120.44 321.57,138.57 324.75,144.68 327.92,138.21 331.1,142.42 334.28,129.15 337.45,138.03 340.63,132.04 343.81,131.95 346.98,128.9 350.16,121.28 353.34,121.02 356.51,125.84 359.69,110.67 362.87,102.64 366.04,97.36 369.22,102.53 372.39,91.59 375.57,110.08 378.75,97.25 381.92,88.32 385.1,74.41 388.28,72.37 391.45,70.74 394.63,76.09 397.81,52.91 400.98,45.19 404.16,31.03 407.34,38.88 407.34,63.97 404.16,55.88 400.98,74.18 397.81,86.63 394.63,110.59 391.45,104.03 388.28,104.76 385.1,111.42 381.92,117 378.75,124.61 375.57,137.84 372.39,118.57 369.22,135.01 366.04,127.53 362.87,128.6 359.69,135.25 356.51,155.45 353.34,154.62 350.16,165.29 346.98,170.91 343.81,167.27 340.63,164.99 337.45,175.04 334.28,168.57 331.1,183.9 327.92,175.52 324.75,177.92 321.57,179.05 318.39,161.55 315.22,170.32 312.04,165.38 308.87,176.77 305.69,185.6 302.51,192.48 299.34,197.81 296.16,207.05 292.98,211.28 289.81,210.59 286.63,211.95 283.45,222.86 280.28,217.36 277.1,204.6 273.92,213.28 270.75,217.5 267.57,223.41 264.39,227.56 261.22,231.16 258.04,226.45 254.87,226.02 251.69,235.11 248.51,232.25 245.34,238.67 242.16,244.73 238.98,247.14 235.81,247.89 232.63,254.62 229.45,257.03 226.28,257.44 223.1,258.03 219.92,258.23 216.75,259.13 213.57,259.15 210.39,260.05 207.22,260.72 204.04,262.94 200.87,262.58 197.69,268.33 194.51,269.1 191.34,269.21 191.34,265.53 194.51,265.43 197.69,264.66 200.87,258.76 "
         style="fill:#cc79a7;fill-opacity:0.4;stroke:none;stroke-width:0;stroke-linecap:butt"
         id="polygon9" />
      <polyline
         points="191.34,265.53 194.51,265.43 197.69,264.66 200.87,258.76 204.04,259.35 207.22,254.58 210.39,253.40 213.57,253.95 216.75,254.64 219.92,253.62 223.10,255.46 226.28,254.68 229.45,253.28 232.63,250.52 235.81,243.67 238.98,242.36 242.16,239.04 245.34,233.11 248.51,226.50 251.69,228.58 254.87,219.15 258.04,220.67 261.22,225.04 264.39,221.64 267.57,217.58 270.75,211.92 273.92,204.88 277.10,195.83 280.28,207.89 283.45,212.31 286.63,202.18 289.81,198.78 292.98,194.61 296.16,186.99 299.34,179.23 302.51,170.81 305.69,161.07 308.87,149.91 312.04,137.15 315.22,140.51 318.39,120.44 321.57,138.57 324.75,144.68 327.92,138.21 331.10,142.42 334.28,129.15 337.45,138.03 340.63,132.04 343.81,131.95 346.98,128.90 350.16,121.28 353.34,121.02 356.51,125.84 359.69,110.67 362.87,102.64 366.04,97.36 369.22,102.53 372.39,91.59 375.57,110.08 378.75,97.25 381.92,88.32 385.10,74.41 388.28,72.37 391.45,70.74 394.63,76.09 397.81,52.91 400.98,45.19 404.16,31.03 407.34,38.88 "
         style="stroke:#cc79a7;stroke-width:0.53;stroke-linecap:butt"
         id="polyline9" />
      <polyline
         points="407.34,63.97 404.16,55.88 400.98,74.18 397.81,86.63 394.63,110.59 391.45,104.03 388.28,104.76 385.10,111.42 381.92,117.00 378.75,124.61 375.57,137.84 372.39,118.57 369.22,135.01 366.04,127.53 362.87,128.60 359.69,135.25 356.51,155.45 353.34,154.62 350.16,165.29 346.98,170.91 343.81,167.27 340.63,164.99 337.45,175.04 334.28,168.57 331.10,183.90 327.92,175.52 324.75,177.92 321.57,179.05 318.39,161.55 315.22,170.32 312.04,165.38 308.87,176.77 305.69,185.60 302.51,192.48 299.34,197.81 296.16,207.05 292.98,211.28 289.81,210.59 286.63,211.95 283.45,222.86 280.28,217.36 277.10,204.60 273.92,213.28 270.75,217.50 267.57,223.41 264.39,227.56 261.22,231.16 258.04,226.45 254.87,226.02 251.69,235.11 248.51,232.25 245.34,238.67 242.16,244.73 238.98,247.14 235.81,247.89 232.63,254.62 229.45,257.03 226.28,257.44 223.10,258.03 219.92,258.23 216.75,259.13 213.57,259.15 210.39,260.05 207.22,260.72 204.04,262.94 200.87,262.58 197.69,268.33 194.51,269.10 191.34,269.21 "
         style="stroke:#cc79a7;stroke-width:0.53;stroke-linecap:butt"
         id="polyline10" />
      <polygon
         points="204.04,262.94 207.22,260.72 210.39,260.05 213.57,259.15 216.75,259.13 219.92,258.23 223.1,258.03 226.28,257.44 229.45,257.03 232.63,254.62 235.81,247.89 238.98,247.14 242.16,244.73 245.34,238.67 248.51,232.25 251.69,235.11 254.87,226.02 258.04,226.45 261.22,231.16 264.39,227.56 267.57,223.41 270.75,217.5 273.92,213.28 277.1,204.6 280.28,217.36 283.45,222.86 286.63,211.95 289.81,210.59 292.98,211.28 296.16,207.05 299.34,197.81 302.51,192.48 305.69,185.6 308.87,176.77 312.04,165.38 315.22,170.32 318.39,161.55 321.57,179.05 324.75,177.92 327.92,175.52 331.1,183.9 334.28,168.57 337.45,175.04 340.63,164.99 343.81,167.27 346.98,170.91 350.16,165.29 353.34,154.62 356.51,155.45 359.69,135.25 362.87,128.6 366.04,127.53 369.22,135.01 372.39,118.57 375.57,137.84 378.75,124.61 381.92,117 385.1,111.42 388.28,104.76 391.45,104.03 394.63,110.59 397.81,86.63 400.98,74.18 404.16,55.88 407.34,63.97 407.34,90.39 404.16,88.84 400.98,103.21 397.81,110.04 394.63,130.14 391.45,125.37 388.28,128.84 385.1,137.34 381.92,143.44 378.75,151.55 375.57,162.57 372.39,148.87 369.22,162.49 366.04,154.79 362.87,156.32 359.69,161.9 356.51,181.99 353.34,180 350.16,189.97 346.98,195.06 343.81,190.76 340.63,188.93 337.45,198.58 334.28,192.36 331.1,207.82 327.92,198.93 324.75,199.3 321.57,199.28 318.39,182.68 315.22,190.27 312.04,186 308.87,195.61 305.69,202.78 302.51,206.56 299.34,211.56 296.16,220 292.98,223.41 289.81,222.41 286.63,223.65 283.45,235.2 280.28,229.82 277.1,217.34 273.92,225.71 270.75,230.15 267.57,237.97 264.39,241 261.22,242.93 258.04,238.02 254.87,237.02 251.69,245.32 248.51,245.44 245.34,250.73 242.16,256.15 238.98,256.38 235.81,257.27 232.63,262.25 229.45,263.56 226.28,263.66 223.1,264.05 219.92,263.94 216.75,264.54 213.57,264.45 210.39,264.86 207.22,265.53 204.04,267.35 200.87,266.88 197.69,272 194.51,272.78 191.34,272.86 191.34,269.21 194.51,269.1 197.69,268.33 200.87,262.58 "
         style="fill:#3273af;fill-opacity:0.4;stroke:none;stroke-width:0;stroke-linecap:butt"
         id="polygon10" />
      <polyline
         points="191.34,269.21 194.51,269.10 197.69,268.33 200.87,262.58 204.04,262.94 207.22,260.72 210.39,260.05 213.57,259.15 216.75,259.13 219.92,258.23 223.10,258.03 226.28,257.44 229.45,257.03 232.63,254.62 235.81,247.89 238.98,247.14 242.16,244.73 245.34,238.67 248.51,232.25 251.69,235.11 254.87,226.02 258.04,226.45 261.22,231.16 264.39,227.56 267.57,223.41 270.75,217.50 273.92,213.28 277.10,204.60 280.28,217.36 283.45,222.86 286.63,211.95 289.81,210.59 292.98,211.28 296.16,207.05 299.34,197.81 302.51,192.48 305.69,185.60 308.87,176.77 312.04,165.38 315.22,170.32 318.39,161.55 321.57,179.05 324.75,177.92 327.92,175.52 331.10,183.90 334.28,168.57 337.45,175.04 340.63,164.99 343.81,167.27 346.98,170.91 350.16,165.29 353.34,154.62 356.51,155.45 359.69,135.25 362.87,128.60 366.04,127.53 369.22,135.01 372.39,118.57 375.57,137.84 378.75,124.61 381.92,117.00 385.10,111.42 388.28,104.76 391.45,104.03 394.63,110.59 397.81,86.63 400.98,74.18 404.16,55.88 407.34,63.97 "
         style="stroke:#3273af;stroke-width:0.53;stroke-linecap:butt"
         id="polyline11" />
      <polyline
         points="407.34,90.39 404.16,88.84 400.98,103.21 397.81,110.04 394.63,130.14 391.45,125.37 388.28,128.84 385.10,137.34 381.92,143.44 378.75,151.55 375.57,162.57 372.39,148.87 369.22,162.49 366.04,154.79 362.87,156.32 359.69,161.90 356.51,181.99 353.34,180.00 350.16,189.97 346.98,195.06 343.81,190.76 340.63,188.93 337.45,198.58 334.28,192.36 331.10,207.82 327.92,198.93 324.75,199.30 321.57,199.28 318.39,182.68 315.22,190.27 312.04,186.00 308.87,195.61 305.69,202.78 302.51,206.56 299.34,211.56 296.16,220.00 292.98,223.41 289.81,222.41 286.63,223.65 283.45,235.20 280.28,229.82 277.10,217.34 273.92,225.71 270.75,230.15 267.57,237.97 264.39,241.00 261.22,242.93 258.04,238.02 254.87,237.02 251.69,245.32 248.51,245.44 245.34,250.73 242.16,256.15 238.98,256.38 235.81,257.27 232.63,262.25 229.45,263.56 226.28,263.66 223.10,264.05 219.92,263.94 216.75,264.54 213.57,264.45 210.39,264.86 207.22,265.53 204.04,267.35 200.87,266.88 197.69,272.00 194.51,272.78 191.34,272.86 "
         style="stroke:#3273af;stroke-width:0.53;stroke-linecap:butt"
         id="polyline12" />
      <polygon
         points="204.04,267.35 207.22,265.53 210.39,264.86 213.57,264.45 216.75,264.54 219.92,263.94 223.1,264.05 226.28,263.66 229.45,263.56 232.63,262.25 235.81,257.27 238.98,256.38 242.16,256.15 245.34,250.73 248.51,245.44 251.69,245.32 254.87,237.02 258.04,238.02 261.22,242.93 264.39,241 267.57,237.97 270.75,230.15 273.92,225.71 277.1,217.34 280.28,229.82 283.45,235.2 286.63,223.65 289.81,222.41 292.98,223.41 296.16,220 299.34,211.56 302.51,206.56 305.69,202.78 308.87,195.61 312.04,186 315.22,190.27 318.39,182.68 321.57,199.28 324.75,199.3 327.92,198.93 331.1,207.82 334.28,192.36 337.45,198.58 340.63,188.93 343.81,190.76 346.98,195.06 350.16,189.97 353.34,180 356.51,181.99 359.69,161.9 362.87,156.32 366.04,154.79 369.22,162.49 372.39,148.87 375.57,162.57 378.75,151.55 381.92,143.44 385.1,137.34 388.28,128.84 391.45,125.37 394.63,130.14 397.81,110.04 400.98,103.21 404.16,88.84 407.34,90.39 407.34,96.17 404.16,93.94 400.98,106.92 397.81,113.26 394.63,133.13 391.45,126.98 388.28,130.14 385.1,138.83 381.92,144.94 378.75,153.16 375.57,163.97 372.39,150.57 369.22,164.26 366.04,156.8 362.87,158.35 359.69,164.14 356.51,184.17 353.34,182.24 350.16,191.93 346.98,197.55 343.81,193.23 340.63,191.79 337.45,201 334.28,195.7 331.1,211.53 327.92,203.12 324.75,203.15 321.57,203.07 318.39,185.56 315.22,193.72 312.04,189.49 308.87,199.14 305.69,205.4 302.51,209.05 299.34,213.68 296.16,221.92 292.98,225.41 289.81,223.87 286.63,224.95 283.45,236.53 280.28,231.27 277.1,218.91 273.92,227.06 270.75,231.58 267.57,239.54 264.39,242.31 261.22,244.28 258.04,239.08 254.87,238.12 251.69,246.14 248.51,246.12 245.34,251.34 242.16,256.76 238.98,256.99 235.81,257.85 232.63,262.82 229.45,264.13 226.28,264.17 223.1,264.56 219.92,264.45 216.75,264.98 213.57,264.9 210.39,265.31 207.22,265.94 204.04,267.76 200.87,267.29 197.69,272.41 194.51,273.18 191.34,273.26 191.34,272.86 194.51,272.78 197.69,272 200.87,266.88 "
         style="fill:#2b93cd;fill-opacity:0.4;stroke:none;stroke-width:0;stroke-linecap:butt"
         id="polygon12" />
      <polyline
         points="191.34,272.86 194.51,272.78 197.69,272.00 200.87,266.88 204.04,267.35 207.22,265.53 210.39,264.86 213.57,264.45 216.75,264.54 219.92,263.94 223.10,264.05 226.28,263.66 229.45,263.56 232.63,262.25 235.81,257.27 238.98,256.38 242.16,256.15 245.34,250.73 248.51,245.44 251.69,245.32 254.87,237.02 258.04,238.02 261.22,242.93 264.39,241.00 267.57,237.97 270.75,230.15 273.92,225.71 277.10,217.34 280.28,229.82 283.45,235.20 286.63,223.65 289.81,222.41 292.98,223.41 296.16,220.00 299.34,211.56 302.51,206.56 305.69,202.78 308.87,195.61 312.04,186.00 315.22,190.27 318.39,182.68 321.57,199.28 324.75,199.30 327.92,198.93 331.10,207.82 334.28,192.36 337.45,198.58 340.63,188.93 343.81,190.76 346.98,195.06 350.16,189.97 353.34,180.00 356.51,181.99 359.69,161.90 362.87,156.32 366.04,154.79 369.22,162.49 372.39,148.87 375.57,162.57 378.75,151.55 381.92,143.44 385.10,137.34 388.28,128.84 391.45,125.37 394.63,130.14 397.81,110.04 400.98,103.21 404.16,88.84 407.34,90.39 "
         style="stroke:#2b93cd;stroke-width:0.53;stroke-linecap:butt"
         id="polyline13" />
      <polyline
         points="407.34,96.17 404.16,93.94 400.98,106.92 397.81,113.26 394.63,133.13 391.45,126.98 388.28,130.14 385.10,138.83 381.92,144.94 378.75,153.16 375.57,163.97 372.39,150.57 369.22,164.26 366.04,156.80 362.87,158.35 359.69,164.14 356.51,184.17 353.34,182.24 350.16,191.93 346.98,197.55 343.81,193.23 340.63,191.79 337.45,201.00 334.28,195.70 331.10,211.53 327.92,203.12 324.75,203.15 321.57,203.07 318.39,185.56 315.22,193.72 312.04,189.49 308.87,199.14 305.69,205.40 302.51,209.05 299.34,213.68 296.16,221.92 292.98,225.41 289.81,223.87 286.63,224.95 283.45,236.53 280.28,231.27 277.10,218.91 273.92,227.06 270.75,231.58 267.57,239.54 264.39,242.31 261.22,244.28 258.04,239.08 254.87,238.12 251.69,246.14 248.51,246.12 245.34,251.34 242.16,256.76 238.98,256.99 235.81,257.85 232.63,262.82 229.45,264.13 226.28,264.17 223.10,264.56 219.92,264.45 216.75,264.98 213.57,264.90 210.39,265.31 207.22,265.94 204.04,267.76 200.87,267.29 197.69,272.41 194.51,273.18 191.34,273.26 "
         style="stroke:#2b93cd;stroke-width:0.53;stroke-linecap:butt"
         id="polyline14" />
      <polygon
         points="204.04,267.76 207.22,265.94 210.39,265.31 213.57,264.9 216.75,264.98 219.92,264.45 223.1,264.56 226.28,264.17 229.45,264.13 232.63,262.82 235.81,257.85 238.98,256.99 242.16,256.76 245.34,251.34 248.51,246.12 251.69,246.14 254.87,238.12 258.04,239.08 261.22,244.28 264.39,242.31 267.57,239.54 270.75,231.58 273.92,227.06 277.1,218.91 280.28,231.27 283.45,236.53 286.63,224.95 289.81,223.87 292.98,225.41 296.16,221.92 299.34,213.68 302.51,209.05 305.69,205.4 308.87,199.14 312.04,189.49 315.22,193.72 318.39,185.56 321.57,203.07 324.75,203.15 327.92,203.12 331.1,211.53 334.28,195.7 337.45,201 340.63,191.79 343.81,193.23 346.98,197.55 350.16,191.93 353.34,182.24 356.51,184.17 359.69,164.14 362.87,158.35 366.04,156.8 369.22,164.26 372.39,150.57 375.57,163.97 378.75,153.16 381.92,144.94 385.1,138.83 388.28,130.14 391.45,126.98 394.63,133.13 397.81,113.26 400.98,106.92 404.16,93.94 407.34,96.17 407.34,96.39 404.16,94.08 400.98,107.24 397.81,113.49 394.63,133.53 391.45,132.68 388.28,136.47 385.1,144.66 381.92,149.08 378.75,156.12 375.57,166.44 372.39,152.83 369.22,165.27 366.04,157.25 362.87,158.82 359.69,164.85 356.51,185.14 353.34,184.2 350.16,192.55 346.98,198.26 343.81,193.84 340.63,192.37 337.45,201.32 334.28,195.92 331.1,211.65 327.92,203.23 324.75,203.37 321.57,203.35 318.39,185.88 315.22,193.94 312.04,189.7 308.87,199.38 305.69,205.56 302.51,209.21 299.34,213.79 296.16,222.02 292.98,225.49 289.81,223.97 286.63,225.1 283.45,236.65 280.28,231.39 277.1,219.01 273.92,227.17 270.75,231.66 267.57,239.6 264.39,242.37 261.22,244.34 258.04,239.14 254.87,238.18 251.69,246.18 248.51,246.16 245.34,251.38 242.16,256.81 238.98,257.03 235.81,257.87 232.63,262.84 229.45,264.15 226.28,264.19 223.1,264.58 219.92,264.47 216.75,264.98 213.57,264.9 210.39,265.31 207.22,265.94 204.04,267.76 200.87,267.29 197.69,272.41 194.51,273.18 191.34,273.26 194.51,273.18 197.69,272.41 200.87,267.29 "
         style="fill:#40aecb;fill-opacity:0.4;stroke:none;stroke-width:0;stroke-linecap:butt"
         id="polygon14" />
      <polyline
         points="191.34,273.26 194.51,273.18 197.69,272.41 200.87,267.29 204.04,267.76 207.22,265.94 210.39,265.31 213.57,264.90 216.75,264.98 219.92,264.45 223.10,264.56 226.28,264.17 229.45,264.13 232.63,262.82 235.81,257.85 238.98,256.99 242.16,256.76 245.34,251.34 248.51,246.12 251.69,246.14 254.87,238.12 258.04,239.08 261.22,244.28 264.39,242.31 267.57,239.54 270.75,231.58 273.92,227.06 277.10,218.91 280.28,231.27 283.45,236.53 286.63,224.95 289.81,223.87 292.98,225.41 296.16,221.92 299.34,213.68 302.51,209.05 305.69,205.40 308.87,199.14 312.04,189.49 315.22,193.72 318.39,185.56 321.57,203.07 324.75,203.15 327.92,203.12 331.10,211.53 334.28,195.70 337.45,201.00 340.63,191.79 343.81,193.23 346.98,197.55 350.16,191.93 353.34,182.24 356.51,184.17 359.69,164.14 362.87,158.35 366.04,156.80 369.22,164.26 372.39,150.57 375.57,163.97 378.75,153.16 381.92,144.94 385.10,138.83 388.28,130.14 391.45,126.98 394.63,133.13 397.81,113.26 400.98,106.92 404.16,93.94 407.34,96.17 "
         style="stroke:#40aecb;stroke-width:0.53;stroke-linecap:butt"
         id="polyline15" />
      <polyline
         points="407.34,96.39 404.16,94.08 400.98,107.24 397.81,113.49 394.63,133.53 391.45,132.68 388.28,136.47 385.10,144.66 381.92,149.08 378.75,156.12 375.57,166.44 372.39,152.83 369.22,165.27 366.04,157.25 362.87,158.82 359.69,164.85 356.51,185.14 353.34,184.20 350.16,192.55 346.98,198.26 343.81,193.84 340.63,192.37 337.45,201.32 334.28,195.92 331.10,211.65 327.92,203.23 324.75,203.37 321.57,203.35 318.39,185.88 315.22,193.94 312.04,189.70 308.87,199.38 305.69,205.56 302.51,209.21 299.34,213.79 296.16,222.02 292.98,225.49 289.81,223.97 286.63,225.10 283.45,236.65 280.28,231.39 277.10,219.01 273.92,227.17 270.75,231.66 267.57,239.60 264.39,242.37 261.22,244.34 258.04,239.14 254.87,238.18 251.69,246.18 248.51,246.16 245.34,251.38 242.16,256.81 238.98,257.03 235.81,257.87 232.63,262.84 229.45,264.15 226.28,264.19 223.10,264.58 219.92,264.47 216.75,264.98 213.57,264.90 210.39,265.31 207.22,265.94 204.04,267.76 200.87,267.29 197.69,272.41 194.51,273.18 191.34,273.26 "
         style="stroke:#40aecb;stroke-width:0.53;stroke-linecap:butt"
         id="polyline16" />
      <polygon
         points="204.04,267.76 207.22,265.94 210.39,265.31 213.57,264.9 216.75,264.98 219.92,264.47 223.1,264.58 226.28,264.19 229.45,264.15 232.63,262.84 235.81,257.87 238.98,257.03 242.16,256.81 245.34,251.38 248.51,246.16 251.69,246.18 254.87,238.18 258.04,239.14 261.22,244.34 264.39,242.37 267.57,239.6 270.75,231.66 273.92,227.17 277.1,219.01 280.28,231.39 283.45,236.65 286.63,225.1 289.81,223.97 292.98,225.49 296.16,222.02 299.34,213.79 302.51,209.21 305.69,205.56 308.87,199.38 312.04,189.7 315.22,193.94 318.39,185.88 321.57,203.35 324.75,203.37 327.92,203.23 331.1,211.65 334.28,195.92 337.45,201.32 340.63,192.37 343.81,193.84 346.98,198.26 350.16,192.55 353.34,184.2 356.51,185.14 359.69,164.85 362.87,158.82 366.04,157.25 369.22,165.27 372.39,152.83 375.57,166.44 378.75,156.12 381.92,149.08 385.1,144.66 388.28,136.47 391.45,132.68 394.63,133.53 397.81,113.49 400.98,107.24 404.16,94.08 407.34,96.39 407.34,163.35 404.16,161.3 400.98,168.37 397.81,171.97 394.63,185.13 391.45,177.98 388.28,179.44 385.1,184.49 381.92,182.24 378.75,186.88 375.57,191.25 372.39,171.72 369.22,184.42 366.04,174.38 362.87,177.3 359.69,182.77 356.51,192.93 353.34,191.66 350.16,201.02 346.98,206.01 343.81,201.08 340.63,200.88 337.45,209.11 334.28,201.5 331.1,216.47 327.92,207.98 324.75,208.35 321.57,209.34 318.39,192.24 315.22,200.1 312.04,196.92 308.87,207.5 305.69,214.27 302.51,216.61 299.34,220.92 296.16,230.37 292.98,233.28 289.81,232.26 286.63,232 283.45,242.49 280.28,236.68 277.1,224.5 273.92,232.86 270.75,236.86 267.57,245.44 264.39,247.73 261.22,249.01 258.04,243.81 254.87,242.28 251.69,250.05 248.51,249.77 245.34,254.85 242.16,260.33 238.98,260.33 235.81,260.7 232.63,265.6 229.45,266.76 226.28,266.8 223.1,267.31 219.92,267.27 216.75,267.66 213.57,267.45 210.39,267.41 207.22,268.04 204.04,269.43 200.87,268.98 197.69,274.14 194.51,274.96 191.34,274.96 191.34,273.26 194.51,273.18 197.69,272.41 200.87,267.29 "
         style="fill:#009e73;fill-opacity:0.4;stroke:none;stroke-width:0;stroke-linecap:butt"
         id="polygon16" />
      <polyline
         points="191.34,273.26 194.51,273.18 197.69,272.41 200.87,267.29 204.04,267.76 207.22,265.94 210.39,265.31 213.57,264.90 216.75,264.98 219.92,264.47 223.10,264.58 226.28,264.19 229.45,264.15 232.63,262.84 235.81,257.87 238.98,257.03 242.16,256.81 245.34,251.38 248.51,246.16 251.69,246.18 254.87,238.18 258.04,239.14 261.22,244.34 264.39,242.37 267.57,239.60 270.75,231.66 273.92,227.17 277.10,219.01 280.28,231.39 283.45,236.65 286.63,225.10 289.81,223.97 292.98,225.49 296.16,222.02 299.34,213.79 302.51,209.21 305.69,205.56 308.87,199.38 312.04,189.70 315.22,193.94 318.39,185.88 321.57,203.35 324.75,203.37 327.92,203.23 331.10,211.65 334.28,195.92 337.45,201.32 340.63,192.37 343.81,193.84 346.98,198.26 350.16,192.55 353.34,184.20 356.51,185.14 359.69,164.85 362.87,158.82 366.04,157.25 369.22,165.27 372.39,152.83 375.57,166.44 378.75,156.12 381.92,149.08 385.10,144.66 388.28,136.47 391.45,132.68 394.63,133.53 397.81,113.49 400.98,107.24 404.16,94.08 407.34,96.39 "
         style="stroke:#009e73;stroke-width:0.53;stroke-linecap:butt"
         id="polyline17" />
      <polyline
         points="407.34,163.35 404.16,161.30 400.98,168.37 397.81,171.97 394.63,185.13 391.45,177.98 388.28,179.44 385.10,184.49 381.92,182.24 378.75,186.88 375.57,191.25 372.39,171.72 369.22,184.42 366.04,174.38 362.87,177.30 359.69,182.77 356.51,192.93 353.34,191.66 350.16,201.02 346.98,206.01 343.81,201.08 340.63,200.88 337.45,209.11 334.28,201.50 331.10,216.47 327.92,207.98 324.75,208.35 321.57,209.34 318.39,192.24 315.22,200.10 312.04,196.92 308.87,207.50 305.69,214.27 302.51,216.61 299.34,220.92 296.16,230.37 292.98,233.28 289.81,232.26 286.63,232.00 283.45,242.49 280.28,236.68 277.10,224.50 273.92,232.86 270.75,236.86 267.57,245.44 264.39,247.73 261.22,249.01 258.04,243.81 254.87,242.28 251.69,250.05 248.51,249.77 245.34,254.85 242.16,260.33 238.98,260.33 235.81,260.70 232.63,265.60 229.45,266.76 226.28,266.80 223.10,267.31 219.92,267.27 216.75,267.66 213.57,267.45 210.39,267.41 207.22,268.04 204.04,269.43 200.87,268.98 197.69,274.14 194.51,274.96 191.34,274.96 "
         style="stroke:#009e73;stroke-width:0.53;stroke-linecap:butt"
         id="polyline18" />
      <polygon
         points="204.04,269.43 207.22,268.04 210.39,267.41 213.57,267.45 216.75,267.66 219.92,267.27 223.1,267.31 226.28,266.8 229.45,266.76 232.63,265.6 235.81,260.7 238.98,260.33 242.16,260.33 245.34,254.85 248.51,249.77 251.69,250.05 254.87,242.28 258.04,243.81 261.22,249.01 264.39,247.73 267.57,245.44 270.75,236.86 273.92,232.86 277.1,224.5 280.28,236.68 283.45,242.49 286.63,232 289.81,232.26 292.98,233.28 296.16,230.37 299.34,220.92 302.51,216.61 305.69,214.27 308.87,207.5 312.04,196.92 315.22,200.1 318.39,192.24 321.57,209.34 324.75,208.35 327.92,207.98 331.1,216.47 334.28,201.5 337.45,209.11 340.63,200.88 343.81,201.08 346.98,206.01 350.16,201.02 353.34,191.66 356.51,192.93 359.69,182.77 362.87,177.3 366.04,174.38 369.22,184.42 372.39,171.72 375.57,191.25 378.75,186.88 381.92,182.24 385.1,184.49 388.28,179.44 391.45,177.98 394.63,185.13 397.81,171.97 400.98,168.37 404.16,161.3 407.34,163.35 407.34,193.05 404.16,190.42 400.98,194.3 397.81,193.38 394.63,200.45 391.45,193.09 388.28,193.45 385.1,199.89 381.92,200.01 378.75,203.42 375.57,205.37 372.39,185.08 369.22,203.33 366.04,196.54 362.87,197.83 359.69,200.32 356.51,205.86 353.34,202.59 350.16,207.7 346.98,212.99 343.81,205.95 340.63,203.74 337.45,210.07 334.28,202.32 331.1,217.39 327.92,209.04 324.75,209.7 321.57,211 318.39,193.35 315.22,201 312.04,197.81 308.87,208.29 305.69,215.19 302.51,217.45 299.34,221.68 296.16,231.18 292.98,234.1 289.81,233.33 286.63,232.96 283.45,243.5 280.28,237.78 277.1,225.44 273.92,233.67 270.75,237.67 267.57,246.16 264.39,248.34 261.22,249.62 258.04,244.42 254.87,242.89 251.69,250.56 248.51,250.28 245.34,255.36 242.16,260.84 238.98,260.74 235.81,261.11 232.63,266 229.45,267.17 226.28,267.21 223.1,267.68 219.92,267.64 216.75,268.02 213.57,267.82 210.39,267.72 207.22,268.35 204.04,269.74 200.87,269.29 197.69,274.35 194.51,275.16 191.34,275.16 191.34,274.96 194.51,274.96 197.69,274.14 200.87,268.98 "
         style="fill:#b7bc28;fill-opacity:0.4;stroke:none;stroke-width:0;stroke-linecap:butt"
         id="polygon18" />
      <polyline
         points="191.34,274.96 194.51,274.96 197.69,274.14 200.87,268.98 204.04,269.43 207.22,268.04 210.39,267.41 213.57,267.45 216.75,267.66 219.92,267.27 223.10,267.31 226.28,266.80 229.45,266.76 232.63,265.60 235.81,260.70 238.98,260.33 242.16,260.33 245.34,254.85 248.51,249.77 251.69,250.05 254.87,242.28 258.04,243.81 261.22,249.01 264.39,247.73 267.57,245.44 270.75,236.86 273.92,232.86 277.10,224.50 280.28,236.68 283.45,242.49 286.63,232.00 289.81,232.26 292.98,233.28 296.16,230.37 299.34,220.92 302.51,216.61 305.69,214.27 308.87,207.50 312.04,196.92 315.22,200.10 318.39,192.24 321.57,209.34 324.75,208.35 327.92,207.98 331.10,216.47 334.28,201.50 337.45,209.11 340.63,200.88 343.81,201.08 346.98,206.01 350.16,201.02 353.34,191.66 356.51,192.93 359.69,182.77 362.87,177.30 366.04,174.38 369.22,184.42 372.39,171.72 375.57,191.25 378.75,186.88 381.92,182.24 385.10,184.49 388.28,179.44 391.45,177.98 394.63,185.13 397.81,171.97 400.98,168.37 404.16,161.30 407.34,163.35 "
         style="stroke:#b7bc28;stroke-width:0.53;stroke-linecap:butt"
         id="polyline19" />
      <polyline
         points="407.34,193.05 404.16,190.42 400.98,194.30 397.81,193.38 394.63,200.45 391.45,193.09 388.28,193.45 385.10,199.89 381.92,200.01 378.75,203.42 375.57,205.37 372.39,185.08 369.22,203.33 366.04,196.54 362.87,197.83 359.69,200.32 356.51,205.86 353.34,202.59 350.16,207.70 346.98,212.99 343.81,205.95 340.63,203.74 337.45,210.07 334.28,202.32 331.10,217.39 327.92,209.04 324.75,209.70 321.57,211.00 318.39,193.35 315.22,201.00 312.04,197.81 308.87,208.29 305.69,215.19 302.51,217.45 299.34,221.68 296.16,231.18 292.98,234.10 289.81,233.33 286.63,232.96 283.45,243.50 280.28,237.78 277.10,225.44 273.92,233.67 270.75,237.67 267.57,246.16 264.39,248.34 261.22,249.62 258.04,244.42 254.87,242.89 251.69,250.56 248.51,250.28 245.34,255.36 242.16,260.84 238.98,260.74 235.81,261.11 232.63,266.00 229.45,267.17 226.28,267.21 223.10,267.68 219.92,267.64 216.75,268.02 213.57,267.82 210.39,267.72 207.22,268.35 204.04,269.74 200.87,269.29 197.69,274.35 194.51,275.16 191.34,275.16 "
         style="stroke:#b7bc28;stroke-width:0.53;stroke-linecap:butt"
         id="polyline20" />
      <polygon
         points="204.04,269.74 207.22,268.35 210.39,267.72 213.57,267.82 216.75,268.02 219.92,267.64 223.1,267.68 226.28,267.21 229.45,267.17 232.63,266 235.81,261.11 238.98,260.74 242.16,260.84 245.34,255.36 248.51,250.28 251.69,250.56 254.87,242.89 258.04,244.42 261.22,249.62 264.39,248.34 267.57,246.16 270.75,237.67 273.92,233.67 277.1,225.44 280.28,237.78 283.45,243.5 286.63,232.96 289.81,233.33 292.98,234.1 296.16,231.18 299.34,221.68 302.51,217.45 305.69,215.19 308.87,208.29 312.04,197.81 315.22,201 318.39,193.35 321.57,211 324.75,209.7 327.92,209.04 331.1,217.39 334.28,202.32 337.45,210.07 340.63,203.74 343.81,205.95 346.98,212.99 350.16,207.7 353.34,202.59 356.51,205.86 359.69,200.32 362.87,197.83 366.04,196.54 369.22,203.33 372.39,185.08 375.57,205.37 378.75,203.42 381.92,200.01 385.1,199.89 388.28,193.45 391.45,193.09 394.63,200.45 397.81,193.38 400.98,194.3 404.16,190.42 407.34,193.05 407.34,199.17 404.16,196.54 400.98,200.42 397.81,199.5 394.63,206.57 391.45,199.21 388.28,199.57 385.1,206.01 381.92,206.13 378.75,209.54 375.57,211.49 372.39,191.2 369.22,209.45 366.04,201.64 362.87,203.95 359.69,206.44 356.51,211.77 353.34,209.09 350.16,212.63 346.98,218.84 343.81,211.21 340.63,209.46 337.45,216.23 334.28,208.92 331.1,223.47 327.92,214.7 324.75,214.96 321.57,215.85 318.39,197.98 315.22,205.39 312.04,201.95 308.87,212.37 305.69,219 302.51,220.87 299.34,225.74 296.16,233.52 292.98,235.95 289.81,235.33 286.63,235.88 283.45,245.74 280.28,239.49 277.1,227.45 273.92,235.36 270.75,239.78 267.57,247.38 264.39,249.55 261.22,250.8 258.04,245.59 254.87,244.03 251.69,251.58 248.51,251.3 245.34,256.32 242.16,261.78 238.98,261.68 235.81,262.03 232.63,266.92 229.45,268.08 226.28,268.12 223.1,268.59 219.92,268.66 216.75,269.65 213.57,269.65 210.39,269.76 207.22,270.29 204.04,270.82 200.87,270.8 197.69,275.77 194.51,276.39 191.34,276.39 191.34,275.16 194.51,275.16 197.69,274.35 200.87,269.29 "
         style="fill:#edb307;fill-opacity:0.4;stroke:none;stroke-width:0;stroke-linecap:butt"
         id="polygon20" />
      <polyline
         points="191.34,275.16 194.51,275.16 197.69,274.35 200.87,269.29 204.04,269.74 207.22,268.35 210.39,267.72 213.57,267.82 216.75,268.02 219.92,267.64 223.10,267.68 226.28,267.21 229.45,267.17 232.63,266.00 235.81,261.11 238.98,260.74 242.16,260.84 245.34,255.36 248.51,250.28 251.69,250.56 254.87,242.89 258.04,244.42 261.22,249.62 264.39,248.34 267.57,246.16 270.75,237.67 273.92,233.67 277.10,225.44 280.28,237.78 283.45,243.50 286.63,232.96 289.81,233.33 292.98,234.10 296.16,231.18 299.34,221.68 302.51,217.45 305.69,215.19 308.87,208.29 312.04,197.81 315.22,201.00 318.39,193.35 321.57,211.00 324.75,209.70 327.92,209.04 331.10,217.39 334.28,202.32 337.45,210.07 340.63,203.74 343.81,205.95 346.98,212.99 350.16,207.70 353.34,202.59 356.51,205.86 359.69,200.32 362.87,197.83 366.04,196.54 369.22,203.33 372.39,185.08 375.57,205.37 378.75,203.42 381.92,200.01 385.10,199.89 388.28,193.45 391.45,193.09 394.63,200.45 397.81,193.38 400.98,194.30 404.16,190.42 407.34,193.05 "
         style="stroke:#edb307;stroke-width:0.53;stroke-linecap:butt"
         id="polyline21" />
      <polyline
         points="407.34,199.17 404.16,196.54 400.98,200.42 397.81,199.50 394.63,206.57 391.45,199.21 388.28,199.57 385.10,206.01 381.92,206.13 378.75,209.54 375.57,211.49 372.39,191.20 369.22,209.45 366.04,201.64 362.87,203.95 359.69,206.44 356.51,211.77 353.34,209.09 350.16,212.63 346.98,218.84 343.81,211.21 340.63,209.46 337.45,216.23 334.28,208.92 331.10,223.47 327.92,214.70 324.75,214.96 321.57,215.85 318.39,197.98 315.22,205.39 312.04,201.95 308.87,212.37 305.69,219.00 302.51,220.87 299.34,225.74 296.16,233.52 292.98,235.95 289.81,235.33 286.63,235.88 283.45,245.74 280.28,239.49 277.10,227.45 273.92,235.36 270.75,239.78 267.57,247.38 264.39,249.55 261.22,250.80 258.04,245.59 254.87,244.03 251.69,251.58 248.51,251.30 245.34,256.32 242.16,261.78 238.98,261.68 235.81,262.03 232.63,266.92 229.45,268.08 226.28,268.12 223.10,268.59 219.92,268.66 216.75,269.65 213.57,269.65 210.39,269.76 207.22,270.29 204.04,270.82 200.87,270.80 197.69,275.77 194.51,276.39 191.34,276.39 "
         style="stroke:#edb307;stroke-width:0.53;stroke-linecap:butt"
         id="polyline22" />
      <polygon
         points="204.04,270.82 207.22,270.29 210.39,269.76 213.57,269.65 216.75,269.65 219.92,268.66 223.1,268.59 226.28,268.12 229.45,268.08 232.63,266.92 235.81,262.03 238.98,261.68 242.16,261.78 245.34,256.32 248.51,251.3 251.69,251.58 254.87,244.03 258.04,245.59 261.22,250.8 264.39,249.55 267.57,247.38 270.75,239.78 273.92,235.36 277.1,227.45 280.28,239.49 283.45,245.74 286.63,235.88 289.81,235.33 292.98,235.95 296.16,233.52 299.34,225.74 302.51,220.87 305.69,219 308.87,212.37 312.04,201.95 315.22,205.39 318.39,197.98 321.57,215.85 324.75,214.96 327.92,214.7 331.1,223.47 334.28,208.92 337.45,216.23 340.63,209.46 343.81,211.21 346.98,218.84 350.16,212.63 353.34,209.09 356.51,211.77 359.69,206.44 362.87,203.95 366.04,201.64 369.22,209.45 372.39,191.2 375.57,211.49 378.75,209.54 381.92,206.13 385.1,206.01 388.28,199.57 391.45,199.21 394.63,206.57 397.81,199.5 400.98,200.42 404.16,196.54 407.34,199.17 407.34,275.81 404.16,275.88 400.98,276.12 397.81,276.08 394.63,276.33 391.45,276.77 388.28,276.95 385.1,277.17 381.92,277.79 378.75,277.85 375.57,278.03 372.39,278.22 369.22,278.05 366.04,278.3 362.87,278.24 359.69,278.78 356.51,278.89 353.34,278.84 350.16,279.38 346.98,283.03 343.81,283.03 340.63,283.03 337.45,283.03 334.28,283.03 331.1,283.03 327.92,283.03 324.75,283.03 321.57,283.03 318.39,283.03 315.22,283.03 312.04,283.03 308.87,283.03 305.69,283.03 302.51,283.03 299.34,283.03 296.16,283.03 292.98,283.03 289.81,283.03 286.63,283.03 283.45,283.03 280.28,283.03 277.1,283.03 273.92,283.03 270.75,283.03 267.57,283.03 264.39,283.03 261.22,283.03 258.04,283.03 254.87,283.03 251.69,283.03 248.51,283.03 245.34,283.03 242.16,283.03 238.98,283.03 235.81,283.03 232.63,283.03 229.45,283.03 226.28,283.03 223.1,283.03 219.92,283.03 216.75,283.03 213.57,283.03 210.39,283.03 207.22,283.03 204.04,283.03 200.87,283.03 197.69,283.03 194.51,283.03 191.34,283.03 191.34,276.39 194.51,276.39 197.69,275.77 200.87,270.8 "
         style="fill:#e18e00;fill-opacity:0.4;stroke:none;stroke-width:0;stroke-linecap:butt"
         id="polygon22" />
      <polyline
         points="191.34,276.39 194.51,276.39 197.69,275.77 200.87,270.80 204.04,270.82 207.22,270.29 210.39,269.76 213.57,269.65 216.75,269.65 219.92,268.66 223.10,268.59 226.28,268.12 229.45,268.08 232.63,266.92 235.81,262.03 238.98,261.68 242.16,261.78 245.34,256.32 248.51,251.30 251.69,251.58 254.87,244.03 258.04,245.59 261.22,250.80 264.39,249.55 267.57,247.38 270.75,239.78 273.92,235.36 277.10,227.45 280.28,239.49 283.45,245.74 286.63,235.88 289.81,235.33 292.98,235.95 296.16,233.52 299.34,225.74 302.51,220.87 305.69,219.00 308.87,212.37 312.04,201.95 315.22,205.39 318.39,197.98 321.57,215.85 324.75,214.96 327.92,214.70 331.10,223.47 334.28,208.92 337.45,216.23 340.63,209.46 343.81,211.21 346.98,218.84 350.16,212.63 353.34,209.09 356.51,211.77 359.69,206.44 362.87,203.95 366.04,201.64 369.22,209.45 372.39,191.20 375.57,211.49 378.75,209.54 381.92,206.13 385.10,206.01 388.28,199.57 391.45,199.21 394.63,206.57 397.81,199.50 400.98,200.42 404.16,196.54 407.34,199.17 "
         style="stroke:#e18e00;stroke-width:0.53;stroke-linecap:butt"
         id="polyline23" />
      <polyline
         points="407.34,275.81 404.16,275.88 400.98,276.12 397.81,276.08 394.63,276.33 391.45,276.77 388.28,276.95 385.10,277.17 381.92,277.79 378.75,277.85 375.57,278.03 372.39,278.22 369.22,278.05 366.04,278.30 362.87,278.24 359.69,278.78 356.51,278.89 353.34,278.84 350.16,279.38 346.98,283.03 343.81,283.03 340.63,283.03 337.45,283.03 334.28,283.03 331.10,283.03 327.92,283.03 324.75,283.03 321.57,283.03 318.39,283.03 315.22,283.03 312.04,283.03 308.87,283.03 305.69,283.03 302.51,283.03 299.34,283.03 296.16,283.03 292.98,283.03 289.81,283.03 286.63,283.03 283.45,283.03 280.28,283.03 277.10,283.03 273.92,283.03 270.75,283.03 267.57,283.03 264.39,283.03 261.22,283.03 258.04,283.03 254.87,283.03 251.69,283.03 248.51,283.03 245.34,283.03 242.16,283.03 238.98,283.03 235.81,283.03 232.63,283.03 229.45,283.03 226.28,283.03 223.10,283.03 219.92,283.03 216.75,283.03 213.57,283.03 210.39,283.03 207.22,283.03 204.04,283.03 200.87,283.03 197.69,283.03 194.51,283.03 191.34,283.03 "
         style="stroke:#e18e00;stroke-width:0.53;stroke-linecap:butt"
         id="polyline24" />
      <polygon
         points="204.04,283.03 207.22,283.03 210.39,283.03 213.57,283.03 216.75,283.03 219.92,283.03 223.1,283.03 226.28,283.03 229.45,283.03 232.63,283.03 235.81,283.03 238.98,283.03 242.16,283.03 245.34,283.03 248.51,283.03 251.69,283.03 254.87,283.03 258.04,283.03 261.22,283.03 264.39,283.03 267.57,283.03 270.75,283.03 273.92,283.03 277.1,283.03 280.28,283.03 283.45,283.03 286.63,283.03 289.81,283.03 292.98,283.03 296.16,283.03 299.34,283.03 302.51,283.03 305.69,283.03 308.87,283.03 312.04,283.03 315.22,283.03 318.39,283.03 321.57,283.03 324.75,283.03 327.92,283.03 331.1,283.03 334.28,283.03 337.45,283.03 340.63,283.03 343.81,283.03 346.98,283.03 350.16,279.38 353.34,278.84 356.51,278.89 359.69,278.78 362.87,278.24 366.04,278.3 369.22,278.05 372.39,278.22 375.57,278.03 378.75,277.85 381.92,277.79 385.1,277.17 388.28,276.95 391.45,276.77 394.63,276.33 397.81,276.08 400.98,276.12 404.16,275.88 407.34,275.81 407.34,283.03 404.16,283.03 400.98,283.03 397.81,283.03 394.63,283.03 391.45,283.03 388.28,283.03 385.1,283.03 381.92,283.03 378.75,283.03 375.57,283.03 372.39,283.03 369.22,283.03 366.04,283.03 362.87,283.03 359.69,283.03 356.51,283.03 353.34,283.03 350.16,283.03 346.98,283.03 343.81,283.03 340.63,283.03 337.45,283.03 334.28,283.03 331.1,283.03 327.92,283.03 324.75,283.03 321.57,283.03 318.39,283.03 315.22,283.03 312.04,283.03 308.87,283.03 305.69,283.03 302.51,283.03 299.34,283.03 296.16,283.03 292.98,283.03 289.81,283.03 286.63,283.03 283.45,283.03 280.28,283.03 277.1,283.03 273.92,283.03 270.75,283.03 267.57,283.03 264.39,283.03 261.22,283.03 258.04,283.03 254.87,283.03 251.69,283.03 248.51,283.03 245.34,283.03 242.16,283.03 238.98,283.03 235.81,283.03 232.63,283.03 229.45,283.03 226.28,283.03 223.1,283.03 219.92,283.03 216.75,283.03 213.57,283.03 210.39,283.03 207.22,283.03 204.04,283.03 200.87,283.03 197.69,283.03 194.51,283.03 191.34,283.03 194.51,283.03 197.69,283.03 200.87,283.03 "
         style="fill:#d55e00;fill-opacity:0.4;stroke:none;stroke-width:0;stroke-linecap:butt"
         id="polygon24" />
      <polyline
         points="191.34,283.03 194.51,283.03 197.69,283.03 200.87,283.03 204.04,283.03 207.22,283.03 210.39,283.03 213.57,283.03 216.75,283.03 219.92,283.03 223.10,283.03 226.28,283.03 229.45,283.03 232.63,283.03 235.81,283.03 238.98,283.03 242.16,283.03 245.34,283.03 248.51,283.03 251.69,283.03 254.87,283.03 258.04,283.03 261.22,283.03 264.39,283.03 267.57,283.03 270.75,283.03 273.92,283.03 277.10,283.03 280.28,283.03 283.45,283.03 286.63,283.03 289.81,283.03 292.98,283.03 296.16,283.03 299.34,283.03 302.51,283.03 305.69,283.03 308.87,283.03 312.04,283.03 315.22,283.03 318.39,283.03 321.57,283.03 324.75,283.03 327.92,283.03 331.10,283.03 334.28,283.03 337.45,283.03 340.63,283.03 343.81,283.03 346.98,283.03 350.16,279.38 353.34,278.84 356.51,278.89 359.69,278.78 362.87,278.24 366.04,278.30 369.22,278.05 372.39,278.22 375.57,278.03 378.75,277.85 381.92,277.79 385.10,277.17 388.28,276.95 391.45,276.77 394.63,276.33 397.81,276.08 400.98,276.12 404.16,275.88 407.34,275.81 "
         style="stroke:#d55e00;stroke-width:0.53;stroke-linecap:butt"
         id="polyline25" />
      <polyline
         points="407.34,283.03 404.16,283.03 400.98,283.03 397.81,283.03 394.63,283.03 391.45,283.03 388.28,283.03 385.10,283.03 381.92,283.03 378.75,283.03 375.57,283.03 372.39,283.03 369.22,283.03 366.04,283.03 362.87,283.03 359.69,283.03 356.51,283.03 353.34,283.03 350.16,283.03 346.98,283.03 343.81,283.03 340.63,283.03 337.45,283.03 334.28,283.03 331.10,283.03 327.92,283.03 324.75,283.03 321.57,283.03 318.39,283.03 315.22,283.03 312.04,283.03 308.87,283.03 305.69,283.03 302.51,283.03 299.34,283.03 296.16,283.03 292.98,283.03 289.81,283.03 286.63,283.03 283.45,283.03 280.28,283.03 277.10,283.03 273.92,283.03 270.75,283.03 267.57,283.03 264.39,283.03 261.22,283.03 258.04,283.03 254.87,283.03 251.69,283.03 248.51,283.03 245.34,283.03 242.16,283.03 238.98,283.03 235.81,283.03 232.63,283.03 229.45,283.03 226.28,283.03 223.10,283.03 219.92,283.03 216.75,283.03 213.57,283.03 210.39,283.03 207.22,283.03 204.04,283.03 200.87,283.03 197.69,283.03 194.51,283.03 191.34,283.03 "
         style="stroke:#d55e00;stroke-width:0.53;stroke-linecap:butt"
         id="polyline26" />
    </g>
    <g
       clip-path="url(#cpMC4wMHw1MzIuMDB8MC4wMHwzMjkuMDA=)"
       id="g80">
      <polyline
         points="191.34,283.03 191.34,31.03 "
         style="stroke-width:0.53;stroke-linecap:butt"
         id="polyline27" />
      <text
         x="186.39999"
         y="286.97"
         text-anchor="end"
         style="font-size:11px;font-family:Arial"
         textLength="6.1199999"
         lengthAdjust="spacingAndGlyphs"
         id="text27">0</text>
      <text
         x="186.39999"
         y="246.17999"
         text-anchor="end"
         style="font-size:11px;font-family:Arial"
         textLength="39.810001"
         lengthAdjust="spacingAndGlyphs"
         id="text28">200,000</text>
      <text
         x="186.39999"
         y="205.39"
         text-anchor="end"
         style="font-size:11px;font-family:Arial"
         textLength="39.810001"
         lengthAdjust="spacingAndGlyphs"
         id="text29">400,000</text>
      <text
         x="186.39999"
         y="164.60001"
         text-anchor="end"
         style="font-size:11px;font-family:Arial"
         textLength="39.810001"
         lengthAdjust="spacingAndGlyphs"
         id="text30">600,000</text>
      <text
         x="186.39999"
         y="123.81"
         text-anchor="end"
         style="font-size:11px;font-family:Arial"
         textLength="39.810001"
         lengthAdjust="spacingAndGlyphs"
         id="text31">800,000</text>
      <text
         x="186.39999"
         y="83.010002"
         text-anchor="end"
         style="font-size:11px;font-family:Arial"
         textLength="49"
         lengthAdjust="spacingAndGlyphs"
         id="text32">1,000,000</text>
      <text
         x="186.39999"
         y="42.220001"
         text-anchor="end"
         style="font-size:11px;font-family:Arial"
         textLength="49"
         lengthAdjust="spacingAndGlyphs"
         id="text33">1,200,000</text>
      <polyline
         points="188.60,283.03 191.34,283.03 "
         style="stroke-width:0.53;stroke-linecap:butt"
         id="polyline33" />
      <polyline
         points="188.60,242.24 191.34,242.24 "
         style="stroke-width:0.53;stroke-linecap:butt"
         id="polyline34" />
      <polyline
         points="188.60,201.45 191.34,201.45 "
         style="stroke-width:0.53;stroke-linecap:butt"
         id="polyline35" />
      <polyline
         points="188.60,160.66 191.34,160.66 "
         style="stroke-width:0.53;stroke-linecap:butt"
         id="polyline36" />
      <polyline
         points="188.60,119.87 191.34,119.87 "
         style="stroke-width:0.53;stroke-linecap:butt"
         id="polyline37" />
      <polyline
         points="188.60,79.08 191.34,79.08 "
         style="stroke-width:0.53;stroke-linecap:butt"
         id="polyline38" />
      <polyline
         points="188.60,38.28 191.34,38.28 "
         style="stroke-width:0.53;stroke-linecap:butt"
         id="polyline39" />
      <polyline
         points="191.34,283.03 407.34,283.03 "
         style="stroke-width:0.53;stroke-linecap:butt"
         id="polyline40" />
      <polyline
         points="191.34,285.77 191.34,283.03 "
         style="stroke-width:0.53;stroke-linecap:butt"
         id="polyline41" />
      <polyline
         points="223.10,285.77 223.10,283.03 "
         style="stroke-width:0.53;stroke-linecap:butt"
         id="polyline42" />
      <polyline
         points="254.87,285.77 254.87,283.03 "
         style="stroke-width:0.53;stroke-linecap:butt"
         id="polyline43" />
      <polyline
         points="286.63,285.77 286.63,283.03 "
         style="stroke-width:0.53;stroke-linecap:butt"
         id="polyline44" />
      <polyline
         points="318.39,285.77 318.39,283.03 "
         style="stroke-width:0.53;stroke-linecap:butt"
         id="polyline45" />
      <polyline
         points="350.16,285.77 350.16,283.03 "
         style="stroke-width:0.53;stroke-linecap:butt"
         id="polyline46" />
      <polyline
         points="381.92,285.77 381.92,283.03 "
         style="stroke-width:0.53;stroke-linecap:butt"
         id="polyline47" />
      <text
         x="191.34"
         y="295.84"
         text-anchor="middle"
         style="font-size:11px;font-family:Arial"
         textLength="24.5"
         lengthAdjust="spacingAndGlyphs"
         id="text47">1950</text>
      <text
         x="223.10001"
         y="295.84"
         text-anchor="middle"
         style="font-size:11px;font-family:Arial"
         textLength="24.5"
         lengthAdjust="spacingAndGlyphs"
         id="text48">1960</text>
      <text
         x="254.87"
         y="295.84"
         text-anchor="middle"
         style="font-size:11px;font-family:Arial"
         textLength="24.5"
         lengthAdjust="spacingAndGlyphs"
         id="text49">1970</text>
      <text
         x="286.63"
         y="295.84"
         text-anchor="middle"
         style="font-size:11px;font-family:Arial"
         textLength="24.5"
         lengthAdjust="spacingAndGlyphs"
         id="text50">1980</text>
      <text
         x="318.39001"
         y="295.84"
         text-anchor="middle"
         style="font-size:11px;font-family:Arial"
         textLength="24.5"
         lengthAdjust="spacingAndGlyphs"
         id="text51">1990</text>
      <text
         x="350.16"
         y="295.84"
         text-anchor="middle"
         style="font-size:11px;font-family:Arial"
         textLength="24.5"
         lengthAdjust="spacingAndGlyphs"
         id="text52">2000</text>
      <text
         x="381.92001"
         y="295.84"
         text-anchor="middle"
         style="font-size:11px;font-family:Arial"
         textLength="24.5"
         lengthAdjust="spacingAndGlyphs"
         id="text53">2010</text>
      <text
         transform="rotate(-90,144.785,12.245)"
         text-anchor="middle"
         style="font-size:11px;font-family:Arial"
         textLength="107.06"
         lengthAdjust="spacingAndGlyphs"
         id="text54">Quantity Landed (MT)</text>
      <rect
         x="199.95"
         y="17.190001"
         width="90.779999"
         height="128.49001"
         style="stroke:none;stroke-width:1.07"
         id="rect54" />
      <text
         x="205.42999"
         y="31.610001"
         style="font-size:11px;font-family:Arial"
         textLength="38.529999"
         lengthAdjust="spacingAndGlyphs"
         id="text55">Country</text>
      <rect
         x="205.42999"
         y="38.150002"
         width="11.34"
         height="11.34"
         style="stroke:none;stroke-width:1.07"
         id="rect55" />
      <rect
         x="205.78"
         y="38.5"
         width="10.63"
         height="10.63"
         style="fill:#cc79a7;fill-opacity:0.4;stroke:#cc79a7;stroke-width:0.53;stroke-linecap:butt;stroke-linejoin:miter"
         id="rect56" />
      <rect
         x="205.42999"
         y="49.490002"
         width="11.34"
         height="11.34"
         style="stroke:none;stroke-width:1.07"
         id="rect57" />
      <rect
         x="205.78"
         y="49.84"
         width="10.63"
         height="10.63"
         style="fill:#3273af;fill-opacity:0.4;stroke:#3273af;stroke-width:0.53;stroke-linecap:butt;stroke-linejoin:miter"
         id="rect58" />
      <rect
         x="205.42999"
         y="60.830002"
         width="11.34"
         height="11.34"
         style="stroke:none;stroke-width:1.07"
         id="rect59" />
      <rect
         x="205.78"
         y="61.18"
         width="10.63"
         height="10.63"
         style="fill:#2b93cd;fill-opacity:0.4;stroke:#2b93cd;stroke-width:0.53;stroke-linecap:butt;stroke-linejoin:miter"
         id="rect60" />
      <rect
         x="205.42999"
         y="72.169998"
         width="11.34"
         height="11.34"
         style="stroke:none;stroke-width:1.07"
         id="rect61" />
      <rect
         x="205.78"
         y="72.519997"
         width="10.63"
         height="10.63"
         style="fill:#40aecb;fill-opacity:0.4;stroke:#40aecb;stroke-width:0.53;stroke-linecap:butt;stroke-linejoin:miter"
         id="rect62" />
      <rect
         x="205.42999"
         y="83.5"
         width="11.34"
         height="11.34"
         style="stroke:none;stroke-width:1.07"
         id="rect63" />
      <rect
         x="205.78"
         y="83.860001"
         width="10.63"
         height="10.63"
         style="fill:#009e73;fill-opacity:0.4;stroke:#009e73;stroke-width:0.53;stroke-linecap:butt;stroke-linejoin:miter"
         id="rect64" />
      <rect
         x="205.42999"
         y="94.839996"
         width="11.34"
         height="11.34"
         style="stroke:none;stroke-width:1.07"
         id="rect65" />
      <rect
         x="205.78"
         y="95.199997"
         width="10.63"
         height="10.63"
         style="fill:#b7bc28;fill-opacity:0.4;stroke:#b7bc28;stroke-width:0.53;stroke-linecap:butt;stroke-linejoin:miter"
         id="rect66" />
      <rect
         x="205.42999"
         y="106.18"
         width="11.34"
         height="11.34"
         style="stroke:none;stroke-width:1.07"
         id="rect67" />
      <rect
         x="205.78"
         y="106.54"
         width="10.63"
         height="10.63"
         style="fill:#edb307;fill-opacity:0.4;stroke:#edb307;stroke-width:0.53;stroke-linecap:butt;stroke-linejoin:miter"
         id="rect68" />
      <rect
         x="205.42999"
         y="117.52"
         width="11.34"
         height="11.34"
         style="stroke:none;stroke-width:1.07"
         id="rect69" />
      <rect
         x="205.78"
         y="117.87"
         width="10.63"
         height="10.63"
         style="fill:#e18e00;fill-opacity:0.4;stroke:#e18e00;stroke-width:0.53;stroke-linecap:butt;stroke-linejoin:miter"
         id="rect70" />
      <rect
         x="205.42999"
         y="128.86"
         width="11.34"
         height="11.34"
         style="stroke:none;stroke-width:1.07"
         id="rect71" />
      <rect
         x="205.78"
         y="129.21001"
         width="10.63"
         height="10.63"
         style="fill:#d55e00;fill-opacity:0.4;stroke:#d55e00;stroke-width:0.53;stroke-linecap:butt;stroke-linejoin:miter"
         id="rect72" />
      <text
         x="222.24001"
         y="47.759998"
         style="font-size:11px;font-family:Arial"
         textLength="31.219999"
         lengthAdjust="spacingAndGlyphs"
         id="text72">Kenya</text>
      <text
         x="222.24001"
         y="59.099998"
         style="font-size:11px;font-family:Arial"
         textLength="60.560001"
         lengthAdjust="spacingAndGlyphs"
         id="text73">Madagascar</text>
      <text
         x="222.24001"
         y="70.440002"
         style="font-size:11px;font-family:Arial"
         textLength="44.619999"
         lengthAdjust="spacingAndGlyphs"
         id="text74">Mauritius</text>
      <text
         x="222.24001"
         y="81.769997"
         style="font-size:11px;font-family:Arial"
         textLength="39.16"
         lengthAdjust="spacingAndGlyphs"
         id="text75">Mayotte</text>
      <text
         x="222.24001"
         y="93.110001"
         style="font-size:11px;font-family:Arial"
         textLength="63"
         lengthAdjust="spacingAndGlyphs"
         id="text76">Mozambique</text>
      <text
         x="222.24001"
         y="104.45"
         style="font-size:11px;font-family:Arial"
         textLength="53.220001"
         lengthAdjust="spacingAndGlyphs"
         id="text77">Seychelles</text>
      <text
         x="222.24001"
         y="115.79"
         style="font-size:11px;font-family:Arial"
         textLength="39.75"
         lengthAdjust="spacingAndGlyphs"
         id="text78">Somalia</text>
      <text
         x="222.24001"
         y="127.13"
         style="font-size:11px;font-family:Arial"
         textLength="44.060001"
         lengthAdjust="spacingAndGlyphs"
         id="text79">Tanzania</text>
      <text
         x="222.24001"
         y="138.47"
         style="font-size:11px;font-family:Arial"
         textLength="42.810001"
         lengthAdjust="spacingAndGlyphs"
         id="text80">Zanzibar</text>
    </g>
  </g>
</svg>
