<?xml version="1.0" encoding="UTF-8" standalone="no"?>
<svg
   width="252.24652pt"
   height="217.36812pt"
   viewBox="0 0 252.24652 217.36811"
   version="1.1"
   id="svg45"
   sodipodi:docname="lw_piedonut.svg"
   inkscape:version="1.4 (86a8ad7, 2024-10-11)"
   xmlns:inkscape="http://www.inkscape.org/namespaces/inkscape"
   xmlns:sodipodi="http://sodipodi.sourceforge.net/DTD/sodipodi-0.dtd"
   xmlns="http://www.w3.org/2000/svg"
   xmlns:svg="http://www.w3.org/2000/svg">
  <defs
     id="defs45" />
  <sodipodi:namedview
     id="namedview45"
     pagecolor="#ffffff"
     bordercolor="#000000"
     borderopacity="0.25"
     inkscape:showpageshadow="2"
     inkscape:pageopacity="0.0"
     inkscape:pagecheckerboard="0"
     inkscape:deskcolor="#d1d1d1"
     inkscape:document-units="pt"
     inkscape:zoom="2.6130029"
     inkscape:cx="69.460313"
     inkscape:cy="139.87738"
     inkscape:window-width="2560"
     inkscape:window-height="1494"
     inkscape:window-x="-11"
     inkscape:window-y="-11"
     inkscape:window-maximized="1"
     inkscape:current-layer="g11" />
  <g
     class="svglite"
     id="g45"
     transform="translate(-75.094495,-11.365653)">
    <defs
       id="defs1">
      <style
         type="text/css"
         id="style1"><![CDATA[
    .svglite line, .svglite polyline, .svglite polygon, .svglite path, .svglite rect, .svglite circle {
      fill: none;
      stroke: #000000;
      stroke-linecap: round;
      stroke-linejoin: round;
      stroke-miterlimit: 10.00;
    }
    .svglite text {
      white-space: pre;
    }
    .svglite g.glyphgroup path {
      fill: inherit;
      stroke: none;
    }
  ]]></style>
    </defs>
    <defs
       id="defs2">
      <clipPath
         id="cpMC4wMHw0MDAuMDB8MC4wMHwyNDcuMDA=">
        <rect
           x="0"
           y="0"
           width="400"
           height="247"
           id="rect2" />
      </clipPath>
    </defs>
    <g
       clip-path="url(#cpMC4wMHw0MDAuMDB8MC4wMHwyNDcuMDA=)"
       id="g2" />
    <defs
       id="defs3">
      <clipPath
         id="cpNzYuNTB8MzIzLjUwfDAuMDB8MjQ3LjAw">
        <rect
           x="76.5"
           y="2.8000001e-14"
           width="247"
           height="247"
           id="rect3" />
      </clipPath>
    </defs>
    <g
       clip-path="url(#cpNzYuNTB8MzIzLjUwfDAuMDB8MjQ3LjAw)"
       id="g4">
      <rect
         x="76.5"
         y="2.8000001e-14"
         width="247"
         height="247"
         style="stroke:#ffffff;stroke-width:0"
         id="rect4" />
    </g>
    <g
       clip-path="url(#cpMC4wMHw0MDAuMDB8MC4wMHwyNDcuMDA=)"
       id="g5" />
    <defs
       id="defs5">
      <clipPath
         id="cpODEuOTh8MzE4LjAyfDUuNDh8MjQxLjUy">
        <rect
           x="81.980003"
           y="5.48"
           width="236.03999"
           height="236.03999"
           id="rect5" />
      </clipPath>
    </defs>
    <g
       clip-path="url(#cpODEuOTh8MzE4LjAyfDUuNDh8MjQxLjUy)"
       id="g11">
      <rect
         x="81.980003"
         y="5.48"
         width="236.03999"
         height="236.03999"
         style="stroke:none;stroke-width:0"
         id="rect6" />
      <polygon
         points="205,52.15 206.25,52.25 207.49,52.37 208.74,52.51 209.98,52.67 211.21,52.86 212.45,53.06 213.68,53.29 214.9,53.54 216.12,53.81 217.34,54.11 218.55,54.42 219.76,54.75 220.96,55.11 222.15,55.49 223.33,55.89 224.51,56.3 225.68,56.74 226.85,57.2 228,57.68 229.15,58.18 230.29,58.7 231.42,59.24 232.54,59.8 233.64,60.38 234.74,60.98 235.83,61.59 236.91,62.23 237.97,62.89 239.03,63.56 240.07,64.25 241.1,64.96 242.12,65.69 243.12,66.43 244.12,67.2 245.09,67.98 246.06,68.77 247.01,69.59 247.94,70.42 248.86,71.26 249.77,72.13 250.66,73.01 251.54,73.9 252.4,74.81 253.24,75.73 254.07,76.67 254.88,77.62 255.67,78.59 256.45,79.57 257.21,80.56 257.95,81.57 258.67,82.59 259.38,83.62 260.07,84.67 260.74,85.72 261.39,86.79 262.02,87.87 262.64,88.96 263.23,90.06 263.81,91.17 264.36,92.29 264.9,93.43 265.41,94.56 265.91,95.71 266.39,96.87 266.84,98.04 267.28,99.21 267.69,100.39 268.08,101.58 268.46,102.77 268.81,103.97 269.14,105.18 269.45,106.39 269.74,107.61 270.01,108.83 270.25,110.05 270.48,111.29 270.68,112.52 270.86,113.76 271.02,115 271.16,116.24 271.27,117.49 271.37,118.74 271.44,119.98 271.49,121.23 271.52,122.48 271.53,123.74 271.51,124.99 271.48,126.24 271.42,127.49 271.34,128.73 271.23,129.98 271.11,131.23 270.96,132.47 270.8,133.71 270.61,134.95 270.4,136.18 270.16,137.41 269.91,138.63 269.63,139.85 269.34,141.07 269.02,142.28 268.68,143.48 268.32,144.68 267.94,145.87 267.54,147.06 267.11,148.23 266.67,149.4 266.21,150.57 265.73,151.72 265.22,152.87 264.7,154 264.15,155.13 263.59,156.25 263.01,157.35 262.41,158.45 261.79,159.54 261.15,160.61 260.49,161.67 259.81,162.73 259.12,163.77 258.4,164.79 257.67,165.81 256.92,166.81 256.16,167.8 255.37,168.78 254.57,169.74 253.76,170.68 252.92,171.62 252.07,172.54 251.21,173.44 250.33,174.33 249.43,175.2 248.52,176.06 247.59,176.9 246.65,177.72 245.7,178.53 244.73,179.32 243.74,180.09 242.75,180.85 241.74,181.59 240.72,182.31 239.68,183.01 238.63,183.7 237.57,184.36 236.5,185.01 235.42,185.64 234.33,186.25 233.23,186.84 232.12,187.41 230.99,187.96 229.86,188.5 228.72,189.01 227.57,189.5 226.41,189.97 225.24,190.42 224.07,190.86 222.89,191.27 221.7,191.66 220.5,192.03 219.3,192.37 218.1,192.7 216.88,193.01 215.66,193.29 214.44,193.55 213.21,193.8 211.98,194.02 210.75,194.22 209.51,194.39 208.27,194.55 207.02,194.68 205.78,194.79 204.53,194.88 203.28,194.95 202.03,195 200.78,195.02 199.53,195.03 198.28,195.01 197.03,194.97 195.78,194.9 194.53,194.82 193.28,194.71 192.04,194.58 190.8,194.43 189.56,194.26 188.32,194.07 187.09,193.85 185.86,193.62 184.64,193.36 183.42,193.08 182.2,192.78 180.99,192.46 179.79,192.11 178.59,191.75 177.4,191.36 176.22,190.96 175.04,190.53 173.88,190.09 172.72,189.62 171.56,189.13 170.42,188.62 169.29,188.1 168.16,187.55 167.05,186.98 165.94,186.4 164.85,185.79 163.76,185.17 162.69,184.52 161.63,183.86 160.58,183.18 159.54,182.48 158.51,181.77 157.5,181.03 156.5,180.28 155.52,179.51 154.54,178.72 153.58,177.92 152.64,177.1 151.71,176.26 150.79,175.41 149.89,174.54 149.01,173.66 148.14,172.76 147.28,171.85 146.45,170.92 145.63,169.97 144.82,169.01 144.03,168.04 143.26,167.06 142.51,166.06 141.78,165.05 141.06,164.02 140.36,162.98 139.68,161.94 139.01,160.87 138.37,159.8 137.74,158.72 137.14,157.62 136.55,156.52 135.98,155.4 135.43,154.28 134.91,153.15 134.4,152 133.91,150.85 133.44,149.69 132.99,148.52 132.57,147.35 132.16,146.17 166.08,134.83 166.28,135.42 166.5,136.01 166.72,136.6 166.95,137.18 167.2,137.75 167.45,138.32 167.72,138.89 167.99,139.45 168.28,140.01 168.57,140.56 168.87,141.11 169.18,141.65 169.51,142.19 169.84,142.72 170.18,143.24 170.53,143.76 170.89,144.27 171.26,144.78 171.63,145.28 172.02,145.77 172.41,146.26 172.81,146.74 173.22,147.21 173.64,147.67 174.07,148.13 174.5,148.58 174.95,149.02 175.4,149.46 175.85,149.88 176.32,150.3 176.79,150.71 177.27,151.11 177.76,151.51 178.25,151.89 178.75,152.27 179.26,152.63 179.77,152.99 180.29,153.34 180.81,153.68 181.34,154.01 181.88,154.33 182.42,154.65 182.97,154.95 183.52,155.24 184.08,155.53 184.64,155.8 185.21,156.06 185.78,156.32 186.36,156.56 186.94,156.79 187.52,157.02 188.11,157.23 188.7,157.43 189.3,157.62 189.9,157.81 190.5,157.98 191.1,158.14 191.71,158.29 192.32,158.43 192.93,158.56 193.54,158.68 194.16,158.78 194.78,158.88 195.4,158.97 196.02,159.04 196.64,159.11 197.27,159.16 197.89,159.2 198.51,159.23 199.14,159.25 199.76,159.26 200.39,159.26 201.02,159.25 201.64,159.23 202.26,159.19 202.89,159.15 203.51,159.09 204.13,159.02 204.75,158.95 205.37,158.86 205.99,158.76 206.61,158.65 207.22,158.53 207.83,158.4 208.44,158.25 209.05,158.1 209.65,157.94 210.25,157.76 210.85,157.58 211.44,157.38 212.03,157.18 212.62,156.96 213.21,156.74 213.78,156.5 214.36,156.25 214.93,156 215.5,155.73 216.06,155.46 216.61,155.17 217.17,154.88 217.71,154.57 218.25,154.26 218.79,153.93 219.32,153.6 219.84,153.26 220.36,152.9 220.87,152.54 221.37,152.17 221.87,151.8 222.36,151.41 222.85,151.01 223.33,150.61 223.8,150.2 224.26,149.78 224.72,149.35 225.16,148.91 225.6,148.47 226.04,148.02 226.46,147.56 226.88,147.09 227.29,146.62 227.69,146.14 228.08,145.65 228.46,145.16 228.84,144.65 229.2,144.15 229.56,143.63 229.91,143.11 230.24,142.59 230.57,142.06 230.89,141.52 231.2,140.97 231.5,140.43 231.8,139.87 232.08,139.31 232.35,138.75 232.61,138.18 232.86,137.61 233.1,137.03 233.34,136.45 233.56,135.87 233.77,135.28 233.97,134.69 234.16,134.09 234.34,133.49 234.51,132.89 234.67,132.28 234.82,131.68 234.95,131.07 235.08,130.45 235.2,129.84 235.3,129.22 235.4,128.6 235.48,127.98 235.55,127.36 235.62,126.74 235.67,126.12 235.71,125.49 235.74,124.87 235.76,124.24 235.76,123.62 235.76,122.99 235.75,122.37 235.72,121.74 235.68,121.12 235.64,120.49 235.58,119.87 235.51,119.25 235.43,118.63 235.34,118.01 235.24,117.39 235.13,116.78 235,116.16 234.87,115.55 234.73,114.94 234.57,114.34 234.4,113.74 234.23,113.14 234.04,112.54 233.85,111.94 233.64,111.35 233.42,110.77 233.19,110.19 232.95,109.61 232.71,109.03 232.45,108.46 232.18,107.9 231.9,107.34 231.62,106.78 231.32,106.23 231.01,105.69 230.7,105.15 230.37,104.61 230.03,104.08 229.69,103.56 229.34,103.05 228.98,102.54 228.6,102.03 228.22,101.54 227.84,101.05 227.44,100.56 227.03,100.09 226.62,99.62 226.2,99.15 225.77,98.7 225.33,98.25 224.89,97.81 224.43,97.38 223.97,96.96 223.5,96.54 223.03,96.14 222.55,95.74 222.06,95.35 221.56,94.97 221.06,94.59 220.55,94.23 220.04,93.88 219.51,93.53 218.99,93.19 218.45,92.87 217.92,92.55 217.37,92.24 216.82,91.94 216.27,91.65 215.71,91.37 215.14,91.1 214.58,90.84 214,90.59 213.42,90.35 212.84,90.12 212.26,89.9 211.67,89.69 211.07,89.49 210.48,89.31 209.88,89.13 209.28,88.96 208.67,88.8 208.06,88.66 207.45,88.52 206.84,88.4 206.22,88.28 205.61,88.18 204.99,88.09 204.37,88 203.75,87.93 203.12,87.87 202.5,87.82 201.88,87.79 201.25,87.76 200.63,87.74 200,87.74 200,51.97 201.25,51.98 202.5,52.02 203.75,52.07 "
         style="fill:#f8766d;fill-opacity:0.8;stroke:#ffffff;stroke-width:1.07"
         id="polygon6" />
      <polygon
         points="130.74,141.36 130.43,140.14 130.15,138.92 129.89,137.69 129.66,136.46 129.44,135.22 129.25,133.99 129.07,132.74 128.92,131.5 128.79,130.25 128.68,129 128.6,127.75 128.54,126.5 128.49,125.25 128.47,123.99 128.48,122.74 128.5,121.49 128.55,120.23 128.62,118.98 128.71,117.73 128.82,116.48 128.95,115.23 129.11,113.99 129.28,112.75 129.48,111.51 129.71,110.28 129.95,109.05 130.21,107.82 130.5,106.6 130.8,105.38 131.13,104.17 131.48,102.97 131.85,101.77 132.24,100.58 132.66,99.4 133.09,98.22 133.54,97.05 134.02,95.89 134.51,94.74 135.02,93.59 135.56,92.46 136.11,91.33 136.69,90.22 137.28,89.12 137.89,88.02 138.52,86.94 139.17,85.87 139.84,84.81 140.53,83.76 141.24,82.72 141.96,81.7 142.7,80.69 143.46,79.69 144.24,78.7 145.03,77.73 145.84,76.78 146.67,75.83 147.51,74.91 148.37,73.99 149.25,73.1 150.14,72.22 151.05,71.35 151.97,70.5 152.9,69.67 153.86,68.85 154.82,68.05 155.8,67.26 156.79,66.5 157.8,65.75 158.82,65.02 159.85,64.31 160.89,63.61 161.95,62.93 163.02,62.28 164.09,61.64 165.18,61.02 166.28,60.42 167.4,59.84 168.52,59.27 169.65,58.73 170.79,58.21 171.94,57.71 173.09,57.23 174.26,56.76 175.43,56.32 176.61,55.9 177.8,55.5 179,55.13 180.2,54.77 181.41,54.43 182.62,54.12 183.84,53.82 185.06,53.55 186.29,53.3 187.53,53.07 188.76,52.86 190,52.67 191.24,52.51 192.49,52.37 193.74,52.25 194.99,52.15 196.24,52.07 197.49,52.02 198.75,51.98 200,51.97 200,87.74 199.37,87.74 198.75,87.76 198.12,87.79 197.49,87.82 196.87,87.87 196.25,87.93 195.62,88.01 195,88.09 194.38,88.18 193.76,88.28 193.15,88.4 192.53,88.52 191.92,88.66 191.31,88.81 190.7,88.97 190.1,89.13 189.5,89.31 188.9,89.5 188.31,89.7 187.72,89.91 187.13,90.13 186.55,90.36 185.97,90.6 185.39,90.85 184.82,91.12 184.26,91.39 183.7,91.67 183.14,91.96 182.59,92.26 182.05,92.57 181.51,92.89 180.97,93.22 180.45,93.56 179.92,93.9 179.41,94.26 178.9,94.62 178.4,95 177.9,95.38 177.41,95.77 176.93,96.17 176.45,96.58 175.98,97 175.52,97.42 175.07,97.86 174.62,98.3 174.19,98.75 173.76,99.2 173.33,99.67 172.92,100.14 172.52,100.62 172.12,101.1 171.73,101.59 171.35,102.09 170.98,102.6 170.62,103.11 170.26,103.63 169.92,104.15 169.59,104.68 169.26,105.22 168.95,105.76 168.64,106.31 168.34,106.86 168.06,107.42 167.78,107.98 167.51,108.55 167.26,109.12 167.01,109.7 166.77,110.28 166.54,110.86 166.33,111.45 166.12,112.04 165.93,112.64 165.74,113.24 165.57,113.84 165.4,114.44 165.25,115.05 165.11,115.66 164.97,116.27 164.85,116.89 164.74,117.51 164.64,118.12 164.55,118.75 164.48,119.37 164.41,119.99 164.35,120.61 164.31,121.24 164.27,121.87 164.25,122.49 164.24,123.12 164.24,123.75 164.25,124.37 164.27,125 164.3,125.63 164.34,126.25 164.4,126.88 164.46,127.5 164.54,128.12 164.62,128.74 164.72,129.36 164.83,129.98 164.95,130.6 165.08,131.21 165.22,131.82 165.37,132.43 165.53,133.03 165.7,133.64 165.89,134.24 166.08,134.83 132.16,146.17 131.77,144.97 131.41,143.77 131.06,142.57 "
         style="fill:#00bfc4;fill-opacity:0.8;stroke:#ffffff;stroke-width:1.07"
         id="polygon7" />
      <text
         x="243.53"
         y="150.73"
         text-anchor="middle"
         style="font-size:11.38px;font-family:Arial"
         textLength="25.280001"
         lengthAdjust="spacingAndGlyphs"
         id="text7">NEM</text>
      <text
         x="243.53"
         y="167.12"
         text-anchor="middle"
         style="font-size:11.38px;font-family:Arial"
         textLength="30.33"
         lengthAdjust="spacingAndGlyphs"
         id="text8"
         transform="translate(-4.5,-3)">(70%)</text>
      <text
         x="156.47"
         y="88.019997"
         text-anchor="middle"
         style="font-size:11.38px;font-family:Arial"
         textLength="24.66"
         lengthAdjust="spacingAndGlyphs"
         id="text9"
         transform="translate(1.5,1.5)">SEM</text>
      <text
         x="156.47"
         y="104.41"
         text-anchor="middle"
         style="font-size:11.38px;font-family:Arial"
         textLength="30.33"
         lengthAdjust="spacingAndGlyphs"
         id="text10"
         transform="translate(-4.5)">(30%)</text>
      <rect
         x="81.980003"
         y="5.48"
         width="236.03999"
         height="236.03999"
         style="stroke:#333333;stroke-width:0"
         id="rect11" />
    </g>
    <g
       clip-path="url(#cpMC4wMHw0MDAuMDB8MC4wMHwyNDcuMDA=)"
       id="g12" />
    <g
       clip-path="url(#cpNzYuNTB8MzIzLjUwfDAuMDB8MjQ3LjAw)"
       id="g13">
      <rect
         x="76.5"
         y="2.8000001e-14"
         width="247"
         height="247"
         style="stroke:#ffffff;stroke-width:0"
         id="rect12" />
    </g>
    <g
       clip-path="url(#cpMC4wMHw0MDAuMDB8MC4wMHwyNDcuMDA=)"
       id="g14" />
    <g
       clip-path="url(#cpODEuOTh8MzE4LjAyfDUuNDh8MjQxLjUy)"
       id="g43">
      <rect
         x="81.980003"
         y="5.48"
         width="236.03999"
         height="236.03999"
         style="stroke:none;stroke-width:0"
         id="rect14" />
      <polygon
         points="206.05,37.88 207.56,38 209.07,38.15 210.57,38.32 212.08,38.52 213.57,38.75 215.07,39 216.55,39.28 218.04,39.58 219.52,39.91 220.99,40.27 222.45,40.66 223.91,41.06 225.36,41.5 226.8,41.96 228.24,42.44 229.66,42.96 231.08,43.49 232.49,44.05 233.88,44.64 235.27,45.25 236.64,45.88 238.01,46.54 239.36,47.22 240.7,47.93 242.03,48.66 243.34,49.41 244.64,50.19 245.93,50.99 247.2,51.81 248.46,52.65 249.7,53.52 250.93,54.41 252.14,55.32 253.33,56.25 254.51,57.2 255.67,58.17 256.82,59.16 257.94,60.18 259.05,61.21 260.14,62.26 261.21,63.33 262.26,64.42 263.3,65.53 264.31,66.65 265.3,67.8 266.27,68.96 267.23,70.13 268.16,71.33 269.07,72.54 269.96,73.77 270.82,75.01 271.67,76.27 272.49,77.54 273.29,78.82 274.07,80.12 274.82,81.44 275.55,82.76 276.26,84.1 276.94,85.45 277.6,86.82 278.23,88.19 278.85,89.58 279.43,90.97 279.99,92.38 280.53,93.8 281.04,95.22 281.53,96.66 281.99,98.1 268.32,102.33 267.94,101.13 267.53,99.94 267.11,98.75 266.66,97.57 266.19,96.4 265.7,95.23 265.2,94.08 264.67,92.93 264.12,91.79 263.55,90.67 262.96,89.55 262.35,88.45 261.72,87.35 261.07,86.27 260.41,85.2 259.72,84.14 259.02,83.09 258.3,82.05 257.56,81.03 256.8,80.02 256.02,79.03 255.23,78.05 254.42,77.08 253.59,76.13 252.75,75.19 251.89,74.27 251.01,73.36 250.12,72.47 249.21,71.59 248.29,70.73 247.35,69.89 246.39,69.06 245.43,68.25 244.44,67.46 243.45,66.68 242.44,65.92 241.42,65.18 240.38,64.46 239.33,63.76 238.27,63.07 237.2,62.41 236.12,61.76 235.02,61.13 233.92,60.52 232.8,59.94 231.67,59.37 230.54,58.82 229.39,58.29 228.24,57.78 227.07,57.29 225.9,56.83 224.72,56.38 223.53,55.95 222.34,55.55 221.13,55.17 219.93,54.8 218.71,54.46 217.49,54.14 216.26,53.85 215.03,53.57 213.8,53.32 212.55,53.08 211.31,52.87 210.06,52.68 208.81,52.52 207.56,52.37 206.3,52.25 205.04,52.15 203.78,52.07 202.52,52.02 201.26,51.98 200,51.97 200,37.67 201.51,37.68 203.03,37.72 204.54,37.79 "
         style="fill:#ffe4e0;stroke:#ffffff;stroke-width:1.07"
         id="polygon14" />
      <polygon
         points="283.57,103.91 283.9,105.38 284.2,106.85 284.48,108.33 284.74,109.81 284.96,111.3 285.16,112.8 285.34,114.29 285.49,115.79 285.61,117.29 285.7,118.79 285.77,120.3 285.82,121.8 285.83,123.31 285.82,124.81 285.79,126.32 285.72,127.82 285.64,129.32 285.52,130.82 285.38,132.32 285.21,133.82 285.02,135.31 284.8,136.8 284.55,138.29 284.28,139.77 283.98,141.24 283.66,142.71 283.31,144.18 282.93,145.63 282.53,147.08 282.1,148.53 281.65,149.96 281.17,151.39 280.67,152.81 280.15,154.22 279.6,155.62 279.02,157.01 278.42,158.4 277.8,159.77 277.15,161.12 276.48,162.47 275.78,163.81 275.06,165.13 274.32,166.44 273.56,167.74 272.77,169.02 271.96,170.29 271.13,171.54 270.27,172.78 269.4,174.01 268.5,175.22 267.58,176.41 266.65,177.59 265.69,178.75 264.71,179.89 263.71,181.02 262.69,182.13 261.65,183.22 260.6,184.29 259.52,185.34 249.6,175.04 250.5,174.16 251.38,173.26 252.24,172.36 253.09,171.43 253.92,170.49 254.74,169.54 255.54,168.57 256.32,167.59 257.09,166.6 257.83,165.59 258.56,164.57 259.27,163.54 259.97,162.49 260.64,161.43 261.3,160.36 261.93,159.28 262.55,158.19 263.15,157.09 263.73,155.98 264.29,154.85 264.83,153.72 265.35,152.58 265.85,151.43 266.33,150.27 266.79,149.1 267.23,147.93 267.65,146.74 268.04,145.55 268.42,144.36 268.77,143.15 269.11,141.94 269.42,140.73 269.71,139.51 269.98,138.28 270.23,137.06 270.46,135.82 270.66,134.58 270.85,133.34 271.01,132.1 271.15,130.85 271.27,129.6 271.36,128.35 271.44,127.1 271.49,125.85 271.52,124.59 271.53,123.34 271.51,122.08 271.48,120.83 271.42,119.58 271.34,118.32 271.24,117.07 271.11,115.83 270.97,114.58 270.8,113.34 270.61,112.1 270.4,110.86 270.17,109.63 269.92,108.4 269.64,107.17 269.34,105.96 269.02,104.74 268.68,103.53 268.32,102.33 281.99,98.1 282.42,99.54 282.83,100.99 283.21,102.45 "
         style="fill:#ffc9c2;stroke:#ffffff;stroke-width:1.07"
         id="polygon15" />
      <polygon
         points="255.03,189.37 253.87,190.32 252.69,191.26 251.49,192.17 250.28,193.07 249.05,193.94 247.8,194.79 246.55,195.62 245.27,196.42 243.99,197.21 242.68,197.97 241.37,198.7 240.04,199.42 238.71,200.11 237.35,200.78 235.99,201.42 234.62,202.04 233.23,202.64 231.84,203.21 230.44,203.76 229.02,204.28 227.6,204.77 226.17,205.25 224.73,205.69 223.28,206.12 221.83,206.51 220.37,206.88 218.9,207.23 217.43,207.55 215.95,207.84 214.47,208.11 212.98,208.35 211.49,208.56 209.99,208.75 208.5,208.91 206.99,209.05 205.49,209.16 203.99,209.24 202.48,209.3 200.97,209.33 199.47,209.33 197.96,209.31 198.3,195.01 199.56,195.03 200.81,195.02 202.07,195 203.32,194.95 204.58,194.88 205.83,194.79 207.08,194.68 208.33,194.54 209.57,194.38 210.82,194.21 212.06,194 213.29,193.78 214.52,193.54 215.75,193.27 216.97,192.98 218.19,192.68 219.4,192.35 220.61,191.99 221.81,191.62 223,191.23 224.19,190.81 225.36,190.38 226.53,189.92 227.7,189.45 228.85,188.95 229.99,188.44 231.13,187.9 232.25,187.34 233.37,186.77 234.48,186.17 235.57,185.56 236.65,184.92 237.73,184.27 238.79,183.6 239.84,182.91 240.87,182.2 241.9,181.47 242.91,180.73 243.91,179.97 244.89,179.19 245.86,178.39 246.82,177.58 247.76,176.75 248.69,175.9 249.6,175.04 259.52,185.34 258.43,186.38 257.31,187.39 256.18,188.39 "
         style="fill:#ffaea5;stroke:#ffffff;stroke-width:1.07"
         id="polygon16" />
      <polygon
         points="191.97,208.96 190.47,208.8 188.98,208.62 187.49,208.42 186.01,208.19 184.53,207.93 183.06,207.64 181.59,207.34 180.12,207 178.67,206.64 177.22,206.25 175.77,205.84 174.33,205.41 172.91,204.94 171.48,204.46 170.07,203.95 168.67,203.41 167.28,202.85 165.89,202.27 164.52,201.66 163.16,201.02 161.81,200.37 160.47,199.69 159.14,198.99 157.83,198.26 156.53,197.51 155.24,196.74 153.97,195.94 152.7,195.13 151.46,194.29 150.23,193.43 149.01,192.55 147.81,191.65 146.63,190.72 145.46,189.78 144.31,188.81 143.18,187.83 142.06,186.83 140.96,185.8 139.88,184.76 138.82,183.7 137.77,182.62 136.75,181.52 135.74,180.41 134.76,179.27 133.79,178.12 132.85,176.96 131.92,175.77 131.02,174.58 130.13,173.36 129.27,172.13 128.43,170.89 127.61,169.63 126.82,168.35 126.05,167.07 125.29,165.77 124.57,164.45 123.86,163.13 123.18,161.79 122.52,160.44 121.89,159.08 121.28,157.71 120.69,156.32 120.13,154.93 119.59,153.53 119.08,152.12 118.59,150.7 132.16,146.17 132.57,147.35 132.99,148.52 133.44,149.69 133.91,150.85 134.4,152.01 134.91,153.15 135.44,154.28 135.98,155.41 136.55,156.52 137.14,157.63 137.75,158.72 138.37,159.81 139.02,160.88 139.68,161.94 140.36,162.99 141.06,164.03 141.78,165.05 142.51,166.06 143.27,167.06 144.04,168.05 144.83,169.02 145.63,169.98 146.45,170.92 147.29,171.85 148.14,172.77 149.01,173.67 149.9,174.55 150.8,175.42 151.72,176.27 152.65,177.11 153.59,177.93 154.55,178.73 155.52,179.52 156.51,180.29 157.51,181.04 158.52,181.77 159.55,182.49 160.59,183.19 161.64,183.87 162.7,184.53 163.77,185.17 164.86,185.8 165.95,186.4 167.06,186.99 168.17,187.56 169.3,188.1 170.43,188.63 171.58,189.14 172.73,189.63 173.89,190.09 175.06,190.54 176.24,190.97 177.42,191.37 178.61,191.76 179.81,192.12 181.01,192.46 182.22,192.78 183.44,193.08 184.66,193.36 185.88,193.62 187.11,193.86 188.34,194.07 189.58,194.26 190.82,194.44 192.06,194.59 193.31,194.71 194.55,194.82 195.8,194.9 197.05,194.97 198.3,195.01 197.96,209.31 196.46,209.26 194.96,209.19 193.46,209.08 "
         style="fill:#fe9389;stroke:#ffffff;stroke-width:1.07"
         id="polygon17" />
      <polygon
         points="116.86,144.82 116.49,143.34 116.15,141.85 115.84,140.35 115.55,138.84 115.29,137.33 115.06,135.82 114.85,134.3 114.67,132.78 114.52,131.26 114.39,129.73 114.3,128.2 114.23,126.67 114.18,125.14 114.17,123.61 114.18,122.08 114.22,120.55 114.28,119.02 114.38,117.49 114.5,115.97 114.65,114.44 114.82,112.92 115.02,111.4 115.25,109.89 115.51,108.38 115.79,106.88 116.1,105.38 116.44,103.88 116.8,102.39 117.19,100.91 117.61,99.44 118.05,97.97 118.52,96.52 132.1,101.01 131.71,102.23 131.34,103.45 130.99,104.68 130.67,105.91 130.37,107.15 130.09,108.4 129.83,109.65 129.59,110.9 129.38,112.16 129.19,113.42 129.02,114.68 128.87,115.95 128.75,117.22 128.65,118.49 128.57,119.77 128.51,121.04 128.48,122.32 128.47,123.59 128.49,124.87 128.52,126.15 128.58,127.42 128.66,128.69 128.77,129.97 128.89,131.24 129.04,132.5 129.21,133.77 129.41,135.03 129.62,136.29 129.86,137.54 130.13,138.79 130.41,140.03 130.72,141.27 131.04,142.5 131.39,143.73 131.76,144.95 132.16,146.17 118.59,150.7 118.12,149.24 117.67,147.78 117.25,146.3 "
         style="fill:#dbf3f3;stroke:#ffffff;stroke-width:1.07"
         id="polygon18" />
      <polygon
         points="120.61,90.87 121.19,89.49 121.8,88.11 122.44,86.74 123.09,85.39 123.77,84.05 124.48,82.71 125.2,81.4 125.95,80.09 126.72,78.8 127.52,77.52 128.34,76.26 129.18,75.01 130.04,73.77 130.92,72.56 131.82,71.35 132.75,70.16 133.7,68.99 134.66,67.84 135.65,66.7 136.65,65.58 137.68,64.48 138.72,63.4 139.79,62.33 140.87,61.28 141.97,60.26 143.09,59.25 152.57,69.96 151.64,70.8 150.72,71.65 149.82,72.53 148.94,73.41 148.07,74.32 147.21,75.23 146.37,76.17 145.55,77.12 144.75,78.08 143.96,79.05 143.19,80.04 142.43,81.05 141.7,82.06 140.98,83.09 140.28,84.13 139.6,85.18 138.94,86.25 138.29,87.33 137.67,88.41 137.06,89.51 136.48,90.62 135.91,91.74 135.36,92.87 134.84,94.01 134.33,95.15 133.84,96.31 133.38,97.47 132.93,98.65 132.5,99.83 132.1,101.01 118.52,96.52 119,95.09 119.51,93.68 120.05,92.27 "
         style="fill:#b7e6e7;stroke:#ffffff;stroke-width:1.07"
         id="polygon19" />
      <polygon
         points="147.92,55.27 149.17,54.34 150.44,53.42 151.72,52.53 153.02,51.66 154.34,50.82 155.67,50 157.02,49.2 158.38,48.43 159.76,47.69 161.14,46.97 167.62,59.72 166.46,60.32 165.32,60.94 164.18,61.59 163.06,62.25 161.95,62.93 160.85,63.64 159.77,64.36 158.7,65.1 157.64,65.86 156.6,66.65 155.57,67.45 154.55,68.26 153.56,69.1 152.57,69.96 143.09,59.25 144.27,58.22 145.47,57.22 146.68,56.24 "
         style="fill:#8fd9db;stroke:#ffffff;stroke-width:1.07"
         id="polygon20" />
      <polygon
         points="166.77,44.36 168.21,43.77 169.65,43.21 171.11,42.68 172.57,42.17 174.05,41.68 175.53,41.23 177.02,40.8 178.52,40.4 180.02,40.02 181.53,39.68 183.05,39.36 184.58,39.06 186.1,38.8 187.64,38.56 189.17,38.35 190.71,38.17 192.26,38.02 193.8,37.89 195.35,37.79 196.9,37.72 198.45,37.68 200,37.67 200,51.97 198.71,51.98 197.42,52.02 196.12,52.08 194.83,52.16 193.55,52.26 192.26,52.39 190.98,52.54 189.7,52.72 188.42,52.92 187.15,53.14 185.88,53.38 184.61,53.65 183.35,53.94 182.1,54.25 180.85,54.58 179.61,54.94 178.37,55.32 177.14,55.72 175.92,56.15 174.71,56.59 173.51,57.06 172.31,57.55 171.12,58.06 169.95,58.59 168.78,59.15 167.62,59.72 161.14,46.97 162.53,46.28 163.93,45.61 165.35,44.97 "
         style="fill:#61ccd0;stroke:#ffffff;stroke-width:1.07"
         id="polygon21" />
      <line
         x1="250.92999"
         y1="54.41"
         x2="253.05"
         y2="51.529999"
         style="stroke-width:1.07;stroke-linecap:butt"
         id="line21" />
      <line
         x1="283.12"
         y1="144.91"
         x2="286.57999"
         y2="145.8"
         style="stroke-width:1.07;stroke-linecap:butt"
         id="line22" />
      <line
         x1="231.14"
         y1="203.49001"
         x2="232.44"
         y2="206.82001"
         style="stroke-width:1.07;stroke-linecap:butt"
         id="line23" />
      <line
         x1="149.00999"
         y1="192.55"
         x2="146.89"
         y2="195.42"
         style="stroke-width:1.07;stroke-linecap:butt"
         id="line24" />
      <line
         x1="114.17"
         y1="123.61"
         x2="110.59"
         y2="123.62"
         style="stroke-width:1.07;stroke-linecap:butt"
         id="line25" />
      <line
         x1="128.34"
         y1="76.260002"
         x2="125.35"
         y2="74.290001"
         style="stroke-width:1.07;stroke-linecap:butt"
         id="line26" />
      <line
         x1="151.72"
         y1="52.529999"
         x2="149.71001"
         y2="49.57"
         style="stroke-width:1.07;stroke-linecap:butt"
         id="line27" />
      <line
         x1="180.02"
         y1="40.02"
         x2="179.19"
         y2="36.549999"
         style="stroke-width:1.07;stroke-linecap:butt"
         id="line28" />
      <text
         x="253.05"
         y="39.240002"
         style="font-size:8.54px;font-family:Arial"
         textLength="30.379999"
         lengthAdjust="spacingAndGlyphs"
         id="text28">Berbera</text>
      <text
         x="253.05"
         y="51.529999"
         style="font-size:8.54px;font-family:Arial"
         textLength="34.639999"
         lengthAdjust="spacingAndGlyphs"
         id="text29">(28.94%)</text>
      <text
         x="286.57999"
         y="151.91"
         style="font-size:8.54px;font-family:Arial"
         textLength="28.469999"
         lengthAdjust="spacingAndGlyphs"
         id="text30"
         transform="translate(1.1481044,-6.3145739)">Bosaso</text>
      <text
         x="286.57999"
         y="164.2"
         style="font-size:8.54px;font-family:Arial"
         textLength="34.639999"
         lengthAdjust="spacingAndGlyphs"
         id="text31"
         transform="translate(-3.3518956,-7.8145739)">(25.17%)</text>
      <text
         x="232.44"
         y="212.92999"
         style="font-size:8.54px;font-family:Arial"
         textLength="32.720001"
         lengthAdjust="spacingAndGlyphs"
         id="text32"
         transform="translate(-6.7451131,1.8656696)">Kismayo</text>
      <text
         x="232.44"
         y="225.22"
         style="font-size:8.54px;font-family:Arial"
         textLength="34.639999"
         lengthAdjust="spacingAndGlyphs"
         id="text33"
         transform="translate(-6.7451131,-1.1343304)">(18.00%)</text>
      <text
         x="146.89"
         y="201.53999"
         text-anchor="end"
         style="font-size:8.54px;font-family:Arial"
         textLength="41.77"
         lengthAdjust="spacingAndGlyphs"
         id="text34">Mogadishu</text>
      <text
         x="146.89"
         y="213.83"
         text-anchor="end"
         style="font-size:8.54px;font-family:Arial"
         textLength="34.639999"
         lengthAdjust="spacingAndGlyphs"
         id="text35"
         transform="translate(0,-3)">(27.90%)</text>
      <text
         x="110.59"
         y="129.73"
         text-anchor="end"
         style="font-size:8.54px;font-family:Arial"
         textLength="30.379999"
         lengthAdjust="spacingAndGlyphs"
         id="text36"
         transform="translate(2.2962087,0.35878261)">Berbera</text>
      <text
         x="110.59"
         y="142.02"
         text-anchor="end"
         style="font-size:8.54px;font-family:Arial"
         textLength="34.639999"
         lengthAdjust="spacingAndGlyphs"
         id="text37"
         transform="translate(2.9420174,-3.7313392)">(33.92%)</text>
      <text
         x="125.35"
         y="62"
         text-anchor="end"
         style="font-size:8.54px;font-family:Arial"
         textLength="28.469999"
         lengthAdjust="spacingAndGlyphs"
         id="text38"
         transform="translate(-3.157287,2.4397218)">Bosaso</text>
      <text
         x="125.35"
         y="74.290001"
         text-anchor="end"
         style="font-size:8.54px;font-family:Arial"
         textLength="34.639999"
         lengthAdjust="spacingAndGlyphs"
         id="text39">(27.79%)</text>
      <text
         x="149.71001"
         y="37.279999"
         text-anchor="end"
         style="font-size:8.54px;font-family:Arial"
         textLength="32.720001"
         lengthAdjust="spacingAndGlyphs"
         id="text40"
         transform="translate(-7.5)">Kismayo</text>
      <text
         x="149.71001"
         y="49.57"
         text-anchor="end"
         style="font-size:8.54px;font-family:Arial"
         textLength="34.639999"
         lengthAdjust="spacingAndGlyphs"
         id="text41">(13.48%)</text>
      <text
         x="179.19"
         y="24.25"
         text-anchor="end"
         style="font-size:8.54px;font-family:Arial"
         textLength="41.77"
         lengthAdjust="spacingAndGlyphs"
         id="text42"
         transform="translate(21.813983,-1.4351304)">Mogadishu</text>
      <text
         x="179.19"
         y="36.549999"
         text-anchor="end"
         style="font-size:8.54px;font-family:Arial"
         textLength="34.639999"
         lengthAdjust="spacingAndGlyphs"
         id="text43"
         transform="translate(21.813983,-1.4351304)">(24.81%)</text>
      <rect
         x="81.980003"
         y="5.48"
         width="236.03999"
         height="236.03999"
         style="stroke:#333333;stroke-width:0"
         id="rect43" />
    </g>
    <g
       clip-path="url(#cpMC4wMHw0MDAuMDB8MC4wMHwyNDcuMDA=)"
       id="g44" />
  </g>
</svg>
