<?xml version="1.0" encoding="UTF-8" standalone="no"?>
<!-- Created with Inkscape (http://www.inkscape.org/) -->

<svg
   width="39.902218mm"
   height="39.168858mm"
   viewBox="0 0 39.902218 39.168858"
   version="1.1"
   id="svg1"
   inkscape:version="1.4 (86a8ad7, 2024-10-11)"
   sodipodi:docname="qrcode_kobo.svg"
   xmlns:inkscape="http://www.inkscape.org/namespaces/inkscape"
   xmlns:sodipodi="http://sodipodi.sourceforge.net/DTD/sodipodi-0.dtd"
   xmlns="http://www.w3.org/2000/svg"
   xmlns:svg="http://www.w3.org/2000/svg">
  <sodipodi:namedview
     id="namedview1"
     pagecolor="#ffffff"
     bordercolor="#000000"
     borderopacity="0.25"
     inkscape:showpageshadow="2"
     inkscape:pageopacity="0.0"
     inkscape:pagecheckerboard="0"
     inkscape:deskcolor="#d1d1d1"
     inkscape:document-units="mm"
     inkscape:zoom="4.3366723"
     inkscape:cx="46.003015"
     inkscape:cy="84.281213"
     inkscape:window-width="2560"
     inkscape:window-height="1494"
     inkscape:window-x="-11"
     inkscape:window-y="-11"
     inkscape:window-maximized="1"
     inkscape:current-layer="layer1" />
  <defs
     id="defs1" />
  <g
     inkscape:label="Layer 1"
     inkscape:groupmode="layer"
     id="layer1">
    <g
       inkscape:label="QR Code: https://ee.kobotoolbox.org/x/BXiGe9in"
       transform="matrix(0.264583,0,0,0.264583,0.12162699,-0.24404273)"
       id="g2">
      <rect
         x="0"
         y="0"
         width="148"
         height="148"
         style="fill:#ffffff;stroke:none"
         id="rect1" />
      <g
         style="fill:#000000;stroke:none"
         id="g1">
        <path
           d="m 16,16 m 2,2 c 1.10457,0 2,0.895431 2,2 0,1.10457 -0.895431,2 -2,2 -1.10457,0 -2,-0.895431 -2,-2 0,-1.10457 0.895431,-2 2,-2 z m 2,-2 m 2,2 c 1.10457,0 2,0.895431 2,2 0,1.10457 -0.895431,2 -2,2 -1.10457,0 -2,-0.895431 -2,-2 0,-1.10457 0.895431,-2 2,-2 z m 2,-2 m 2,2 c 1.10457,0 2,0.895431 2,2 0,1.10457 -0.895431,2 -2,2 -1.10457,0 -2,-0.895431 -2,-2 0,-1.10457 0.895431,-2 2,-2 z m 2,-2 m 2,2 c 1.10457,0 2,0.895431 2,2 0,1.10457 -0.895431,2 -2,2 -1.10457,0 -2,-0.895431 -2,-2 0,-1.10457 0.895431,-2 2,-2 z m 2,-2 m 2,2 c 1.10457,0 2,0.895431 2,2 0,1.10457 -0.895431,2 -2,2 -1.10457,0 -2,-0.895431 -2,-2 0,-1.10457 0.895431,-2 2,-2 z m 2,-2 m 2,2 c 1.10457,0 2,0.895431 2,2 0,1.10457 -0.895431,2 -2,2 -1.10457,0 -2,-0.895431 -2,-2 0,-1.10457 0.895431,-2 2,-2 z m 2,-2 m 2,2 c 1.10457,0 2,0.895431 2,2 0,1.10457 -0.895431,2 -2,2 -1.10457,0 -2,-0.895431 -2,-2 0,-1.10457 0.895431,-2 2,-2 z m 6,-2 m 2,2 c 1.10457,0 2,0.895431 2,2 0,1.10457 -0.895431,2 -2,2 -1.10457,0 -2,-0.895431 -2,-2 0,-1.10457 0.895431,-2 2,-2 z m 2,-2 m 2,2 c 1.10457,0 2,0.895431 2,2 0,1.10457 -0.895431,2 -2,2 -1.10457,0 -2,-0.895431 -2,-2 0,-1.10457 0.895431,-2 2,-2 z m 14,-2 m 2,2 c 1.10457,0 2,0.895431 2,2 0,1.10457 -0.895431,2 -2,2 -1.10457,0 -2,-0.895431 -2,-2 0,-1.10457 0.895431,-2 2,-2 z m 10,-2 m 2,2 c 1.10457,0 2,0.895431 2,2 0,1.10457 -0.895431,2 -2,2 -1.10457,0 -2,-0.895431 -2,-2 0,-1.10457 0.895431,-2 2,-2 z m 2,-2 m 2,2 c 1.10457,0 2,0.895431 2,2 0,1.10457 -0.895431,2 -2,2 -1.10457,0 -2,-0.895431 -2,-2 0,-1.10457 0.895431,-2 2,-2 z m 2,-2 m 2,2 c 1.10457,0 2,0.895431 2,2 0,1.10457 -0.895431,2 -2,2 -1.10457,0 -2,-0.895431 -2,-2 0,-1.10457 0.895431,-2 2,-2 z m 2,-2 m 2,2 c 1.10457,0 2,0.895431 2,2 0,1.10457 -0.895431,2 -2,2 -1.10457,0 -2,-0.895431 -2,-2 0,-1.10457 0.895431,-2 2,-2 z m 10,-2 m 2,2 c 1.10457,0 2,0.895431 2,2 0,1.10457 -0.89543,2 -2,2 -1.10457,0 -2,-0.895431 -2,-2 0,-1.10457 0.89543,-2 2,-2 z m 2,-2 m 2,2 c 1.10457,0 2,0.895431 2,2 0,1.10457 -0.89543,2 -2,2 -1.10457,0 -2,-0.895431 -2,-2 0,-1.10457 0.89543,-2 2,-2 z m 2,-2 m 2,2 c 1.10457,0 2,0.895431 2,2 0,1.10457 -0.89543,2 -2,2 -1.10457,0 -2,-0.895431 -2,-2 0,-1.10457 0.89543,-2 2,-2 z m 2,-2 m 2,2 c 1.10457,0 2,0.895431 2,2 0,1.10457 -0.89543,2 -2,2 -1.10457,0 -2,-0.895431 -2,-2 0,-1.10457 0.89543,-2 2,-2 z m 2,-2 m 2,2 c 1.10457,0 2,0.895431 2,2 0,1.10457 -0.89543,2 -2,2 -1.10457,0 -2,-0.895431 -2,-2 0,-1.10457 0.89543,-2 2,-2 z m 2,-2 m 2,2 c 1.10457,0 2,0.895431 2,2 0,1.10457 -0.89543,2 -2,2 -1.10457,0 -2,-0.895431 -2,-2 0,-1.10457 0.89543,-2 2,-2 z m 2,-2 m 2,2 c 1.10457,0 2,0.895431 2,2 0,1.10457 -0.89543,2 -2,2 -1.10457,0 -2,-0.895431 -2,-2 0,-1.10457 0.89543,-2 2,-2 z M 16,20 m 2,2 c 1.10457,0 2,0.895431 2,2 0,1.10457 -0.895431,2 -2,2 -1.10457,0 -2,-0.895431 -2,-2 0,-1.10457 0.895431,-2 2,-2 z m 22,-2 m 2,2 c 1.10457,0 2,0.895431 2,2 0,1.10457 -0.895431,2 -2,2 -1.10457,0 -2,-0.895431 -2,-2 0,-1.10457 0.895431,-2 2,-2 z m 26,-2 m 2,2 c 1.10457,0 2,0.895431 2,2 0,1.10457 -0.895431,2 -2,2 -1.10457,0 -2,-0.895431 -2,-2 0,-1.10457 0.895431,-2 2,-2 z m 10,-2 m 2,2 c 1.10457,0 2,0.895431 2,2 0,1.10457 -0.895431,2 -2,2 -1.10457,0 -2,-0.895431 -2,-2 0,-1.10457 0.895431,-2 2,-2 z m 6,-2 m 2,2 c 1.10457,0 2,0.895431 2,2 0,1.10457 -0.895431,2 -2,2 -1.10457,0 -2,-0.895431 -2,-2 0,-1.10457 0.895431,-2 2,-2 z m 6,-2 m 2,2 c 1.10457,0 2,0.895431 2,2 0,1.10457 -0.895431,2 -2,2 -1.10457,0 -2,-0.895431 -2,-2 0,-1.10457 0.895431,-2 2,-2 z m 6,-2 m 2,2 c 1.10457,0 2,0.895431 2,2 0,1.10457 -0.89543,2 -2,2 -1.10457,0 -2,-0.895431 -2,-2 0,-1.10457 0.89543,-2 2,-2 z m 22,-2 m 2,2 c 1.10457,0 2,0.895431 2,2 0,1.10457 -0.89543,2 -2,2 -1.10457,0 -2,-0.895431 -2,-2 0,-1.10457 0.89543,-2 2,-2 z M 16,24 m 2,2 c 1.10457,0 2,0.895431 2,2 0,1.10457 -0.895431,2 -2,2 -1.10457,0 -2,-0.895431 -2,-2 0,-1.10457 0.895431,-2 2,-2 z m 6,-2 m 2,2 c 1.10457,0 2,0.895431 2,2 0,1.10457 -0.895431,2 -2,2 -1.10457,0 -2,-0.895431 -2,-2 0,-1.10457 0.895431,-2 2,-2 z m 2,-2 m 2,2 c 1.10457,0 2,0.895431 2,2 0,1.10457 -0.895431,2 -2,2 -1.10457,0 -2,-0.895431 -2,-2 0,-1.10457 0.895431,-2 2,-2 z m 2,-2 m 2,2 c 1.10457,0 2,0.895431 2,2 0,1.10457 -0.895431,2 -2,2 -1.10457,0 -2,-0.895431 -2,-2 0,-1.10457 0.895431,-2 2,-2 z m 6,-2 m 2,2 c 1.10457,0 2,0.895431 2,2 0,1.10457 -0.895431,2 -2,2 -1.10457,0 -2,-0.895431 -2,-2 0,-1.10457 0.895431,-2 2,-2 z m 6,-2 m 2,2 c 1.10457,0 2,0.895431 2,2 0,1.10457 -0.895431,2 -2,2 -1.10457,0 -2,-0.895431 -2,-2 0,-1.10457 0.895431,-2 2,-2 z m 10,-2 m 2,2 c 1.10457,0 2,0.895431 2,2 0,1.10457 -0.895431,2 -2,2 -1.10457,0 -2,-0.895431 -2,-2 0,-1.10457 0.895431,-2 2,-2 z m 2,-2 m 2,2 c 1.10457,0 2,0.895431 2,2 0,1.10457 -0.895431,2 -2,2 -1.10457,0 -2,-0.895431 -2,-2 0,-1.10457 0.895431,-2 2,-2 z m 2,-2 m 2,2 c 1.10457,0 2,0.895431 2,2 0,1.10457 -0.895431,2 -2,2 -1.10457,0 -2,-0.895431 -2,-2 0,-1.10457 0.895431,-2 2,-2 z m 10,-2 m 2,2 c 1.10457,0 2,0.895431 2,2 0,1.10457 -0.895431,2 -2,2 -1.10457,0 -2,-0.895431 -2,-2 0,-1.10457 0.895431,-2 2,-2 z m 10,-2 m 2,2 c 1.10457,0 2,0.895431 2,2 0,1.10457 -0.895431,2 -2,2 -1.10457,0 -2,-0.895431 -2,-2 0,-1.10457 0.895431,-2 2,-2 z m 10,-2 m 2,2 c 1.10457,0 2,0.895431 2,2 0,1.10457 -0.89543,2 -2,2 -1.10457,0 -2,-0.895431 -2,-2 0,-1.10457 0.89543,-2 2,-2 z m 6,-2 m 2,2 c 1.10457,0 2,0.895431 2,2 0,1.10457 -0.89543,2 -2,2 -1.10457,0 -2,-0.895431 -2,-2 0,-1.10457 0.89543,-2 2,-2 z m 2,-2 m 2,2 c 1.10457,0 2,0.895431 2,2 0,1.10457 -0.89543,2 -2,2 -1.10457,0 -2,-0.895431 -2,-2 0,-1.10457 0.89543,-2 2,-2 z m 2,-2 m 2,2 c 1.10457,0 2,0.895431 2,2 0,1.10457 -0.89543,2 -2,2 -1.10457,0 -2,-0.895431 -2,-2 0,-1.10457 0.89543,-2 2,-2 z m 6,-2 m 2,2 c 1.10457,0 2,0.895431 2,2 0,1.10457 -0.89543,2 -2,2 -1.10457,0 -2,-0.895431 -2,-2 0,-1.10457 0.89543,-2 2,-2 z M 16,28 m 2,2 c 1.10457,0 2,0.895431 2,2 0,1.10457 -0.895431,2 -2,2 -1.10457,0 -2,-0.895431 -2,-2 0,-1.10457 0.895431,-2 2,-2 z m 6,-2 m 2,2 c 1.10457,0 2,0.895431 2,2 0,1.10457 -0.895431,2 -2,2 -1.10457,0 -2,-0.895431 -2,-2 0,-1.10457 0.895431,-2 2,-2 z m 2,-2 m 2,2 c 1.10457,0 2,0.895431 2,2 0,1.10457 -0.895431,2 -2,2 -1.10457,0 -2,-0.895431 -2,-2 0,-1.10457 0.895431,-2 2,-2 z m 2,-2 m 2,2 c 1.10457,0 2,0.895431 2,2 0,1.10457 -0.895431,2 -2,2 -1.10457,0 -2,-0.895431 -2,-2 0,-1.10457 0.895431,-2 2,-2 z m 6,-2 m 2,2 c 1.10457,0 2,0.895431 2,2 0,1.10457 -0.895431,2 -2,2 -1.10457,0 -2,-0.895431 -2,-2 0,-1.10457 0.895431,-2 2,-2 z m 6,-2 m 2,2 c 1.10457,0 2,0.895431 2,2 0,1.10457 -0.895431,2 -2,2 -1.10457,0 -2,-0.895431 -2,-2 0,-1.10457 0.895431,-2 2,-2 z m 2,-2 m 2,2 c 1.10457,0 2,0.895431 2,2 0,1.10457 -0.895431,2 -2,2 -1.10457,0 -2,-0.895431 -2,-2 0,-1.10457 0.895431,-2 2,-2 z m 6,-2 m 2,2 c 1.10457,0 2,0.895431 2,2 0,1.10457 -0.895431,2 -2,2 -1.10457,0 -2,-0.895431 -2,-2 0,-1.10457 0.895431,-2 2,-2 z m 22,-2 m 2,2 c 1.10457,0 2,0.895431 2,2 0,1.10457 -0.895431,2 -2,2 -1.10457,0 -2,-0.895431 -2,-2 0,-1.10457 0.895431,-2 2,-2 z m 6,-2 m 2,2 c 1.10457,0 2,0.895431 2,2 0,1.10457 -0.895431,2 -2,2 -1.10457,0 -2,-0.895431 -2,-2 0,-1.10457 0.895431,-2 2,-2 z m 2,-2 m 2,2 c 1.10457,0 2,0.895431 2,2 0,1.10457 -0.895431,2 -2,2 -1.10457,0 -2,-0.895431 -2,-2 0,-1.10457 0.895431,-2 2,-2 z m 6,-2 m 2,2 c 1.10457,0 2,0.895431 2,2 0,1.10457 -0.89543,2 -2,2 -1.10457,0 -2,-0.895431 -2,-2 0,-1.10457 0.89543,-2 2,-2 z m 6,-2 m 2,2 c 1.10457,0 2,0.895431 2,2 0,1.10457 -0.89543,2 -2,2 -1.10457,0 -2,-0.895431 -2,-2 0,-1.10457 0.89543,-2 2,-2 z m 2,-2 m 2,2 c 1.10457,0 2,0.895431 2,2 0,1.10457 -0.89543,2 -2,2 -1.10457,0 -2,-0.895431 -2,-2 0,-1.10457 0.89543,-2 2,-2 z m 2,-2 m 2,2 c 1.10457,0 2,0.895431 2,2 0,1.10457 -0.89543,2 -2,2 -1.10457,0 -2,-0.895431 -2,-2 0,-1.10457 0.89543,-2 2,-2 z m 6,-2 m 2,2 c 1.10457,0 2,0.895431 2,2 0,1.10457 -0.89543,2 -2,2 -1.10457,0 -2,-0.895431 -2,-2 0,-1.10457 0.89543,-2 2,-2 z M 16,32 m 2,2 c 1.10457,0 2,0.895431 2,2 0,1.10457 -0.895431,2 -2,2 -1.10457,0 -2,-0.895431 -2,-2 0,-1.10457 0.895431,-2 2,-2 z m 6,-2 m 2,2 c 1.10457,0 2,0.895431 2,2 0,1.10457 -0.895431,2 -2,2 -1.10457,0 -2,-0.895431 -2,-2 0,-1.10457 0.895431,-2 2,-2 z m 2,-2 m 2,2 c 1.10457,0 2,0.895431 2,2 0,1.10457 -0.895431,2 -2,2 -1.10457,0 -2,-0.895431 -2,-2 0,-1.10457 0.895431,-2 2,-2 z m 2,-2 m 2,2 c 1.10457,0 2,0.895431 2,2 0,1.10457 -0.895431,2 -2,2 -1.10457,0 -2,-0.895431 -2,-2 0,-1.10457 0.895431,-2 2,-2 z m 6,-2 m 2,2 c 1.10457,0 2,0.895431 2,2 0,1.10457 -0.895431,2 -2,2 -1.10457,0 -2,-0.895431 -2,-2 0,-1.10457 0.895431,-2 2,-2 z m 6,-2 m 2,2 c 1.10457,0 2,0.895431 2,2 0,1.10457 -0.895431,2 -2,2 -1.10457,0 -2,-0.895431 -2,-2 0,-1.10457 0.895431,-2 2,-2 z m 2,-2 m 2,2 c 1.10457,0 2,0.895431 2,2 0,1.10457 -0.895431,2 -2,2 -1.10457,0 -2,-0.895431 -2,-2 0,-1.10457 0.895431,-2 2,-2 z m 2,-2 m 2,2 c 1.10457,0 2,0.895431 2,2 0,1.10457 -0.895431,2 -2,2 -1.10457,0 -2,-0.895431 -2,-2 0,-1.10457 0.895431,-2 2,-2 z m 2,-2 m 2,2 c 1.10457,0 2,0.895431 2,2 0,1.10457 -0.895431,2 -2,2 -1.10457,0 -2,-0.895431 -2,-2 0,-1.10457 0.895431,-2 2,-2 z m 6,-2 m 2,2 c 1.10457,0 2,0.895431 2,2 0,1.10457 -0.895431,2 -2,2 -1.10457,0 -2,-0.895431 -2,-2 0,-1.10457 0.895431,-2 2,-2 z m 2,-2 m 2,2 c 1.10457,0 2,0.895431 2,2 0,1.10457 -0.895431,2 -2,2 -1.10457,0 -2,-0.895431 -2,-2 0,-1.10457 0.895431,-2 2,-2 z m 2,-2 m 2,2 c 1.10457,0 2,0.895431 2,2 0,1.10457 -0.895431,2 -2,2 -1.10457,0 -2,-0.895431 -2,-2 0,-1.10457 0.895431,-2 2,-2 z m 2,-2 m 2,2 c 1.10457,0 2,0.895431 2,2 0,1.10457 -0.895431,2 -2,2 -1.10457,0 -2,-0.895431 -2,-2 0,-1.10457 0.895431,-2 2,-2 z m 10,-2 m 2,2 c 1.10457,0 2,0.895431 2,2 0,1.10457 -0.895431,2 -2,2 -1.10457,0 -2,-0.895431 -2,-2 0,-1.10457 0.895431,-2 2,-2 z m 10,-2 m 2,2 c 1.10457,0 2,0.895431 2,2 0,1.10457 -0.89543,2 -2,2 -1.10457,0 -2,-0.895431 -2,-2 0,-1.10457 0.89543,-2 2,-2 z m 6,-2 m 2,2 c 1.10457,0 2,0.895431 2,2 0,1.10457 -0.89543,2 -2,2 -1.10457,0 -2,-0.895431 -2,-2 0,-1.10457 0.89543,-2 2,-2 z m 2,-2 m 2,2 c 1.10457,0 2,0.895431 2,2 0,1.10457 -0.89543,2 -2,2 -1.10457,0 -2,-0.895431 -2,-2 0,-1.10457 0.89543,-2 2,-2 z m 2,-2 m 2,2 c 1.10457,0 2,0.895431 2,2 0,1.10457 -0.89543,2 -2,2 -1.10457,0 -2,-0.895431 -2,-2 0,-1.10457 0.89543,-2 2,-2 z m 6,-2 m 2,2 c 1.10457,0 2,0.895431 2,2 0,1.10457 -0.89543,2 -2,2 -1.10457,0 -2,-0.895431 -2,-2 0,-1.10457 0.89543,-2 2,-2 z M 16,36 m 2,2 c 1.10457,0 2,0.895431 2,2 0,1.10457 -0.895431,2 -2,2 -1.10457,0 -2,-0.895431 -2,-2 0,-1.10457 0.895431,-2 2,-2 z m 22,-2 m 2,2 c 1.10457,0 2,0.895431 2,2 0,1.10457 -0.895431,2 -2,2 -1.10457,0 -2,-0.895431 -2,-2 0,-1.10457 0.895431,-2 2,-2 z m 10,-2 m 2,2 c 1.10457,0 2,0.895431 2,2 0,1.10457 -0.895431,2 -2,2 -1.10457,0 -2,-0.895431 -2,-2 0,-1.10457 0.895431,-2 2,-2 z m 10,-2 m 2,2 c 1.10457,0 2,0.895431 2,2 0,1.10457 -0.895431,2 -2,2 -1.10457,0 -2,-0.895431 -2,-2 0,-1.10457 0.895431,-2 2,-2 z m 6,-2 m 2,2 c 1.10457,0 2,0.895431 2,2 0,1.10457 -0.895431,2 -2,2 -1.10457,0 -2,-0.895431 -2,-2 0,-1.10457 0.895431,-2 2,-2 z m 10,-2 m 2,2 c 1.10457,0 2,0.895431 2,2 0,1.10457 -0.895431,2 -2,2 -1.10457,0 -2,-0.895431 -2,-2 0,-1.10457 0.895431,-2 2,-2 z m 2,-2 m 2,2 c 1.10457,0 2,0.895431 2,2 0,1.10457 -0.895431,2 -2,2 -1.10457,0 -2,-0.895431 -2,-2 0,-1.10457 0.895431,-2 2,-2 z m 2,-2 m 2,2 c 1.10457,0 2,0.895431 2,2 0,1.10457 -0.895431,2 -2,2 -1.10457,0 -2,-0.895431 -2,-2 0,-1.10457 0.895431,-2 2,-2 z m 2,-2 m 2,2 c 1.10457,0 2,0.895431 2,2 0,1.10457 -0.895431,2 -2,2 -1.10457,0 -2,-0.895431 -2,-2 0,-1.10457 0.895431,-2 2,-2 z m 6,-2 m 2,2 c 1.10457,0 2,0.895431 2,2 0,1.10457 -0.89543,2 -2,2 -1.10457,0 -2,-0.895431 -2,-2 0,-1.10457 0.89543,-2 2,-2 z m 22,-2 m 2,2 c 1.10457,0 2,0.895431 2,2 0,1.10457 -0.89543,2 -2,2 -1.10457,0 -2,-0.895431 -2,-2 0,-1.10457 0.89543,-2 2,-2 z M 16,40 m 2,2 c 1.10457,0 2,0.895431 2,2 0,1.10457 -0.895431,2 -2,2 -1.10457,0 -2,-0.895431 -2,-2 0,-1.10457 0.895431,-2 2,-2 z m 2,-2 m 2,2 c 1.10457,0 2,0.895431 2,2 0,1.10457 -0.895431,2 -2,2 -1.10457,0 -2,-0.895431 -2,-2 0,-1.10457 0.895431,-2 2,-2 z m 2,-2 m 2,2 c 1.10457,0 2,0.895431 2,2 0,1.10457 -0.895431,2 -2,2 -1.10457,0 -2,-0.895431 -2,-2 0,-1.10457 0.895431,-2 2,-2 z m 2,-2 m 2,2 c 1.10457,0 2,0.895431 2,2 0,1.10457 -0.895431,2 -2,2 -1.10457,0 -2,-0.895431 -2,-2 0,-1.10457 0.895431,-2 2,-2 z m 2,-2 m 2,2 c 1.10457,0 2,0.895431 2,2 0,1.10457 -0.895431,2 -2,2 -1.10457,0 -2,-0.895431 -2,-2 0,-1.10457 0.895431,-2 2,-2 z m 2,-2 m 2,2 c 1.10457,0 2,0.895431 2,2 0,1.10457 -0.895431,2 -2,2 -1.10457,0 -2,-0.895431 -2,-2 0,-1.10457 0.895431,-2 2,-2 z m 2,-2 m 2,2 c 1.10457,0 2,0.895431 2,2 0,1.10457 -0.895431,2 -2,2 -1.10457,0 -2,-0.895431 -2,-2 0,-1.10457 0.895431,-2 2,-2 z m 6,-2 m 2,2 c 1.10457,0 2,0.895431 2,2 0,1.10457 -0.895431,2 -2,2 -1.10457,0 -2,-0.895431 -2,-2 0,-1.10457 0.895431,-2 2,-2 z m 6,-2 m 2,2 c 1.10457,0 2,0.895431 2,2 0,1.10457 -0.895431,2 -2,2 -1.10457,0 -2,-0.895431 -2,-2 0,-1.10457 0.895431,-2 2,-2 z m 6,-2 m 2,2 c 1.10457,0 2,0.895431 2,2 0,1.10457 -0.895431,2 -2,2 -1.10457,0 -2,-0.895431 -2,-2 0,-1.10457 0.895431,-2 2,-2 z m 6,-2 m 2,2 c 1.10457,0 2,0.895431 2,2 0,1.10457 -0.895431,2 -2,2 -1.10457,0 -2,-0.895431 -2,-2 0,-1.10457 0.895431,-2 2,-2 z m 6,-2 m 2,2 c 1.10457,0 2,0.895431 2,2 0,1.10457 -0.895431,2 -2,2 -1.10457,0 -2,-0.895431 -2,-2 0,-1.10457 0.895431,-2 2,-2 z m 6,-2 m 2,2 c 1.10457,0 2,0.895431 2,2 0,1.10457 -0.895431,2 -2,2 -1.10457,0 -2,-0.895431 -2,-2 0,-1.10457 0.895431,-2 2,-2 z m 6,-2 m 2,2 c 1.10457,0 2,0.895431 2,2 0,1.10457 -0.895431,2 -2,2 -1.10457,0 -2,-0.895431 -2,-2 0,-1.10457 0.895431,-2 2,-2 z m 6,-2 m 2,2 c 1.10457,0 2,0.895431 2,2 0,1.10457 -0.89543,2 -2,2 -1.10457,0 -2,-0.895431 -2,-2 0,-1.10457 0.89543,-2 2,-2 z m 2,-2 m 2,2 c 1.10457,0 2,0.895431 2,2 0,1.10457 -0.89543,2 -2,2 -1.10457,0 -2,-0.895431 -2,-2 0,-1.10457 0.89543,-2 2,-2 z m 2,-2 m 2,2 c 1.10457,0 2,0.895431 2,2 0,1.10457 -0.89543,2 -2,2 -1.10457,0 -2,-0.895431 -2,-2 0,-1.10457 0.89543,-2 2,-2 z m 2,-2 m 2,2 c 1.10457,0 2,0.895431 2,2 0,1.10457 -0.89543,2 -2,2 -1.10457,0 -2,-0.895431 -2,-2 0,-1.10457 0.89543,-2 2,-2 z m 2,-2 m 2,2 c 1.10457,0 2,0.895431 2,2 0,1.10457 -0.89543,2 -2,2 -1.10457,0 -2,-0.895431 -2,-2 0,-1.10457 0.89543,-2 2,-2 z m 2,-2 m 2,2 c 1.10457,0 2,0.895431 2,2 0,1.10457 -0.89543,2 -2,2 -1.10457,0 -2,-0.895431 -2,-2 0,-1.10457 0.89543,-2 2,-2 z m 2,-2 m 2,2 c 1.10457,0 2,0.895431 2,2 0,1.10457 -0.89543,2 -2,2 -1.10457,0 -2,-0.895431 -2,-2 0,-1.10457 0.89543,-2 2,-2 z m -78,2 m 2,2 c 1.10457,0 2,0.895431 2,2 0,1.10457 -0.895431,2 -2,2 -1.10457,0 -2,-0.895431 -2,-2 0,-1.10457 0.895431,-2 2,-2 z m 6,-2 m 2,2 c 1.10457,0 2,0.895431 2,2 0,1.10457 -0.895431,2 -2,2 -1.10457,0 -2,-0.895431 -2,-2 0,-1.10457 0.895431,-2 2,-2 z m 6,-2 m 2,2 c 1.10457,0 2,0.895431 2,2 0,1.10457 -0.895431,2 -2,2 -1.10457,0 -2,-0.895431 -2,-2 0,-1.10457 0.895431,-2 2,-2 z m 2,-2 m 2,2 c 1.10457,0 2,0.895431 2,2 0,1.10457 -0.895431,2 -2,2 -1.10457,0 -2,-0.895431 -2,-2 0,-1.10457 0.895431,-2 2,-2 z m 10,-2 m 2,2 c 1.10457,0 2,0.895431 2,2 0,1.10457 -0.895431,2 -2,2 -1.10457,0 -2,-0.895431 -2,-2 0,-1.10457 0.895431,-2 2,-2 z m 2,-2 m 2,2 c 1.10457,0 2,0.895431 2,2 0,1.10457 -0.895431,2 -2,2 -1.10457,0 -2,-0.895431 -2,-2 0,-1.10457 0.895431,-2 2,-2 z m 2,-2 m 2,2 c 1.10457,0 2,0.895431 2,2 0,1.10457 -0.895431,2 -2,2 -1.10457,0 -2,-0.895431 -2,-2 0,-1.10457 0.895431,-2 2,-2 z m -78,2 m 2,2 c 1.10457,0 2,0.895431 2,2 0,1.10457 -0.895431,2 -2,2 -1.10457,0 -2,-0.895431 -2,-2 0,-1.10457 0.895431,-2 2,-2 z m 2,-2 m 2,2 c 1.10457,0 2,0.895431 2,2 0,1.10457 -0.895431,2 -2,2 -1.10457,0 -2,-0.895431 -2,-2 0,-1.10457 0.895431,-2 2,-2 z m 2,-2 m 2,2 c 1.10457,0 2,0.895431 2,2 0,1.10457 -0.895431,2 -2,2 -1.10457,0 -2,-0.895431 -2,-2 0,-1.10457 0.895431,-2 2,-2 z m 2,-2 m 2,2 c 1.10457,0 2,0.895431 2,2 0,1.10457 -0.895431,2 -2,2 -1.10457,0 -2,-0.895431 -2,-2 0,-1.10457 0.895431,-2 2,-2 z m 10,-2 m 2,2 c 1.10457,0 2,0.895431 2,2 0,1.10457 -0.895431,2 -2,2 -1.10457,0 -2,-0.895431 -2,-2 0,-1.10457 0.895431,-2 2,-2 z m 6,-2 m 2,2 c 1.10457,0 2,0.895431 2,2 0,1.10457 -0.895431,2 -2,2 -1.10457,0 -2,-0.895431 -2,-2 0,-1.10457 0.895431,-2 2,-2 z m 18,-2 m 2,2 c 1.10457,0 2,0.895431 2,2 0,1.10457 -0.895431,2 -2,2 -1.10457,0 -2,-0.895431 -2,-2 0,-1.10457 0.895431,-2 2,-2 z m 2,-2 m 2,2 c 1.10457,0 2,0.895431 2,2 0,1.10457 -0.895431,2 -2,2 -1.10457,0 -2,-0.895431 -2,-2 0,-1.10457 0.895431,-2 2,-2 z m 2,-2 m 2,2 c 1.10457,0 2,0.895431 2,2 0,1.10457 -0.895431,2 -2,2 -1.10457,0 -2,-0.895431 -2,-2 0,-1.10457 0.895431,-2 2,-2 z m 6,-2 m 2,2 c 1.10457,0 2,0.895431 2,2 0,1.10457 -0.895431,2 -2,2 -1.10457,0 -2,-0.895431 -2,-2 0,-1.10457 0.895431,-2 2,-2 z m 2,-2 m 2,2 c 1.10457,0 2,0.895431 2,2 0,1.10457 -0.895431,2 -2,2 -1.10457,0 -2,-0.895431 -2,-2 0,-1.10457 0.895431,-2 2,-2 z m 10,-2 m 2,2 c 1.10457,0 2,0.895431 2,2 0,1.10457 -0.89543,2 -2,2 -1.10457,0 -2,-0.895431 -2,-2 0,-1.10457 0.89543,-2 2,-2 z m 10,-2 m 2,2 c 1.10457,0 2,0.895431 2,2 0,1.10457 -0.89543,2 -2,2 -1.10457,0 -2,-0.895431 -2,-2 0,-1.10457 0.89543,-2 2,-2 z m 2,-2 m 2,2 c 1.10457,0 2,0.895431 2,2 0,1.10457 -0.89543,2 -2,2 -1.10457,0 -2,-0.895431 -2,-2 0,-1.10457 0.89543,-2 2,-2 z m 2,-2 m 2,2 c 1.10457,0 2,0.895431 2,2 0,1.10457 -0.89543,2 -2,2 -1.10457,0 -2,-0.895431 -2,-2 0,-1.10457 0.89543,-2 2,-2 z m 6,-2 m 2,2 c 1.10457,0 2,0.895431 2,2 0,1.10457 -0.89543,2 -2,2 -1.10457,0 -2,-0.895431 -2,-2 0,-1.10457 0.89543,-2 2,-2 z M 28,52 m 2,2 c 1.10457,0 2,0.895431 2,2 0,1.10457 -0.895431,2 -2,2 -1.10457,0 -2,-0.895431 -2,-2 0,-1.10457 0.895431,-2 2,-2 z m 2,-2 m 2,2 c 1.10457,0 2,0.895431 2,2 0,1.10457 -0.895431,2 -2,2 -1.10457,0 -2,-0.895431 -2,-2 0,-1.10457 0.895431,-2 2,-2 z m 2,-2 m 2,2 c 1.10457,0 2,0.895431 2,2 0,1.10457 -0.895431,2 -2,2 -1.10457,0 -2,-0.895431 -2,-2 0,-1.10457 0.895431,-2 2,-2 z m 14,-2 m 2,2 c 1.10457,0 2,0.895431 2,2 0,1.10457 -0.895431,2 -2,2 -1.10457,0 -2,-0.895431 -2,-2 0,-1.10457 0.895431,-2 2,-2 z m 38,-2 m 2,2 c 1.10457,0 2,0.895431 2,2 0,1.10457 -0.895431,2 -2,2 -1.10457,0 -2,-0.895431 -2,-2 0,-1.10457 0.895431,-2 2,-2 z m 2,-2 m 2,2 c 1.10457,0 2,0.895431 2,2 0,1.10457 -0.895431,2 -2,2 -1.10457,0 -2,-0.895431 -2,-2 0,-1.10457 0.895431,-2 2,-2 z m 2,-2 m 2,2 c 1.10457,0 2,0.895431 2,2 0,1.10457 -0.89543,2 -2,2 -1.10457,0 -2,-0.895431 -2,-2 0,-1.10457 0.89543,-2 2,-2 z m 2,-2 m 2,2 c 1.10457,0 2,0.895431 2,2 0,1.10457 -0.89543,2 -2,2 -1.10457,0 -2,-0.895431 -2,-2 0,-1.10457 0.89543,-2 2,-2 z m 2,-2 m 2,2 c 1.10457,0 2,0.895431 2,2 0,1.10457 -0.89543,2 -2,2 -1.10457,0 -2,-0.895431 -2,-2 0,-1.10457 0.89543,-2 2,-2 z m 2,-2 m 2,2 c 1.10457,0 2,0.895431 2,2 0,1.10457 -0.89543,2 -2,2 -1.10457,0 -2,-0.895431 -2,-2 0,-1.10457 0.89543,-2 2,-2 z m 14,-2 m 2,2 c 1.10457,0 2,0.895431 2,2 0,1.10457 -0.89543,2 -2,2 -1.10457,0 -2,-0.895431 -2,-2 0,-1.10457 0.89543,-2 2,-2 z M 20,56 m 2,2 c 1.10457,0 2,0.895431 2,2 0,1.10457 -0.895431,2 -2,2 -1.10457,0 -2,-0.895431 -2,-2 0,-1.10457 0.895431,-2 2,-2 z m 18,-2 m 2,2 c 1.10457,0 2,0.895431 2,2 0,1.10457 -0.895431,2 -2,2 -1.10457,0 -2,-0.895431 -2,-2 0,-1.10457 0.895431,-2 2,-2 z m 2,-2 m 2,2 c 1.10457,0 2,0.895431 2,2 0,1.10457 -0.895431,2 -2,2 -1.10457,0 -2,-0.895431 -2,-2 0,-1.10457 0.895431,-2 2,-2 z m 2,-2 m 2,2 c 1.10457,0 2,0.895431 2,2 0,1.10457 -0.895431,2 -2,2 -1.10457,0 -2,-0.895431 -2,-2 0,-1.10457 0.895431,-2 2,-2 z m 22,-2 m 2,2 c 1.10457,0 2,0.895431 2,2 0,1.10457 -0.895431,2 -2,2 -1.10457,0 -2,-0.895431 -2,-2 0,-1.10457 0.895431,-2 2,-2 z m 6,-2 m 2,2 c 1.10457,0 2,0.895431 2,2 0,1.10457 -0.895431,2 -2,2 -1.10457,0 -2,-0.895431 -2,-2 0,-1.10457 0.895431,-2 2,-2 z m 14,-2 m 2,2 c 1.10457,0 2,0.895431 2,2 0,1.10457 -0.895431,2 -2,2 -1.10457,0 -2,-0.895431 -2,-2 0,-1.10457 0.895431,-2 2,-2 z m 2,-2 m 2,2 c 1.10457,0 2,0.895431 2,2 0,1.10457 -0.89543,2 -2,2 -1.10457,0 -2,-0.895431 -2,-2 0,-1.10457 0.89543,-2 2,-2 z m 2,-2 m 2,2 c 1.10457,0 2,0.895431 2,2 0,1.10457 -0.89543,2 -2,2 -1.10457,0 -2,-0.895431 -2,-2 0,-1.10457 0.89543,-2 2,-2 z m 6,-2 m 2,2 c 1.10457,0 2,0.895431 2,2 0,1.10457 -0.89543,2 -2,2 -1.10457,0 -2,-0.895431 -2,-2 0,-1.10457 0.89543,-2 2,-2 z m 6,-2 m 2,2 c 1.10457,0 2,0.895431 2,2 0,1.10457 -0.89543,2 -2,2 -1.10457,0 -2,-0.895431 -2,-2 0,-1.10457 0.89543,-2 2,-2 z m 2,-2 m 2,2 c 1.10457,0 2,0.895431 2,2 0,1.10457 -0.89543,2 -2,2 -1.10457,0 -2,-0.895431 -2,-2 0,-1.10457 0.89543,-2 2,-2 z m -90,2 m 2,2 c 1.10457,0 2,0.895431 2,2 0,1.10457 -0.895431,2 -2,2 -1.10457,0 -2,-0.895431 -2,-2 0,-1.10457 0.895431,-2 2,-2 z m 22,-2 m 2,2 c 1.10457,0 2,0.895431 2,2 0,1.10457 -0.895431,2 -2,2 -1.10457,0 -2,-0.895431 -2,-2 0,-1.10457 0.895431,-2 2,-2 z m 2,-2 m 2,2 c 1.10457,0 2,0.895431 2,2 0,1.10457 -0.895431,2 -2,2 -1.10457,0 -2,-0.895431 -2,-2 0,-1.10457 0.895431,-2 2,-2 z m 2,-2 m 2,2 c 1.10457,0 2,0.895431 2,2 0,1.10457 -0.895431,2 -2,2 -1.10457,0 -2,-0.895431 -2,-2 0,-1.10457 0.895431,-2 2,-2 z m 2,-2 m 2,2 c 1.10457,0 2,0.895431 2,2 0,1.10457 -0.895431,2 -2,2 -1.10457,0 -2,-0.895431 -2,-2 0,-1.10457 0.895431,-2 2,-2 z m 26,-2 m 2,2 c 1.10457,0 2,0.895431 2,2 0,1.10457 -0.89543,2 -2,2 -1.10457,0 -2,-0.895431 -2,-2 0,-1.10457 0.89543,-2 2,-2 z m 10,-2 m 2,2 c 1.10457,0 2,0.895431 2,2 0,1.10457 -0.89543,2 -2,2 -1.10457,0 -2,-0.895431 -2,-2 0,-1.10457 0.89543,-2 2,-2 z m 14,-2 m 2,2 c 1.10457,0 2,0.895431 2,2 0,1.10457 -0.89543,2 -2,2 -1.10457,0 -2,-0.895431 -2,-2 0,-1.10457 0.89543,-2 2,-2 z M 16,64 m 2,2 c 1.10457,0 2,0.895431 2,2 0,1.10457 -0.895431,2 -2,2 -1.10457,0 -2,-0.895431 -2,-2 0,-1.10457 0.895431,-2 2,-2 z m 2,-2 m 2,2 c 1.10457,0 2,0.895431 2,2 0,1.10457 -0.895431,2 -2,2 -1.10457,0 -2,-0.895431 -2,-2 0,-1.10457 0.895431,-2 2,-2 z m 2,-2 m 2,2 c 1.10457,0 2,0.895431 2,2 0,1.10457 -0.895431,2 -2,2 -1.10457,0 -2,-0.895431 -2,-2 0,-1.10457 0.895431,-2 2,-2 z m 14,-2 m 2,2 c 1.10457,0 2,0.895431 2,2 0,1.10457 -0.895431,2 -2,2 -1.10457,0 -2,-0.895431 -2,-2 0,-1.10457 0.895431,-2 2,-2 z m 10,-2 m 2,2 c 1.10457,0 2,0.895431 2,2 0,1.10457 -0.895431,2 -2,2 -1.10457,0 -2,-0.895431 -2,-2 0,-1.10457 0.895431,-2 2,-2 z m 6,-2 m 2,2 c 1.10457,0 2,0.895431 2,2 0,1.10457 -0.895431,2 -2,2 -1.10457,0 -2,-0.895431 -2,-2 0,-1.10457 0.895431,-2 2,-2 z m 14,-2 m 2,2 c 1.10457,0 2,0.895431 2,2 0,1.10457 -0.895431,2 -2,2 -1.10457,0 -2,-0.895431 -2,-2 0,-1.10457 0.895431,-2 2,-2 z m 6,-2 m 2,2 c 1.10457,0 2,0.895431 2,2 0,1.10457 -0.895431,2 -2,2 -1.10457,0 -2,-0.895431 -2,-2 0,-1.10457 0.895431,-2 2,-2 z m 30,-2 m 2,2 c 1.10457,0 2,0.895431 2,2 0,1.10457 -0.89543,2 -2,2 -1.10457,0 -2,-0.895431 -2,-2 0,-1.10457 0.89543,-2 2,-2 z m 2,-2 m 2,2 c 1.10457,0 2,0.895431 2,2 0,1.10457 -0.89543,2 -2,2 -1.10457,0 -2,-0.895431 -2,-2 0,-1.10457 0.89543,-2 2,-2 z M 16,68 m 2,2 c 1.10457,0 2,0.895431 2,2 0,1.10457 -0.895431,2 -2,2 -1.10457,0 -2,-0.895431 -2,-2 0,-1.10457 0.895431,-2 2,-2 z m 6,-2 m 2,2 c 1.10457,0 2,0.895431 2,2 0,1.10457 -0.895431,2 -2,2 -1.10457,0 -2,-0.895431 -2,-2 0,-1.10457 0.895431,-2 2,-2 z m 2,-2 m 2,2 c 1.10457,0 2,0.895431 2,2 0,1.10457 -0.895431,2 -2,2 -1.10457,0 -2,-0.895431 -2,-2 0,-1.10457 0.895431,-2 2,-2 z m 6,-2 m 2,2 c 1.10457,0 2,0.895431 2,2 0,1.10457 -0.895431,2 -2,2 -1.10457,0 -2,-0.895431 -2,-2 0,-1.10457 0.895431,-2 2,-2 z m 6,-2 m 2,2 c 1.10457,0 2,0.895431 2,2 0,1.10457 -0.895431,2 -2,2 -1.10457,0 -2,-0.895431 -2,-2 0,-1.10457 0.895431,-2 2,-2 z m 2,-2 m 2,2 c 1.10457,0 2,0.895431 2,2 0,1.10457 -0.895431,2 -2,2 -1.10457,0 -2,-0.895431 -2,-2 0,-1.10457 0.895431,-2 2,-2 z m 6,-2 m 2,2 c 1.10457,0 2,0.895431 2,2 0,1.10457 -0.895431,2 -2,2 -1.10457,0 -2,-0.895431 -2,-2 0,-1.10457 0.895431,-2 2,-2 z m 2,-2 m 2,2 c 1.10457,0 2,0.895431 2,2 0,1.10457 -0.895431,2 -2,2 -1.10457,0 -2,-0.895431 -2,-2 0,-1.10457 0.895431,-2 2,-2 z m 6,-2 m 2,2 c 1.10457,0 2,0.895431 2,2 0,1.10457 -0.895431,2 -2,2 -1.10457,0 -2,-0.895431 -2,-2 0,-1.10457 0.895431,-2 2,-2 z m 6,-2 m 2,2 c 1.10457,0 2,0.895431 2,2 0,1.10457 -0.895431,2 -2,2 -1.10457,0 -2,-0.895431 -2,-2 0,-1.10457 0.895431,-2 2,-2 z m 2,-2 m 2,2 c 1.10457,0 2,0.895431 2,2 0,1.10457 -0.895431,2 -2,2 -1.10457,0 -2,-0.895431 -2,-2 0,-1.10457 0.895431,-2 2,-2 z m 2,-2 m 2,2 c 1.10457,0 2,0.895431 2,2 0,1.10457 -0.895431,2 -2,2 -1.10457,0 -2,-0.895431 -2,-2 0,-1.10457 0.895431,-2 2,-2 z m 6,-2 m 2,2 c 1.10457,0 2,0.895431 2,2 0,1.10457 -0.895431,2 -2,2 -1.10457,0 -2,-0.895431 -2,-2 0,-1.10457 0.895431,-2 2,-2 z m 10,-2 m 2,2 c 1.10457,0 2,0.895431 2,2 0,1.10457 -0.89543,2 -2,2 -1.10457,0 -2,-0.895431 -2,-2 0,-1.10457 0.89543,-2 2,-2 z m 14,-2 m 2,2 c 1.10457,0 2,0.895431 2,2 0,1.10457 -0.89543,2 -2,2 -1.10457,0 -2,-0.895431 -2,-2 0,-1.10457 0.89543,-2 2,-2 z m 2,-2 m 2,2 c 1.10457,0 2,0.895431 2,2 0,1.10457 -0.89543,2 -2,2 -1.10457,0 -2,-0.895431 -2,-2 0,-1.10457 0.89543,-2 2,-2 z m 2,-2 m 2,2 c 1.10457,0 2,0.895431 2,2 0,1.10457 -0.89543,2 -2,2 -1.10457,0 -2,-0.895431 -2,-2 0,-1.10457 0.89543,-2 2,-2 z M 16,72 m 2,2 c 1.10457,0 2,0.895431 2,2 0,1.10457 -0.895431,2 -2,2 -1.10457,0 -2,-0.895431 -2,-2 0,-1.10457 0.895431,-2 2,-2 z m 6,-2 m 2,2 c 1.10457,0 2,0.895431 2,2 0,1.10457 -0.895431,2 -2,2 -1.10457,0 -2,-0.895431 -2,-2 0,-1.10457 0.895431,-2 2,-2 z m 2,-2 m 2,2 c 1.10457,0 2,0.895431 2,2 0,1.10457 -0.895431,2 -2,2 -1.10457,0 -2,-0.895431 -2,-2 0,-1.10457 0.895431,-2 2,-2 z m 10,-2 m 2,2 c 1.10457,0 2,0.895431 2,2 0,1.10457 -0.895431,2 -2,2 -1.10457,0 -2,-0.895431 -2,-2 0,-1.10457 0.895431,-2 2,-2 z m 14,-2 m 2,2 c 1.10457,0 2,0.895431 2,2 0,1.10457 -0.895431,2 -2,2 -1.10457,0 -2,-0.895431 -2,-2 0,-1.10457 0.895431,-2 2,-2 z m 6,-2 m 2,2 c 1.10457,0 2,0.895431 2,2 0,1.10457 -0.895431,2 -2,2 -1.10457,0 -2,-0.895431 -2,-2 0,-1.10457 0.895431,-2 2,-2 z m 6,-2 m 2,2 c 1.10457,0 2,0.895431 2,2 0,1.10457 -0.895431,2 -2,2 -1.10457,0 -2,-0.895431 -2,-2 0,-1.10457 0.895431,-2 2,-2 z m 10,-2 m 2,2 c 1.10457,0 2,0.895431 2,2 0,1.10457 -0.895431,2 -2,2 -1.10457,0 -2,-0.895431 -2,-2 0,-1.10457 0.895431,-2 2,-2 z m 2,-2 m 2,2 c 1.10457,0 2,0.895431 2,2 0,1.10457 -0.895431,2 -2,2 -1.10457,0 -2,-0.895431 -2,-2 0,-1.10457 0.895431,-2 2,-2 z m 2,-2 m 2,2 c 1.10457,0 2,0.895431 2,2 0,1.10457 -0.895431,2 -2,2 -1.10457,0 -2,-0.895431 -2,-2 0,-1.10457 0.895431,-2 2,-2 z m 10,-2 m 2,2 c 1.10457,0 2,0.895431 2,2 0,1.10457 -0.89543,2 -2,2 -1.10457,0 -2,-0.895431 -2,-2 0,-1.10457 0.89543,-2 2,-2 z m 6,-2 m 2,2 c 1.10457,0 2,0.895431 2,2 0,1.10457 -0.89543,2 -2,2 -1.10457,0 -2,-0.895431 -2,-2 0,-1.10457 0.89543,-2 2,-2 z m 6,-2 m 2,2 c 1.10457,0 2,0.895431 2,2 0,1.10457 -0.89543,2 -2,2 -1.10457,0 -2,-0.895431 -2,-2 0,-1.10457 0.89543,-2 2,-2 z m 2,-2 m 2,2 c 1.10457,0 2,0.895431 2,2 0,1.10457 -0.89543,2 -2,2 -1.10457,0 -2,-0.895431 -2,-2 0,-1.10457 0.89543,-2 2,-2 z m 2,-2 m 2,2 c 1.10457,0 2,0.895431 2,2 0,1.10457 -0.89543,2 -2,2 -1.10457,0 -2,-0.895431 -2,-2 0,-1.10457 0.89543,-2 2,-2 z M 16,76 m 2,2 c 1.10457,0 2,0.895431 2,2 0,1.10457 -0.895431,2 -2,2 -1.10457,0 -2,-0.895431 -2,-2 0,-1.10457 0.895431,-2 2,-2 z m 6,-2 m 2,2 c 1.10457,0 2,0.895431 2,2 0,1.10457 -0.895431,2 -2,2 -1.10457,0 -2,-0.895431 -2,-2 0,-1.10457 0.895431,-2 2,-2 z m 22,-2 m 2,2 c 1.10457,0 2,0.895431 2,2 0,1.10457 -0.895431,2 -2,2 -1.10457,0 -2,-0.895431 -2,-2 0,-1.10457 0.895431,-2 2,-2 z m 6,-2 m 2,2 c 1.10457,0 2,0.895431 2,2 0,1.10457 -0.895431,2 -2,2 -1.10457,0 -2,-0.895431 -2,-2 0,-1.10457 0.895431,-2 2,-2 z m 6,-2 m 2,2 c 1.10457,0 2,0.895431 2,2 0,1.10457 -0.895431,2 -2,2 -1.10457,0 -2,-0.895431 -2,-2 0,-1.10457 0.895431,-2 2,-2 z m 2,-2 m 2,2 c 1.10457,0 2,0.895431 2,2 0,1.10457 -0.895431,2 -2,2 -1.10457,0 -2,-0.895431 -2,-2 0,-1.10457 0.895431,-2 2,-2 z m 10,-2 m 2,2 c 1.10457,0 2,0.895431 2,2 0,1.10457 -0.895431,2 -2,2 -1.10457,0 -2,-0.895431 -2,-2 0,-1.10457 0.895431,-2 2,-2 z m 14,-2 m 2,2 c 1.10457,0 2,0.895431 2,2 0,1.10457 -0.895431,2 -2,2 -1.10457,0 -2,-0.895431 -2,-2 0,-1.10457 0.895431,-2 2,-2 z m 2,-2 m 2,2 c 1.10457,0 2,0.895431 2,2 0,1.10457 -0.89543,2 -2,2 -1.10457,0 -2,-0.895431 -2,-2 0,-1.10457 0.89543,-2 2,-2 z m 2,-2 m 2,2 c 1.10457,0 2,0.895431 2,2 0,1.10457 -0.89543,2 -2,2 -1.10457,0 -2,-0.895431 -2,-2 0,-1.10457 0.89543,-2 2,-2 z m 2,-2 m 2,2 c 1.10457,0 2,0.895431 2,2 0,1.10457 -0.89543,2 -2,2 -1.10457,0 -2,-0.895431 -2,-2 0,-1.10457 0.89543,-2 2,-2 z m 14,-2 m 2,2 c 1.10457,0 2,0.895431 2,2 0,1.10457 -0.89543,2 -2,2 -1.10457,0 -2,-0.895431 -2,-2 0,-1.10457 0.89543,-2 2,-2 z m -98,2 m 2,2 c 1.10457,0 2,0.895431 2,2 0,1.10457 -0.895431,2 -2,2 -1.10457,0 -2,-0.895431 -2,-2 0,-1.10457 0.895431,-2 2,-2 z m 6,-2 m 2,2 c 1.10457,0 2,0.895431 2,2 0,1.10457 -0.895431,2 -2,2 -1.10457,0 -2,-0.895431 -2,-2 0,-1.10457 0.895431,-2 2,-2 z m 2,-2 m 2,2 c 1.10457,0 2,0.895431 2,2 0,1.10457 -0.895431,2 -2,2 -1.10457,0 -2,-0.895431 -2,-2 0,-1.10457 0.895431,-2 2,-2 z m 2,-2 m 2,2 c 1.10457,0 2,0.895431 2,2 0,1.10457 -0.895431,2 -2,2 -1.10457,0 -2,-0.895431 -2,-2 0,-1.10457 0.895431,-2 2,-2 z m 2,-2 m 2,2 c 1.10457,0 2,0.895431 2,2 0,1.10457 -0.895431,2 -2,2 -1.10457,0 -2,-0.895431 -2,-2 0,-1.10457 0.895431,-2 2,-2 z m 2,-2 m 2,2 c 1.10457,0 2,0.895431 2,2 0,1.10457 -0.895431,2 -2,2 -1.10457,0 -2,-0.895431 -2,-2 0,-1.10457 0.895431,-2 2,-2 z m 2,-2 m 2,2 c 1.10457,0 2,0.895431 2,2 0,1.10457 -0.895431,2 -2,2 -1.10457,0 -2,-0.895431 -2,-2 0,-1.10457 0.895431,-2 2,-2 z m 2,-2 m 2,2 c 1.10457,0 2,0.895431 2,2 0,1.10457 -0.895431,2 -2,2 -1.10457,0 -2,-0.895431 -2,-2 0,-1.10457 0.895431,-2 2,-2 z m 30,-2 m 2,2 c 1.10457,0 2,0.895431 2,2 0,1.10457 -0.895431,2 -2,2 -1.10457,0 -2,-0.895431 -2,-2 0,-1.10457 0.895431,-2 2,-2 z m 2,-2 m 2,2 c 1.10457,0 2,0.895431 2,2 0,1.10457 -0.895431,2 -2,2 -1.10457,0 -2,-0.895431 -2,-2 0,-1.10457 0.895431,-2 2,-2 z m 2,-2 m 2,2 c 1.10457,0 2,0.895431 2,2 0,1.10457 -0.89543,2 -2,2 -1.10457,0 -2,-0.895431 -2,-2 0,-1.10457 0.89543,-2 2,-2 z m 6,-2 m 2,2 c 1.10457,0 2,0.895431 2,2 0,1.10457 -0.89543,2 -2,2 -1.10457,0 -2,-0.895431 -2,-2 0,-1.10457 0.89543,-2 2,-2 z m 2,-2 m 2,2 c 1.10457,0 2,0.895431 2,2 0,1.10457 -0.89543,2 -2,2 -1.10457,0 -2,-0.895431 -2,-2 0,-1.10457 0.89543,-2 2,-2 z m 2,-2 m 2,2 c 1.10457,0 2,0.895431 2,2 0,1.10457 -0.89543,2 -2,2 -1.10457,0 -2,-0.895431 -2,-2 0,-1.10457 0.89543,-2 2,-2 z m 6,-2 m 2,2 c 1.10457,0 2,0.895431 2,2 0,1.10457 -0.89543,2 -2,2 -1.10457,0 -2,-0.895431 -2,-2 0,-1.10457 0.89543,-2 2,-2 z M 24,84 m 2,2 c 1.10457,0 2,0.895431 2,2 0,1.10457 -0.895431,2 -2,2 -1.10457,0 -2,-0.895431 -2,-2 0,-1.10457 0.895431,-2 2,-2 z m 2,-2 m 2,2 c 1.10457,0 2,0.895431 2,2 0,1.10457 -0.895431,2 -2,2 -1.10457,0 -2,-0.895431 -2,-2 0,-1.10457 0.895431,-2 2,-2 z m 2,-2 m 2,2 c 1.10457,0 2,0.895431 2,2 0,1.10457 -0.895431,2 -2,2 -1.10457,0 -2,-0.895431 -2,-2 0,-1.10457 0.895431,-2 2,-2 z m 2,-2 m 2,2 c 1.10457,0 2,0.895431 2,2 0,1.10457 -0.895431,2 -2,2 -1.10457,0 -2,-0.895431 -2,-2 0,-1.10457 0.895431,-2 2,-2 z m 6,-2 m 2,2 c 1.10457,0 2,0.895431 2,2 0,1.10457 -0.895431,2 -2,2 -1.10457,0 -2,-0.895431 -2,-2 0,-1.10457 0.895431,-2 2,-2 z m 18,-2 m 2,2 c 1.10457,0 2,0.895431 2,2 0,1.10457 -0.895431,2 -2,2 -1.10457,0 -2,-0.895431 -2,-2 0,-1.10457 0.895431,-2 2,-2 z m 2,-2 m 2,2 c 1.10457,0 2,0.895431 2,2 0,1.10457 -0.895431,2 -2,2 -1.10457,0 -2,-0.895431 -2,-2 0,-1.10457 0.895431,-2 2,-2 z m 14,-2 m 2,2 c 1.10457,0 2,0.895431 2,2 0,1.10457 -0.895431,2 -2,2 -1.10457,0 -2,-0.895431 -2,-2 0,-1.10457 0.895431,-2 2,-2 z m 10,-2 m 2,2 c 1.10457,0 2,0.895431 2,2 0,1.10457 -0.895431,2 -2,2 -1.10457,0 -2,-0.895431 -2,-2 0,-1.10457 0.895431,-2 2,-2 z m 18,-2 m 2,2 c 1.10457,0 2,0.895431 2,2 0,1.10457 -0.89543,2 -2,2 -1.10457,0 -2,-0.895431 -2,-2 0,-1.10457 0.89543,-2 2,-2 z m 2,-2 m 2,2 c 1.10457,0 2,0.895431 2,2 0,1.10457 -0.89543,2 -2,2 -1.10457,0 -2,-0.895431 -2,-2 0,-1.10457 0.89543,-2 2,-2 z m 2,-2 m 2,2 c 1.10457,0 2,0.895431 2,2 0,1.10457 -0.89543,2 -2,2 -1.10457,0 -2,-0.895431 -2,-2 0,-1.10457 0.89543,-2 2,-2 z M 16,88 m 2,2 c 1.10457,0 2,0.895431 2,2 0,1.10457 -0.895431,2 -2,2 -1.10457,0 -2,-0.895431 -2,-2 0,-1.10457 0.895431,-2 2,-2 z m 14,-2 m 2,2 c 1.10457,0 2,0.895431 2,2 0,1.10457 -0.895431,2 -2,2 -1.10457,0 -2,-0.895431 -2,-2 0,-1.10457 0.895431,-2 2,-2 z m 6,-2 m 2,2 c 1.10457,0 2,0.895431 2,2 0,1.10457 -0.895431,2 -2,2 -1.10457,0 -2,-0.895431 -2,-2 0,-1.10457 0.895431,-2 2,-2 z m 6,-2 m 2,2 c 1.10457,0 2,0.895431 2,2 0,1.10457 -0.895431,2 -2,2 -1.10457,0 -2,-0.895431 -2,-2 0,-1.10457 0.895431,-2 2,-2 z m 6,-2 m 2,2 c 1.10457,0 2,0.895431 2,2 0,1.10457 -0.895431,2 -2,2 -1.10457,0 -2,-0.895431 -2,-2 0,-1.10457 0.895431,-2 2,-2 z m 2,-2 m 2,2 c 1.10457,0 2,0.895431 2,2 0,1.10457 -0.895431,2 -2,2 -1.10457,0 -2,-0.895431 -2,-2 0,-1.10457 0.895431,-2 2,-2 z m 2,-2 m 2,2 c 1.10457,0 2,0.895431 2,2 0,1.10457 -0.895431,2 -2,2 -1.10457,0 -2,-0.895431 -2,-2 0,-1.10457 0.895431,-2 2,-2 z m 10,-2 m 2,2 c 1.10457,0 2,0.895431 2,2 0,1.10457 -0.895431,2 -2,2 -1.10457,0 -2,-0.895431 -2,-2 0,-1.10457 0.895431,-2 2,-2 z m 2,-2 m 2,2 c 1.10457,0 2,0.895431 2,2 0,1.10457 -0.895431,2 -2,2 -1.10457,0 -2,-0.895431 -2,-2 0,-1.10457 0.895431,-2 2,-2 z m 2,-2 m 2,2 c 1.10457,0 2,0.895431 2,2 0,1.10457 -0.895431,2 -2,2 -1.10457,0 -2,-0.895431 -2,-2 0,-1.10457 0.895431,-2 2,-2 z m 10,-2 m 2,2 c 1.10457,0 2,0.895431 2,2 0,1.10457 -0.895431,2 -2,2 -1.10457,0 -2,-0.895431 -2,-2 0,-1.10457 0.895431,-2 2,-2 z m 6,-2 m 2,2 c 1.10457,0 2,0.895431 2,2 0,1.10457 -0.89543,2 -2,2 -1.10457,0 -2,-0.895431 -2,-2 0,-1.10457 0.89543,-2 2,-2 z m 2,-2 m 2,2 c 1.10457,0 2,0.895431 2,2 0,1.10457 -0.89543,2 -2,2 -1.10457,0 -2,-0.895431 -2,-2 0,-1.10457 0.89543,-2 2,-2 z m 2,-2 m 2,2 c 1.10457,0 2,0.895431 2,2 0,1.10457 -0.89543,2 -2,2 -1.10457,0 -2,-0.895431 -2,-2 0,-1.10457 0.89543,-2 2,-2 z m 6,-2 m 2,2 c 1.10457,0 2,0.895431 2,2 0,1.10457 -0.89543,2 -2,2 -1.10457,0 -2,-0.895431 -2,-2 0,-1.10457 0.89543,-2 2,-2 z m -98,2 m 2,2 c 1.10457,0 2,0.895431 2,2 0,1.10457 -0.895431,2 -2,2 -1.10457,0 -2,-0.895431 -2,-2 0,-1.10457 0.895431,-2 2,-2 z m 18,-2 m 2,2 c 1.10457,0 2,0.895431 2,2 0,1.10457 -0.895431,2 -2,2 -1.10457,0 -2,-0.895431 -2,-2 0,-1.10457 0.895431,-2 2,-2 z m 2,-2 m 2,2 c 1.10457,0 2,0.895431 2,2 0,1.10457 -0.895431,2 -2,2 -1.10457,0 -2,-0.895431 -2,-2 0,-1.10457 0.895431,-2 2,-2 z m 2,-2 m 2,2 c 1.10457,0 2,0.895431 2,2 0,1.10457 -0.895431,2 -2,2 -1.10457,0 -2,-0.895431 -2,-2 0,-1.10457 0.895431,-2 2,-2 z m 10,-2 m 2,2 c 1.10457,0 2,0.895431 2,2 0,1.10457 -0.895431,2 -2,2 -1.10457,0 -2,-0.895431 -2,-2 0,-1.10457 0.895431,-2 2,-2 z m 18,-2 m 2,2 c 1.10457,0 2,0.895431 2,2 0,1.10457 -0.895431,2 -2,2 -1.10457,0 -2,-0.895431 -2,-2 0,-1.10457 0.895431,-2 2,-2 z m 2,-2 m 2,2 c 1.10457,0 2,0.895431 2,2 0,1.10457 -0.895431,2 -2,2 -1.10457,0 -2,-0.895431 -2,-2 0,-1.10457 0.895431,-2 2,-2 z m 2,-2 m 2,2 c 1.10457,0 2,0.895431 2,2 0,1.10457 -0.895431,2 -2,2 -1.10457,0 -2,-0.895431 -2,-2 0,-1.10457 0.895431,-2 2,-2 z m 6,-2 m 2,2 c 1.10457,0 2,0.895431 2,2 0,1.10457 -0.89543,2 -2,2 -1.10457,0 -2,-0.895431 -2,-2 0,-1.10457 0.89543,-2 2,-2 z m 2,-2 m 2,2 c 1.10457,0 2,0.895431 2,2 0,1.10457 -0.89543,2 -2,2 -1.10457,0 -2,-0.895431 -2,-2 0,-1.10457 0.89543,-2 2,-2 z m 14,-2 m 2,2 c 1.10457,0 2,0.895431 2,2 0,1.10457 -0.89543,2 -2,2 -1.10457,0 -2,-0.895431 -2,-2 0,-1.10457 0.89543,-2 2,-2 z M 20,96 m 2,2 c 1.10457,0 2,0.895431 2,2 0,1.10457 -0.895431,2 -2,2 -1.10457,0 -2,-0.89543 -2,-2 0,-1.10457 0.895431,-2 2,-2 z m 6,-2 m 2,2 c 1.10457,0 2,0.895431 2,2 0,1.10457 -0.895431,2 -2,2 -1.10457,0 -2,-0.89543 -2,-2 0,-1.10457 0.895431,-2 2,-2 z m 2,-2 m 2,2 c 1.10457,0 2,0.895431 2,2 0,1.10457 -0.895431,2 -2,2 -1.10457,0 -2,-0.89543 -2,-2 0,-1.10457 0.895431,-2 2,-2 z m 6,-2 m 2,2 c 1.10457,0 2,0.895431 2,2 0,1.10457 -0.895431,2 -2,2 -1.10457,0 -2,-0.89543 -2,-2 0,-1.10457 0.895431,-2 2,-2 z m 2,-2 m 2,2 c 1.10457,0 2,0.895431 2,2 0,1.10457 -0.895431,2 -2,2 -1.10457,0 -2,-0.89543 -2,-2 0,-1.10457 0.895431,-2 2,-2 z m 2,-2 m 2,2 c 1.10457,0 2,0.895431 2,2 0,1.10457 -0.895431,2 -2,2 -1.10457,0 -2,-0.89543 -2,-2 0,-1.10457 0.895431,-2 2,-2 z m 10,-2 m 2,2 c 1.10457,0 2,0.895431 2,2 0,1.10457 -0.895431,2 -2,2 -1.10457,0 -2,-0.89543 -2,-2 0,-1.10457 0.895431,-2 2,-2 z m 2,-2 m 2,2 c 1.10457,0 2,0.895431 2,2 0,1.10457 -0.895431,2 -2,2 -1.10457,0 -2,-0.89543 -2,-2 0,-1.10457 0.895431,-2 2,-2 z m 2,-2 m 2,2 c 1.10457,0 2,0.895431 2,2 0,1.10457 -0.895431,2 -2,2 -1.10457,0 -2,-0.89543 -2,-2 0,-1.10457 0.895431,-2 2,-2 z m 6,-2 m 2,2 c 1.10457,0 2,0.895431 2,2 0,1.10457 -0.895431,2 -2,2 -1.10457,0 -2,-0.89543 -2,-2 0,-1.10457 0.895431,-2 2,-2 z m 2,-2 m 2,2 c 1.10457,0 2,0.895431 2,2 0,1.10457 -0.895431,2 -2,2 -1.10457,0 -2,-0.89543 -2,-2 0,-1.10457 0.895431,-2 2,-2 z m 2,-2 m 2,2 c 1.10457,0 2,0.895431 2,2 0,1.10457 -0.895431,2 -2,2 -1.10457,0 -2,-0.89543 -2,-2 0,-1.10457 0.895431,-2 2,-2 z m 2,-2 m 2,2 c 1.10457,0 2,0.895431 2,2 0,1.10457 -0.895431,2 -2,2 -1.10457,0 -2,-0.89543 -2,-2 0,-1.10457 0.895431,-2 2,-2 z m 6,-2 m 2,2 c 1.10457,0 2,0.895431 2,2 0,1.10457 -0.895431,2 -2,2 -1.10457,0 -2,-0.89543 -2,-2 0,-1.10457 0.895431,-2 2,-2 z m 2,-2 m 2,2 c 1.10457,0 2,0.895431 2,2 0,1.10457 -0.89543,2 -2,2 -1.10457,0 -2,-0.89543 -2,-2 0,-1.10457 0.89543,-2 2,-2 z m 2,-2 m 2,2 c 1.10457,0 2,0.895431 2,2 0,1.10457 -0.89543,2 -2,2 -1.10457,0 -2,-0.89543 -2,-2 0,-1.10457 0.89543,-2 2,-2 z m 2,-2 m 2,2 c 1.10457,0 2,0.895431 2,2 0,1.10457 -0.89543,2 -2,2 -1.10457,0 -2,-0.89543 -2,-2 0,-1.10457 0.89543,-2 2,-2 z m 2,-2 m 2,2 c 1.10457,0 2,0.895431 2,2 0,1.10457 -0.89543,2 -2,2 -1.10457,0 -2,-0.89543 -2,-2 0,-1.10457 0.89543,-2 2,-2 z m 2,-2 m 2,2 c 1.10457,0 2,0.895431 2,2 0,1.10457 -0.89543,2 -2,2 -1.10457,0 -2,-0.89543 -2,-2 0,-1.10457 0.89543,-2 2,-2 z m 2,-2 m 2,2 c 1.10457,0 2,0.895431 2,2 0,1.10457 -0.89543,2 -2,2 -1.10457,0 -2,-0.89543 -2,-2 0,-1.10457 0.89543,-2 2,-2 z m -74,2 m 2,2 c 1.10457,0 2,0.89543 2,2 0,1.10457 -0.895431,2 -2,2 -1.10457,0 -2,-0.89543 -2,-2 0,-1.10457 0.895431,-2 2,-2 z m 6,-2 m 2,2 c 1.10457,0 2,0.89543 2,2 0,1.10457 -0.895431,2 -2,2 -1.10457,0 -2,-0.89543 -2,-2 0,-1.10457 0.895431,-2 2,-2 z m 6,-2 m 2,2 c 1.10457,0 2,0.89543 2,2 0,1.10457 -0.895431,2 -2,2 -1.10457,0 -2,-0.89543 -2,-2 0,-1.10457 0.895431,-2 2,-2 z m 2,-2 m 2,2 c 1.10457,0 2,0.89543 2,2 0,1.10457 -0.895431,2 -2,2 -1.10457,0 -2,-0.89543 -2,-2 0,-1.10457 0.895431,-2 2,-2 z m 2,-2 m 2,2 c 1.10457,0 2,0.89543 2,2 0,1.10457 -0.895431,2 -2,2 -1.10457,0 -2,-0.89543 -2,-2 0,-1.10457 0.895431,-2 2,-2 z m 6,-2 m 2,2 c 1.10457,0 2,0.89543 2,2 0,1.10457 -0.895431,2 -2,2 -1.10457,0 -2,-0.89543 -2,-2 0,-1.10457 0.895431,-2 2,-2 z m 2,-2 m 2,2 c 1.10457,0 2,0.89543 2,2 0,1.10457 -0.895431,2 -2,2 -1.10457,0 -2,-0.89543 -2,-2 0,-1.10457 0.895431,-2 2,-2 z m 10,-2 m 2,2 c 1.10457,0 2,0.89543 2,2 0,1.10457 -0.895431,2 -2,2 -1.10457,0 -2,-0.89543 -2,-2 0,-1.10457 0.895431,-2 2,-2 z m 14,-2 m 2,2 c 1.10457,0 2,0.89543 2,2 0,1.10457 -0.89543,2 -2,2 -1.10457,0 -2,-0.89543 -2,-2 0,-1.10457 0.89543,-2 2,-2 z m 2,-2 m 2,2 c 1.10457,0 2,0.89543 2,2 0,1.10457 -0.89543,2 -2,2 -1.10457,0 -2,-0.89543 -2,-2 0,-1.10457 0.89543,-2 2,-2 z m 2,-2 m 2,2 c 1.10457,0 2,0.89543 2,2 0,1.10457 -0.89543,2 -2,2 -1.10457,0 -2,-0.89543 -2,-2 0,-1.10457 0.89543,-2 2,-2 z m 2,-2 m 2,2 c 1.10457,0 2,0.89543 2,2 0,1.10457 -0.89543,2 -2,2 -1.10457,0 -2,-0.89543 -2,-2 0,-1.10457 0.89543,-2 2,-2 z m 2,-2 m 2,2 c 1.10457,0 2,0.89543 2,2 0,1.10457 -0.89543,2 -2,2 -1.10457,0 -2,-0.89543 -2,-2 0,-1.10457 0.89543,-2 2,-2 z m -114,2 m 2,2 c 1.10457,0 2,0.89543 2,2 0,1.10457 -0.895431,2 -2,2 -1.10457,0 -2,-0.89543 -2,-2 0,-1.10457 0.895431,-2 2,-2 z m 2,-2 m 2,2 c 1.10457,0 2,0.89543 2,2 0,1.10457 -0.895431,2 -2,2 -1.10457,0 -2,-0.89543 -2,-2 0,-1.10457 0.895431,-2 2,-2 z m 2,-2 m 2,2 c 1.10457,0 2,0.89543 2,2 0,1.10457 -0.895431,2 -2,2 -1.10457,0 -2,-0.89543 -2,-2 0,-1.10457 0.895431,-2 2,-2 z m 2,-2 m 2,2 c 1.10457,0 2,0.89543 2,2 0,1.10457 -0.895431,2 -2,2 -1.10457,0 -2,-0.89543 -2,-2 0,-1.10457 0.895431,-2 2,-2 z m 2,-2 m 2,2 c 1.10457,0 2,0.89543 2,2 0,1.10457 -0.895431,2 -2,2 -1.10457,0 -2,-0.89543 -2,-2 0,-1.10457 0.895431,-2 2,-2 z m 2,-2 m 2,2 c 1.10457,0 2,0.89543 2,2 0,1.10457 -0.895431,2 -2,2 -1.10457,0 -2,-0.89543 -2,-2 0,-1.10457 0.895431,-2 2,-2 z m 2,-2 m 2,2 c 1.10457,0 2,0.89543 2,2 0,1.10457 -0.895431,2 -2,2 -1.10457,0 -2,-0.89543 -2,-2 0,-1.10457 0.895431,-2 2,-2 z m 18,-2 m 2,2 c 1.10457,0 2,0.89543 2,2 0,1.10457 -0.895431,2 -2,2 -1.10457,0 -2,-0.89543 -2,-2 0,-1.10457 0.895431,-2 2,-2 z m 2,-2 m 2,2 c 1.10457,0 2,0.89543 2,2 0,1.10457 -0.895431,2 -2,2 -1.10457,0 -2,-0.89543 -2,-2 0,-1.10457 0.895431,-2 2,-2 z m 2,-2 m 2,2 c 1.10457,0 2,0.89543 2,2 0,1.10457 -0.895431,2 -2,2 -1.10457,0 -2,-0.89543 -2,-2 0,-1.10457 0.895431,-2 2,-2 z m 14,-2 m 2,2 c 1.10457,0 2,0.89543 2,2 0,1.10457 -0.895431,2 -2,2 -1.10457,0 -2,-0.89543 -2,-2 0,-1.10457 0.895431,-2 2,-2 z m 6,-2 m 2,2 c 1.10457,0 2,0.89543 2,2 0,1.10457 -0.895431,2 -2,2 -1.10457,0 -2,-0.89543 -2,-2 0,-1.10457 0.895431,-2 2,-2 z m 2,-2 m 2,2 c 1.10457,0 2,0.89543 2,2 0,1.10457 -0.895431,2 -2,2 -1.10457,0 -2,-0.89543 -2,-2 0,-1.10457 0.895431,-2 2,-2 z m 6,-2 m 2,2 c 1.10457,0 2,0.89543 2,2 0,1.10457 -0.89543,2 -2,2 -1.10457,0 -2,-0.89543 -2,-2 0,-1.10457 0.89543,-2 2,-2 z m 6,-2 m 2,2 c 1.10457,0 2,0.89543 2,2 0,1.10457 -0.89543,2 -2,2 -1.10457,0 -2,-0.89543 -2,-2 0,-1.10457 0.89543,-2 2,-2 z m 2,-2 m 2,2 c 1.10457,0 2,0.89543 2,2 0,1.10457 -0.89543,2 -2,2 -1.10457,0 -2,-0.89543 -2,-2 0,-1.10457 0.89543,-2 2,-2 z m 6,-2 m 2,2 c 1.10457,0 2,0.89543 2,2 0,1.10457 -0.89543,2 -2,2 -1.10457,0 -2,-0.89543 -2,-2 0,-1.10457 0.89543,-2 2,-2 z m -110,2 m 2,2 c 1.10457,0 2,0.89543 2,2 0,1.10457 -0.895431,2 -2,2 -1.10457,0 -2,-0.89543 -2,-2 0,-1.10457 0.895431,-2 2,-2 z m 22,-2 m 2,2 c 1.10457,0 2,0.89543 2,2 0,1.10457 -0.895431,2 -2,2 -1.10457,0 -2,-0.89543 -2,-2 0,-1.10457 0.895431,-2 2,-2 z m 14,-2 m 2,2 c 1.10457,0 2,0.89543 2,2 0,1.10457 -0.895431,2 -2,2 -1.10457,0 -2,-0.89543 -2,-2 0,-1.10457 0.895431,-2 2,-2 z m 22,-2 m 2,2 c 1.10457,0 2,0.89543 2,2 0,1.10457 -0.895431,2 -2,2 -1.10457,0 -2,-0.89543 -2,-2 0,-1.10457 0.895431,-2 2,-2 z m 14,-2 m 2,2 c 1.10457,0 2,0.89543 2,2 0,1.10457 -0.895431,2 -2,2 -1.10457,0 -2,-0.89543 -2,-2 0,-1.10457 0.895431,-2 2,-2 z m 14,-2 m 2,2 c 1.10457,0 2,0.89543 2,2 0,1.10457 -0.89543,2 -2,2 -1.10457,0 -2,-0.89543 -2,-2 0,-1.10457 0.89543,-2 2,-2 z m 2,-2 m 2,2 c 1.10457,0 2,0.89543 2,2 0,1.10457 -0.89543,2 -2,2 -1.10457,0 -2,-0.89543 -2,-2 0,-1.10457 0.89543,-2 2,-2 z m 6,-2 m 2,2 c 1.10457,0 2,0.89543 2,2 0,1.10457 -0.89543,2 -2,2 -1.10457,0 -2,-0.89543 -2,-2 0,-1.10457 0.89543,-2 2,-2 z m 2,-2 m 2,2 c 1.10457,0 2,0.89543 2,2 0,1.10457 -0.89543,2 -2,2 -1.10457,0 -2,-0.89543 -2,-2 0,-1.10457 0.89543,-2 2,-2 z m -114,2 m 2,2 c 1.10457,0 2,0.89543 2,2 0,1.10457 -0.895431,2 -2,2 -1.10457,0 -2,-0.89543 -2,-2 0,-1.10457 0.895431,-2 2,-2 z m 6,-2 m 2,2 c 1.10457,0 2,0.89543 2,2 0,1.10457 -0.895431,2 -2,2 -1.10457,0 -2,-0.89543 -2,-2 0,-1.10457 0.895431,-2 2,-2 z m 2,-2 m 2,2 c 1.10457,0 2,0.89543 2,2 0,1.10457 -0.895431,2 -2,2 -1.10457,0 -2,-0.89543 -2,-2 0,-1.10457 0.895431,-2 2,-2 z m 2,-2 m 2,2 c 1.10457,0 2,0.89543 2,2 0,1.10457 -0.895431,2 -2,2 -1.10457,0 -2,-0.89543 -2,-2 0,-1.10457 0.895431,-2 2,-2 z m 6,-2 m 2,2 c 1.10457,0 2,0.89543 2,2 0,1.10457 -0.895431,2 -2,2 -1.10457,0 -2,-0.89543 -2,-2 0,-1.10457 0.895431,-2 2,-2 z m 14,-2 m 2,2 c 1.10457,0 2,0.89543 2,2 0,1.10457 -0.895431,2 -2,2 -1.10457,0 -2,-0.89543 -2,-2 0,-1.10457 0.895431,-2 2,-2 z m 6,-2 m 2,2 c 1.10457,0 2,0.89543 2,2 0,1.10457 -0.895431,2 -2,2 -1.10457,0 -2,-0.89543 -2,-2 0,-1.10457 0.895431,-2 2,-2 z m 6,-2 m 2,2 c 1.10457,0 2,0.89543 2,2 0,1.10457 -0.895431,2 -2,2 -1.10457,0 -2,-0.89543 -2,-2 0,-1.10457 0.895431,-2 2,-2 z m 6,-2 m 2,2 c 1.10457,0 2,0.89543 2,2 0,1.10457 -0.895431,2 -2,2 -1.10457,0 -2,-0.89543 -2,-2 0,-1.10457 0.895431,-2 2,-2 z m 2,-2 m 2,2 c 1.10457,0 2,0.89543 2,2 0,1.10457 -0.895431,2 -2,2 -1.10457,0 -2,-0.89543 -2,-2 0,-1.10457 0.895431,-2 2,-2 z m 2,-2 m 2,2 c 1.10457,0 2,0.89543 2,2 0,1.10457 -0.895431,2 -2,2 -1.10457,0 -2,-0.89543 -2,-2 0,-1.10457 0.895431,-2 2,-2 z m 6,-2 m 2,2 c 1.10457,0 2,0.89543 2,2 0,1.10457 -0.895431,2 -2,2 -1.10457,0 -2,-0.89543 -2,-2 0,-1.10457 0.895431,-2 2,-2 z m 2,-2 m 2,2 c 1.10457,0 2,0.89543 2,2 0,1.10457 -0.89543,2 -2,2 -1.10457,0 -2,-0.89543 -2,-2 0,-1.10457 0.89543,-2 2,-2 z m 2,-2 m 2,2 c 1.10457,0 2,0.89543 2,2 0,1.10457 -0.89543,2 -2,2 -1.10457,0 -2,-0.89543 -2,-2 0,-1.10457 0.89543,-2 2,-2 z m 2,-2 m 2,2 c 1.10457,0 2,0.89543 2,2 0,1.10457 -0.89543,2 -2,2 -1.10457,0 -2,-0.89543 -2,-2 0,-1.10457 0.89543,-2 2,-2 z m 2,-2 m 2,2 c 1.10457,0 2,0.89543 2,2 0,1.10457 -0.89543,2 -2,2 -1.10457,0 -2,-0.89543 -2,-2 0,-1.10457 0.89543,-2 2,-2 z m 6,-2 m 2,2 c 1.10457,0 2,0.89543 2,2 0,1.10457 -0.89543,2 -2,2 -1.10457,0 -2,-0.89543 -2,-2 0,-1.10457 0.89543,-2 2,-2 z m -106,2 m 2,2 c 1.10457,0 2,0.89543 2,2 0,1.10457 -0.895431,2 -2,2 -1.10457,0 -2,-0.89543 -2,-2 0,-1.10457 0.895431,-2 2,-2 z m 6,-2 m 2,2 c 1.10457,0 2,0.89543 2,2 0,1.10457 -0.895431,2 -2,2 -1.10457,0 -2,-0.89543 -2,-2 0,-1.10457 0.895431,-2 2,-2 z m 2,-2 m 2,2 c 1.10457,0 2,0.89543 2,2 0,1.10457 -0.895431,2 -2,2 -1.10457,0 -2,-0.89543 -2,-2 0,-1.10457 0.895431,-2 2,-2 z m 2,-2 m 2,2 c 1.10457,0 2,0.89543 2,2 0,1.10457 -0.895431,2 -2,2 -1.10457,0 -2,-0.89543 -2,-2 0,-1.10457 0.895431,-2 2,-2 z m 6,-2 m 2,2 c 1.10457,0 2,0.89543 2,2 0,1.10457 -0.895431,2 -2,2 -1.10457,0 -2,-0.89543 -2,-2 0,-1.10457 0.895431,-2 2,-2 z m 6,-2 m 2,2 c 1.10457,0 2,0.89543 2,2 0,1.10457 -0.895431,2 -2,2 -1.10457,0 -2,-0.89543 -2,-2 0,-1.10457 0.895431,-2 2,-2 z m 10,-2 m 2,2 c 1.10457,0 2,0.89543 2,2 0,1.10457 -0.895431,2 -2,2 -1.10457,0 -2,-0.89543 -2,-2 0,-1.10457 0.895431,-2 2,-2 z m 2,-2 m 2,2 c 1.10457,0 2,0.89543 2,2 0,1.10457 -0.895431,2 -2,2 -1.10457,0 -2,-0.89543 -2,-2 0,-1.10457 0.895431,-2 2,-2 z m 6,-2 m 2,2 c 1.10457,0 2,0.89543 2,2 0,1.10457 -0.895431,2 -2,2 -1.10457,0 -2,-0.89543 -2,-2 0,-1.10457 0.895431,-2 2,-2 z m 6,-2 m 2,2 c 1.10457,0 2,0.89543 2,2 0,1.10457 -0.895431,2 -2,2 -1.10457,0 -2,-0.89543 -2,-2 0,-1.10457 0.895431,-2 2,-2 z m 10,-2 m 2,2 c 1.10457,0 2,0.89543 2,2 0,1.10457 -0.895431,2 -2,2 -1.10457,0 -2,-0.89543 -2,-2 0,-1.10457 0.895431,-2 2,-2 z m 6,-2 m 2,2 c 1.10457,0 2,0.89543 2,2 0,1.10457 -0.89543,2 -2,2 -1.10457,0 -2,-0.89543 -2,-2 0,-1.10457 0.89543,-2 2,-2 z m 6,-2 m 2,2 c 1.10457,0 2,0.89543 2,2 0,1.10457 -0.89543,2 -2,2 -1.10457,0 -2,-0.89543 -2,-2 0,-1.10457 0.89543,-2 2,-2 z m 2,-2 m 2,2 c 1.10457,0 2,0.89543 2,2 0,1.10457 -0.89543,2 -2,2 -1.10457,0 -2,-0.89543 -2,-2 0,-1.10457 0.89543,-2 2,-2 z m 2,-2 m 2,2 c 1.10457,0 2,0.89543 2,2 0,1.10457 -0.89543,2 -2,2 -1.10457,0 -2,-0.89543 -2,-2 0,-1.10457 0.89543,-2 2,-2 z m 10,-2 m 2,2 c 1.10457,0 2,0.89543 2,2 0,1.10457 -0.89543,2 -2,2 -1.10457,0 -2,-0.89543 -2,-2 0,-1.10457 0.89543,-2 2,-2 z m -114,2 m 2,2 c 1.10457,0 2,0.89543 2,2 0,1.10457 -0.895431,2 -2,2 -1.10457,0 -2,-0.89543 -2,-2 0,-1.10457 0.895431,-2 2,-2 z m 6,-2 m 2,2 c 1.10457,0 2,0.89543 2,2 0,1.10457 -0.895431,2 -2,2 -1.10457,0 -2,-0.89543 -2,-2 0,-1.10457 0.895431,-2 2,-2 z m 2,-2 m 2,2 c 1.10457,0 2,0.89543 2,2 0,1.10457 -0.895431,2 -2,2 -1.10457,0 -2,-0.89543 -2,-2 0,-1.10457 0.895431,-2 2,-2 z m 2,-2 m 2,2 c 1.10457,0 2,0.89543 2,2 0,1.10457 -0.895431,2 -2,2 -1.10457,0 -2,-0.89543 -2,-2 0,-1.10457 0.895431,-2 2,-2 z m 6,-2 m 2,2 c 1.10457,0 2,0.89543 2,2 0,1.10457 -0.895431,2 -2,2 -1.10457,0 -2,-0.89543 -2,-2 0,-1.10457 0.895431,-2 2,-2 z m 6,-2 m 2,2 c 1.10457,0 2,0.89543 2,2 0,1.10457 -0.895431,2 -2,2 -1.10457,0 -2,-0.89543 -2,-2 0,-1.10457 0.895431,-2 2,-2 z m 2,-2 m 2,2 c 1.10457,0 2,0.89543 2,2 0,1.10457 -0.895431,2 -2,2 -1.10457,0 -2,-0.89543 -2,-2 0,-1.10457 0.895431,-2 2,-2 z m 2,-2 m 2,2 c 1.10457,0 2,0.89543 2,2 0,1.10457 -0.895431,2 -2,2 -1.10457,0 -2,-0.89543 -2,-2 0,-1.10457 0.895431,-2 2,-2 z m 2,-2 m 2,2 c 1.10457,0 2,0.89543 2,2 0,1.10457 -0.895431,2 -2,2 -1.10457,0 -2,-0.89543 -2,-2 0,-1.10457 0.895431,-2 2,-2 z m 6,-2 m 2,2 c 1.10457,0 2,0.89543 2,2 0,1.10457 -0.895431,2 -2,2 -1.10457,0 -2,-0.89543 -2,-2 0,-1.10457 0.895431,-2 2,-2 z m 10,-2 m 2,2 c 1.10457,0 2,0.89543 2,2 0,1.10457 -0.895431,2 -2,2 -1.10457,0 -2,-0.89543 -2,-2 0,-1.10457 0.895431,-2 2,-2 z m 2,-2 m 2,2 c 1.10457,0 2,0.89543 2,2 0,1.10457 -0.895431,2 -2,2 -1.10457,0 -2,-0.89543 -2,-2 0,-1.10457 0.895431,-2 2,-2 z m 2,-2 m 2,2 c 1.10457,0 2,0.89543 2,2 0,1.10457 -0.895431,2 -2,2 -1.10457,0 -2,-0.89543 -2,-2 0,-1.10457 0.895431,-2 2,-2 z m 6,-2 m 2,2 c 1.10457,0 2,0.89543 2,2 0,1.10457 -0.895431,2 -2,2 -1.10457,0 -2,-0.89543 -2,-2 0,-1.10457 0.895431,-2 2,-2 z m 2,-2 m 2,2 c 1.10457,0 2,0.89543 2,2 0,1.10457 -0.89543,2 -2,2 -1.10457,0 -2,-0.89543 -2,-2 0,-1.10457 0.89543,-2 2,-2 z m 6,-2 m 2,2 c 1.10457,0 2,0.89543 2,2 0,1.10457 -0.89543,2 -2,2 -1.10457,0 -2,-0.89543 -2,-2 0,-1.10457 0.89543,-2 2,-2 z m 10,-2 m 2,2 c 1.10457,0 2,0.89543 2,2 0,1.10457 -0.89543,2 -2,2 -1.10457,0 -2,-0.89543 -2,-2 0,-1.10457 0.89543,-2 2,-2 z m 6,-2 m 2,2 c 1.10457,0 2,0.89543 2,2 0,1.10457 -0.89543,2 -2,2 -1.10457,0 -2,-0.89543 -2,-2 0,-1.10457 0.89543,-2 2,-2 z m -114,2 m 2,2 c 1.10457,0 2,0.89543 2,2 0,1.10457 -0.895431,2 -2,2 -1.10457,0 -2,-0.89543 -2,-2 0,-1.10457 0.895431,-2 2,-2 z m 22,-2 m 2,2 c 1.10457,0 2,0.89543 2,2 0,1.10457 -0.895431,2 -2,2 -1.10457,0 -2,-0.89543 -2,-2 0,-1.10457 0.895431,-2 2,-2 z m 6,-2 m 2,2 c 1.10457,0 2,0.89543 2,2 0,1.10457 -0.895431,2 -2,2 -1.10457,0 -2,-0.89543 -2,-2 0,-1.10457 0.895431,-2 2,-2 z m 10,-2 m 2,2 c 1.10457,0 2,0.89543 2,2 0,1.10457 -0.895431,2 -2,2 -1.10457,0 -2,-0.89543 -2,-2 0,-1.10457 0.895431,-2 2,-2 z m 10,-2 m 2,2 c 1.10457,0 2,0.89543 2,2 0,1.10457 -0.895431,2 -2,2 -1.10457,0 -2,-0.89543 -2,-2 0,-1.10457 0.895431,-2 2,-2 z m 22,-2 m 2,2 c 1.10457,0 2,0.89543 2,2 0,1.10457 -0.895431,2 -2,2 -1.10457,0 -2,-0.89543 -2,-2 0,-1.10457 0.895431,-2 2,-2 z m 10,-2 m 2,2 c 1.10457,0 2,0.89543 2,2 0,1.10457 -0.89543,2 -2,2 -1.10457,0 -2,-0.89543 -2,-2 0,-1.10457 0.89543,-2 2,-2 z m 2,-2 m 2,2 c 1.10457,0 2,0.89543 2,2 0,1.10457 -0.89543,2 -2,2 -1.10457,0 -2,-0.89543 -2,-2 0,-1.10457 0.89543,-2 2,-2 z m 2,-2 m 2,2 c 1.10457,0 2,0.89543 2,2 0,1.10457 -0.89543,2 -2,2 -1.10457,0 -2,-0.89543 -2,-2 0,-1.10457 0.89543,-2 2,-2 z m 6,-2 m 2,2 c 1.10457,0 2,0.89543 2,2 0,1.10457 -0.89543,2 -2,2 -1.10457,0 -2,-0.89543 -2,-2 0,-1.10457 0.89543,-2 2,-2 z m -110,2 m 2,2 c 1.10457,0 2,0.89543 2,2 0,1.10457 -0.895431,2 -2,2 -1.10457,0 -2,-0.89543 -2,-2 0,-1.10457 0.895431,-2 2,-2 z m 2,-2 m 2,2 c 1.10457,0 2,0.89543 2,2 0,1.10457 -0.895431,2 -2,2 -1.10457,0 -2,-0.89543 -2,-2 0,-1.10457 0.895431,-2 2,-2 z m 2,-2 m 2,2 c 1.10457,0 2,0.89543 2,2 0,1.10457 -0.895431,2 -2,2 -1.10457,0 -2,-0.89543 -2,-2 0,-1.10457 0.895431,-2 2,-2 z m 2,-2 m 2,2 c 1.10457,0 2,0.89543 2,2 0,1.10457 -0.895431,2 -2,2 -1.10457,0 -2,-0.89543 -2,-2 0,-1.10457 0.895431,-2 2,-2 z m 2,-2 m 2,2 c 1.10457,0 2,0.89543 2,2 0,1.10457 -0.895431,2 -2,2 -1.10457,0 -2,-0.89543 -2,-2 0,-1.10457 0.895431,-2 2,-2 z m 2,-2 m 2,2 c 1.10457,0 2,0.89543 2,2 0,1.10457 -0.895431,2 -2,2 -1.10457,0 -2,-0.89543 -2,-2 0,-1.10457 0.895431,-2 2,-2 z m 2,-2 m 2,2 c 1.10457,0 2,0.89543 2,2 0,1.10457 -0.895431,2 -2,2 -1.10457,0 -2,-0.89543 -2,-2 0,-1.10457 0.895431,-2 2,-2 z m 6,-2 m 2,2 c 1.10457,0 2,0.89543 2,2 0,1.10457 -0.895431,2 -2,2 -1.10457,0 -2,-0.89543 -2,-2 0,-1.10457 0.895431,-2 2,-2 z m 2,-2 m 2,2 c 1.10457,0 2,0.89543 2,2 0,1.10457 -0.895431,2 -2,2 -1.10457,0 -2,-0.89543 -2,-2 0,-1.10457 0.895431,-2 2,-2 z m 2,-2 m 2,2 c 1.10457,0 2,0.89543 2,2 0,1.10457 -0.895431,2 -2,2 -1.10457,0 -2,-0.89543 -2,-2 0,-1.10457 0.895431,-2 2,-2 z m 6,-2 m 2,2 c 1.10457,0 2,0.89543 2,2 0,1.10457 -0.895431,2 -2,2 -1.10457,0 -2,-0.89543 -2,-2 0,-1.10457 0.895431,-2 2,-2 z m 6,-2 m 2,2 c 1.10457,0 2,0.89543 2,2 0,1.10457 -0.895431,2 -2,2 -1.10457,0 -2,-0.89543 -2,-2 0,-1.10457 0.895431,-2 2,-2 z m 10,-2 m 2,2 c 1.10457,0 2,0.89543 2,2 0,1.10457 -0.895431,2 -2,2 -1.10457,0 -2,-0.89543 -2,-2 0,-1.10457 0.895431,-2 2,-2 z m 2,-2 m 2,2 c 1.10457,0 2,0.89543 2,2 0,1.10457 -0.895431,2 -2,2 -1.10457,0 -2,-0.89543 -2,-2 0,-1.10457 0.895431,-2 2,-2 z m 2,-2 m 2,2 c 1.10457,0 2,0.89543 2,2 0,1.10457 -0.895431,2 -2,2 -1.10457,0 -2,-0.89543 -2,-2 0,-1.10457 0.895431,-2 2,-2 z m 2,-2 m 2,2 c 1.10457,0 2,0.89543 2,2 0,1.10457 -0.895431,2 -2,2 -1.10457,0 -2,-0.89543 -2,-2 0,-1.10457 0.895431,-2 2,-2 z m 26,-2 m 2,2 c 1.10457,0 2,0.89543 2,2 0,1.10457 -0.89543,2 -2,2 -1.10457,0 -2,-0.89543 -2,-2 0,-1.10457 0.89543,-2 2,-2 z"
           id="path1" />
      </g>
    </g>
  </g>
</svg>
