<?xml version="1.0" encoding="UTF-8" standalone="no"?>
<svg
   width="256.10547pt"
   height="309.94235pt"
   viewBox="0 0 256.10546 309.94235"
   version="1.1"
   id="svg14"
   sodipodi:docname="affiliation.svg"
   inkscape:version="1.4 (86a8ad7, 2024-10-11)"
   xmlns:inkscape="http://www.inkscape.org/namespaces/inkscape"
   xmlns:sodipodi="http://sodipodi.sourceforge.net/DTD/sodipodi-0.dtd"
   xmlns="http://www.w3.org/2000/svg"
   xmlns:svg="http://www.w3.org/2000/svg">
  <defs
     id="defs14" />
  <sodipodi:namedview
     id="namedview14"
     pagecolor="#ffffff"
     bordercolor="#000000"
     borderopacity="0.25"
     inkscape:showpageshadow="2"
     inkscape:pageopacity="0.0"
     inkscape:pagecheckerboard="0"
     inkscape:deskcolor="#d1d1d1"
     inkscape:document-units="pt"
     inkscape:zoom="1.1732005"
     inkscape:cx="244.62996"
     inkscape:cy="295.34593"
     inkscape:window-width="2560"
     inkscape:window-height="1494"
     inkscape:window-x="-11"
     inkscape:window-y="-11"
     inkscape:window-maximized="1"
     inkscape:current-layer="g12" />
  <g
     class="svglite"
     id="g14"
     transform="translate(-183.47247,-45.189256)">
    <defs
       id="defs1">
      <style
         type="text/css"
         id="style1"><![CDATA[
    .svglite line, .svglite polyline, .svglite polygon, .svglite path, .svglite rect, .svglite circle {
      fill: none;
      stroke: #000000;
      stroke-linecap: round;
      stroke-linejoin: round;
      stroke-miterlimit: 10.00;
    }
    .svglite text {
      white-space: pre;
    }
    .svglite g.glyphgroup path {
      fill: inherit;
      stroke: none;
    }
  ]]></style>
    </defs>
    <defs
       id="defs2">
      <clipPath
         id="cpMC4wMHw2MTcuMDB8MC4wMHwzODkuMDA=">
        <rect
           x="0"
           y="0"
           width="617"
           height="389"
           id="rect2" />
      </clipPath>
    </defs>
    <g
       clip-path="url(#cpMC4wMHw2MTcuMDB8MC4wMHwzODkuMDA=)"
       id="g2" />
    <defs
       id="defs3">
      <clipPath
         id="cpMTE0LjAwfDUwMy4wMHwwLjAwfDM4OS4wMA==">
        <rect
           x="114"
           y="0"
           width="389"
           height="389"
           id="rect3" />
      </clipPath>
    </defs>
    <g
       clip-path="url(#cpMTE0LjAwfDUwMy4wMHwwLjAwfDM4OS4wMA==)"
       id="g4">
      <rect
         x="114"
         y="0"
         width="389"
         height="389"
         style="stroke:#ffffff;stroke-width:0"
         id="rect4" />
    </g>
    <g
       clip-path="url(#cpMC4wMHw2MTcuMDB8MC4wMHwzODkuMDA=)"
       id="g5" />
    <defs
       id="defs5">
      <clipPath
         id="cpMTE5LjQ4fDQ5Ny41Mnw1LjQ4fDM4My41Mg==">
        <rect
           x="119.48"
           y="5.48"
           width="378.04001"
           height="378.04001"
           id="rect5" />
      </clipPath>
    </defs>
    <g
       clip-path="url(#cpMTE5LjQ4fDQ5Ny41Mnw1LjQ4fDM4My41Mg==)"
       id="g12">
      <rect
         x="119.48"
         y="5.48"
         width="378.04001"
         height="378.04001"
         style="stroke:none;stroke-width:0"
         id="rect6" />
      <polygon
         points="324.85,81.11 326.88,81.43 328.9,81.77 330.91,82.16 332.92,82.57 334.92,83.03 336.91,83.52 338.89,84.05 340.86,84.61 342.83,85.21 344.78,85.84 346.72,86.5 348.64,87.21 350.56,87.94 352.46,88.71 354.34,89.52 356.22,90.35 358.07,91.22 359.91,92.13 361.74,93.06 363.54,94.03 365.33,95.03 367.11,96.07 368.86,97.13 370.59,98.23 372.3,99.36 374,100.51 375.67,101.7 377.32,102.92 378.95,104.16 380.55,105.44 382.14,106.74 360.05,133.07 358.94,132.16 357.81,131.26 356.67,130.39 355.52,129.54 354.35,128.71 353.16,127.9 351.96,127.11 350.75,126.34 349.52,125.6 348.28,124.87 347.03,124.17 345.77,123.49 344.49,122.84 343.2,122.21 341.9,121.6 340.59,121.01 339.27,120.45 337.94,119.91 336.6,119.39 335.25,118.9 333.89,118.44 332.53,117.99 331.15,117.58 329.77,117.18 328.39,116.81 326.99,116.47 325.59,116.15 324.19,115.86 322.78,115.59 321.36,115.35 319.94,115.13 318.52,114.94 317.1,114.77 315.67,114.63 314.24,114.51 312.8,114.43 311.37,114.36 309.94,114.32 308.5,114.31 308.5,79.94 310.55,79.96 312.6,80.02 314.65,80.11 316.7,80.24 318.74,80.4 320.78,80.6 322.82,80.84 "
         style="fill:#f8766d;fill-opacity:0.8;stroke:#ffffff;stroke-width:1.07"
         id="polygon6" />
      <polygon
         points="393.67,117.88 394.99,119.39 396.3,120.91 397.57,122.46 398.82,124.03 400.04,125.62 401.23,127.24 402.39,128.87 403.53,130.52 404.63,132.2 405.71,133.89 406.76,135.6 407.77,137.33 408.76,139.08 409.71,140.84 410.64,142.62 411.53,144.42 412.39,146.23 413.22,148.05 414.02,149.89 414.78,151.75 415.51,153.62 416.21,155.5 416.88,157.39 417.51,159.29 418.11,161.2 418.68,163.13 419.21,165.06 419.71,167 420.17,168.96 420.6,170.92 421,172.88 421.36,174.85 421.69,176.83 421.98,178.82 422.24,180.81 422.46,182.8 422.65,184.8 422.8,186.8 422.92,188.8 423,190.8 423.05,192.81 423.06,194.81 423.03,196.82 422.98,198.82 422.88,200.83 422.75,202.83 422.59,204.83 422.39,206.82 422.16,208.82 421.89,210.8 421.59,212.79 421.25,214.76 420.88,216.73 420.47,218.7 420.03,220.65 419.56,222.6 419.05,224.54 418.51,226.47 417.93,228.39 417.32,230.31 416.68,232.21 416,234.09 415.29,235.97 414.55,237.83 413.77,239.68 412.96,241.52 412.13,243.34 411.25,245.15 410.35,246.94 409.42,248.71 408.45,250.47 407.46,252.21 406.43,253.94 405.38,255.64 404.29,257.33 403.18,259 402.03,260.64 400.86,262.27 399.66,263.88 398.43,265.46 397.18,267.03 395.89,268.57 394.58,270.09 393.25,271.58 391.88,273.05 390.5,274.5 389.08,275.92 387.64,277.32 386.18,278.7 384.7,280.04 383.19,281.36 381.66,282.66 380.1,283.93 378.52,285.17 376.93,286.38 375.31,287.56 373.67,288.72 372.01,289.84 370.33,290.94 368.63,292.01 366.92,293.05 365.18,294.05 363.43,295.03 361.66,295.98 359.88,296.89 358.08,297.78 356.26,298.63 354.43,299.45 352.59,300.24 350.73,300.99 348.86,301.71 346.97,302.4 345.08,303.06 343.17,303.68 341.26,304.28 339.33,304.83 337.39,305.35 335.45,305.84 333.49,306.3 331.53,306.72 329.56,307.1 327.59,307.46 325.61,307.77 323.62,308.06 321.63,308.3 319.64,308.52 317.64,308.69 315.64,308.84 313.64,308.94 311.63,309.02 309.63,309.05 307.62,309.05 305.62,309.02 303.61,308.95 301.61,308.85 299.61,308.71 297.61,308.54 295.62,308.33 293.62,308.09 291.64,307.81 289.66,307.5 287.68,307.15 285.71,306.77 283.75,306.35 281.8,305.9 279.85,305.42 277.91,304.9 275.98,304.35 274.07,303.76 272.16,303.14 270.26,302.49 268.38,301.8 266.51,301.08 264.65,300.33 262.8,299.55 260.97,298.73 259.15,297.88 257.35,297 255.56,296.09 253.79,295.15 252.04,294.18 250.3,293.17 248.58,292.14 246.88,291.08 245.2,289.98 243.54,288.86 241.9,287.71 240.28,286.53 238.67,285.32 237.1,284.08 235.54,282.82 234,281.53 232.49,280.21 231,278.87 229.54,277.5 228.1,276.1 226.68,274.68 225.29,273.24 223.92,271.77 222.58,270.27 221.27,268.76 219.98,267.22 218.72,265.66 217.49,264.08 216.29,262.47 215.11,260.85 213.96,259.2 212.85,257.54 211.76,255.85 210.7,254.15 209.67,252.43 208.67,250.69 207.7,248.93 206.76,247.16 205.86,245.37 204.98,243.57 204.14,241.75 203.33,239.91 202.55,238.06 201.8,236.2 201.09,234.33 200.41,232.44 199.76,230.54 199.15,228.63 198.56,226.71 198.02,224.78 197.5,222.85 197.03,220.9 196.58,218.94 196.17,216.98 195.79,215.01 195.45,213.03 195.14,211.05 194.87,209.06 194.63,207.07 194.43,205.08 194.26,203.08 194.13,201.08 194.03,199.07 193.97,197.07 193.94,195.06 193.95,193.06 193.99,191.05 194.07,189.05 194.18,187.05 194.33,185.05 194.52,183.05 194.73,181.06 194.99,179.07 195.27,177.08 195.6,175.1 195.95,173.13 196.34,171.16 196.77,169.2 197.23,167.25 197.72,165.3 198.25,163.37 198.81,161.44 199.41,159.53 200.04,157.62 200.7,155.73 201.4,153.85 202.12,151.98 202.89,150.13 203.68,148.28 204.5,146.46 205.36,144.64 206.25,142.84 207.17,141.06 208.12,139.3 209.1,137.55 210.11,135.82 211.16,134.1 212.23,132.41 213.33,130.73 214.46,129.07 215.62,127.44 216.81,125.82 218.03,124.23 219.27,122.66 220.54,121.1 221.84,119.58 223.17,118.07 224.52,116.59 225.89,115.13 227.3,113.7 228.72,112.29 230.17,110.9 231.65,109.54 233.15,108.21 234.67,106.9 236.22,105.63 237.78,104.37 239.37,103.15 240.98,101.95 242.61,100.79 244.26,99.65 245.93,98.54 247.62,97.46 249.33,96.4 251.06,95.38 252.8,94.39 254.56,93.43 256.34,92.51 258.13,91.61 259.94,90.74 261.77,89.91 263.61,89.11 265.46,88.34 267.32,87.6 269.2,86.89 271.09,86.22 272.99,85.58 274.9,84.98 276.83,84.41 278.76,83.87 280.7,83.37 282.65,82.9 284.61,82.46 286.57,82.06 288.55,81.69 290.52,81.36 292.51,81.06 294.5,80.8 296.49,80.57 298.48,80.38 300.48,80.22 302.49,80.1 304.49,80.01 306.49,79.96 308.5,79.94 308.5,114.31 307.1,114.32 305.69,114.36 304.29,114.42 302.89,114.51 301.49,114.62 300.09,114.75 298.7,114.91 297.3,115.09 295.92,115.3 294.53,115.54 293.15,115.79 291.78,116.07 290.41,116.38 289.04,116.71 287.68,117.06 286.33,117.44 284.98,117.84 283.64,118.26 282.31,118.71 280.99,119.18 279.68,119.67 278.37,120.18 277.07,120.72 275.79,121.29 274.51,121.87 273.24,122.48 271.99,123.1 270.74,123.75 269.51,124.43 268.29,125.12 267.08,125.83 265.89,126.57 264.7,127.33 263.53,128.1 262.38,128.9 261.24,129.72 260.11,130.55 259,131.41 257.9,132.29 256.82,133.18 255.75,134.1 254.71,135.03 253.67,135.98 252.66,136.95 251.66,137.94 250.68,138.94 249.71,139.96 248.77,141 247.84,142.05 246.93,143.12 246.04,144.21 245.17,145.31 244.32,146.43 243.49,147.56 242.67,148.7 241.88,149.86 241.11,151.04 240.36,152.22 239.63,153.42 238.92,154.63 238.23,155.86 237.57,157.09 236.92,158.34 236.3,159.6 235.7,160.87 235.12,162.15 234.57,163.44 234.04,164.74 233.53,166.05 233.04,167.36 232.58,168.69 232.14,170.02 231.72,171.36 231.33,172.71 230.96,174.06 230.61,175.42 230.29,176.79 229.99,178.16 229.72,179.54 229.47,180.92 229.24,182.31 229.04,183.7 228.86,185.09 228.71,186.48 228.58,187.88 228.48,189.28 228.4,190.68 228.35,192.09 228.32,193.49 228.31,194.89 228.33,196.3 228.37,197.7 228.44,199.1 228.53,200.51 228.65,201.9 228.79,203.3 228.96,204.7 229.15,206.09 229.37,207.47 229.61,208.86 229.87,210.24 230.16,211.61 230.47,212.98 230.8,214.34 231.16,215.7 231.55,217.05 231.95,218.39 232.38,219.73 232.84,221.06 233.31,222.38 233.81,223.69 234.33,224.99 234.88,226.29 235.45,227.57 236.04,228.85 236.65,230.11 237.28,231.36 237.94,232.6 238.62,233.83 239.32,235.05 240.04,236.26 240.78,237.45 241.54,238.63 242.32,239.79 243.13,240.94 243.95,242.08 244.79,243.2 245.66,244.31 246.54,245.4 247.44,246.48 248.36,247.54 249.3,248.59 250.25,249.62 251.23,250.63 252.22,251.62 253.23,252.6 254.25,253.56 255.29,254.5 256.35,255.42 257.43,256.32 258.52,257.21 259.62,258.07 260.74,258.92 261.88,259.74 263.03,260.55 264.19,261.34 265.37,262.1 266.56,262.85 267.76,263.57 268.98,264.27 270.2,264.96 271.44,265.61 272.69,266.25 273.96,266.87 275.23,267.46 276.51,268.03 277.8,268.58 279.1,269.11 280.41,269.61 281.73,270.09 283.06,270.55 284.4,270.98 285.74,271.39 287.09,271.78 288.45,272.14 289.81,272.48 291.18,272.8 292.55,273.09 293.93,273.36 295.31,273.6 296.7,273.82 298.09,274.01 299.48,274.18 300.88,274.33 302.28,274.45 303.68,274.55 305.08,274.62 306.48,274.67 307.89,274.69 309.29,274.69 310.69,274.66 312.1,274.61 313.5,274.53 314.9,274.43 316.3,274.31 317.69,274.16 319.09,273.99 320.48,273.79 321.86,273.57 323.25,273.32 324.62,273.05 326,272.76 327.36,272.44 328.72,272.1 330.08,271.73 331.43,271.34 332.77,270.93 334.1,270.49 335.43,270.03 336.75,269.55 338.06,269.04 339.36,268.51 340.65,267.96 341.93,267.39 343.2,266.79 344.46,266.17 345.71,265.53 346.95,264.87 348.18,264.19 349.39,263.48 350.59,262.76 351.78,262.01 352.96,261.24 354.12,260.45 355.26,259.64 356.4,258.81 357.52,257.97 358.62,257.1 359.71,256.21 360.78,255.3 361.84,254.38 362.88,253.44 363.9,252.48 364.91,251.5 365.9,250.5 366.87,249.49 367.82,248.46 368.76,247.41 369.67,246.35 370.57,245.27 371.45,244.17 372.31,243.06 373.15,241.94 373.97,240.8 374.77,239.65 375.55,238.48 376.31,237.3 377.05,236.11 377.77,234.9 378.47,233.68 379.14,232.45 379.8,231.21 380.43,229.95 381.04,228.69 381.63,227.41 382.19,226.13 382.73,224.83 383.25,223.53 383.75,222.22 384.22,220.89 384.67,219.56 385.1,218.23 385.5,216.88 385.88,215.53 386.24,214.17 386.57,212.81 386.88,211.44 387.17,210.06 387.43,208.68 387.66,207.3 387.87,205.91 388.06,204.52 388.23,203.13 388.36,201.73 388.48,200.33 388.57,198.93 388.63,197.53 388.67,196.12 388.69,194.72 388.68,193.32 388.65,191.91 388.59,190.51 388.51,189.11 388.4,187.71 388.27,186.31 388.12,184.91 387.94,183.52 387.73,182.13 387.5,180.75 387.25,179.37 386.97,177.99 386.67,176.62 386.35,175.25 386,173.89 385.63,172.54 385.23,171.19 384.81,169.85 384.37,168.52 383.9,167.2 383.41,165.88 382.9,164.57 382.36,163.28 381.8,161.99 381.22,160.71 380.62,159.44 380,158.18 379.35,156.94 378.68,155.7 377.99,154.48 377.28,153.27 376.55,152.07 375.79,150.89 375.02,149.72 374.23,148.56 373.41,147.41 372.58,146.29 371.72,145.17 370.85,144.07 369.96,142.99 369.05,141.92 368.12,140.87 367.17,139.83 366.2,138.81 365.22,137.81 364.22,136.83 363.2,135.86 362.16,134.91 361.11,133.98 360.05,133.07 382.14,106.74 383.66,108.05 385.16,109.38 386.64,110.73 388.1,112.11 389.53,113.52 390.93,114.95 392.31,116.4 "
         style="fill:#00bfc4;fill-opacity:0.8;stroke:#ffffff;stroke-width:1.07"
         id="polygon7" />
      <line
         x1="347.67999"
         y1="86.849998"
         x2="349.64001"
         y2="81.470001"
         style="stroke-width:1.07;stroke-linecap:butt"
         id="line7" />
      <line
         x1="269.32001"
         y1="302.14999"
         x2="267.35999"
         y2="307.53"
         style="stroke-width:1.07;stroke-linecap:butt"
         id="line8" />
      <text
         x="349.64001"
         y="65.080002"
         style="font-size:11.38px;font-family:Arial"
         textLength="38.580002"
         lengthAdjust="spacingAndGlyphs"
         id="text8"
         transform="translate(-8.8147222,-3.6162963)">Federal</text>
      <text
         x="349.64001"
         y="81.470001"
         style="font-size:11.38px;font-family:Arial"
         textLength="29.48"
         lengthAdjust="spacingAndGlyphs"
         id="text9"
         transform="translate(-8.8147222,-8.3626851)">(11%)</text>
      <text
         x="267.35999"
         y="315.67001"
         text-anchor="end"
         style="font-size:11.38px;font-family:Arial"
         textLength="37.939999"
         lengthAdjust="spacingAndGlyphs"
         id="text10"
         transform="translate(-1.5821296,3.3902778)">MoFBE</text>
      <text
         x="267.35999"
         y="332.06"
         text-anchor="end"
         style="font-size:11.38px;font-family:Arial"
         textLength="30.33"
         lengthAdjust="spacingAndGlyphs"
         id="text11"
         transform="matrix(2.1366369,0,0,2.1366369,-285.56879,-370.50087)">(89%)</text>
      <rect
         x="119.48"
         y="5.48"
         width="378.04001"
         height="378.04001"
         style="stroke:#333333;stroke-width:0"
         id="rect12" />
    </g>
    <g
       clip-path="url(#cpMC4wMHw2MTcuMDB8MC4wMHwzODkuMDA=)"
       id="g13" />
  </g>
</svg>
