<?xml version="1.0" encoding="UTF-8" standalone="no"?>
<svg
   width="393.25311pt"
   height="325.71161pt"
   viewBox="0 0 393.25311 325.7116"
   version="1.1"
   id="svg52"
   sodipodi:docname="education_field.svg"
   inkscape:version="1.4 (86a8ad7, 2024-10-11)"
   xmlns:inkscape="http://www.inkscape.org/namespaces/inkscape"
   xmlns:sodipodi="http://sodipodi.sourceforge.net/DTD/sodipodi-0.dtd"
   xmlns="http://www.w3.org/2000/svg"
   xmlns:svg="http://www.w3.org/2000/svg">
  <defs
     id="defs52" />
  <sodipodi:namedview
     id="namedview52"
     pagecolor="#ffffff"
     bordercolor="#000000"
     borderopacity="0.25"
     inkscape:showpageshadow="2"
     inkscape:pageopacity="0.0"
     inkscape:pagecheckerboard="0"
     inkscape:deskcolor="#d1d1d1"
     inkscape:document-units="pt"
     inkscape:zoom="2.346401"
     inkscape:cx="213.0923"
     inkscape:cy="196.6842"
     inkscape:window-width="2560"
     inkscape:window-height="1494"
     inkscape:window-x="-11"
     inkscape:window-y="-11"
     inkscape:window-maximized="1"
     inkscape:current-layer="g14" />
  <g
     class="svglite"
     id="g52"
     transform="translate(-108.67707,-31.963846)">
    <defs
       id="defs1">
      <style
         type="text/css"
         id="style1"><![CDATA[
    .svglite line, .svglite polyline, .svglite polygon, .svglite path, .svglite rect, .svglite circle {
      fill: none;
      stroke: #000000;
      stroke-linecap: round;
      stroke-linejoin: round;
      stroke-miterlimit: 10.00;
    }
    .svglite text {
      white-space: pre;
    }
    .svglite g.glyphgroup path {
      fill: inherit;
      stroke: none;
    }
  ]]></style>
    </defs>
    <defs
       id="defs2">
      <clipPath
         id="cpMC4wMHw2MTcuMDB8MC4wMHwzODkuMDA=">
        <rect
           x="0"
           y="0"
           width="617"
           height="389"
           id="rect2" />
      </clipPath>
    </defs>
    <g
       clip-path="url(#cpMC4wMHw2MTcuMDB8MC4wMHwzODkuMDA=)"
       id="g2" />
    <defs
       id="defs3">
      <clipPath
         id="cpMTE0LjAwfDUwMy4wMHwwLjAwfDM4OS4wMA==">
        <rect
           x="114"
           y="0"
           width="389"
           height="389"
           id="rect3" />
      </clipPath>
    </defs>
    <g
       clip-path="url(#cpMTE0LjAwfDUwMy4wMHwwLjAwfDM4OS4wMA==)"
       id="g4">
      <rect
         x="114"
         y="0"
         width="389"
         height="389"
         style="stroke:#ffffff;stroke-width:0"
         id="rect4" />
    </g>
    <g
       clip-path="url(#cpMC4wMHw2MTcuMDB8MC4wMHwzODkuMDA=)"
       id="g5" />
    <defs
       id="defs5">
      <clipPath
         id="cpMTE5LjQ4fDQ5Ny41Mnw1LjQ4fDM4My41Mg==">
        <rect
           x="119.48"
           y="5.48"
           width="378.04001"
           height="378.04001"
           id="rect5" />
      </clipPath>
    </defs>
    <g
       clip-path="url(#cpMTE5LjQ4fDQ5Ny41Mnw1LjQ4fDM4My41Mg==)"
       id="g14">
      <rect
         x="119.48"
         y="5.48"
         width="378.04001"
         height="378.04001"
         style="stroke:none;stroke-width:0"
         id="rect6" />
      <polygon
         points="322.97,92.42 324.76,92.69 326.55,92.99 328.34,93.32 330.11,93.69 331.88,94.08 333.65,94.51 335.4,94.97 337.15,95.46 338.89,95.98 340.62,96.53 342.34,97.11 344.05,97.72 345.74,98.36 347.43,99.03 349.11,99.73 350.77,100.46 352.42,101.22 354.05,102.01 355.67,102.82 357.28,103.67 358.87,104.54 360.44,105.44 362,106.37 363.55,107.32 365.07,108.3 366.58,109.31 368.07,110.35 369.54,111.41 370.99,112.5 372.43,113.61 373.84,114.75 375.23,115.91 376.61,117.1 377.96,118.31 379.29,119.54 380.6,120.8 381.88,122.08 383.15,123.38 384.39,124.71 385.6,126.05 386.8,127.42 387.96,128.81 389.11,130.22 390.23,131.65 391.32,133.09 392.39,134.56 393.43,136.05 394.45,137.55 395.44,139.07 396.4,140.61 397.33,142.17 398.24,143.74 399.12,145.32 399.97,146.93 400.79,148.54 401.59,150.17 402.35,151.82 403.09,153.48 403.8,155.15 404.48,156.83 405.12,158.53 405.74,160.23 406.33,161.95 406.89,163.68 407.41,165.41 407.91,167.16 408.38,168.91 408.81,170.67 409.22,172.44 409.59,174.22 409.93,176 410.24,177.79 410.52,179.58 410.76,181.38 410.98,183.18 411.16,184.99 411.31,186.8 411.43,188.61 411.52,190.42 411.58,192.23 411.6,194.05 411.59,195.86 411.55,197.68 411.48,199.49 411.38,201.3 411.24,203.11 411.07,204.92 410.88,206.72 410.64,208.52 410.38,210.32 410.09,212.11 409.76,213.89 409.41,215.67 409.02,217.44 408.6,219.21 408.15,220.97 407.67,222.72 407.15,224.46 406.61,226.19 406.04,227.91 405.44,229.62 404.8,231.32 404.14,233.01 403.45,234.69 402.73,236.35 401.97,238 401.19,239.64 400.39,241.27 399.55,242.88 398.68,244.47 397.79,246.05 358.11,223.14 358.6,222.26 359.08,221.38 359.55,220.48 360,219.58 360.43,218.67 360.85,217.75 361.25,216.83 361.63,215.89 362,214.96 362.35,214.01 362.69,213.06 363.01,212.1 363.31,211.14 363.59,210.18 363.86,209.2 364.11,208.23 364.34,207.25 364.56,206.26 364.76,205.27 364.94,204.28 365.1,203.29 365.25,202.29 365.38,201.29 365.49,200.29 365.58,199.28 365.65,198.28 365.71,197.27 365.75,196.26 365.77,195.26 365.78,194.25 365.77,193.24 365.73,192.23 365.69,191.23 365.62,190.22 365.53,189.21 365.43,188.21 365.31,187.21 365.18,186.21 365.02,185.22 364.85,184.22 364.66,183.23 364.45,182.25 364.23,181.26 363.99,180.28 363.73,179.31 363.45,178.34 363.16,177.38 362.85,176.42 362.52,175.46 362.18,174.52 361.82,173.57 361.44,172.64 361.05,171.71 360.64,170.79 360.22,169.87 359.77,168.97 359.32,168.07 358.84,167.18 358.36,166.3 357.85,165.43 357.33,164.56 356.8,163.71 356.25,162.86 355.68,162.03 355.1,161.2 354.51,160.39 353.9,159.58 353.28,158.79 352.65,158 352,157.23 351.34,156.47 350.66,155.73 349.97,154.99 349.27,154.27 348.55,153.55 347.83,152.86 347.09,152.17 346.34,151.5 345.57,150.84 344.8,150.19 344.02,149.56 343.22,148.94 342.41,148.34 341.59,147.75 340.77,147.17 339.93,146.61 339.08,146.07 338.22,145.54 337.36,145.02 336.48,144.52 335.6,144.04 334.71,143.57 333.81,143.11 332.9,142.68 331.98,142.26 331.06,141.85 330.13,141.46 329.19,141.09 328.25,140.73 327.3,140.39 326.34,140.07 325.38,139.77 324.42,139.48 323.45,139.21 322.47,138.95 321.49,138.71 320.51,138.49 319.52,138.29 318.53,138.11 317.54,137.94 316.54,137.79 315.54,137.66 314.54,137.54 313.53,137.44 312.53,137.36 311.52,137.3 310.52,137.26 309.51,137.23 308.5,137.22 308.5,91.4 310.31,91.41 312.13,91.46 313.94,91.54 315.75,91.65 317.56,91.8 319.37,91.97 321.17,92.18 "
         style="fill:#f8766d;fill-opacity:0.8;stroke:#ffffff;stroke-width:1.07"
         id="polygon6" />
      <polygon
         points="389.75,257.98 388.63,259.38 387.48,260.77 386.31,262.14 385.12,263.49 383.9,264.82 382.67,266.12 381.4,267.4 380.12,268.67 378.82,269.9 377.49,271.12 376.14,272.31 374.77,273.48 373.38,274.63 371.98,275.75 370.55,276.84 369.1,277.91 367.64,278.96 366.15,279.98 364.65,280.97 363.14,281.94 361.6,282.88 360.05,283.79 358.48,284.68 356.9,285.53 355.31,286.36 353.7,287.17 352.07,287.94 350.44,288.69 348.79,289.41 347.12,290.09 345.45,290.75 343.76,291.38 328.09,248.32 329.03,247.97 329.96,247.61 330.88,247.23 331.8,246.83 332.71,246.41 333.61,245.98 334.5,245.54 335.39,245.07 336.27,244.6 337.14,244.11 338,243.6 338.85,243.08 339.7,242.54 340.53,241.99 341.35,241.42 342.17,240.84 342.97,240.25 343.76,239.64 344.55,239.01 345.32,238.38 346.08,237.73 346.83,237.07 347.56,236.39 348.29,235.7 349,235 349.7,234.29 350.39,233.56 351.07,232.83 351.73,232.08 352.38,231.32 353.01,230.55 353.64,229.76 354.25,228.97 354.84,228.17 355.42,227.35 355.99,226.53 356.54,225.7 357.08,224.85 357.6,224 358.11,223.14 397.79,246.05 396.88,247.6 395.94,249.14 394.97,250.65 393.98,252.15 392.96,253.64 391.91,255.1 390.84,256.55 "
         style="fill:#00ba38;fill-opacity:0.8;stroke:#ffffff;stroke-width:1.07"
         id="polygon7" />
      <polygon
         points="329.87,295.36 328.09,295.72 326.31,296.05 324.53,296.35 322.74,296.61 320.95,296.85 319.15,297.05 317.35,297.22 315.55,297.36 313.74,297.47 311.94,297.54 310.13,297.59 308.32,297.6 306.51,297.58 304.7,297.53 302.9,297.45 301.09,297.34 299.29,297.19 297.49,297.01 295.69,296.8 293.9,296.56 292.11,296.29 290.33,295.99 288.55,295.65 286.78,295.29 285.02,294.89 283.26,294.46 281.51,294.01 279.77,293.52 278.04,293 276.31,292.45 274.6,291.87 272.9,291.26 271.21,290.62 269.53,289.95 267.86,289.25 266.2,288.53 264.56,287.77 262.93,286.98 261.31,286.17 259.71,285.33 258.13,284.46 256.56,283.56 255,282.64 253.47,281.69 251.95,280.71 250.44,279.7 248.96,278.67 247.49,277.61 246.04,276.53 244.61,275.42 243.2,274.29 241.81,273.13 240.44,271.95 239.1,270.74 237.77,269.51 236.46,268.26 235.18,266.99 233.92,265.69 232.68,264.37 231.47,263.03 230.28,261.67 229.11,260.29 227.97,258.88 226.86,257.46 225.76,256.02 224.7,254.56 223.66,253.08 222.64,251.58 221.65,250.07 220.69,248.54 219.76,246.99 218.85,245.42 217.97,243.84 217.12,242.25 216.3,240.64 215.5,239.01 214.74,237.38 214,235.72 213.29,234.06 212.61,232.38 211.96,230.7 211.34,229 210.75,227.29 210.19,225.57 209.66,223.84 209.16,222.1 208.69,220.35 208.25,218.6 207.85,216.84 207.47,215.07 207.13,213.29 206.81,211.51 206.53,209.73 206.28,207.94 206.06,206.14 205.87,204.34 205.71,202.54 205.59,200.74 205.49,198.93 205.43,197.12 205.4,195.31 205.4,193.51 205.44,191.7 205.5,189.89 205.6,188.08 205.73,186.28 205.89,184.48 206.08,182.68 206.3,180.89 206.56,179.1 206.84,177.31 207.16,175.53 207.51,173.75 207.89,171.99 208.3,170.22 208.74,168.47 209.21,166.73 209.71,164.99 210.24,163.26 210.81,161.54 211.4,159.83 212.02,158.13 212.68,156.45 213.36,154.77 214.07,153.11 214.81,151.46 215.58,149.82 216.38,148.2 217.2,146.59 218.06,145 218.94,143.42 219.85,141.86 220.79,140.31 221.75,138.78 222.74,137.27 223.76,135.77 224.8,134.29 225.87,132.84 226.97,131.4 228.09,129.97 229.23,128.57 230.4,127.19 231.59,125.83 232.81,124.5 234.05,123.18 235.31,121.88 236.59,120.61 237.9,119.36 239.23,118.13 240.58,116.93 241.95,115.75 243.34,114.6 244.75,113.47 246.18,112.36 247.64,111.28 249.1,110.23 250.59,109.2 252.1,108.19 253.62,107.22 255.16,106.27 256.71,105.35 258.29,104.45 259.87,103.59 261.48,102.75 263.09,101.94 264.72,101.15 266.37,100.4 268.02,99.68 269.69,98.98 271.37,98.31 273.07,97.68 274.77,97.07 276.48,96.49 278.21,95.95 279.94,95.43 281.68,94.95 283.43,94.49 285.19,94.07 286.96,93.67 288.73,93.31 290.51,92.98 292.29,92.68 294.08,92.41 295.87,92.17 297.67,91.97 299.47,91.79 301.27,91.65 303.08,91.54 304.88,91.46 306.69,91.41 308.5,91.4 308.5,137.22 307.5,137.23 306.49,137.26 305.49,137.3 304.48,137.36 303.48,137.44 302.48,137.54 301.48,137.65 300.49,137.78 299.49,137.93 298.5,138.1 297.52,138.28 296.53,138.49 295.55,138.7 294.57,138.94 293.6,139.19 292.63,139.46 291.67,139.75 290.71,140.05 289.76,140.37 288.82,140.71 287.87,141.06 286.94,141.43 286.01,141.82 285.09,142.22 284.18,142.64 283.27,143.08 282.38,143.53 281.49,143.99 280.6,144.47 279.73,144.97 278.87,145.48 278.01,146.01 277.16,146.55 276.33,147.11 275.5,147.68 274.69,148.27 273.88,148.87 273.09,149.48 272.3,150.11 271.53,150.75 270.77,151.41 270.02,152.07 269.28,152.76 268.55,153.45 267.84,154.16 267.14,154.88 266.45,155.61 265.77,156.35 265.11,157.11 264.46,157.87 263.83,158.65 263.2,159.44 262.6,160.24 262,161.05 261.42,161.87 260.86,162.7 260.31,163.54 259.77,164.39 259.25,165.25 258.74,166.12 258.25,167 257.78,167.88 257.32,168.78 256.88,169.68 256.45,170.59 256.04,171.51 255.64,172.43 255.26,173.36 254.9,174.3 254.56,175.24 254.23,176.19 253.91,177.14 253.62,178.1 253.34,179.07 253.08,180.04 252.83,181.01 252.6,181.99 252.39,182.97 252.2,183.96 252.02,184.95 251.86,185.94 251.72,186.94 251.6,187.93 251.49,188.93 251.4,189.93 251.33,190.94 251.28,191.94 251.24,192.94 251.22,193.95 251.22,194.95 251.24,195.96 251.27,196.96 251.33,197.96 251.4,198.97 251.48,199.97 251.59,200.97 251.71,201.96 251.85,202.96 252.01,203.95 252.18,204.94 252.37,205.93 252.58,206.91 252.81,207.89 253.05,208.86 253.31,209.83 253.59,210.8 253.88,211.76 254.19,212.72 254.52,213.67 254.87,214.61 255.23,215.55 255.61,216.48 256,217.4 256.41,218.32 256.83,219.23 257.28,220.13 257.73,221.03 258.21,221.91 258.7,222.79 259.2,223.66 259.72,224.52 260.25,225.37 260.8,226.21 261.36,227.04 261.94,227.87 262.54,228.68 263.14,229.48 263.76,230.27 264.4,231.05 265.04,231.82 265.71,232.57 266.38,233.32 267.07,234.05 267.77,234.77 268.48,235.48 269.2,236.17 269.94,236.86 270.69,237.53 271.45,238.18 272.22,238.83 273.01,239.46 273.8,240.07 274.61,240.67 275.42,241.26 276.25,241.83 277.08,242.39 277.93,242.94 278.78,243.47 279.64,243.98 280.52,244.48 281.4,244.96 282.29,245.43 283.18,245.88 284.09,246.32 285,246.74 285.92,247.14 286.85,247.53 287.78,247.9 288.72,248.26 289.67,248.59 290.62,248.92 291.58,249.22 292.54,249.51 293.51,249.78 294.48,250.04 295.45,250.27 296.43,250.49 297.42,250.7 298.41,250.88 299.4,251.05 300.39,251.2 301.38,251.34 302.38,251.45 303.38,251.55 304.38,251.63 305.39,251.69 306.39,251.74 307.39,251.77 308.4,251.78 309.4,251.77 310.41,251.75 311.41,251.7 312.42,251.64 313.42,251.57 314.42,251.47 315.42,251.36 316.41,251.23 317.41,251.08 318.4,250.92 319.38,250.74 320.37,250.54 321.35,250.32 322.33,250.08 323.3,249.83 324.27,249.57 325.23,249.28 326.19,248.98 327.14,248.66 328.09,248.32 343.76,291.38 342.06,291.99 340.34,292.56 338.62,293.1 336.88,293.62 335.14,294.1 333.39,294.55 331.63,294.97 "
         style="fill:#619cff;fill-opacity:0.8;stroke:#ffffff;stroke-width:1.07"
         id="polygon8" />
      <text
         x="377.95001"
         y="150.28"
         text-anchor="middle"
         style="font-size:11.38px;font-family:Arial"
         textLength="44.91"
         lengthAdjust="spacingAndGlyphs"
         id="text8"
         transform="translate(-4.6347576,3.9954807)">Bachelor</text>
      <text
         x="377.95001"
         y="166.67"
         text-anchor="middle"
         style="font-size:11.38px;font-family:Arial"
         textLength="30.33"
         lengthAdjust="spacingAndGlyphs"
         id="text9">(33%)</text>
      <text
         x="360.04999"
         y="251.81"
         text-anchor="middle"
         style="font-size:11.38px;font-family:Arial"
         textLength="51.200001"
         lengthAdjust="spacingAndGlyphs"
         id="text10"
         transform="translate(0.31963846,4.6347576)">Certificate</text>
      <text
         x="360.04999"
         y="268.20001"
         text-anchor="middle"
         style="font-size:11.38px;font-family:Arial"
         textLength="29.48"
         lengthAdjust="spacingAndGlyphs"
         id="text11">(11%)</text>
      <text
         x="229.53"
         y="204.3"
         text-anchor="middle"
         style="font-size:11.38px;font-family:Arial"
         textLength="40.439999"
         lengthAdjust="spacingAndGlyphs"
         id="text12"
         transform="translate(-0.63927691,3.6758422)">Masters</text>
      <text
         x="229.53"
         y="220.69"
         text-anchor="middle"
         style="font-size:11.38px;font-family:Arial"
         textLength="30.33"
         lengthAdjust="spacingAndGlyphs"
         id="text13">(56%)</text>
      <rect
         x="119.48"
         y="5.48"
         width="378.04001"
         height="378.04001"
         style="stroke:#333333;stroke-width:0"
         id="rect14" />
    </g>
    <g
       clip-path="url(#cpMC4wMHw2MTcuMDB8MC4wMHwzODkuMDA=)"
       id="g15" />
    <g
       clip-path="url(#cpMTE0LjAwfDUwMy4wMHwwLjAwfDM4OS4wMA==)"
       id="g16">
      <rect
         x="114"
         y="0"
         width="389"
         height="389"
         style="stroke:#ffffff;stroke-width:0"
         id="rect15" />
    </g>
    <g
       clip-path="url(#cpMC4wMHw2MTcuMDB8MC4wMHwzODkuMDA=)"
       id="g17" />
    <g
       clip-path="url(#cpMTE5LjQ4fDQ5Ny41Mnw1LjQ4fDM4My41Mg==)"
       id="g50">
      <rect
         x="119.48"
         y="5.48"
         width="378.04001"
         height="378.04001"
         style="stroke:none;stroke-width:0"
         id="rect17" />
      <polygon
         points="328.12,58.44 330.55,58.81 332.98,59.23 335.39,59.69 337.8,60.19 340.2,60.74 342.59,61.32 344.97,61.96 347.34,62.63 349.69,63.35 352.03,64.11 354.36,64.91 356.67,65.75 358.97,66.63 361.25,67.55 363.51,68.52 365.76,69.52 367.99,70.57 370.2,71.65 372.39,72.78 374.55,73.94 376.7,75.14 378.83,76.38 380.93,77.66 383.01,78.97 385.07,80.33 387.1,81.72 389.1,83.14 391.08,84.6 393.04,86.1 394.96,87.63 396.86,89.19 374.77,115.52 373.35,114.35 371.9,113.2 370.44,112.08 368.95,110.98 367.45,109.91 365.92,108.87 364.38,107.86 362.82,106.87 361.25,105.91 359.65,104.98 358.04,104.08 356.41,103.21 354.77,102.36 353.12,101.55 351.44,100.77 349.76,100.01 348.06,99.29 346.35,98.6 344.63,97.94 342.89,97.3 341.15,96.7 339.39,96.14 337.63,95.6 335.85,95.09 334.07,94.62 332.28,94.18 330.48,93.77 328.67,93.39 326.86,93.05 325.04,92.73 323.21,92.45 321.39,92.21 319.55,91.99 317.72,91.81 315.88,91.66 314.03,91.55 312.19,91.46 310.35,91.41 308.5,91.4 308.5,57.03 310.96,57.05 313.42,57.12 315.88,57.23 318.33,57.38 320.79,57.58 323.24,57.82 325.68,58.11 "
         style="fill:#ffe9e5;stroke:#ffffff;stroke-width:1.07"
         id="polygon17" />
      <polygon
         points="410.99,102.88 412.61,104.73 414.2,106.61 415.76,108.51 417.28,110.45 418.77,112.41 420.22,114.4 421.64,116.41 423.01,118.45 424.36,120.51 425.66,122.59 426.93,124.7 428.16,126.83 429.35,128.99 430.51,131.16 431.62,133.35 432.7,135.57 433.73,137.8 434.73,140.05 435.68,142.32 436.59,144.6 437.47,146.91 438.3,149.22 439.09,151.55 439.84,153.9 440.54,156.25 441.21,158.62 441.83,161 442.4,163.4 442.94,165.8 443.43,168.21 443.88,170.63 410.04,176.6 409.7,174.78 409.33,172.97 408.93,171.17 408.49,169.38 408.03,167.59 407.53,165.82 407,164.05 406.44,162.29 405.85,160.54 405.23,158.8 404.57,157.08 403.89,155.36 403.17,153.66 402.42,151.98 401.65,150.3 400.84,148.64 400.01,147 399.14,145.36 398.25,143.75 397.32,142.15 396.37,140.57 395.39,139.01 394.39,137.46 393.35,135.93 392.29,134.42 391.2,132.93 390.09,131.46 388.94,130.01 387.78,128.58 386.58,127.17 385.37,125.79 384.12,124.42 382.86,123.08 381.57,121.76 380.25,120.46 378.92,119.19 377.56,117.94 376.18,116.72 374.77,115.52 396.86,89.19 398.73,90.79 400.58,92.42 402.39,94.09 404.17,95.78 405.92,97.51 407.64,99.27 409.33,101.06 "
         style="fill:#ffa59b;stroke:#ffffff;stroke-width:1.07"
         id="polygon18" />
      <polygon
         points="445.9,190.19 445.96,192.65 445.97,195.12 445.94,197.58 445.86,200.04 445.74,202.49 445.57,204.95 445.36,207.4 445.11,209.85 444.81,212.29 444.47,214.73 444.09,217.16 443.66,219.58 443.19,222 442.68,224.4 442.12,226.8 441.52,229.19 440.88,231.56 440.19,233.93 439.47,236.28 438.7,238.62 437.89,240.94 437.04,243.25 436.14,245.54 435.21,247.82 434.23,250.08 433.22,252.32 432.16,254.54 431.07,256.75 429.94,258.93 428.76,261.09 427.55,263.23 397.79,246.05 398.7,244.44 399.58,242.82 400.43,241.18 401.25,239.53 402.04,237.86 402.8,236.18 403.53,234.49 404.23,232.78 404.9,231.06 405.54,229.33 406.15,227.59 406.73,225.83 407.27,224.07 407.78,222.3 408.27,220.52 408.72,218.73 409.13,216.93 409.52,215.12 409.87,213.31 410.19,211.49 410.48,209.67 410.74,207.84 410.96,206.01 411.15,204.18 411.3,202.34 411.43,200.49 411.52,198.65 411.58,196.81 411.6,194.96 411.59,193.12 411.55,191.27 411.48,189.43 411.37,187.58 411.23,185.74 411.06,183.91 410.85,182.07 410.61,180.24 410.34,178.42 410.04,176.6 443.88,170.63 444.29,173.06 444.65,175.49 444.97,177.93 445.24,180.38 445.47,182.83 445.66,185.28 445.8,187.74 "
         style="fill:#fd8e84;stroke:#ffffff;stroke-width:1.07"
         id="polygon19" />
      <polygon
         points="416.83,279.13 415.33,281.01 413.81,282.86 412.25,284.69 410.66,286.49 409.04,288.25 407.39,289.99 405.71,291.71 403.99,293.39 402.25,295.04 400.49,296.66 398.69,298.25 396.86,299.81 395.01,301.33 393.13,302.83 391.23,304.29 389.3,305.72 387.35,307.11 385.37,308.47 383.37,309.79 381.35,311.08 379.3,312.33 377.23,313.55 375.15,314.73 373.04,315.88 370.91,316.99 368.76,318.06 366.6,319.09 364.41,320.08 362.21,321.04 360,321.96 357.76,322.84 355.52,323.68 343.76,291.38 345.45,290.75 347.12,290.09 348.79,289.41 350.44,288.69 352.07,287.94 353.7,287.17 355.31,286.36 356.9,285.53 358.48,284.68 360.05,283.79 361.6,282.88 363.14,281.94 364.65,280.97 366.15,279.98 367.64,278.96 369.1,277.91 370.55,276.84 371.98,275.75 373.38,274.63 374.77,273.48 376.14,272.31 377.49,271.12 378.82,269.9 380.12,268.67 381.4,267.4 382.67,266.12 383.9,264.82 385.12,263.49 386.31,262.14 387.48,260.77 388.63,259.38 389.75,257.98 390.84,256.55 391.91,255.1 392.96,253.64 393.98,252.15 394.97,250.65 395.94,249.14 396.88,247.6 397.79,246.05 427.55,263.23 426.33,265.3 425.08,267.35 423.79,269.37 422.47,271.37 421.11,273.35 419.72,275.3 418.29,277.23 "
         style="fill:#e0f4de;stroke:#ffffff;stroke-width:1.07"
         id="polygon20" />
      <polygon
         points="336.84,329.02 334.46,329.5 332.07,329.93 329.67,330.33 327.27,330.68 324.86,330.99 322.45,331.26 320.03,331.49 317.6,331.67 315.18,331.81 312.75,331.9 310.32,331.96 307.89,331.97 305.46,331.94 303.03,331.86 300.61,331.74 298.18,331.58 295.76,331.38 293.35,331.13 290.93,330.84 288.53,330.51 286.13,330.14 283.73,329.72 281.35,329.26 278.97,328.76 276.6,328.22 274.24,327.63 271.89,327.01 269.56,326.34 267.23,325.63 264.92,324.88 262.63,324.09 260.34,323.26 258.07,322.39 255.82,321.48 253.59,320.53 251.37,319.54 249.17,318.51 246.98,317.44 244.82,316.33 242.68,315.19 240.56,314.01 238.45,312.79 236.37,311.53 234.32,310.24 232.28,308.91 230.27,307.54 228.29,306.14 226.33,304.71 224.39,303.24 222.48,301.73 220.6,300.2 218.75,298.63 216.92,297.02 215.12,295.39 213.36,293.72 211.62,292.03 209.91,290.3 208.23,288.54 206.58,286.76 204.97,284.94 203.39,283.1 201.84,281.22 200.32,279.33 198.84,277.4 197.39,275.45 195.98,273.47 194.6,271.47 193.26,269.45 191.95,267.4 190.68,265.33 189.45,263.23 219.21,246.05 220.14,247.62 221.09,249.17 222.07,250.71 223.08,252.23 224.11,253.73 225.17,255.21 226.26,256.68 227.37,258.12 228.5,259.54 229.67,260.95 230.85,262.33 232.06,263.69 233.3,265.03 234.56,266.35 235.84,267.65 237.14,268.92 238.47,270.17 239.82,271.39 241.19,272.6 242.58,273.77 243.99,274.93 245.42,276.05 246.87,277.16 248.34,278.23 249.83,279.28 251.34,280.31 252.86,281.3 254.41,282.27 255.97,283.21 257.54,284.13 259.13,285.02 260.74,285.87 262.36,286.7 264,287.5 265.65,288.28 267.32,289.02 268.99,289.73 270.68,290.42 272.38,291.07 274.09,291.69 275.82,292.29 277.55,292.85 279.29,293.38 281.05,293.88 282.81,294.35 284.58,294.79 286.35,295.2 288.13,295.57 289.92,295.91 291.72,296.23 293.52,296.51 295.32,296.76 297.13,296.97 298.95,297.16 300.76,297.31 302.58,297.43 304.4,297.52 306.22,297.58 308.04,297.6 309.87,297.59 311.69,297.55 313.51,297.48 315.33,297.38 317.15,297.24 318.96,297.07 320.77,296.87 322.58,296.64 324.38,296.37 326.18,296.08 327.97,295.75 329.76,295.39 331.54,295 333.31,294.57 335.07,294.12 336.83,293.63 338.58,293.12 340.32,292.57 342.05,291.99 343.76,291.38 355.52,323.68 353.23,324.49 350.92,325.26 348.61,325.99 346.27,326.68 343.93,327.32 341.58,327.93 339.22,328.49 "
         style="fill:#e9eeff;stroke:#ffffff;stroke-width:1.07"
         id="polygon21" />
      <polygon
         points="181.04,246 180.16,243.76 179.32,241.52 178.52,239.26 177.76,236.98 177.04,234.69 176.36,232.39 175.71,230.08 175.11,227.76 174.55,225.42 174.03,223.08 173.56,220.73 173.12,218.37 172.72,216 172.37,213.63 172.06,211.25 171.78,208.87 171.55,206.48 171.37,204.09 171.22,201.69 171.11,199.3 171.05,196.9 171.03,194.5 171.05,192.1 171.11,189.7 171.22,187.31 171.37,184.91 171.55,182.52 171.78,180.13 172.06,177.75 172.37,175.37 172.72,173 173.12,170.63 206.96,176.6 206.67,178.37 206.4,180.15 206.17,181.94 205.96,183.72 205.79,185.51 205.65,187.31 205.54,189.1 205.46,190.9 205.41,192.7 205.4,194.5 205.41,196.3 205.46,198.1 205.54,199.9 205.65,201.69 205.79,203.49 205.96,205.28 206.17,207.06 206.4,208.85 206.67,210.63 206.96,212.4 207.29,214.17 207.65,215.94 208.04,217.69 208.46,219.44 208.91,221.18 209.39,222.92 209.9,224.64 210.44,226.36 211.02,228.07 211.62,229.76 212.25,231.45 212.91,233.12 213.59,234.79 214.31,236.44 215.06,238.07 215.83,239.7 216.64,241.31 217.47,242.9 218.32,244.48 219.21,246.05 189.45,263.23 188.27,261.15 187.12,259.04 186.01,256.91 184.94,254.76 183.91,252.6 182.92,250.41 181.96,248.21 "
         style="fill:#d2ddff;stroke:#ffffff;stroke-width:1.07"
         id="polygon22" />
      <polygon
         points="177.76,152.02 178.52,149.74 179.32,147.48 180.16,145.24 181.04,143 181.96,140.79 182.92,138.59 183.91,136.4 184.94,134.24 186.01,132.09 187.12,129.96 188.27,127.85 189.45,125.77 190.67,123.7 191.92,121.65 193.21,119.63 194.53,117.63 195.89,115.65 197.28,113.7 198.71,111.77 200.17,109.87 201.67,107.99 203.19,106.14 204.75,104.31 206.34,102.51 207.96,100.75 209.61,99.01 211.29,97.29 213.01,95.61 214.75,93.96 216.51,92.34 218.31,90.75 220.14,89.19 221.99,87.67 223.87,86.17 225.77,84.71 227.7,83.28 229.65,81.89 231.63,80.53 233.63,79.21 235.65,77.92 237.7,76.67 239.77,75.45 241.85,74.27 243.96,73.12 246.09,72.01 248.24,70.94 250.4,69.91 252.59,68.92 254.79,67.96 257,67.04 259.24,66.16 261.48,65.32 263.74,64.52 266.02,63.76 268.31,63.04 270.61,62.36 272.92,61.71 275.24,61.11 277.58,60.55 279.92,60.03 282.27,59.56 284.63,59.12 287,58.72 289.37,58.37 291.75,58.06 294.13,57.78 296.52,57.55 298.91,57.37 301.31,57.22 303.7,57.11 306.1,57.05 308.5,57.03 308.5,91.4 306.7,91.41 304.9,91.46 303.1,91.54 301.31,91.65 299.51,91.79 297.72,91.96 295.94,92.17 294.15,92.4 292.37,92.67 290.6,92.96 288.83,93.29 287.06,93.65 285.31,94.04 283.56,94.46 281.82,94.91 280.08,95.39 278.36,95.9 276.64,96.44 274.93,97.02 273.24,97.62 271.55,98.25 269.88,98.91 268.21,99.59 266.56,100.31 264.93,101.06 263.3,101.83 261.69,102.64 260.1,103.47 258.52,104.32 256.95,105.21 255.4,106.12 253.86,107.06 252.35,108.03 250.85,109.02 249.36,110.04 247.9,111.09 246.45,112.16 245.02,113.25 243.62,114.37 242.23,115.52 240.86,116.69 239.51,117.88 238.18,119.1 236.88,120.33 235.6,121.6 234.33,122.88 233.1,124.18 231.88,125.51 230.69,126.86 229.52,128.23 228.37,129.62 227.25,131.02 226.16,132.45 225.09,133.9 224.04,135.36 223.02,136.85 222.03,138.35 221.06,139.86 220.12,141.4 219.21,142.95 218.32,144.52 217.47,146.1 216.64,147.69 215.83,149.3 215.06,150.93 214.31,152.56 213.59,154.21 212.91,155.88 212.25,157.55 211.62,159.24 211.02,160.93 210.44,162.64 209.9,164.36 209.39,166.08 208.91,167.82 208.46,169.56 208.04,171.31 207.65,173.06 207.29,174.83 206.96,176.6 173.12,170.63 173.56,168.27 174.03,165.92 174.55,163.58 175.11,161.24 175.71,158.92 176.36,156.61 177.04,154.31 "
         style="fill:#baccff;stroke:#ffffff;stroke-width:1.07"
         id="polygon23" />
      <line
         x1="355.51999"
         y1="65.32"
         x2="357.48001"
         y2="59.939999"
         style="stroke-width:1.07;stroke-linecap:butt"
         id="line23" />
      <line
         x1="308.5"
         y1="194.5"
         x2="308.5"
         y2="194.5"
         style="stroke-width:1.07;stroke-linecap:butt"
         id="line24" />
      <line
         x1="308.5"
         y1="194.5"
         x2="308.5"
         y2="194.5"
         style="stroke-width:1.07;stroke-linecap:butt"
         id="line25" />
      <line
         x1="427.54999"
         y1="125.77"
         x2="432.51001"
         y2="122.9"
         style="stroke-width:1.07;stroke-linecap:butt"
         id="line26" />
      <line
         x1="443.88"
         y1="218.37"
         x2="449.51999"
         y2="219.37"
         style="stroke-width:1.07;stroke-linecap:butt"
         id="line27" />
      <line
         x1="396.85999"
         y1="299.81"
         x2="400.54999"
         y2="304.20001"
         style="stroke-width:1.07;stroke-linecap:butt"
         id="line28" />
      <line
         x1="308.5"
         y1="194.5"
         x2="308.5"
         y2="194.5"
         style="stroke-width:1.07;stroke-linecap:butt"
         id="line29" />
      <line
         x1="308.5"
         y1="194.5"
         x2="308.5"
         y2="194.5"
         style="stroke-width:1.07;stroke-linecap:butt"
         id="line30" />
      <line
         x1="308.5"
         y1="194.5"
         x2="308.5"
         y2="194.5"
         style="stroke-width:1.07;stroke-linecap:butt"
         id="line31" />
      <line
         x1="308.5"
         y1="194.5"
         x2="308.5"
         y2="194.5"
         style="stroke-width:1.07;stroke-linecap:butt"
         id="line32" />
      <line
         x1="261.48001"
         y1="323.67999"
         x2="259.51999"
         y2="329.06"
         style="stroke-width:1.07;stroke-linecap:butt"
         id="line33" />
      <line
         x1="173.12"
         y1="218.37"
         x2="167.48"
         y2="219.37"
         style="stroke-width:1.07;stroke-linecap:butt"
         id="line34" />
      <line
         x1="218.77086"
         y1="88.016731"
         x2="213.42726"
         y2="80.257423"
         style="stroke-width:1;stroke-linecap:butt;stroke-dasharray:none"
         id="line35" />
      <line
         x1="308.5"
         y1="194.5"
         x2="308.5"
         y2="194.5"
         style="stroke-width:1.07;stroke-linecap:butt"
         id="line36" />
      <line
         x1="308.5"
         y1="194.5"
         x2="308.5"
         y2="194.5"
         style="stroke-width:1.07;stroke-linecap:butt"
         id="line37" />
      <text
         x="357.48001"
         y="47.650002"
         style="font-size:8.54px;font-family:Arial"
         textLength="67.360001"
         lengthAdjust="spacingAndGlyphs"
         id="text37">Fisheries Science</text>
      <text
         x="357.48001"
         y="59.939999"
         style="font-size:8.54px;font-family:Arial"
         textLength="29.889999"
         lengthAdjust="spacingAndGlyphs"
         id="text38">(33.3%)</text>
      <text
         x="432.51001"
         y="110.61"
         style="font-size:8.54px;font-family:Arial"
         textLength="58.830002"
         lengthAdjust="spacingAndGlyphs"
         id="text39">Marine Science</text>
      <text
         x="432.51001"
         y="122.9"
         style="font-size:8.54px;font-family:Arial"
         textLength="29.889999"
         lengthAdjust="spacingAndGlyphs"
         id="text40">(33.3%)</text>
      <text
         x="449.51999"
         y="225.48"
         style="font-size:8.54px;line-height:1;font-family:Arial"
         textLength="60.25"
         lengthAdjust="spacingAndGlyphs"
         id="text41"
         transform="translate(3.9132187,-10.557479)"><tspan
           sodipodi:role="line"
           id="tspan56"
           x="449.51999"
           y="225.48"
           style="line-height:1">Natural </tspan><tspan
           sodipodi:role="line"
           id="tspan57"
           x="449.51999"
           y="234.01999"
           style="line-height:1">Science</tspan></text>
      <text
         x="449.51999"
         y="237.77"
         style="font-size:8.54px;font-family:Arial"
         textLength="29.889999"
         lengthAdjust="spacingAndGlyphs"
         id="text42">(33.3%)</text>
      <text
         x="400.54999"
         y="310.31"
         style="font-size:8.54px;font-family:Arial"
         textLength="67.360001"
         lengthAdjust="spacingAndGlyphs"
         id="text43">Fisheries Science</text>
      <text
         x="400.54999"
         y="322.60001"
         style="font-size:8.54px;font-family:Arial"
         textLength="34.639999"
         lengthAdjust="spacingAndGlyphs"
         id="text44">(100.0%)</text>
      <text
         x="259.51999"
         y="335.17001"
         text-anchor="end"
         style="font-size:8.54px;font-family:Arial"
         textLength="67.360001"
         lengthAdjust="spacingAndGlyphs"
         id="text45">Fisheries Science</text>
      <text
         x="259.51999"
         y="347.47"
         text-anchor="end"
         style="font-size:8.54px;font-family:Arial"
         textLength="29.889999"
         lengthAdjust="spacingAndGlyphs"
         id="text46">(40.0%)</text>
      <text
         x="167.48"
         y="225.48"
         text-anchor="end"
         style="font-size:8.54px;line-height:1;font-family:Arial"
         textLength="130.94"
         lengthAdjust="spacingAndGlyphs"
         id="text47"
         transform="translate(-3.8356617,-26.158268)"><tspan
           sodipodi:role="line"
           id="tspan52"
           x="167.48"
           y="225.48"
           style="line-height:1">Fisheries </tspan><tspan
           sodipodi:role="line"
           x="167.48"
           y="234.01999"
           id="tspan54"
           style="line-height:1">Science; </tspan><tspan
           sodipodi:role="line"
           id="tspan53"
           x="167.48"
           y="242.56"
           style="line-height:1">Marine </tspan><tspan
           sodipodi:role="line"
           x="167.48"
           y="251.09999"
           id="tspan55"
           style="line-height:1">Science</tspan></text>
      <text
         x="167.48"
         y="237.77"
         text-anchor="end"
         style="font-size:8.54px;font-family:Arial"
         textLength="29.889999"
         lengthAdjust="spacingAndGlyphs"
         id="text48">(20.0%)</text>
      <text
         x="216.45"
         y="72.510002"
         text-anchor="end"
         style="font-size:8.54px;line-height:1;font-family:Arial"
         textLength="191.7"
         lengthAdjust="spacingAndGlyphs"
         id="text49"
         transform="translate(11.696035,-24.216107)"><tspan
           sodipodi:role="line"
           id="tspan58"
           x="216.45"
           y="72.510002"
           style="line-height:1">Fisheries Science; </tspan><tspan
           sodipodi:role="line"
           id="tspan59"
           x="216.45"
           y="81.050003"
           style="line-height:1">Marine Science; </tspan><tspan
           sodipodi:role="line"
           x="216.45"
           y="89.590004"
           id="tspan60"
           style="line-height:1">Oceanography</tspan></text>
      <text
         x="216.45"
         y="84.800003"
         text-anchor="end"
         style="font-size:8.54px;font-family:Arial"
         textLength="29.889999"
         lengthAdjust="spacingAndGlyphs"
         id="text50"
         transform="translate(-5.4953484,-6.6426451)">(40.0%)</text>
      <rect
         x="119.48"
         y="5.48"
         width="378.04001"
         height="378.04001"
         style="stroke:#333333;stroke-width:0"
         id="rect50" />
    </g>
    <g
       clip-path="url(#cpMC4wMHw2MTcuMDB8MC4wMHwzODkuMDA=)"
       id="g51" />
  </g>
</svg>
