<?xml version="1.0" encoding="UTF-8" standalone="no"?>
<svg
   width="363.85925pt"
   height="282.31924pt"
   viewBox="0 0 363.85925 282.31924"
   version="1.1"
   id="svg29"
   sodipodi:docname="priority stock.svg"
   inkscape:version="1.4 (86a8ad7, 2024-10-11)"
   xmlns:inkscape="http://www.inkscape.org/namespaces/inkscape"
   xmlns:sodipodi="http://sodipodi.sourceforge.net/DTD/sodipodi-0.dtd"
   xmlns="http://www.w3.org/2000/svg"
   xmlns:svg="http://www.w3.org/2000/svg">
  <defs
     id="defs29" />
  <sodipodi:namedview
     id="namedview29"
     pagecolor="#ffffff"
     bordercolor="#000000"
     borderopacity="0.25"
     inkscape:showpageshadow="2"
     inkscape:pageopacity="0.0"
     inkscape:pagecheckerboard="0"
     inkscape:deskcolor="#d1d1d1"
     inkscape:document-units="pt"
     inkscape:zoom="0.82957804"
     inkscape:cx="-92.215556"
     inkscape:cy="82.572099"
     inkscape:window-width="2560"
     inkscape:window-height="1494"
     inkscape:window-x="-11"
     inkscape:window-y="-11"
     inkscape:window-maximized="1"
     inkscape:current-layer="g27" />
  <g
     class="svglite"
     id="g29"
     transform="translate(-125.6663,-54.244445)">
    <defs
       id="defs1">
      <style
         type="text/css"
         id="style1"><![CDATA[
    .svglite line, .svglite polyline, .svglite polygon, .svglite path, .svglite rect, .svglite circle {
      fill: none;
      stroke: #000000;
      stroke-linecap: round;
      stroke-linejoin: round;
      stroke-miterlimit: 10.00;
    }
    .svglite text {
      white-space: pre;
    }
    .svglite g.glyphgroup path {
      fill: inherit;
      stroke: none;
    }
  ]]></style>
    </defs>
    <defs
       id="defs2">
      <clipPath
         id="cpMC4wMHw2MTcuMDB8MC4wMHwzODkuMDA=">
        <rect
           x="0"
           y="0"
           width="617"
           height="389"
           id="rect2" />
      </clipPath>
    </defs>
    <g
       clip-path="url(#cpMC4wMHw2MTcuMDB8MC4wMHwzODkuMDA=)"
       id="g2" />
    <defs
       id="defs3">
      <clipPath
         id="cpMTI1LjE4fDQ5MS44MnwwLjAwfDM4OS4wMA==">
        <rect
           x="125.18"
           y="5.6999998e-14"
           width="366.63"
           height="389"
           id="rect3" />
      </clipPath>
    </defs>
    <g
       clip-path="url(#cpMC4wMHw2MTcuMDB8MC4wMHwzODkuMDA=)"
       id="g5" />
    <defs
       id="defs5">
      <clipPath
         id="cpMTM2LjE0fDQ4MC44NnwzMy4zM3wzNzguMDQ=">
        <rect
           x="136.14"
           y="33.330002"
           width="344.70999"
           height="344.70999"
           id="rect5" />
      </clipPath>
    </defs>
    <g
       clip-path="url(#cpMTM2LjE0fDQ4MC44NnwzMy4zM3wzNzguMDQ=)"
       id="g6" />
    <g
       clip-path="url(#cpMC4wMHw2MTcuMDB8MC4wMHwzODkuMDA=)"
       id="g7" />
    <defs
       id="defs7">
      <clipPath
         id="cpMTMwLjY2fDQ4Ni4zNHwyNy44NXwzODMuNTI=">
        <rect
           x="130.66"
           y="27.85"
           width="355.67001"
           height="355.67001"
           id="rect7" />
      </clipPath>
    </defs>
    <g
       clip-path="url(#cpMTMwLjY2fDQ4Ni4zNHwyNy44NXwzODMuNTI=)"
       id="g8">
      <rect
         x="130.66"
         y="27.85"
         width="355.67001"
         height="355.67001"
         style="stroke:#ffffff;stroke-width:0"
         id="rect8" />
    </g>
    <g
       clip-path="url(#cpMC4wMHw2MTcuMDB8MC4wMHwzODkuMDA=)"
       id="g9" />
    <g
       clip-path="url(#cpMTM2LjE0fDQ4MC44NnwzMy4zM3wzNzguMDQ=)"
       id="g27">
      <rect
         x="136.14"
         y="33.330002"
         width="344.70999"
         height="344.70999"
         style="stroke:none;stroke-width:0"
         id="rect9" />
      <polygon
         points="412.7,212.97 412.56,214.79 412.39,216.6 412.18,218.41 411.94,220.22 411.67,222.02 411.37,223.82 411.04,225.62 410.68,227.4 410.28,229.18 409.86,230.95 409.4,232.72 408.91,234.48 408.39,236.22 407.85,237.96 407.27,239.69 406.66,241.41 406.02,243.12 405.35,244.81 404.66,246.5 403.93,248.17 403.17,249.83 402.39,251.48 401.57,253.11 400.73,254.72 399.86,256.33 398.96,257.91 398.04,259.48 397.09,261.04 396.11,262.58 395.1,264.1 394.07,265.6 393.01,267.08 391.92,268.55 390.81,270 389.68,271.42 388.52,272.83 372.52,259.4 373.44,258.27 374.35,257.13 375.24,255.98 376.11,254.8 376.95,253.62 377.78,252.41 378.59,251.2 379.37,249.97 380.13,248.72 380.87,247.47 381.59,246.2 382.29,244.92 382.96,243.62 383.61,242.32 384.24,241 384.84,239.67 385.42,238.34 385.98,236.99 386.52,235.63 387.03,234.27 387.51,232.89 387.98,231.51 388.42,230.12 388.83,228.72 389.22,227.31 389.58,225.9 389.93,224.48 390.24,223.06 390.53,221.63 390.8,220.2 391.04,218.76 391.25,217.31 391.44,215.87 391.61,214.42 391.75,212.97 391.86,211.51 391.95,210.06 392.02,208.6 392.05,207.14 392.07,205.68 412.96,205.68 412.94,207.51 412.9,209.33 412.82,211.15 "
         style="fill:#f8766d;fill-opacity:0.8;stroke:#ffffff;stroke-width:1.07"
         id="polygon9" />
      <polygon
         points="383.64,278.25 382.36,279.55 381.06,280.83 379.74,282.08 378.4,283.31 377.03,284.52 375.64,285.7 374.24,286.86 372.81,288 371.37,289.11 369.9,290.19 368.42,291.25 366.91,292.28 365.39,293.29 363.85,294.27 362.3,295.22 360.73,296.15 359.14,297.05 357.54,297.92 355.92,298.76 354.29,299.57 352.65,300.36 350.99,301.11 349.32,301.84 347.63,302.54 345.93,303.2 344.23,303.84 342.51,304.45 340.78,305.03 339.04,305.58 337.29,306.1 335.54,306.58 333.77,307.04 332,307.47 330.22,307.86 328.43,308.22 326.64,308.56 323.01,287.98 324.45,287.72 325.87,287.42 327.3,287.11 328.72,286.77 330.13,286.4 331.53,286.01 332.93,285.6 334.32,285.16 335.71,284.7 337.08,284.21 338.45,283.7 339.8,283.17 341.15,282.61 342.49,282.03 343.82,281.42 345.13,280.79 346.44,280.14 347.73,279.47 349.01,278.77 350.28,278.06 351.54,277.31 352.78,276.55 354.01,275.77 355.23,274.96 356.43,274.14 357.62,273.29 358.79,272.42 359.95,271.54 361.09,270.63 362.22,269.7 363.33,268.75 364.42,267.79 365.49,266.8 366.55,265.8 367.59,264.77 368.61,263.73 369.62,262.68 370.6,261.6 371.57,260.51 372.52,259.4 388.52,272.83 387.34,274.22 386.13,275.58 384.9,276.92 "
         style="fill:#a3a500;fill-opacity:0.8;stroke:#ffffff;stroke-width:1.07"
         id="polygon10" />
      <polygon
         points="319.42,309.57 317.6,309.75 315.79,309.89 313.97,310 312.15,310.08 310.32,310.13 308.5,310.14 306.68,310.13 304.85,310.08 303.03,310 301.21,309.89 299.4,309.75 297.58,309.57 295.77,309.36 293.96,309.13 292.16,308.86 290.36,308.56 288.57,308.22 286.78,307.86 285,307.47 283.23,307.04 281.46,306.58 279.71,306.1 277.96,305.58 276.22,305.03 274.49,304.45 272.77,303.84 271.07,303.2 269.37,302.54 267.68,301.84 266.01,301.11 264.35,300.36 262.71,299.57 261.08,298.76 259.46,297.92 257.86,297.05 256.27,296.15 254.7,295.22 253.15,294.27 251.61,293.29 250.09,292.28 248.58,291.25 247.1,290.19 245.63,289.11 244.19,288 242.76,286.86 241.36,285.7 239.97,284.52 238.6,283.31 237.26,282.08 235.94,280.83 234.64,279.55 233.36,278.25 232.1,276.92 230.87,275.58 229.66,274.22 228.48,272.83 227.32,271.42 226.19,270 225.08,268.55 223.99,267.08 222.93,265.6 221.9,264.1 220.89,262.58 219.91,261.04 218.96,259.48 218.04,257.91 217.14,256.33 216.27,254.72 215.43,253.11 214.61,251.48 213.83,249.83 213.07,248.17 212.34,246.5 211.65,244.81 210.98,243.12 210.34,241.41 229.97,234.27 230.48,235.63 231.02,236.99 231.58,238.34 232.16,239.67 232.76,241 233.39,242.32 234.04,243.62 234.71,244.92 235.41,246.2 236.13,247.47 236.87,248.72 237.63,249.97 238.41,251.2 239.22,252.41 240.05,253.62 240.89,254.8 241.76,255.98 242.65,257.13 243.56,258.27 244.48,259.4 245.43,260.51 246.4,261.6 247.38,262.68 248.39,263.73 249.41,264.77 250.45,265.8 251.51,266.8 252.58,267.79 253.67,268.75 254.78,269.7 255.91,270.63 257.05,271.54 258.21,272.42 259.38,273.29 260.57,274.14 261.77,274.96 262.99,275.77 264.22,276.55 265.46,277.31 266.72,278.06 267.99,278.77 269.27,279.47 270.56,280.14 271.87,280.79 273.18,281.42 274.51,282.03 275.85,282.61 277.2,283.17 278.55,283.7 279.92,284.21 281.29,284.7 282.68,285.16 284.07,285.6 285.47,286.01 286.87,286.4 288.28,286.77 289.7,287.11 291.13,287.42 292.55,287.72 293.99,287.98 295.43,288.22 296.87,288.44 298.32,288.63 299.76,288.79 301.22,288.93 302.67,289.05 304.13,289.14 305.58,289.2 307.04,289.24 308.5,289.25 309.96,289.24 311.42,289.2 312.87,289.14 314.33,289.05 315.78,288.93 317.24,288.79 318.68,288.63 320.13,288.44 321.57,288.22 323.01,287.98 326.64,308.56 324.84,308.86 323.04,309.13 321.23,309.36 "
         style="fill:#00bf7d;fill-opacity:0.8;stroke:#ffffff;stroke-width:1.07"
         id="polygon11" />
      <polygon
         points="208.07,234.43 207.59,232.66 207.13,230.89 206.7,229.1 206.3,227.31 205.94,225.51 205.61,223.71 205.31,221.9 205.04,220.09 204.8,218.27 204.6,216.44 204.42,214.62 204.28,212.79 204.17,210.96 204.1,209.12 204.05,207.29 204.04,205.45 204.06,203.62 204.11,201.79 204.2,199.95 204.32,198.12 204.46,196.29 204.64,194.47 204.86,192.65 205.1,190.83 205.38,189.01 205.69,187.21 206.03,185.4 206.4,183.61 206.8,181.82 207.24,180.03 207.7,178.26 208.2,176.49 208.73,174.74 209.29,172.99 209.88,171.25 210.5,169.53 211.15,167.81 211.83,166.11 212.54,164.41 213.28,162.74 214.05,161.07 214.85,159.42 215.67,157.78 216.53,156.16 217.41,154.55 218.32,152.96 219.26,151.38 220.23,149.82 221.23,148.28 222.25,146.76 223.3,145.25 224.37,143.77 225.47,142.3 226.6,140.85 227.75,139.42 228.92,138.01 230.12,136.63 231.35,135.26 232.6,133.92 233.87,132.59 235.17,131.29 236.48,130.02 237.82,128.77 239.18,127.54 240.57,126.33 241.97,125.15 243.4,123.99 244.84,122.86 246.31,121.76 247.79,120.68 249.29,119.63 250.81,118.6 252.35,117.6 253.91,116.63 255.48,115.68 257.07,114.76 258.67,113.88 260.29,113.01 261.93,112.18 263.58,111.38 265.24,110.6 266.92,109.86 268.6,109.14 270.31,108.46 272.02,107.8 273.74,107.18 275.48,106.58 277.23,106.02 278.98,105.48 280.74,104.98 282.52,104.51 284.3,104.07 286.09,103.66 287.88,103.28 289.68,102.93 291.49,102.62 293.3,102.34 295.12,102.09 296.94,101.87 298.77,101.68 300.6,101.52 302.43,101.4 304.26,101.31 306.09,101.25 307.93,101.23 309.76,101.23 311.6,101.27 313.43,101.34 315.26,101.44 317.09,101.58 318.92,101.75 320.74,101.94 322.56,102.18 324.38,102.44 326.19,102.73 327.99,103.06 329.79,103.42 331.58,103.81 333.37,104.23 335.15,104.68 336.92,105.16 338.68,105.68 340.43,106.22 342.17,106.8 343.9,107.41 345.62,108.04 347.33,108.71 349.03,109.41 350.71,110.13 352.39,110.89 354.04,111.68 355.69,112.49 357.32,113.33 358.93,114.21 360.53,115.11 362.11,116.03 363.68,116.99 365.23,117.97 366.76,118.98 368.27,120.02 369.77,121.08 371.25,122.17 372.7,123.28 374.14,124.42 375.56,125.59 376.95,126.78 378.33,127.99 379.68,129.23 381.01,130.49 382.32,131.78 383.61,133.09 384.87,134.42 386.11,135.77 387.33,137.14 388.52,138.54 372.52,151.97 371.56,150.85 370.59,149.75 369.6,148.67 368.59,147.61 367.56,146.56 366.51,145.53 365.45,144.52 364.36,143.53 363.26,142.56 362.15,141.61 361.01,140.68 359.86,139.76 358.7,138.87 357.52,138 356.32,137.15 355.11,136.32 353.88,135.51 352.64,134.73 351.39,133.96 350.12,133.22 348.85,132.5 347.55,131.8 346.25,131.13 344.94,130.48 343.61,129.85 342.27,129.24 340.92,128.66 339.57,128.11 338.2,127.57 336.82,127.06 335.44,126.58 334.04,126.12 332.64,125.68 331.23,125.27 329.82,124.88 328.4,124.52 326.97,124.18 325.53,123.87 324.09,123.58 322.65,123.32 321.2,123.09 319.75,122.88 318.29,122.69 316.83,122.53 315.37,122.4 313.91,122.29 312.44,122.21 310.98,122.15 309.51,122.12 308.04,122.12 306.57,122.14 305.11,122.19 303.64,122.26 302.18,122.36 300.71,122.48 299.25,122.63 297.8,122.8 296.34,123.01 294.89,123.23 293.45,123.48 292.01,123.76 290.57,124.06 289.14,124.39 287.71,124.74 286.3,125.12 284.88,125.52 283.48,125.95 282.08,126.4 280.7,126.88 279.32,127.38 277.95,127.9 276.58,128.45 275.23,129.02 273.89,129.62 272.56,130.24 271.24,130.88 269.93,131.55 268.64,132.24 267.35,132.95 266.08,133.68 264.82,134.44 263.58,135.22 262.35,136.02 261.13,136.84 259.93,137.68 258.74,138.54 257.57,139.43 256.42,140.33 255.28,141.26 254.15,142.2 253.05,143.17 251.96,144.15 250.89,145.15 249.83,146.17 248.8,147.21 247.78,148.27 246.78,149.34 245.8,150.44 244.84,151.55 243.9,152.67 242.98,153.82 242.08,154.98 241.2,156.15 240.34,157.34 239.5,158.54 238.68,159.76 237.88,161 237.11,162.24 236.36,163.5 235.63,164.78 234.92,166.06 234.24,167.36 233.58,168.67 232.94,169.99 232.32,171.33 231.73,172.67 231.16,174.02 230.62,175.39 230.1,176.76 229.6,178.14 229.13,179.53 228.68,180.93 228.26,182.33 227.86,183.74 227.49,185.16 227.14,186.59 226.82,188.02 226.52,189.46 226.25,190.9 226,192.35 225.78,193.8 225.59,195.25 225.42,196.71 225.27,198.17 225.15,199.63 225.06,201.1 224.99,202.57 224.95,204.03 224.93,205.5 224.94,206.97 224.98,208.44 225.04,209.9 225.13,211.37 225.24,212.83 225.38,214.29 225.54,215.75 225.73,217.21 225.95,218.66 226.19,220.1 226.45,221.55 226.74,222.99 227.06,224.42 227.4,225.85 227.77,227.27 228.16,228.68 228.58,230.09 229.02,231.49 229.48,232.88 229.97,234.27 210.34,241.41 209.73,239.68 209.15,237.94 208.6,236.19 "
         style="fill:#00b0f6;fill-opacity:0.8;stroke:#ffffff;stroke-width:1.07"
         id="polygon12" />
      <polygon
         points="393.01,144.28 394.07,145.77 395.1,147.27 396.11,148.79 397.09,150.33 398.04,151.88 398.96,153.45 399.86,155.04 400.73,156.64 401.57,158.26 402.39,159.89 403.17,161.54 403.93,163.2 404.66,164.87 405.35,166.55 406.02,168.25 406.66,169.96 407.27,171.68 407.85,173.4 408.39,175.14 408.91,176.89 409.4,178.65 409.86,180.41 410.28,182.19 410.68,183.97 411.04,185.75 411.37,187.54 411.67,189.34 411.94,191.15 412.18,192.95 412.39,194.76 412.56,196.58 412.7,198.4 412.82,200.22 412.9,202.04 412.94,203.86 412.96,205.68 392.07,205.68 392.05,204.23 392.02,202.77 391.95,201.31 391.86,199.85 391.75,198.4 391.61,196.95 391.44,195.5 391.25,194.05 391.04,192.61 390.8,191.17 390.53,189.74 390.24,188.31 389.93,186.89 389.58,185.47 389.22,184.05 388.83,182.65 388.42,181.25 387.98,179.86 387.51,178.48 387.03,177.1 386.52,175.74 385.98,174.38 385.42,173.03 384.84,171.69 384.24,170.37 383.61,169.05 382.96,167.75 382.29,166.45 381.59,165.17 380.87,163.9 380.13,162.64 379.37,161.4 378.59,160.17 377.78,158.95 376.95,157.75 376.11,156.56 375.24,155.39 374.35,154.23 373.44,153.09 372.52,151.97 388.52,138.54 389.68,139.95 390.81,141.37 391.92,142.82 "
         style="fill:#e76bf3;fill-opacity:0.8;stroke:#ffffff;stroke-width:1.07"
         id="polygon13" />
      <line
         x1="406.66"
         y1="241.41"
         x2="411.57001"
         y2="243.2"
         style="stroke-width:1.07;stroke-linecap:butt"
         id="line13" />
      <line
         x1="360.73001"
         y1="296.14999"
         x2="363.34"
         y2="300.67001"
         style="stroke-width:1.07;stroke-linecap:butt"
         id="line14" />
      <line
         x1="256.26999"
         y1="296.14999"
         x2="253.66"
         y2="300.67001"
         style="stroke-width:1.07;stroke-linecap:butt"
         id="line15" />
      <line
         x1="256.26999"
         y1="115.22"
         x2="253.66"
         y2="110.7"
         style="stroke-width:1.07;stroke-linecap:butt"
         id="line16" />
      <line
         x1="406.66"
         y1="169.96001"
         x2="411.57001"
         y2="168.17"
         style="stroke-width:1.07;stroke-linecap:butt"
         id="line17" />
      <text
         x="411.57001"
         y="251.34"
         style="font-size:11.38px;font-family:Arial"
         textLength="69.529999"
         lengthAdjust="spacingAndGlyphs"
         id="text17"
         transform="translate(0,4.5)">Demersal fish</text>
      <text
         x="411.57001"
         y="267.73001"
         style="font-size:11.38px;font-family:Arial"
         textLength="29.48"
         lengthAdjust="spacingAndGlyphs"
         id="text18">(11%)</text>
      <text
         x="363.34"
         y="308.81"
         style="font-size:11.38px;font-family:Arial"
         textLength="113.83"
         lengthAdjust="spacingAndGlyphs"
         id="text19"
         transform="translate(0,3)">Sharks Large Pelagics</text>
      <text
         x="363.34"
         y="325.20001"
         style="font-size:11.38px;font-family:Arial"
         textLength="29.48"
         lengthAdjust="spacingAndGlyphs"
         id="text20">(11%)</text>
      <text
         x="253.66"
         y="308.81"
         text-anchor="end"
         style="font-size:11.38px;font-family:Arial"
         textLength="186.5"
         lengthAdjust="spacingAndGlyphs"
         id="text21"
         transform="translate(0,4.5)">Sharks Spiny Lobsters Demersal fish</text>
      <text
         x="253.66"
         y="325.20001"
         text-anchor="end"
         style="font-size:11.38px;font-family:Arial"
         textLength="30.33"
         lengthAdjust="spacingAndGlyphs"
         id="text22">(22%)</text>
      <text
         x="253.66"
         y="94.309998"
         text-anchor="end"
         style="font-size:11.38px;line-height:1;font-family:Arial"
         textLength="264.92001"
         lengthAdjust="spacingAndGlyphs"
         id="text23"
         transform="translate(-60.572963,-24.245741)"><tspan
           sodipodi:role="line"
           id="tspan29"
           x="253.66"
           y="94.309998"
           style="line-height:1;text-align:start;text-anchor:start">Sharks Spiny Lobsters </tspan><tspan
           sodipodi:role="line"
           x="253.66"
           y="105.68999"
           id="tspan31"
           style="line-height:1;text-align:start;text-anchor:start">Demersal fish </tspan><tspan
           sodipodi:role="line"
           id="tspan30"
           x="253.66"
           y="117.07"
           style="line-height:1;text-align:start;text-anchor:start">Large Pelagics</tspan></text>
      <text
         x="253.66"
         y="110.7"
         text-anchor="end"
         style="font-size:11.38px;font-family:Arial"
         textLength="30.33"
         lengthAdjust="spacingAndGlyphs"
         id="text24"
         transform="translate(0,-3)">(44%)</text>
      <text
         x="411.57001"
         y="151.78"
         style="font-size:11.38px;font-family:Arial"
         textLength="226.36"
         lengthAdjust="spacingAndGlyphs"
         id="text25">Spiny Lobsters Demersal fish Large Pelagics</text>
      <text
         x="411.57001"
         y="168.17"
         style="font-size:11.38px;font-family:Arial"
         textLength="29.48"
         lengthAdjust="spacingAndGlyphs"
         id="text26"
         transform="translate(3,-4.5)">(11%)</text>
      <rect
         x="136.14"
         y="33.330002"
         width="344.70999"
         height="344.70999"
         style="stroke:#333333;stroke-width:0"
         id="rect27" />
    </g>
  </g>
</svg>
