<?xml version="1.0" encoding="UTF-8" standalone="no"?>
<svg
   width="337.44287pt"
   height="556.69843pt"
   viewBox="0 0 337.44287 556.69843"
   version="1.1"
   id="svg128"
   sodipodi:docname="tuna_ogive.svg"
   inkscape:version="1.4 (86a8ad7, 2024-10-11)"
   xmlns:inkscape="http://www.inkscape.org/namespaces/inkscape"
   xmlns:sodipodi="http://sodipodi.sourceforge.net/DTD/sodipodi-0.dtd"
   xmlns="http://www.w3.org/2000/svg"
   xmlns:svg="http://www.w3.org/2000/svg">
  <defs
     id="defs128" />
  <sodipodi:namedview
     id="namedview128"
     pagecolor="#ffffff"
     bordercolor="#000000"
     borderopacity="0.25"
     inkscape:showpageshadow="2"
     inkscape:pageopacity="0.0"
     inkscape:pagecheckerboard="0"
     inkscape:deskcolor="#d1d1d1"
     inkscape:document-units="pt"
     inkscape:zoom="1.6126325"
     inkscape:cx="249.90194"
     inkscape:cy="513.13613"
     inkscape:window-width="2560"
     inkscape:window-height="1494"
     inkscape:window-x="-11"
     inkscape:window-y="-11"
     inkscape:window-maximized="1"
     inkscape:current-layer="g128" />
  <g
     class="svglite"
     id="g128"
     transform="translate(12.557108,-9.7666393)">
    <defs
       id="defs1">
      <style
         type="text/css"
         id="style1"><![CDATA[
    .svglite line, .svglite polyline, .svglite polygon, .svglite path, .svglite rect, .svglite circle {
      fill: none;
      stroke: #000000;
      stroke-linecap: round;
      stroke-linejoin: round;
      stroke-miterlimit: 10.00;
    }
    .svglite text {
      white-space: pre;
    }
    .svglite g.glyphgroup path {
      fill: inherit;
      stroke: none;
    }
  ]]></style>
    </defs>
    <defs
       id="defs2">
      <clipPath
         id="cpMC4wMHwzNTAuMDB8MC4wMHw1NjYuMDA=">
        <rect
           x="0"
           y="0"
           width="350"
           height="566"
           id="rect2" />
      </clipPath>
    </defs>
    <g
       clip-path="url(#cpMC4wMHwzNTAuMDB8MC4wMHw1NjYuMDA=)"
       id="g2" />
    <defs
       id="defs3">
      <clipPath
         id="cpNTkuMDR8MzE5Ljc2fDU5LjA0fDQ5Mi41Ng==">
        <rect
           x="59.040001"
           y="59.040001"
           width="260.72"
           height="433.51999"
           id="rect3" />
      </clipPath>
    </defs>
    <g
       clip-path="url(#cpNTkuMDR8MzE5Ljc2fDU5LjA0fDQ5Mi41Ng==)"
       id="g95">
      <circle
         cx="68.699997"
         cy="476.5"
         r="2.7"
         style="fill:#a9a9a9;stroke:#a9a9a9;stroke-width:0.75"
         id="circle3" />
      <circle
         cx="72.440002"
         cy="476.5"
         r="2.7"
         style="fill:#a9a9a9;stroke:#a9a9a9;stroke-width:0.75"
         id="circle4" />
      <circle
         cx="127.17"
         cy="476.5"
         r="2.7"
         style="fill:#a9a9a9;stroke:#a9a9a9;stroke-width:0.75"
         id="circle5" />
      <circle
         cx="128.67"
         cy="476.5"
         r="2.7"
         style="fill:#a9a9a9;stroke:#a9a9a9;stroke-width:0.75"
         id="circle6" />
      <circle
         cx="130.17"
         cy="476.5"
         r="2.7"
         style="fill:#a9a9a9;stroke:#a9a9a9;stroke-width:0.75"
         id="circle7" />
      <circle
         cx="133.17"
         cy="476.5"
         r="2.7"
         style="fill:#a9a9a9;stroke:#a9a9a9;stroke-width:0.75"
         id="circle8" />
      <circle
         cx="134.67"
         cy="476.5"
         r="2.7"
         style="fill:#a9a9a9;stroke:#a9a9a9;stroke-width:0.75"
         id="circle9" />
      <circle
         cx="136.17"
         cy="476.5"
         r="2.7"
         style="fill:#a9a9a9;stroke:#a9a9a9;stroke-width:0.75"
         id="circle10" />
      <circle
         cx="137.67"
         cy="476.5"
         r="2.7"
         style="fill:#a9a9a9;stroke:#a9a9a9;stroke-width:0.75"
         id="circle11" />
      <circle
         cx="139.17"
         cy="476.5"
         r="2.7"
         style="fill:#a9a9a9;stroke:#a9a9a9;stroke-width:0.75"
         id="circle12" />
      <circle
         cx="140.67"
         cy="476.5"
         r="2.7"
         style="fill:#a9a9a9;stroke:#a9a9a9;stroke-width:0.75"
         id="circle13" />
      <circle
         cx="142.17"
         cy="476.5"
         r="2.7"
         style="fill:#a9a9a9;stroke:#a9a9a9;stroke-width:0.75"
         id="circle14" />
      <circle
         cx="143.67"
         cy="476.5"
         r="2.7"
         style="fill:#a9a9a9;stroke:#a9a9a9;stroke-width:0.75"
         id="circle15" />
      <circle
         cx="145.17"
         cy="476.5"
         r="2.7"
         style="fill:#a9a9a9;stroke:#a9a9a9;stroke-width:0.75"
         id="circle16" />
      <circle
         cx="146.67"
         cy="476.5"
         r="2.7"
         style="fill:#a9a9a9;stroke:#a9a9a9;stroke-width:0.75"
         id="circle17" />
      <circle
         cx="148.17"
         cy="476.5"
         r="2.7"
         style="fill:#a9a9a9;stroke:#a9a9a9;stroke-width:0.75"
         id="circle18" />
      <circle
         cx="149.67"
         cy="476.5"
         r="2.7"
         style="fill:#a9a9a9;stroke:#a9a9a9;stroke-width:0.75"
         id="circle19" />
      <circle
         cx="151.16"
         cy="476.5"
         r="2.7"
         style="fill:#a9a9a9;stroke:#a9a9a9;stroke-width:0.75"
         id="circle20" />
      <circle
         cx="152.66"
         cy="476.5"
         r="2.7"
         style="fill:#a9a9a9;stroke:#a9a9a9;stroke-width:0.75"
         id="circle21" />
      <circle
         cx="154.16"
         cy="476.5"
         r="2.7"
         style="fill:#a9a9a9;stroke:#a9a9a9;stroke-width:0.75"
         id="circle22" />
      <circle
         cx="155.66"
         cy="476.5"
         r="2.7"
         style="fill:#a9a9a9;stroke:#a9a9a9;stroke-width:0.75"
         id="circle23" />
      <circle
         cx="157.16"
         cy="476.5"
         r="2.7"
         style="fill:#a9a9a9;stroke:#a9a9a9;stroke-width:0.75"
         id="circle24" />
      <circle
         cx="158.66"
         cy="476.5"
         r="2.7"
         style="fill:#a9a9a9;stroke:#a9a9a9;stroke-width:0.75"
         id="circle25" />
      <circle
         cx="160.16"
         cy="476.5"
         r="2.7"
         style="fill:#a9a9a9;stroke:#a9a9a9;stroke-width:0.75"
         id="circle26" />
      <circle
         cx="161.66"
         cy="476.5"
         r="2.7"
         style="fill:#a9a9a9;stroke:#a9a9a9;stroke-width:0.75"
         id="circle27" />
      <circle
         cx="163.16"
         cy="476.5"
         r="2.7"
         style="fill:#a9a9a9;stroke:#a9a9a9;stroke-width:0.75"
         id="circle28" />
      <circle
         cx="164.66"
         cy="476.5"
         r="2.7"
         style="fill:#a9a9a9;stroke:#a9a9a9;stroke-width:0.75"
         id="circle29" />
      <circle
         cx="166.16"
         cy="476.5"
         r="2.7"
         style="fill:#a9a9a9;stroke:#a9a9a9;stroke-width:0.75"
         id="circle30" />
      <circle
         cx="167.66"
         cy="476.5"
         r="2.7"
         style="fill:#a9a9a9;stroke:#a9a9a9;stroke-width:0.75"
         id="circle31" />
      <circle
         cx="169.16"
         cy="436.35999"
         r="2.7"
         style="fill:#a9a9a9;stroke:#a9a9a9;stroke-width:0.75"
         id="circle32" />
      <circle
         cx="170.66"
         cy="476.5"
         r="2.7"
         style="fill:#a9a9a9;stroke:#a9a9a9;stroke-width:0.75"
         id="circle33" />
      <circle
         cx="172.16"
         cy="476.5"
         r="2.7"
         style="fill:#a9a9a9;stroke:#a9a9a9;stroke-width:0.75"
         id="circle34" />
      <circle
         cx="173.66"
         cy="476.5"
         r="2.7"
         style="fill:#a9a9a9;stroke:#a9a9a9;stroke-width:0.75"
         id="circle35" />
      <circle
         cx="175.16"
         cy="476.5"
         r="2.7"
         style="fill:#a9a9a9;stroke:#a9a9a9;stroke-width:0.75"
         id="circle36" />
      <circle
         cx="176.64999"
         cy="476.5"
         r="2.7"
         style="fill:#a9a9a9;stroke:#a9a9a9;stroke-width:0.75"
         id="circle37" />
      <circle
         cx="178.14999"
         cy="476.5"
         r="2.7"
         style="fill:#a9a9a9;stroke:#a9a9a9;stroke-width:0.75"
         id="circle38" />
      <circle
         cx="179.64999"
         cy="476.5"
         r="2.7"
         style="fill:#a9a9a9;stroke:#a9a9a9;stroke-width:0.75"
         id="circle39" />
      <circle
         cx="181.14999"
         cy="476.5"
         r="2.7"
         style="fill:#a9a9a9;stroke:#a9a9a9;stroke-width:0.75"
         id="circle40" />
      <circle
         cx="182.64999"
         cy="476.5"
         r="2.7"
         style="fill:#a9a9a9;stroke:#a9a9a9;stroke-width:0.75"
         id="circle41" />
      <circle
         cx="184.14999"
         cy="476.5"
         r="2.7"
         style="fill:#a9a9a9;stroke:#a9a9a9;stroke-width:0.75"
         id="circle42" />
      <circle
         cx="185.64999"
         cy="476.5"
         r="2.7"
         style="fill:#a9a9a9;stroke:#a9a9a9;stroke-width:0.75"
         id="circle43" />
      <circle
         cx="187.14999"
         cy="476.5"
         r="2.7"
         style="fill:#a9a9a9;stroke:#a9a9a9;stroke-width:0.75"
         id="circle44" />
      <circle
         cx="188.64999"
         cy="476.5"
         r="2.7"
         style="fill:#a9a9a9;stroke:#a9a9a9;stroke-width:0.75"
         id="circle45" />
      <circle
         cx="190.14999"
         cy="476.5"
         r="2.7"
         style="fill:#a9a9a9;stroke:#a9a9a9;stroke-width:0.75"
         id="circle46" />
      <circle
         cx="191.64999"
         cy="476.5"
         r="2.7"
         style="fill:#a9a9a9;stroke:#a9a9a9;stroke-width:0.75"
         id="circle47" />
      <circle
         cx="193.14999"
         cy="476.5"
         r="2.7"
         style="fill:#a9a9a9;stroke:#a9a9a9;stroke-width:0.75"
         id="circle48" />
      <circle
         cx="194.64999"
         cy="476.5"
         r="2.7"
         style="fill:#a9a9a9;stroke:#a9a9a9;stroke-width:0.75"
         id="circle49" />
      <circle
         cx="196.14999"
         cy="275.79999"
         r="2.7"
         style="fill:#a9a9a9;stroke:#a9a9a9;stroke-width:0.75"
         id="circle50" />
      <circle
         cx="197.64999"
         cy="275.79999"
         r="2.7"
         style="fill:#a9a9a9;stroke:#a9a9a9;stroke-width:0.75"
         id="circle51" />
      <circle
         cx="199.14999"
         cy="235.66"
         r="2.7"
         style="fill:#a9a9a9;stroke:#a9a9a9;stroke-width:0.75"
         id="circle52" />
      <circle
         cx="200.64999"
         cy="235.66"
         r="2.7"
         style="fill:#a9a9a9;stroke:#a9a9a9;stroke-width:0.75"
         id="circle53" />
      <circle
         cx="202.14999"
         cy="75.099998"
         r="2.7"
         style="fill:#a9a9a9;stroke:#a9a9a9;stroke-width:0.75"
         id="circle54" />
      <circle
         cx="203.64"
         cy="75.099998"
         r="2.7"
         style="fill:#a9a9a9;stroke:#a9a9a9;stroke-width:0.75"
         id="circle55" />
      <circle
         cx="205.14"
         cy="75.099998"
         r="2.7"
         style="fill:#a9a9a9;stroke:#a9a9a9;stroke-width:0.75"
         id="circle56" />
      <circle
         cx="206.64"
         cy="75.099998"
         r="2.7"
         style="fill:#a9a9a9;stroke:#a9a9a9;stroke-width:0.75"
         id="circle57" />
      <circle
         cx="208.14"
         cy="75.099998"
         r="2.7"
         style="fill:#a9a9a9;stroke:#a9a9a9;stroke-width:0.75"
         id="circle58" />
      <circle
         cx="209.64"
         cy="476.5"
         r="2.7"
         style="fill:#a9a9a9;stroke:#a9a9a9;stroke-width:0.75"
         id="circle59" />
      <circle
         cx="211.14"
         cy="275.79999"
         r="2.7"
         style="fill:#a9a9a9;stroke:#a9a9a9;stroke-width:0.75"
         id="circle60" />
      <circle
         cx="212.64"
         cy="75.099998"
         r="2.7"
         style="fill:#a9a9a9;stroke:#a9a9a9;stroke-width:0.75"
         id="circle61" />
      <circle
         cx="214.14"
         cy="142"
         r="2.7"
         style="fill:#a9a9a9;stroke:#a9a9a9;stroke-width:0.75"
         id="circle62" />
      <circle
         cx="215.64"
         cy="155.38"
         r="2.7"
         style="fill:#a9a9a9;stroke:#a9a9a9;stroke-width:0.75"
         id="circle63" />
      <circle
         cx="218.64"
         cy="75.099998"
         r="2.7"
         style="fill:#a9a9a9;stroke:#a9a9a9;stroke-width:0.75"
         id="circle64" />
      <circle
         cx="220.14"
         cy="75.099998"
         r="2.7"
         style="fill:#a9a9a9;stroke:#a9a9a9;stroke-width:0.75"
         id="circle65" />
      <circle
         cx="221.64"
         cy="75.099998"
         r="2.7"
         style="fill:#a9a9a9;stroke:#a9a9a9;stroke-width:0.75"
         id="circle66" />
      <circle
         cx="223.14"
         cy="75.099998"
         r="2.7"
         style="fill:#a9a9a9;stroke:#a9a9a9;stroke-width:0.75"
         id="circle67" />
      <circle
         cx="224.64"
         cy="75.099998"
         r="2.7"
         style="fill:#a9a9a9;stroke:#a9a9a9;stroke-width:0.75"
         id="circle68" />
      <circle
         cx="226.14"
         cy="75.099998"
         r="2.7"
         style="fill:#a9a9a9;stroke:#a9a9a9;stroke-width:0.75"
         id="circle69" />
      <circle
         cx="227.64"
         cy="75.099998"
         r="2.7"
         style="fill:#a9a9a9;stroke:#a9a9a9;stroke-width:0.75"
         id="circle70" />
      <circle
         cx="229.13"
         cy="75.099998"
         r="2.7"
         style="fill:#a9a9a9;stroke:#a9a9a9;stroke-width:0.75"
         id="circle71" />
      <circle
         cx="230.63"
         cy="75.099998"
         r="2.7"
         style="fill:#a9a9a9;stroke:#a9a9a9;stroke-width:0.75"
         id="circle72" />
      <circle
         cx="232.13"
         cy="75.099998"
         r="2.7"
         style="fill:#a9a9a9;stroke:#a9a9a9;stroke-width:0.75"
         id="circle73" />
      <circle
         cx="235.13"
         cy="75.099998"
         r="2.7"
         style="fill:#a9a9a9;stroke:#a9a9a9;stroke-width:0.75"
         id="circle74" />
      <circle
         cx="236.63"
         cy="75.099998"
         r="2.7"
         style="fill:#a9a9a9;stroke:#a9a9a9;stroke-width:0.75"
         id="circle75" />
      <circle
         cx="238.13"
         cy="75.099998"
         r="2.7"
         style="fill:#a9a9a9;stroke:#a9a9a9;stroke-width:0.75"
         id="circle76" />
      <circle
         cx="239.63"
         cy="75.099998"
         r="2.7"
         style="fill:#a9a9a9;stroke:#a9a9a9;stroke-width:0.75"
         id="circle77" />
      <circle
         cx="242.63"
         cy="75.099998"
         r="2.7"
         style="fill:#a9a9a9;stroke:#a9a9a9;stroke-width:0.75"
         id="circle78" />
      <circle
         cx="247.13"
         cy="75.099998"
         r="2.7"
         style="fill:#a9a9a9;stroke:#a9a9a9;stroke-width:0.75"
         id="circle79" />
      <circle
         cx="251.63"
         cy="75.099998"
         r="2.7"
         style="fill:#a9a9a9;stroke:#a9a9a9;stroke-width:0.75"
         id="circle80" />
      <circle
         cx="254.62"
         cy="75.099998"
         r="2.7"
         style="fill:#a9a9a9;stroke:#a9a9a9;stroke-width:0.75"
         id="circle81" />
      <circle
         cx="262.12"
         cy="75.099998"
         r="2.7"
         style="fill:#a9a9a9;stroke:#a9a9a9;stroke-width:0.75"
         id="circle82" />
      <circle
         cx="265.12"
         cy="75.099998"
         r="2.7"
         style="fill:#a9a9a9;stroke:#a9a9a9;stroke-width:0.75"
         id="circle83" />
      <circle
         cx="268.12"
         cy="75.099998"
         r="2.7"
         style="fill:#a9a9a9;stroke:#a9a9a9;stroke-width:0.75"
         id="circle84" />
      <circle
         cx="269.62"
         cy="75.099998"
         r="2.7"
         style="fill:#a9a9a9;stroke:#a9a9a9;stroke-width:0.75"
         id="circle85" />
      <circle
         cx="272.62"
         cy="75.099998"
         r="2.7"
         style="fill:#a9a9a9;stroke:#a9a9a9;stroke-width:0.75"
         id="circle86" />
      <circle
         cx="275.62"
         cy="75.099998"
         r="2.7"
         style="fill:#a9a9a9;stroke:#a9a9a9;stroke-width:0.75"
         id="circle87" />
      <circle
         cx="280.12"
         cy="75.099998"
         r="2.7"
         style="fill:#a9a9a9;stroke:#a9a9a9;stroke-width:0.75"
         id="circle88" />
      <circle
         cx="284.60999"
         cy="75.099998"
         r="2.7"
         style="fill:#a9a9a9;stroke:#a9a9a9;stroke-width:0.75"
         id="circle89" />
      <circle
         cx="290.60999"
         cy="75.099998"
         r="2.7"
         style="fill:#a9a9a9;stroke:#a9a9a9;stroke-width:0.75"
         id="circle90" />
      <circle
         cx="292.10999"
         cy="75.099998"
         r="2.7"
         style="fill:#a9a9a9;stroke:#a9a9a9;stroke-width:0.75"
         id="circle91" />
      <circle
         cx="296.60999"
         cy="75.099998"
         r="2.7"
         style="fill:#a9a9a9;stroke:#a9a9a9;stroke-width:0.75"
         id="circle92" />
      <circle
         cx="299.60999"
         cy="75.099998"
         r="2.7"
         style="fill:#a9a9a9;stroke:#a9a9a9;stroke-width:0.75"
         id="circle93" />
      <circle
         cx="307.10001"
         cy="75.099998"
         r="2.7"
         style="fill:#a9a9a9;stroke:#a9a9a9;stroke-width:0.75"
         id="circle94" />
      <circle
         cx="310.10001"
         cy="75.099998"
         r="2.7"
         style="fill:#a9a9a9;stroke:#a9a9a9;stroke-width:0.75"
         id="circle95" />
    </g>
    <g
       clip-path="url(#cpMC4wMHwzNTAuMDB8MC4wMHw1NjYuMDA=)"
       id="g116">
      <line
         x1="59.700001"
         y1="492.56"
         x2="284.60999"
         y2="492.56"
         style="stroke-width:0.75"
         id="line95" />
      <line
         x1="59.700001"
         y1="492.56"
         x2="59.700001"
         y2="499.76001"
         style="stroke-width:0.75"
         id="line96" />
      <line
         x1="134.67"
         y1="492.56"
         x2="134.67"
         y2="499.76001"
         style="stroke-width:0.75"
         id="line97" />
      <line
         x1="209.64"
         y1="492.56"
         x2="209.64"
         y2="499.76001"
         style="stroke-width:0.75"
         id="line98" />
      <line
         x1="284.60999"
         y1="492.56"
         x2="284.60999"
         y2="499.76001"
         style="stroke-width:0.75"
         id="line99" />
      <text
         x="59.700001"
         y="518.47998"
         text-anchor="middle"
         style="font-size:19.2px;font-family:Arial"
         textLength="10.67"
         lengthAdjust="spacingAndGlyphs"
         id="text99">0</text>
      <text
         x="134.67"
         y="518.47998"
         text-anchor="middle"
         style="font-size:19.2px;font-family:Arial"
         textLength="21.34"
         lengthAdjust="spacingAndGlyphs"
         id="text100">50</text>
      <text
         x="209.64"
         y="518.47998"
         text-anchor="middle"
         style="font-size:19.2px;font-family:Arial"
         textLength="32.02"
         lengthAdjust="spacingAndGlyphs"
         id="text101">100</text>
      <text
         x="284.60999"
         y="518.47998"
         text-anchor="middle"
         style="font-size:19.2px;font-family:Arial"
         textLength="32.02"
         lengthAdjust="spacingAndGlyphs"
         id="text102">150</text>
      <line
         x1="59.040001"
         y1="476.5"
         x2="59.040001"
         y2="75.099998"
         style="stroke-width:0.75"
         id="line102" />
      <line
         x1="59.040001"
         y1="476.5"
         x2="51.84"
         y2="476.5"
         style="stroke-width:0.75"
         id="line103" />
      <line
         x1="59.040001"
         y1="396.22"
         x2="51.84"
         y2="396.22"
         style="stroke-width:0.75"
         id="line104" />
      <line
         x1="59.040001"
         y1="315.94"
         x2="51.84"
         y2="315.94"
         style="stroke-width:0.75"
         id="line105" />
      <line
         x1="59.040001"
         y1="235.66"
         x2="51.84"
         y2="235.66"
         style="stroke-width:0.75"
         id="line106" />
      <line
         x1="59.040001"
         y1="155.38"
         x2="51.84"
         y2="155.38"
         style="stroke-width:0.75"
         id="line107" />
      <line
         x1="59.040001"
         y1="75.099998"
         x2="51.84"
         y2="75.099998"
         style="stroke-width:0.75"
         id="line108" />
      <text
         transform="rotate(-90,259.13,217.37)"
         text-anchor="middle"
         style="font-size:19.2px;font-family:Arial"
         textLength="26.67"
         lengthAdjust="spacingAndGlyphs"
         id="text108">0.0</text>
      <text
         transform="rotate(-90,218.99,177.23)"
         text-anchor="middle"
         style="font-size:19.2px;font-family:Arial"
         textLength="26.67"
         lengthAdjust="spacingAndGlyphs"
         id="text109">0.2</text>
      <text
         transform="rotate(-90,178.85,137.09)"
         text-anchor="middle"
         style="font-size:19.2px;font-family:Arial"
         textLength="26.67"
         lengthAdjust="spacingAndGlyphs"
         id="text110">0.4</text>
      <text
         transform="rotate(-90,138.71,96.95)"
         text-anchor="middle"
         style="font-size:19.2px;font-family:Arial"
         textLength="26.67"
         lengthAdjust="spacingAndGlyphs"
         id="text111">0.6</text>
      <text
         transform="rotate(-90,98.57,56.81)"
         text-anchor="middle"
         style="font-size:19.2px;font-family:Arial"
         textLength="26.67"
         lengthAdjust="spacingAndGlyphs"
         id="text112">0.8</text>
      <text
         transform="rotate(-90,58.43,16.67)"
         text-anchor="middle"
         style="font-size:19.2px;font-family:Arial"
         textLength="26.67"
         lengthAdjust="spacingAndGlyphs"
         id="text113">1.0</text>
      <polygon
         points="59.04,492.56 319.76,492.56 319.76,59.04 59.04,59.04 "
         style="stroke-width:0.75"
         id="polygon113" />
      <text
         x="189.39999"
         y="38.110001"
         text-anchor="middle"
         style="font-weight:bold;font-size:24px;font-family:Arial"
         textLength="180.94"
         lengthAdjust="spacingAndGlyphs"
         id="text114">L50 of Yellowfin</text>
      <text
         x="189.39999"
         y="547.28003"
         text-anchor="middle"
         style="font-size:21.6px;font-family:Arial"
         textLength="115.23"
         lengthAdjust="spacingAndGlyphs"
         id="text115">Length (cm)</text>
      <text
         transform="rotate(-90,144.38,131.42)"
         text-anchor="middle"
         style="font-size:21.6px;font-family:Arial"
         textLength="99.660004"
         lengthAdjust="spacingAndGlyphs"
         id="text116">Proportion</text>
    </g>
    <g
       clip-path="url(#cpNTkuMDR8MzE5Ljc2fDU5LjA0fDQ5Mi41Ng==)"
       id="g127">
      <polyline
         points="68.70,476.50 72.44,476.50 127.17,476.50 128.67,476.50 130.17,476.50 133.17,476.50 133.17,476.50 134.67,476.50 134.67,476.50 134.67,476.50 134.67,476.50 134.67,476.50 134.67,476.50 134.67,476.50 136.17,476.50 136.17,476.50 136.17,476.50 137.67,476.50 137.67,476.50 137.67,476.50 137.67,476.50 137.67,476.50 137.67,476.50 139.17,476.50 139.17,476.50 139.17,476.50 139.17,476.50 139.17,476.50 139.17,476.50 140.67,476.50 140.67,476.50 142.17,476.50 142.17,476.50 142.17,476.50 142.17,476.50 142.17,476.50 143.67,476.50 143.67,476.50 143.67,476.50 143.67,476.50 145.17,476.50 145.17,476.50 145.17,476.50 145.17,476.50 145.17,476.50 145.17,476.50 145.17,476.50 145.17,476.50 145.17,476.50 146.67,476.50 146.67,476.50 146.67,476.50 146.67,476.50 146.67,476.50 146.67,476.50 146.67,476.50 146.67,476.50 146.67,476.50 146.67,476.50 146.67,476.50 148.17,476.50 148.17,476.50 148.17,476.50 148.17,476.50 148.17,476.50 148.17,476.50 148.17,476.50 148.17,476.50 148.17,476.50 148.17,476.50 148.17,476.50 148.17,476.50 148.17,476.50 148.17,476.50 148.17,476.50 149.67,476.50 149.67,476.50 149.67,476.50 149.67,476.50 149.67,476.50 149.67,476.50 149.67,476.50 149.67,476.50 149.67,476.50 149.67,476.50 149.67,476.50 151.16,476.50 151.16,476.50 151.16,476.50 151.16,476.50 151.16,476.50 151.16,476.50 151.16,476.50 151.16,476.50 151.16,476.50 151.16,476.50 151.16,476.50 151.16,476.50 151.16,476.50 151.16,476.50 151.16,476.50 151.16,476.50 152.66,476.50 152.66,476.50 152.66,476.50 152.66,476.50 152.66,476.50 152.66,476.50 152.66,476.50 152.66,476.50 154.16,476.50 154.16,476.50 154.16,476.50 154.16,476.50 154.16,476.50 154.16,476.50 154.16,476.50 154.16,476.50 154.16,476.50 154.16,476.50 154.16,476.50 154.16,476.50 154.16,476.50 154.16,476.50 155.66,476.50 155.66,476.50 155.66,476.50 155.66,476.50 155.66,476.50 155.66,476.50 155.66,476.50 155.66,476.50 155.66,476.50 155.66,476.50 155.66,476.50 155.66,476.50 157.16,476.50 157.16,476.50 157.16,476.50 157.16,476.50 157.16,476.50 157.16,476.50 157.16,476.50 157.16,476.50 157.16,476.50 157.16,476.50 157.16,476.50 157.16,476.50 157.16,476.50 157.16,476.50 157.16,476.50 157.16,476.50 157.16,476.50 158.66,476.50 158.66,476.50 158.66,476.50 158.66,476.50 158.66,476.50 158.66,476.50 158.66,476.50 158.66,476.50 158.66,476.50 160.16,476.50 160.16,476.50 160.16,476.50 160.16,476.50 160.16,476.50 160.16,476.50 160.16,476.50 160.16,476.50 160.16,476.50 160.16,476.50 161.66,476.50 161.66,476.50 161.66,476.50 161.66,476.50 161.66,476.50 161.66,476.50 161.66,476.50 161.66,476.50 161.66,476.50 163.16,476.50 163.16,476.50 163.16,476.50 163.16,476.50 163.16,476.50 163.16,476.50 163.16,476.50 163.16,476.50 163.16,476.50 163.16,476.50 164.66,476.50 164.66,476.50 164.66,476.50 164.66,476.50 164.66,476.50 164.66,476.50 164.66,476.50 164.66,476.50 164.66,476.50 164.66,476.50 164.66,476.50 164.66,476.50 164.66,476.50 164.66,476.50 164.66,476.50 164.66,476.50 166.16,476.10 166.16,476.10 166.16,476.10 166.16,476.10 166.16,476.10 166.16,476.10 166.16,476.10 166.16,476.10 167.66,476.10 167.66,476.10 167.66,476.10 167.66,476.10 167.66,476.10 167.66,476.10 167.66,476.10 167.66,476.10 167.66,476.10 167.66,476.10 169.16,476.10 169.16,476.10 169.16,476.10 169.16,476.10 169.16,476.10 169.16,476.10 169.16,476.10 169.16,476.10 169.16,476.10 169.16,476.10 170.66,475.70 170.66,475.70 170.66,475.70 170.66,475.70 170.66,475.70 170.66,475.70 170.66,475.70 170.66,475.70 170.66,475.70 170.66,475.70 170.66,475.70 170.66,475.70 170.66,475.70 170.66,475.70 172.16,475.70 172.16,475.70 172.16,475.70 172.16,475.70 172.16,475.70 172.16,475.70 172.16,475.70 172.16,475.70 172.16,475.70 172.16,475.70 172.16,475.70 172.16,475.70 173.66,475.30 173.66,475.30 173.66,475.30 173.66,475.30 173.66,475.30 175.16,474.90 175.16,474.90 175.16,474.90 175.16,474.90 175.16,474.90 175.16,474.90 175.16,474.90 175.16,474.90 175.16,474.90 175.16,474.90 175.16,474.90 175.16,474.90 175.16,474.90 176.65,474.50 176.65,474.50 176.65,474.50 176.65,474.50 176.65,474.50 176.65,474.50 176.65,474.50 178.15,473.69 178.15,473.69 178.15,473.69 178.15,473.69 178.15,473.69 178.15,473.69 178.15,473.69 178.15,473.69 178.15,473.69 178.15,473.69 178.15,473.69 179.65,472.49 179.65,472.49 179.65,472.49 179.65,472.49 179.65,472.49 179.65,472.49 179.65,472.49 179.65,472.49 179.65,472.49 179.65,472.49 179.65,472.49 181.15,470.88 181.15,470.88 181.15,470.88 181.15,470.88 181.15,470.88 181.15,470.88 181.15,470.88 181.15,470.88 181.15,470.88 181.15,470.88 181.15,470.88 182.65,468.88 182.65,468.88 182.65,468.88 182.65,468.88 182.65,468.88 182.65,468.88 182.65,468.88 182.65,468.88 184.15,466.07 184.15,466.07 184.15,466.07 184.15,466.07 184.15,466.07 184.15,466.07 184.15,466.07 184.15,466.07 185.65,462.45 185.65,462.45 185.65,462.45 185.65,462.45 185.65,462.45 185.65,462.45 185.65,462.45 185.65,462.45 187.15,457.24 187.15,457.24 187.15,457.24 187.15,457.24 187.15,457.24 187.15,457.24 187.15,457.24 188.65,450.41 188.65,450.41 188.65,450.41 188.65,450.41 188.65,450.41 188.65,450.41 188.65,450.41 190.15,441.98 190.15,441.98 190.15,441.98 190.15,441.98 190.15,441.98 190.15,441.98 190.15,441.98 190.15,441.98 191.65,430.34 191.65,430.34 191.65,430.34 191.65,430.34 193.15,415.49 194.65,396.22 194.65,396.22 194.65,396.22 194.65,396.22 196.15,372.94 196.15,372.94 197.65,346.45 197.65,346.45 199.15,316.34 199.15,316.34 199.15,316.34 199.15,316.34 199.15,316.34 200.65,284.23 200.65,284.23 200.65,284.23 200.65,284.23 200.65,284.23 202.15,251.31 202.15,251.31 203.64,220.81 203.64,220.81 205.14,192.71 205.14,192.71 205.14,192.71 205.14,192.71 205.14,192.71 205.14,192.71 206.64,168.62 206.64,168.62 206.64,168.62 208.14,147.75 208.14,147.75 209.64,130.89 209.64,130.89 211.14,117.65 211.14,117.65 212.64,107.21 212.64,107.21 214.14,98.78 214.14,98.78 214.14,98.78 214.14,98.78 214.14,98.78 214.14,98.78 215.64,92.76 215.64,92.76 215.64,92.76 215.64,92.76 215.64,92.76 218.64,84.73 220.14,81.92 220.14,81.92 220.14,81.92 221.64,80.31 223.14,78.71 223.14,78.71 224.64,77.91 224.64,77.91 224.64,77.91 226.14,77.10 227.64,76.70 229.13,76.30 230.63,75.90 232.13,75.50 235.13,75.50 235.13,75.50 236.63,75.50 236.63,75.50 236.63,75.50 238.13,75.10 238.13,75.10 239.63,75.10 239.63,75.10 242.63,75.10 247.13,75.10 247.13,75.10 251.63,75.10 251.63,75.10 254.62,75.10 262.12,75.10 265.12,75.10 265.12,75.10 268.12,75.10 268.12,75.10 269.62,75.10 269.62,75.10 269.62,75.10 269.62,75.10 269.62,75.10 272.62,75.10 275.62,75.10 280.12,75.10 284.61,75.10 284.61,75.10 284.61,75.10 284.61,75.10 290.61,75.10 290.61,75.10 290.61,75.10 290.61,75.10 292.11,75.10 292.11,75.10 296.61,75.10 299.61,75.10 299.61,75.10 307.10,75.10 310.10,75.10 "
         style="stroke:#0000ff;stroke-width:1.5"
         id="polyline116" />
      <polyline
         points="68.70,476.50 72.44,476.50 127.17,476.50 128.67,476.50 130.17,476.50 133.17,476.50 133.17,476.50 134.67,476.50 134.67,476.50 134.67,476.50 134.67,476.50 134.67,476.50 134.67,476.50 134.67,476.50 136.17,476.50 136.17,476.50 136.17,476.50 137.67,476.50 137.67,476.50 137.67,476.50 137.67,476.50 137.67,476.50 137.67,476.50 139.17,476.50 139.17,476.50 139.17,476.50 139.17,476.50 139.17,476.50 139.17,476.50 140.67,476.50 140.67,476.50 142.17,476.50 142.17,476.50 142.17,476.50 142.17,476.50 142.17,476.50 143.67,476.50 143.67,476.50 143.67,476.50 143.67,476.50 145.17,476.50 145.17,476.50 145.17,476.50 145.17,476.50 145.17,476.50 145.17,476.50 145.17,476.50 145.17,476.50 145.17,476.50 146.67,476.50 146.67,476.50 146.67,476.50 146.67,476.50 146.67,476.50 146.67,476.50 146.67,476.50 146.67,476.50 146.67,476.50 146.67,476.50 146.67,476.50 148.17,476.50 148.17,476.50 148.17,476.50 148.17,476.50 148.17,476.50 148.17,476.50 148.17,476.50 148.17,476.50 148.17,476.50 148.17,476.50 148.17,476.50 148.17,476.50 148.17,476.50 148.17,476.50 148.17,476.50 149.67,476.50 149.67,476.50 149.67,476.50 149.67,476.50 149.67,476.50 149.67,476.50 149.67,476.50 149.67,476.50 149.67,476.50 149.67,476.50 149.67,476.50 151.16,476.50 151.16,476.50 151.16,476.50 151.16,476.50 151.16,476.50 151.16,476.50 151.16,476.50 151.16,476.50 151.16,476.50 151.16,476.50 151.16,476.50 151.16,476.50 151.16,476.50 151.16,476.50 151.16,476.50 151.16,476.50 152.66,476.50 152.66,476.50 152.66,476.50 152.66,476.50 152.66,476.50 152.66,476.50 152.66,476.50 152.66,476.50 154.16,476.50 154.16,476.50 154.16,476.50 154.16,476.50 154.16,476.50 154.16,476.50 154.16,476.50 154.16,476.50 154.16,476.50 154.16,476.50 154.16,476.50 154.16,476.50 154.16,476.50 154.16,476.50 155.66,476.50 155.66,476.50 155.66,476.50 155.66,476.50 155.66,476.50 155.66,476.50 155.66,476.50 155.66,476.50 155.66,476.50 155.66,476.50 155.66,476.50 155.66,476.50 157.16,476.50 157.16,476.50 157.16,476.50 157.16,476.50 157.16,476.50 157.16,476.50 157.16,476.50 157.16,476.50 157.16,476.50 157.16,476.50 157.16,476.50 157.16,476.50 157.16,476.50 157.16,476.50 157.16,476.50 157.16,476.50 157.16,476.50 158.66,476.50 158.66,476.50 158.66,476.50 158.66,476.50 158.66,476.50 158.66,476.50 158.66,476.50 158.66,476.50 158.66,476.50 160.16,476.50 160.16,476.50 160.16,476.50 160.16,476.50 160.16,476.50 160.16,476.50 160.16,476.50 160.16,476.50 160.16,476.50 160.16,476.50 161.66,476.50 161.66,476.50 161.66,476.50 161.66,476.50 161.66,476.50 161.66,476.50 161.66,476.50 161.66,476.50 161.66,476.50 163.16,476.50 163.16,476.50 163.16,476.50 163.16,476.50 163.16,476.50 163.16,476.50 163.16,476.50 163.16,476.50 163.16,476.50 163.16,476.50 164.66,476.50 164.66,476.50 164.66,476.50 164.66,476.50 164.66,476.50 164.66,476.50 164.66,476.50 164.66,476.50 164.66,476.50 164.66,476.50 164.66,476.50 164.66,476.50 164.66,476.50 164.66,476.50 164.66,476.50 164.66,476.50 166.16,476.50 166.16,476.50 166.16,476.50 166.16,476.50 166.16,476.50 166.16,476.50 166.16,476.50 166.16,476.50 167.66,476.50 167.66,476.50 167.66,476.50 167.66,476.50 167.66,476.50 167.66,476.50 167.66,476.50 167.66,476.50 167.66,476.50 167.66,476.50 169.16,476.50 169.16,476.50 169.16,476.50 169.16,476.50 169.16,476.50 169.16,476.50 169.16,476.50 169.16,476.50 169.16,476.50 169.16,476.50 170.66,476.50 170.66,476.50 170.66,476.50 170.66,476.50 170.66,476.50 170.66,476.50 170.66,476.50 170.66,476.50 170.66,476.50 170.66,476.50 170.66,476.50 170.66,476.50 170.66,476.50 170.66,476.50 172.16,476.50 172.16,476.50 172.16,476.50 172.16,476.50 172.16,476.50 172.16,476.50 172.16,476.50 172.16,476.50 172.16,476.50 172.16,476.50 172.16,476.50 172.16,476.50 173.66,476.50 173.66,476.50 173.66,476.50 173.66,476.50 173.66,476.50 175.16,476.50 175.16,476.50 175.16,476.50 175.16,476.50 175.16,476.50 175.16,476.50 175.16,476.50 175.16,476.50 175.16,476.50 175.16,476.50 175.16,476.50 175.16,476.50 175.16,476.50 176.65,476.50 176.65,476.50 176.65,476.50 176.65,476.50 176.65,476.50 176.65,476.50 176.65,476.50 178.15,476.50 178.15,476.50 178.15,476.50 178.15,476.50 178.15,476.50 178.15,476.50 178.15,476.50 178.15,476.50 178.15,476.50 178.15,476.50 178.15,476.50 179.65,476.10 179.65,476.10 179.65,476.10 179.65,476.10 179.65,476.10 179.65,476.10 179.65,476.10 179.65,476.10 179.65,476.10 179.65,476.10 179.65,476.10 181.15,476.10 181.15,476.10 181.15,476.10 181.15,476.10 181.15,476.10 181.15,476.10 181.15,476.10 181.15,476.10 181.15,476.10 181.15,476.10 181.15,476.10 182.65,475.70 182.65,475.70 182.65,475.70 182.65,475.70 182.65,475.70 182.65,475.70 182.65,475.70 182.65,475.70 184.15,475.30 184.15,475.30 184.15,475.30 184.15,475.30 184.15,475.30 184.15,475.30 184.15,475.30 184.15,475.30 185.65,474.50 185.65,474.50 185.65,474.50 185.65,474.50 185.65,474.50 185.65,474.50 185.65,474.50 185.65,474.50 187.15,472.89 187.15,472.89 187.15,472.89 187.15,472.89 187.15,472.89 187.15,472.89 187.15,472.89 188.65,470.08 188.65,470.08 188.65,470.08 188.65,470.08 188.65,470.08 188.65,470.08 188.65,470.08 190.15,465.67 190.15,465.67 190.15,465.67 190.15,465.67 190.15,465.67 190.15,465.67 190.15,465.67 190.15,465.67 191.65,458.84 191.65,458.84 191.65,458.84 191.65,458.84 193.15,447.60 194.65,432.75 194.65,432.75 194.65,432.75 194.65,432.75 196.15,416.29 196.15,416.29 197.65,395.02 197.65,395.02 199.15,370.53 199.15,370.53 199.15,370.53 199.15,370.53 199.15,370.53 200.65,345.64 200.65,345.64 200.65,345.64 200.65,345.64 200.65,345.64 202.15,318.75 202.15,318.75 203.64,289.45 203.64,289.45 205.14,261.75 205.14,261.75 205.14,261.75 205.14,261.75 205.14,261.75 205.14,261.75 206.64,235.66 206.64,235.66 206.64,235.66 208.14,211.98 208.14,211.98 209.64,190.30 209.64,190.30 211.14,170.63 211.14,170.63 212.64,154.57 212.64,154.57 214.14,140.12 214.14,140.12 214.14,140.12 214.14,140.12 214.14,140.12 214.14,140.12 215.64,127.68 215.64,127.68 215.64,127.68 215.64,127.68 215.64,127.68 218.64,109.22 220.14,102.39 220.14,102.39 220.14,102.39 221.64,96.77 223.14,92.36 223.14,92.36 224.64,88.74 224.64,88.74 224.64,88.74 226.14,85.93 227.64,83.93 229.13,81.92 230.63,80.31 232.13,79.51 235.13,77.91 235.13,77.91 236.63,77.10 236.63,77.10 236.63,77.10 238.13,76.70 238.13,76.70 239.63,76.30 239.63,76.30 242.63,75.90 247.13,75.50 247.13,75.50 251.63,75.50 251.63,75.50 254.62,75.10 262.12,75.10 265.12,75.10 265.12,75.10 268.12,75.10 268.12,75.10 269.62,75.10 269.62,75.10 269.62,75.10 269.62,75.10 269.62,75.10 272.62,75.10 275.62,75.10 280.12,75.10 284.61,75.10 284.61,75.10 284.61,75.10 284.61,75.10 290.61,75.10 290.61,75.10 290.61,75.10 290.61,75.10 292.11,75.10 292.11,75.10 296.61,75.10 299.61,75.10 299.61,75.10 307.10,75.10 310.10,75.10 "
         style="stroke:#0000ff;stroke-width:1.5;stroke-dasharray:8, 8"
         id="polyline117" />
      <polyline
         points="68.70,476.50 72.44,476.50 127.17,476.50 128.67,476.50 130.17,476.50 133.17,476.50 133.17,476.50 134.67,476.50 134.67,476.50 134.67,476.50 134.67,476.50 134.67,476.50 134.67,476.50 134.67,476.50 136.17,476.50 136.17,476.50 136.17,476.50 137.67,476.50 137.67,476.50 137.67,476.50 137.67,476.50 137.67,476.50 137.67,476.50 139.17,476.50 139.17,476.50 139.17,476.50 139.17,476.50 139.17,476.50 139.17,476.50 140.67,476.50 140.67,476.50 142.17,476.50 142.17,476.50 142.17,476.50 142.17,476.50 142.17,476.50 143.67,476.50 143.67,476.50 143.67,476.50 143.67,476.50 145.17,476.50 145.17,476.50 145.17,476.50 145.17,476.50 145.17,476.50 145.17,476.50 145.17,476.50 145.17,476.50 145.17,476.50 146.67,476.50 146.67,476.50 146.67,476.50 146.67,476.50 146.67,476.50 146.67,476.50 146.67,476.50 146.67,476.50 146.67,476.50 146.67,476.50 146.67,476.50 148.17,476.50 148.17,476.50 148.17,476.50 148.17,476.50 148.17,476.50 148.17,476.50 148.17,476.50 148.17,476.50 148.17,476.50 148.17,476.50 148.17,476.50 148.17,476.50 148.17,476.50 148.17,476.50 148.17,476.50 149.67,476.50 149.67,476.50 149.67,476.50 149.67,476.50 149.67,476.50 149.67,476.50 149.67,476.50 149.67,476.50 149.67,476.50 149.67,476.50 149.67,476.50 151.16,476.50 151.16,476.50 151.16,476.50 151.16,476.50 151.16,476.50 151.16,476.50 151.16,476.50 151.16,476.50 151.16,476.50 151.16,476.50 151.16,476.50 151.16,476.50 151.16,476.50 151.16,476.50 151.16,476.50 151.16,476.50 152.66,476.50 152.66,476.50 152.66,476.50 152.66,476.50 152.66,476.50 152.66,476.50 152.66,476.50 152.66,476.50 154.16,476.10 154.16,476.10 154.16,476.10 154.16,476.10 154.16,476.10 154.16,476.10 154.16,476.10 154.16,476.10 154.16,476.10 154.16,476.10 154.16,476.10 154.16,476.10 154.16,476.10 154.16,476.10 155.66,476.10 155.66,476.10 155.66,476.10 155.66,476.10 155.66,476.10 155.66,476.10 155.66,476.10 155.66,476.10 155.66,476.10 155.66,476.10 155.66,476.10 155.66,476.10 157.16,476.10 157.16,476.10 157.16,476.10 157.16,476.10 157.16,476.10 157.16,476.10 157.16,476.10 157.16,476.10 157.16,476.10 157.16,476.10 157.16,476.10 157.16,476.10 157.16,476.10 157.16,476.10 157.16,476.10 157.16,476.10 157.16,476.10 158.66,476.10 158.66,476.10 158.66,476.10 158.66,476.10 158.66,476.10 158.66,476.10 158.66,476.10 158.66,476.10 158.66,476.10 160.16,476.10 160.16,476.10 160.16,476.10 160.16,476.10 160.16,476.10 160.16,476.10 160.16,476.10 160.16,476.10 160.16,476.10 160.16,476.10 161.66,475.70 161.66,475.70 161.66,475.70 161.66,475.70 161.66,475.70 161.66,475.70 161.66,475.70 161.66,475.70 161.66,475.70 163.16,475.70 163.16,475.70 163.16,475.70 163.16,475.70 163.16,475.70 163.16,475.70 163.16,475.70 163.16,475.70 163.16,475.70 163.16,475.70 164.66,475.30 164.66,475.30 164.66,475.30 164.66,475.30 164.66,475.30 164.66,475.30 164.66,475.30 164.66,475.30 164.66,475.30 164.66,475.30 164.66,475.30 164.66,475.30 164.66,475.30 164.66,475.30 164.66,475.30 164.66,475.30 166.16,474.90 166.16,474.90 166.16,474.90 166.16,474.90 166.16,474.90 166.16,474.90 166.16,474.90 166.16,474.90 167.66,474.90 167.66,474.90 167.66,474.90 167.66,474.90 167.66,474.90 167.66,474.90 167.66,474.90 167.66,474.90 167.66,474.90 167.66,474.90 169.16,474.10 169.16,474.10 169.16,474.10 169.16,474.10 169.16,474.10 169.16,474.10 169.16,474.10 169.16,474.10 169.16,474.10 169.16,474.10 170.66,473.69 170.66,473.69 170.66,473.69 170.66,473.69 170.66,473.69 170.66,473.69 170.66,473.69 170.66,473.69 170.66,473.69 170.66,473.69 170.66,473.69 170.66,473.69 170.66,473.69 170.66,473.69 172.16,472.89 172.16,472.89 172.16,472.89 172.16,472.89 172.16,472.89 172.16,472.89 172.16,472.89 172.16,472.89 172.16,472.89 172.16,472.89 172.16,472.89 172.16,472.89 173.66,471.69 173.66,471.69 173.66,471.69 173.66,471.69 173.66,471.69 175.16,470.48 175.16,470.48 175.16,470.48 175.16,470.48 175.16,470.48 175.16,470.48 175.16,470.48 175.16,470.48 175.16,470.48 175.16,470.48 175.16,470.48 175.16,470.48 175.16,470.48 176.65,468.88 176.65,468.88 176.65,468.88 176.65,468.88 176.65,468.88 176.65,468.88 176.65,468.88 178.15,466.87 178.15,466.87 178.15,466.87 178.15,466.87 178.15,466.87 178.15,466.87 178.15,466.87 178.15,466.87 178.15,466.87 178.15,466.87 178.15,466.87 179.65,464.06 179.65,464.06 179.65,464.06 179.65,464.06 179.65,464.06 179.65,464.06 179.65,464.06 179.65,464.06 179.65,464.06 179.65,464.06 179.65,464.06 181.15,461.25 181.15,461.25 181.15,461.25 181.15,461.25 181.15,461.25 181.15,461.25 181.15,461.25 181.15,461.25 181.15,461.25 181.15,461.25 181.15,461.25 182.65,457.24 182.65,457.24 182.65,457.24 182.65,457.24 182.65,457.24 182.65,457.24 182.65,457.24 182.65,457.24 184.15,451.62 184.15,451.62 184.15,451.62 184.15,451.62 184.15,451.62 184.15,451.62 184.15,451.62 184.15,451.62 185.65,444.79 185.65,444.79 185.65,444.79 185.65,444.79 185.65,444.79 185.65,444.79 185.65,444.79 185.65,444.79 187.15,436.36 187.15,436.36 187.15,436.36 187.15,436.36 187.15,436.36 187.15,436.36 187.15,436.36 188.65,427.13 188.65,427.13 188.65,427.13 188.65,427.13 188.65,427.13 188.65,427.13 188.65,427.13 190.15,414.69 190.15,414.69 190.15,414.69 190.15,414.69 190.15,414.69 190.15,414.69 190.15,414.69 190.15,414.69 191.65,397.83 191.65,397.83 191.65,397.83 191.65,397.83 193.15,379.76 194.65,354.88 194.65,354.88 194.65,354.88 194.65,354.88 196.15,327.98 196.15,327.98 197.65,292.66 197.65,292.66 199.15,250.91 199.15,250.91 199.15,250.91 199.15,250.91 199.15,250.91 200.65,206.76 200.65,206.76 200.65,206.76 200.65,206.76 200.65,206.76 202.15,166.62 202.15,166.62 203.64,137.72 203.64,137.72 205.14,116.84 205.14,116.84 205.14,116.84 205.14,116.84 205.14,116.84 205.14,116.84 206.64,100.79 206.64,100.79 206.64,100.79 208.14,89.55 208.14,89.55 209.64,83.12 209.64,83.12 211.14,79.51 211.14,79.51 212.64,77.50 212.64,77.50 214.14,76.70 214.14,76.70 214.14,76.70 214.14,76.70 214.14,76.70 214.14,76.70 215.64,75.90 215.64,75.90 215.64,75.90 215.64,75.90 215.64,75.90 218.64,75.50 220.14,75.10 220.14,75.10 220.14,75.10 221.64,75.10 223.14,75.10 223.14,75.10 224.64,75.10 224.64,75.10 224.64,75.10 226.14,75.10 227.64,75.10 229.13,75.10 230.63,75.10 232.13,75.10 235.13,75.10 235.13,75.10 236.63,75.10 236.63,75.10 236.63,75.10 238.13,75.10 238.13,75.10 239.63,75.10 239.63,75.10 242.63,75.10 247.13,75.10 247.13,75.10 251.63,75.10 251.63,75.10 254.62,75.10 262.12,75.10 265.12,75.10 265.12,75.10 268.12,75.10 268.12,75.10 269.62,75.10 269.62,75.10 269.62,75.10 269.62,75.10 269.62,75.10 272.62,75.10 275.62,75.10 280.12,75.10 284.61,75.10 284.61,75.10 284.61,75.10 284.61,75.10 290.61,75.10 290.61,75.10 290.61,75.10 290.61,75.10 292.11,75.10 292.11,75.10 296.61,75.10 299.61,75.10 299.61,75.10 307.10,75.10 310.10,75.10 "
         style="stroke:#0000ff;stroke-width:1.5;stroke-dasharray:8, 8"
         id="polyline118" />
      <polyline
         points="201.03,877.91 201.03,275.80 "
         style="stroke:#ff0000;stroke-width:1.5;stroke-dasharray:8, 8"
         id="polyline119" />
      <polyline
         points="58.20,275.80 201.03,275.80 "
         style="stroke:#ff0000;stroke-width:1.5;stroke-dasharray:8, 8"
         id="polyline120" />
      <circle
         cx="201.03"
         cy="275.79999"
         r="3.3800001"
         style="fill:#ff0000;stroke:#ff0000;stroke-width:0.75"
         id="circle120" />
      <text
         x="73.449997"
         y="80.18"
         style="font-weight:bold;font-size:12px;font-family:Arial"
         textLength="7.3299999"
         lengthAdjust="spacingAndGlyphs"
         id="text120">L</text>
      <text
         x="80.779999"
         y="82.360001"
         style="font-size:8.4px;font-family:Arial"
         textLength="9.3400002"
         lengthAdjust="spacingAndGlyphs"
         id="text121">50</text>
      <text
         x="92.900002"
         y="80.18"
         style="font-size:12px;font-family:Arial"
         textLength="7.02"
         lengthAdjust="spacingAndGlyphs"
         id="text122">=</text>
      <text
         x="102.7"
         y="80.18"
         style="font-size:12px;font-family:Arial"
         textLength="23.34"
         lengthAdjust="spacingAndGlyphs"
         id="text123">94.3</text>
      <text
         x="73.449997"
         y="100.87"
         style="font-weight:bold;font-size:12px;font-family:Arial"
         textLength="8.6700001"
         lengthAdjust="spacingAndGlyphs"
         id="text124">R</text>
      <text
         x="82.120003"
         y="94.949997"
         style="font-size:8.4px;font-family:Arial"
         textLength="4.6700001"
         lengthAdjust="spacingAndGlyphs"
         id="text125">2</text>
      <text
         x="89.57"
         y="100.87"
         style="font-size:12px;font-family:Arial"
         textLength="7.02"
         lengthAdjust="spacingAndGlyphs"
         id="text126">=</text>
      <text
         x="99.360001"
         y="100.87"
         style="font-size:12px;font-family:Arial"
         textLength="23.34"
         lengthAdjust="spacingAndGlyphs"
         id="text127">0.89</text>
    </g>
  </g>
</svg>
