<?xml version="1.0" encoding="UTF-8" standalone="no"?>
<svg
   width="341.25742pt"
   height="281.86722pt"
   viewBox="0 0 341.25742 281.86722"
   version="1.1"
   id="svg21"
   sodipodi:docname="essential_training_modules.svg"
   inkscape:version="1.4 (86a8ad7, 2024-10-11)"
   xmlns:inkscape="http://www.inkscape.org/namespaces/inkscape"
   xmlns:sodipodi="http://sodipodi.sourceforge.net/DTD/sodipodi-0.dtd"
   xmlns="http://www.w3.org/2000/svg"
   xmlns:svg="http://www.w3.org/2000/svg">
  <defs
     id="defs21" />
  <sodipodi:namedview
     id="namedview21"
     pagecolor="#ffffff"
     bordercolor="#000000"
     borderopacity="0.25"
     inkscape:showpageshadow="2"
     inkscape:pageopacity="0.0"
     inkscape:pagecheckerboard="0"
     inkscape:deskcolor="#d1d1d1"
     inkscape:document-units="pt"
     inkscape:zoom="1.6591561"
     inkscape:cx="144.35049"
     inkscape:cy="187.14333"
     inkscape:window-width="2560"
     inkscape:window-height="1494"
     inkscape:window-x="-11"
     inkscape:window-y="-11"
     inkscape:window-maximized="1"
     inkscape:current-layer="g19" />
  <g
     class="svglite"
     id="g21"
     transform="translate(-150.52833,-90.407407)">
    <defs
       id="defs1">
      <style
         type="text/css"
         id="style1"><![CDATA[
    .svglite line, .svglite polyline, .svglite polygon, .svglite path, .svglite rect, .svglite circle {
      fill: none;
      stroke: #000000;
      stroke-linecap: round;
      stroke-linejoin: round;
      stroke-miterlimit: 10.00;
    }
    .svglite text {
      white-space: pre;
    }
    .svglite g.glyphgroup path {
      fill: inherit;
      stroke: none;
    }
  ]]></style>
    </defs>
    <defs
       id="defs2">
      <clipPath
         id="cpMC4wMHw2MTcuMDB8MC4wMHwzODkuMDA=">
        <rect
           x="0"
           y="0"
           width="617"
           height="389"
           id="rect2" />
      </clipPath>
    </defs>
    <g
       clip-path="url(#cpMC4wMHw2MTcuMDB8MC4wMHwzODkuMDA=)"
       id="g2" />
    <defs
       id="defs3">
      <clipPath
         id="cpMTI1LjE4fDQ5MS44MnwwLjAwfDM4OS4wMA==">
        <rect
           x="125.18"
           y="5.6999998e-14"
           width="366.63"
           height="389"
           id="rect3" />
      </clipPath>
    </defs>
    <g
       clip-path="url(#cpMC4wMHw2MTcuMDB8MC4wMHwzODkuMDA=)"
       id="g5" />
    <defs
       id="defs5">
      <clipPath
         id="cpMTM2LjE0fDQ4MC44NnwzMy4zM3wzNzguMDQ=">
        <rect
           x="136.14"
           y="33.330002"
           width="344.70999"
           height="344.70999"
           id="rect5" />
      </clipPath>
    </defs>
    <g
       clip-path="url(#cpMTM2LjE0fDQ4MC44NnwzMy4zM3wzNzguMDQ=)"
       id="g6" />
    <g
       clip-path="url(#cpMC4wMHw2MTcuMDB8MC4wMHwzODkuMDA=)"
       id="g7" />
    <defs
       id="defs7">
      <clipPath
         id="cpMTMwLjY2fDQ4Ni4zNHwyNy44NXwzODMuNTI=">
        <rect
           x="130.66"
           y="27.85"
           width="355.67001"
           height="355.67001"
           id="rect7" />
      </clipPath>
    </defs>
    <g
       clip-path="url(#cpMTMwLjY2fDQ4Ni4zNHwyNy44NXwzODMuNTI=)"
       id="g8">
      <rect
         x="130.66"
         y="27.85"
         width="355.67001"
         height="355.67001"
         style="stroke:#ffffff;stroke-width:0"
         id="rect8" />
    </g>
    <g
       clip-path="url(#cpMC4wMHw2MTcuMDB8MC4wMHwzODkuMDA=)"
       id="g9" />
    <g
       clip-path="url(#cpMTM2LjE0fDQ4MC44NnwzMy4zM3wzNzguMDQ=)"
       id="g19">
      <rect
         x="136.14"
         y="33.330002"
         width="344.70999"
         height="344.70999"
         style="stroke:none;stroke-width:0"
         id="rect9" />
      <polygon
         points="386.07,275.65 384.83,277 383.56,278.33 382.27,279.64 380.96,280.93 379.62,282.19 378.27,283.43 376.89,284.64 375.49,285.84 374.07,287 372.63,288.14 371.17,289.26 369.69,290.35 368.19,291.41 366.67,292.45 365.14,293.46 363.58,294.44 362.01,295.39 360.43,296.32 358.82,297.22 357.21,298.09 355.57,298.94 353.92,299.75 352.26,300.53 350.59,301.29 348.9,302.01 347.2,302.71 345.49,303.38 343.76,304.01 342.03,304.62 340.28,305.19 338.52,305.73 336.76,306.25 334.99,306.73 333.2,307.18 331.42,307.6 329.62,307.99 327.82,308.34 326.01,308.67 324.19,308.96 322.37,309.22 320.55,309.45 318.72,309.64 316.89,309.81 315.06,309.94 313.22,310.04 311.39,310.1 309.55,310.14 307.71,310.14 305.87,310.11 304.04,310.05 302.2,309.95 300.37,309.83 298.54,309.67 296.71,309.48 294.89,309.25 293.07,309 291.25,308.71 289.44,308.39 287.64,308.04 285.84,307.66 284.05,307.24 282.27,306.8 280.49,306.32 278.73,305.81 276.97,305.27 275.22,304.7 273.49,304.1 271.76,303.47 270.05,302.81 268.34,302.12 266.65,301.39 264.98,300.64 263.31,299.86 261.66,299.05 260.03,298.22 258.41,297.35 256.8,296.45 255.21,295.53 253.64,294.58 252.09,293.6 250.55,292.59 249.03,291.56 247.53,290.5 246.04,289.41 244.58,288.3 243.14,287.17 241.71,286 240.31,284.82 238.93,283.6 237.57,282.37 236.23,281.11 234.92,279.83 233.62,278.52 232.35,277.19 231.11,275.84 229.88,274.47 228.69,273.07 227.51,271.66 226.37,270.22 225.24,268.77 224.15,267.3 223.07,265.8 222.03,264.29 221.01,262.76 220.02,261.21 219.06,259.65 218.12,258.06 217.22,256.47 216.34,254.85 215.49,253.22 214.66,251.58 213.87,249.92 213.11,248.25 212.37,246.57 211.67,244.87 210.99,243.16 210.35,241.44 209.74,239.71 209.15,237.96 238.96,228.28 239.37,229.5 239.8,230.71 240.25,231.92 240.72,233.11 241.21,234.3 241.73,235.48 242.26,236.65 242.81,237.81 243.39,238.96 243.99,240.1 244.6,241.23 245.24,242.35 245.89,243.46 246.57,244.55 247.26,245.64 247.97,246.71 248.7,247.77 249.45,248.81 250.22,249.84 251.01,250.86 251.81,251.87 252.63,252.86 253.47,253.83 254.32,254.79 255.2,255.74 256.09,256.67 256.99,257.58 257.91,258.48 258.85,259.36 259.8,260.23 260.77,261.08 261.75,261.91 262.75,262.72 263.76,263.52 264.78,264.3 265.82,265.06 266.87,265.8 267.93,266.52 269.01,267.22 270.1,267.91 271.2,268.58 272.31,269.22 273.43,269.85 274.57,270.46 275.71,271.04 276.87,271.61 278.03,272.16 279.21,272.68 280.39,273.19 281.58,273.67 282.78,274.13 283.99,274.58 285.21,275 286.43,275.39 287.66,275.77 288.9,276.13 290.14,276.46 291.39,276.77 292.64,277.06 293.9,277.33 295.16,277.58 296.43,277.8 297.7,278 298.97,278.18 300.25,278.34 301.53,278.47 302.81,278.58 304.09,278.67 305.38,278.74 306.66,278.78 307.95,278.8 309.24,278.8 310.52,278.78 311.81,278.73 313.09,278.66 314.37,278.57 315.66,278.45 316.93,278.32 318.21,278.16 319.48,277.98 320.75,277.77 322.02,277.54 323.28,277.3 324.54,277.02 325.79,276.73 327.04,276.42 328.28,276.08 329.52,275.72 330.75,275.34 331.97,274.94 333.18,274.51 334.39,274.07 335.59,273.6 336.78,273.12 337.96,272.61 339.13,272.08 340.3,271.53 341.45,270.96 342.59,270.37 343.73,269.76 344.85,269.13 345.96,268.48 347.06,267.81 348.14,267.12 349.22,266.42 350.28,265.69 351.33,264.95 352.37,264.19 353.39,263.4 354.4,262.61 355.39,261.79 356.37,260.96 357.34,260.11 358.29,259.24 359.22,258.35 360.14,257.45 361.04,256.54 361.93,255.6 362.8,254.66 363.65,253.69 364.49,252.72 365.31,251.72 366.11,250.72 366.89,249.7 367.66,248.66 393.01,267.08 391.92,268.56 390.8,270.02 389.65,271.46 388.48,272.87 387.29,274.27 "
         style="fill:#f8766d;fill-opacity:0.8;stroke:#ffffff;stroke-width:1.07"
         id="polygon9" />
      <polygon
         points="319.51,101.81 321.33,102.02 323.15,102.26 324.97,102.53 326.78,102.84 328.59,103.17 330.39,103.54 332.18,103.94 333.97,104.38 335.75,104.84 337.52,105.34 339.28,105.86 341.03,106.42 342.77,107.01 344.5,107.62 346.22,108.27 347.93,108.95 349.62,109.66 351.31,110.4 352.98,111.17 354.63,111.96 356.27,112.79 357.9,113.64 359.51,114.53 361.11,115.44 362.69,116.38 364.25,117.35 365.8,118.34 367.32,119.36 368.83,120.41 370.32,121.48 371.8,122.58 373.25,123.71 374.68,124.86 376.09,126.04 377.48,127.24 378.85,128.47 380.2,129.72 381.52,130.99 382.83,132.29 384.11,133.6 385.36,134.95 386.59,136.31 387.8,137.69 388.99,139.1 390.15,140.53 391.28,141.97 392.39,143.44 393.47,144.92 394.53,146.43 395.55,147.95 396.56,149.49 397.53,151.05 398.48,152.62 399.4,154.21 400.29,155.82 401.15,157.44 401.99,159.08 402.79,160.73 403.57,162.4 404.32,164.08 405.03,165.77 405.72,167.47 406.38,169.19 407,170.92 407.6,172.66 408.17,174.4 408.7,176.16 409.2,177.93 409.68,179.71 410.12,181.49 410.53,183.28 410.91,185.08 411.25,186.88 411.57,188.69 411.85,190.51 412.1,192.33 412.32,194.16 412.51,195.98 412.66,197.82 412.78,199.65 412.87,201.48 412.93,203.32 412.96,205.16 412.95,207 412.91,208.83 412.84,210.67 412.74,212.5 412.6,214.34 412.43,216.17 412.23,217.99 412,219.82 411.73,221.64 411.44,223.45 411.11,225.26 410.75,227.06 410.36,228.85 409.93,230.64 409.48,232.42 408.99,234.2 408.48,235.96 407.93,237.71 407.35,239.46 406.74,241.19 406.1,242.91 405.43,244.63 404.73,246.32 404,248.01 403.24,249.68 402.45,251.34 401.63,252.99 400.79,254.62 399.91,256.24 399.01,257.84 398.08,259.42 397.12,260.99 396.13,262.54 395.12,264.07 394.08,265.59 393.01,267.08 367.66,248.66 368.4,247.62 369.13,246.56 369.84,245.48 370.53,244.4 371.2,243.3 371.86,242.19 372.49,241.07 373.1,239.94 373.69,238.8 374.27,237.65 374.82,236.48 375.35,235.31 375.86,234.13 376.35,232.94 376.82,231.75 377.27,230.54 377.69,229.33 378.1,228.1 378.48,226.88 378.84,225.64 379.18,224.4 379.5,223.16 379.8,221.9 380.07,220.65 380.33,219.39 380.56,218.12 380.76,216.85 380.95,215.58 381.11,214.3 381.25,213.02 381.37,211.74 381.47,210.46 381.54,209.17 381.59,207.89 381.62,206.6 381.62,205.32 381.6,204.03 381.56,202.74 381.5,201.46 381.41,200.18 381.31,198.89 381.17,197.61 381.02,196.34 380.85,195.06 380.65,193.79 380.43,192.52 380.18,191.26 379.92,190 379.63,188.75 379.32,187.5 378.99,186.26 378.64,185.02 378.27,183.79 377.87,182.56 377.45,181.35 377.01,180.14 376.55,178.94 376.07,177.74 375.57,176.56 375.05,175.38 374.5,174.22 373.94,173.06 373.36,171.92 372.75,170.78 372.13,169.65 371.49,168.54 370.82,167.44 370.14,166.35 369.44,165.27 368.72,164.2 367.98,163.15 367.22,162.11 366.45,161.09 365.65,160.07 364.84,159.07 364.01,158.09 363.17,157.12 362.3,156.17 361.42,155.23 360.53,154.31 359.62,153.4 358.69,152.51 357.75,151.63 356.79,150.77 355.81,149.93 354.83,149.11 353.82,148.3 352.81,147.51 351.78,146.74 350.73,145.99 349.68,145.26 348.61,144.54 347.53,143.85 346.43,143.17 345.33,142.51 344.21,141.87 343.08,141.26 341.94,140.66 340.79,140.08 339.63,139.52 338.46,138.98 337.29,138.47 336.1,137.97 334.9,137.5 333.7,137.04 332.49,136.61 331.27,136.2 330.04,135.81 328.81,135.44 327.57,135.09 326.33,134.77 325.08,134.47 323.82,134.19 322.56,133.93 321.3,133.69 320.03,133.48 318.76,133.29 317.48,133.12 316.2,132.97 314.92,132.85 313.64,132.74 312.36,132.66 311.07,132.61 309.79,132.57 308.5,132.56 308.5,101.22 310.34,101.24 312.17,101.29 314.01,101.37 315.84,101.48 317.68,101.63 "
         style="fill:#00ba38;fill-opacity:0.8;stroke:#ffffff;stroke-width:1.07"
         id="polygon10" />
      <polygon
         points="206.3,227.3 205.94,225.5 205.6,223.69 205.3,221.87 205.03,220.05 204.8,218.23 204.59,216.4 204.42,214.57 204.28,212.73 204.17,210.9 204.1,209.06 204.05,207.22 204.04,205.38 204.06,203.54 204.12,201.7 204.2,199.86 204.32,198.02 204.47,196.19 204.66,194.36 204.87,192.53 205.12,190.71 205.4,188.89 205.71,187.07 206.06,185.27 206.43,183.47 206.84,181.67 207.28,179.88 207.75,178.11 208.25,176.33 208.78,174.57 209.34,172.82 209.94,171.08 210.56,169.35 211.22,167.63 211.9,165.92 212.62,164.23 213.37,162.54 214.14,160.87 214.94,159.22 215.78,157.58 216.64,155.95 217.53,154.34 218.45,152.75 219.39,151.17 220.37,149.61 221.37,148.06 222.4,146.54 223.45,145.03 224.53,143.54 225.64,142.07 226.78,140.62 227.93,139.19 229.12,137.78 230.33,136.4 231.56,135.03 232.82,133.69 234.1,132.36 235.4,131.06 236.73,129.79 238.07,128.54 239.44,127.31 240.83,126.1 242.25,124.92 243.68,123.77 245.13,122.64 246.61,121.54 248.1,120.46 249.61,119.41 251.14,118.38 252.68,117.39 254.25,116.42 255.83,115.48 257.43,114.56 259.04,113.68 260.67,112.82 262.31,111.99 263.97,111.19 265.64,110.42 267.32,109.68 269.02,108.97 270.73,108.29 272.45,107.64 274.19,107.02 275.93,106.43 277.68,105.87 279.45,105.35 281.22,104.85 283,104.39 284.79,103.95 286.58,103.55 288.38,103.18 290.19,102.84 292.01,102.53 293.83,102.26 295.65,102.02 297.48,101.81 299.31,101.63 301.15,101.48 302.98,101.37 304.82,101.29 306.66,101.24 308.5,101.22 308.5,132.56 307.21,132.57 305.92,132.61 304.64,132.66 303.35,132.74 302.07,132.85 300.79,132.97 299.51,133.12 298.23,133.29 296.96,133.48 295.69,133.69 294.42,133.93 293.16,134.19 291.9,134.47 290.65,134.78 289.4,135.1 288.16,135.45 286.93,135.82 285.7,136.21 284.48,136.62 283.27,137.05 282.06,137.51 280.87,137.99 279.68,138.48 278.5,139 277.33,139.54 276.17,140.1 275.02,140.68 273.88,141.28 272.75,141.9 271.63,142.54 270.52,143.2 269.43,143.88 268.35,144.57 267.28,145.29 266.22,146.03 265.17,146.78 264.14,147.55 263.13,148.34 262.12,149.15 261.13,149.98 260.16,150.82 259.2,151.68 258.26,152.56 257.33,153.45 256.42,154.36 255.52,155.29 254.64,156.23 253.78,157.18 252.93,158.15 252.1,159.14 251.29,160.14 250.5,161.16 249.72,162.18 248.97,163.23 248.23,164.28 247.51,165.35 246.81,166.43 246.13,167.52 245.46,168.63 244.82,169.74 244.2,170.87 243.59,172.01 243.01,173.16 242.45,174.32 241.91,175.49 241.38,176.66 240.88,177.85 240.4,179.05 239.94,180.25 239.51,181.46 239.09,182.68 238.7,183.91 238.32,185.14 237.97,186.38 237.64,187.62 237.34,188.87 237.05,190.13 236.79,191.39 236.55,192.66 236.33,193.93 236.13,195.2 235.96,196.48 235.81,197.76 235.68,199.04 235.58,200.32 235.49,201.61 235.43,202.89 235.39,204.18 235.38,205.47 235.39,206.76 235.42,208.04 235.47,209.33 235.55,210.62 235.64,211.9 235.76,213.18 235.91,214.46 236.07,215.74 236.26,217.02 236.47,218.29 236.71,219.55 236.96,220.82 237.24,222.07 237.54,223.33 237.86,224.57 238.2,225.82 238.57,227.05 238.96,228.28 209.15,237.96 208.6,236.21 208.08,234.44 207.59,232.67 207.13,230.89 206.7,229.1 "
         style="fill:#619cff;fill-opacity:0.8;stroke:#ffffff;stroke-width:1.07"
         id="polygon11" />
      <line
         x1="401.57001"
         y1="158.25999"
         x2="406.23001"
         y2="155.89"
         style="stroke-width:1.07;stroke-linecap:butt"
         id="line11" />
      <line
         x1="292.16"
         y1="308.85999"
         x2="291.34"
         y2="314.01999"
         style="stroke-width:1.07;stroke-linecap:butt"
         id="line12" />
      <line
         x1="223.99001"
         y1="144.28"
         x2="219.77"
         y2="141.21001"
         style="stroke-width:1.07;stroke-linecap:butt"
         id="line13" />
      <text
         x="406.23001"
         y="139.5"
         style="font-size:11.38px;font-family:Arial"
         textLength="127.73"
         lengthAdjust="spacingAndGlyphs"
         id="text13"
         transform="translate(0,-6)">Data Collection Protocols</text>
      <text
         x="406.23001"
         y="155.89"
         style="font-size:11.38px;font-family:Arial"
         textLength="30.33"
         lengthAdjust="spacingAndGlyphs"
         id="text14"
         transform="matrix(2.4434221,0,0,2.4434221,-584.19081,-222.22064)">(35%)</text>
      <text
         x="291.34"
         y="322.16"
         text-anchor="end"
         style="font-size:11.38px;font-family:Arial"
         textLength="111.27"
         lengthAdjust="spacingAndGlyphs"
         id="text15"
         transform="translate(64.5,3)">Data-Limited Methods</text>
      <text
         x="291.34"
         y="338.54999"
         text-anchor="end"
         style="font-size:11.38px;font-family:Arial"
         textLength="30.33"
         lengthAdjust="spacingAndGlyphs"
         id="text16"
         transform="matrix(2.7386675,0,0,2.7386675,-444.52546,-572.18001)">(35%)</text>
      <text
         x="219.77"
         y="124.83"
         text-anchor="end"
         style="font-size:11.38px;line-height:1;font-family:Arial"
         textLength="123.31"
         lengthAdjust="spacingAndGlyphs"
         id="text17"
         transform="translate(-64.061023,-6.8105994)"><tspan
           sodipodi:role="line"
           id="tspan21"
           x="219.77"
           y="124.83"
           style="line-height:1;text-align:start;text-anchor:start">Fundamentals</tspan><tspan
           sodipodi:role="line"
           id="tspan22"
           x="219.77"
           y="136.21001"
           style="line-height:1;text-align:start;text-anchor:start">/Concepts</tspan></text>
      <text
         x="219.77"
         y="141.21001"
         text-anchor="end"
         style="font-size:11.38px;font-family:Arial"
         textLength="30.33"
         lengthAdjust="spacingAndGlyphs"
         id="text18"
         transform="matrix(1.8857363,0,0,1.8857363,-200.17112,-115.59726)">(30%)</text>
      <rect
         x="136.14"
         y="33.330002"
         width="344.70999"
         height="344.70999"
         style="stroke:#333333;stroke-width:0"
         id="rect19" />
    </g>
  </g>
</svg>
