<?xml version="1.0" encoding="UTF-8" standalone="no"?>
<svg
   width="509.6015pt"
   height="303.97617pt"
   viewBox="0 0 509.6015 303.97617"
   version="1.1"
   id="svg74"
   sodipodi:docname="rating_fundamentals.svg"
   inkscape:version="1.4 (86a8ad7, 2024-10-11)"
   xmlns:inkscape="http://www.inkscape.org/namespaces/inkscape"
   xmlns:sodipodi="http://sodipodi.sourceforge.net/DTD/sodipodi-0.dtd"
   xmlns="http://www.w3.org/2000/svg"
   xmlns:svg="http://www.w3.org/2000/svg">
  <defs
     id="defs74" />
  <sodipodi:namedview
     id="namedview74"
     pagecolor="#ffffff"
     bordercolor="#000000"
     borderopacity="0.25"
     inkscape:showpageshadow="2"
     inkscape:pageopacity="0.0"
     inkscape:pagecheckerboard="0"
     inkscape:deskcolor="#d1d1d1"
     inkscape:document-units="pt"
     inkscape:zoom="1.1732005"
     inkscape:cx="485.85045"
     inkscape:cy="166.63818"
     inkscape:window-width="2560"
     inkscape:window-height="1494"
     inkscape:window-x="-11"
     inkscape:window-y="-11"
     inkscape:window-maximized="1"
     inkscape:current-layer="g73" />
  <g
     class="svglite"
     id="g74"
     transform="translate(-45.884988,-51.025817)">
    <defs
       id="defs1">
      <style
         type="text/css"
         id="style1"><![CDATA[
    .svglite line, .svglite polyline, .svglite polygon, .svglite path, .svglite rect, .svglite circle {
      fill: none;
      stroke: #000000;
      stroke-linecap: round;
      stroke-linejoin: round;
      stroke-miterlimit: 10.00;
    }
    .svglite text {
      white-space: pre;
    }
    .svglite g.glyphgroup path {
      fill: inherit;
      stroke: none;
    }
  ]]></style>
    </defs>
    <defs
       id="defs2">
      <clipPath
         id="cpMC4wMHw2MTcuMDB8MC4wMHwzODkuMDA=">
        <rect
           x="0"
           y="0"
           width="617"
           height="389"
           id="rect2" />
      </clipPath>
    </defs>
    <g
       clip-path="url(#cpMC4wMHw2MTcuMDB8MC4wMHwzODkuMDA=)"
       id="g2" />
    <defs
       id="defs3">
      <clipPath
         id="cpNjEuNzZ8NTU1LjI0fDI0LjYzfDM2NC4zNw==">
        <rect
           x="61.759998"
           y="24.629999"
           width="493.48001"
           height="339.75"
           id="rect3" />
      </clipPath>
    </defs>
    <g
       clip-path="url(#cpMC4wMHw2MTcuMDB8MC4wMHwzODkuMDA=)"
       id="g5" />
    <defs
       id="defs5">
      <clipPath
         id="cpNjcuMjR8NDkyLjQ0fDYzLjk1fDM1OC45MA==">
        <rect
           x="67.239998"
           y="63.950001"
           width="425.20001"
           height="294.94"
           id="rect5" />
      </clipPath>
    </defs>
    <g
       clip-path="url(#cpNjcuMjR8NDkyLjQ0fDYzLjk1fDM1OC45MA==)"
       id="g6" />
    <g
       clip-path="url(#cpMC4wMHw2MTcuMDB8MC4wMHwzODkuMDA=)"
       id="g7" />
    <defs
       id="defs7">
      <clipPath
         id="cpNjcuMjR8MjA4Ljk3fDYzLjk1fDIwNS42OA==">
        <rect
           x="67.239998"
           y="63.950001"
           width="141.73"
           height="141.73"
           id="rect7" />
      </clipPath>
    </defs>
    <g
       clip-path="url(#cpNjcuMjR8MjA4Ljk3fDYzLjk1fDIwNS42OA==)"
       id="g8" />
    <g
       clip-path="url(#cpMC4wMHw2MTcuMDB8MC4wMHwzODkuMDA=)"
       id="g9" />
    <g
       clip-path="url(#cpNjcuMjR8MjA4Ljk3fDYzLjk1fDIwNS42OA==)"
       id="g10" />
    <g
       clip-path="url(#cpMC4wMHw2MTcuMDB8MC4wMHwzODkuMDA=)"
       id="g11" />
    <defs
       id="defs11">
      <clipPath
         id="cpNjcuMjR8MjA4Ljk3fDUyLjQ3fDIwNS42OA==">
        <rect
           x="67.239998"
           y="52.470001"
           width="141.73"
           height="153.21001"
           id="rect11" />
      </clipPath>
    </defs>
    <g
       clip-path="url(#cpNjcuMjR8MjA4Ljk3fDUyLjQ3fDIwNS42OA==)"
       id="g12">
      <rect
         x="67.239998"
         y="52.470001"
         width="141.73"
         height="153.21001"
         style="stroke:none;stroke-width:0"
         id="rect12" />
    </g>
    <g
       clip-path="url(#cpMC4wMHw2MTcuMDB8MC4wMHwzODkuMDA=)"
       id="g13" />
    <g
       clip-path="url(#cpNjcuMjR8MjA4Ljk3fDYzLjk1fDIwNS42OA==)"
       id="g15">
      <polygon
         points="130.41,78.65 128.5,78.94 126.6,79.3 124.72,79.73 122.85,80.22 121,80.77 119.17,81.38 117.36,82.06 115.58,82.79 113.82,83.59 112.09,84.45 110.39,85.36 108.72,86.33 107.09,87.36 105.49,88.45 103.93,89.58 102.41,90.77 100.93,92.02 99.49,93.31 98.1,94.64 96.76,96.03 95.46,97.46 94.21,98.93 93.02,100.45 91.87,102 90.78,103.6 89.75,105.23 88.77,106.89 87.85,108.59 86.98,110.31 86.18,112.07 85.43,113.85 84.75,115.65 84.13,117.48 83.57,119.33 83.07,121.2 82.64,123.08 82.27,124.97 81.97,126.88 81.73,128.8 81.56,130.72 81.45,132.65 81.41,134.58 81.44,136.51 81.53,138.44 81.68,140.36 81.91,142.28 82.19,144.19 82.54,146.08 82.96,147.97 83.44,149.84 83.98,151.69 84.59,153.53 85.26,155.34 85.99,157.12 86.78,158.89 87.62,160.62 88.53,162.32 89.5,164 90.52,165.63 91.6,167.24 92.73,168.8 93.91,170.33 95.15,171.81 96.43,173.25 97.76,174.65 99.14,176 100.57,177.3 102.04,178.56 103.55,179.76 105.1,180.91 106.68,182.01 108.31,183.05 109.97,184.04 111.66,184.96 113.38,185.84 115.13,186.65 116.91,187.4 118.72,188.09 120.54,188.72 122.39,189.29 124.25,189.79 126.13,190.23 128.02,190.61 129.93,190.92 131.84,191.16 133.77,191.34 135.69,191.46 137.62,191.51 139.55,191.49 141.48,191.41 143.41,191.26 145.33,191.05 147.24,190.77 149.14,190.43 151.02,190.02 152.9,189.55 154.75,189.01 156.59,188.41 158.4,187.75 160.19,187.03 161.96,186.25 163.69,185.41 165.4,184.51 167.08,183.55 168.72,182.53 170.33,181.46 171.9,180.34 173.43,179.16 174.92,177.94 176.36,176.66 177.76,175.33 179.12,173.96 180.43,172.54 181.69,171.07 182.9,169.57 184.06,168.02 185.16,166.44 186.21,164.82 187.2,163.16 185.02,161.9 182.84,160.64 180.66,159.38 178.47,158.12 176.29,156.86 174.11,155.6 171.93,154.35 169.75,153.09 167.56,151.83 166.68,153.27 165.72,154.67 164.7,156.03 163.61,157.33 162.46,158.57 161.24,159.75 159.97,160.88 158.64,161.93 157.27,162.92 155.84,163.84 154.37,164.69 152.86,165.46 151.32,166.16 149.74,166.78 148.13,167.32 146.5,167.78 144.85,168.16 143.18,168.45 141.49,168.66 139.8,168.79 138.11,168.83 136.41,168.79 134.72,168.66 133.04,168.45 131.37,168.16 129.71,167.78 128.08,167.32 126.47,166.78 124.89,166.16 123.35,165.46 121.84,164.69 120.37,163.84 118.94,162.92 117.57,161.93 116.24,160.88 114.97,159.75 113.76,158.57 112.6,157.33 111.51,156.03 110.49,154.67 109.53,153.27 108.65,151.83 107.84,150.34 107.1,148.81 106.44,147.24 105.86,145.65 105.36,144.03 104.94,142.39 104.61,140.72 104.35,139.05 104.19,137.36 104.1,135.67 104.1,133.97 104.19,132.28 104.35,130.59 104.61,128.91 104.94,127.25 105.36,125.6 105.86,123.98 106.44,122.39 107.1,120.83 107.84,119.3 108.65,117.81 109.53,116.36 110.49,114.96 111.51,113.61 112.6,112.31 113.76,111.07 114.97,109.88 116.24,108.76 117.57,107.7 118.94,106.71 120.37,105.79 121.84,104.94 123.35,104.17 124.89,103.47 126.47,102.85 128.08,102.31 129.71,101.85 131.37,101.48 133.04,101.18 134.72,100.97 136.41,100.84 138.11,100.8 138.11,98.28 138.11,95.76 138.11,93.24 138.11,90.72 138.11,88.2 138.11,85.68 138.11,83.16 138.11,80.64 138.11,78.12 136.18,78.16 134.25,78.26 132.32,78.42 "
         style="fill:#56b4e9;stroke:none;stroke-width:1.07;stroke-linecap:butt;stroke-linejoin:miter"
         id="polygon13" />
      <polygon
         points="190.67,156.06 191.38,154.21 192.02,152.34 192.6,150.44 193.11,148.53 193.56,146.6 193.94,144.66 194.25,142.71 194.49,140.74 194.66,138.77 194.76,136.8 194.8,134.82 194.76,132.84 194.66,130.86 194.49,128.89 194.25,126.93 193.94,124.97 191.46,125.41 188.97,125.85 186.49,126.29 184.01,126.72 181.53,127.16 179.05,127.6 176.57,128.04 174.09,128.47 171.6,128.91 171.86,130.59 172.03,132.28 172.11,133.97 172.11,135.67 172.03,137.36 171.86,139.05 171.6,140.72 171.27,142.39 170.85,144.03 170.35,145.65 169.77,147.24 169.11,148.81 168.38,150.34 167.56,151.83 169.75,153.09 171.93,154.35 174.11,155.6 176.29,156.86 178.47,158.12 180.66,159.38 182.84,160.64 185.02,161.9 187.2,163.16 188.16,161.43 189.06,159.67 189.9,157.88 "
         style="fill:#f5c710;stroke:none;stroke-width:1.07;stroke-linecap:butt;stroke-linejoin:miter"
         id="polygon14" />
      <polygon
         points="192.08,117.48 191.46,115.65 190.78,113.85 190.03,112.07 189.23,110.31 188.37,108.59 187.44,106.89 186.46,105.23 185.43,103.6 184.34,102 183.19,100.45 182,98.93 180.75,97.46 179.45,96.03 178.11,94.64 176.72,93.31 175.28,92.02 173.8,90.77 172.28,89.58 170.72,88.45 169.12,87.36 167.49,86.33 165.82,85.36 164.12,84.45 162.39,83.59 160.63,82.79 158.85,82.06 157.04,81.38 155.21,80.77 153.36,80.22 151.49,79.73 149.61,79.3 147.71,78.94 145.8,78.65 143.89,78.42 141.96,78.26 140.04,78.16 138.11,78.12 138.11,80.64 138.11,83.16 138.11,85.68 138.11,88.2 138.11,90.72 138.11,93.24 138.11,95.76 138.11,98.28 138.11,100.8 139.8,100.84 141.49,100.97 143.18,101.18 144.85,101.48 146.5,101.85 148.13,102.31 149.74,102.85 151.32,103.47 152.86,104.17 154.37,104.94 155.84,105.79 157.27,106.71 158.64,107.7 159.97,108.76 161.24,109.88 162.46,111.07 163.61,112.31 164.7,113.61 165.72,114.96 166.68,116.36 167.56,117.81 168.38,119.3 169.11,120.83 169.77,122.39 170.35,123.98 170.85,125.6 171.27,127.25 171.6,128.91 174.09,128.47 176.57,128.04 179.05,127.6 181.53,127.16 184.01,126.72 186.49,126.29 188.97,125.85 191.46,125.41 193.94,124.97 193.57,123.08 193.14,121.2 192.64,119.33 "
         style="fill:#888888;stroke:none;stroke-width:1.07;stroke-linecap:butt;stroke-linejoin:miter"
         id="polygon15" />
    </g>
    <g
       clip-path="url(#cpMC4wMHw2MTcuMDB8MC4wMHwzODkuMDA=)"
       id="g16">
      <text
         x="138.11"
         y="63.459999"
         text-anchor="middle"
         style="font-size:7px;font-family:Arial"
         textLength="98.379997"
         lengthAdjust="spacingAndGlyphs"
         id="text15">Application of Stock Information</text>
    </g>
    <defs
       id="defs16">
      <clipPath
         id="cpMjA4Ljk3fDM1MC43MHw2My45NXwyMDUuNjg=">
        <rect
           x="208.97"
           y="63.950001"
           width="141.73"
           height="141.73"
           id="rect16" />
      </clipPath>
    </defs>
    <g
       clip-path="url(#cpMjA4Ljk3fDM1MC43MHw2My45NXwyMDUuNjg=)"
       id="g17" />
    <g
       clip-path="url(#cpMC4wMHw2MTcuMDB8MC4wMHwzODkuMDA=)"
       id="g18" />
    <g
       clip-path="url(#cpMjA4Ljk3fDM1MC43MHw2My45NXwyMDUuNjg=)"
       id="g19" />
    <g
       clip-path="url(#cpMC4wMHw2MTcuMDB8MC4wMHwzODkuMDA=)"
       id="g20" />
    <defs
       id="defs20">
      <clipPath
         id="cpMjA4Ljk3fDM1MC43MHw1Mi40N3wyMDUuNjg=">
        <rect
           x="208.97"
           y="52.470001"
           width="141.73"
           height="153.21001"
           id="rect20" />
      </clipPath>
    </defs>
    <g
       clip-path="url(#cpMjA4Ljk3fDM1MC43MHw1Mi40N3wyMDUuNjg=)"
       id="g21">
      <rect
         x="208.97"
         y="52.470001"
         width="141.73"
         height="153.21001"
         style="stroke:none;stroke-width:0"
         id="rect21" />
    </g>
    <g
       clip-path="url(#cpMC4wMHw2MTcuMDB8MC4wMHwzODkuMDA=)"
       id="g22" />
    <g
       clip-path="url(#cpMjA4Ljk3fDM1MC43MHw2My45NXwyMDUuNjg=)"
       id="g23">
      <polygon
         points="272.14,78.65 270.23,78.94 268.33,79.3 266.45,79.73 264.58,80.22 262.73,80.77 260.9,81.38 259.09,82.06 257.31,82.79 255.55,83.59 253.82,84.45 252.12,85.36 250.45,86.33 248.82,87.36 247.22,88.45 245.66,89.58 244.14,90.77 242.66,92.02 241.23,93.31 239.84,94.64 238.49,96.03 237.19,97.46 235.95,98.93 234.75,100.45 233.61,102 232.52,103.6 231.48,105.23 230.5,106.89 229.58,108.59 228.71,110.31 227.91,112.07 227.17,113.85 226.48,115.65 225.86,117.48 225.3,119.33 224.81,121.2 224.37,123.08 224.01,124.97 223.7,126.88 223.47,128.8 223.29,130.72 223.19,132.65 223.15,134.58 223.17,136.51 223.26,138.44 223.42,140.36 223.64,142.28 223.92,144.19 224.28,146.08 224.69,147.97 225.17,149.84 225.71,151.69 226.32,153.53 226.99,155.34 227.72,157.12 228.51,158.89 229.36,160.62 230.27,162.32 231.23,164 232.25,165.63 233.33,167.24 234.46,168.8 235.64,170.33 236.88,171.81 238.16,173.25 239.49,174.65 240.87,176 242.3,177.3 243.77,178.56 245.28,179.76 246.83,180.91 248.42,182.01 250.04,183.05 251.7,184.04 253.39,184.96 255.12,185.84 256.87,186.65 258.65,187.4 260.45,188.09 262.27,188.72 264.12,189.29 265.98,189.79 267.86,190.23 269.76,190.61 271.66,190.92 273.58,191.16 275.5,191.34 277.43,191.46 279.36,191.51 281.29,191.49 283.21,191.41 285.14,191.26 287.06,191.05 288.97,190.77 290.87,190.43 292.76,190.02 294.63,189.55 296.48,189.01 298.32,188.41 300.13,187.75 301.92,187.03 303.69,186.25 305.43,185.41 307.13,184.51 308.81,183.55 310.45,182.53 312.06,181.46 313.63,180.34 315.16,179.16 316.65,177.94 318.09,176.66 319.5,175.33 320.85,173.96 322.16,172.54 323.42,171.07 324.63,169.57 325.79,168.02 326.89,166.44 327.94,164.82 328.94,163.16 326.75,161.9 324.57,160.64 322.39,159.38 320.21,158.12 318.03,156.86 315.84,155.6 313.66,154.35 311.48,153.09 309.3,151.83 308.41,153.27 307.46,154.67 306.43,156.03 305.34,157.33 304.19,158.57 302.97,159.75 301.7,160.88 300.38,161.93 299,162.92 297.58,163.84 296.11,164.69 294.6,165.46 293.05,166.16 291.47,166.78 289.86,167.32 288.23,167.78 286.58,168.16 284.91,168.45 283.22,168.66 281.53,168.79 279.84,168.83 278.14,168.79 276.45,168.66 274.77,168.45 273.1,168.16 271.44,167.78 269.81,167.32 268.2,166.78 266.63,166.16 265.08,165.46 263.57,164.69 262.1,163.84 260.68,162.92 259.3,161.93 257.97,160.88 256.7,159.75 255.49,158.57 254.33,157.33 253.24,156.03 252.22,154.67 251.26,153.27 250.38,151.83 249.57,150.34 248.83,148.81 248.17,147.24 247.59,145.65 247.09,144.03 246.68,142.39 246.34,140.72 246.09,139.05 245.92,137.36 245.83,135.67 245.83,133.97 245.92,132.28 246.09,130.59 246.34,128.91 246.68,127.25 247.09,125.6 247.59,123.98 248.17,122.39 248.83,120.83 249.57,119.3 250.38,117.81 251.26,116.36 252.22,114.96 253.24,113.61 254.33,112.31 255.49,111.07 256.7,109.88 257.97,108.76 259.3,107.7 260.68,106.71 262.1,105.79 263.57,104.94 265.08,104.17 266.63,103.47 268.2,102.85 269.81,102.31 271.44,101.85 273.1,101.48 274.77,101.18 276.45,100.97 278.14,100.84 279.84,100.8 279.84,98.28 279.84,95.76 279.84,93.24 279.84,90.72 279.84,88.2 279.84,85.68 279.84,83.16 279.84,80.64 279.84,78.12 277.91,78.16 275.98,78.26 274.06,78.42 "
         style="fill:#56b4e9;stroke:none;stroke-width:1.07;stroke-linecap:butt;stroke-linejoin:miter"
         id="polygon22" />
      <polygon
         points="332.35,156.18 333.06,154.36 333.7,152.52 334.27,150.66 334.78,148.78 335.23,146.89 335.61,144.98 335.93,143.06 336.18,141.13 336.36,139.19 336.48,137.25 336.53,135.3 336.51,133.36 336.43,131.41 336.28,129.47 336.06,127.54 335.78,125.61 335.43,123.7 335.02,121.8 334.54,119.91 333.99,118.04 333.38,116.19 332.71,114.36 331.98,112.56 331.18,110.78 330.33,109.04 329.41,107.32 328.44,105.63 327.41,103.98 326.32,102.37 325.18,100.79 323.99,99.25 322.74,97.76 321.44,96.31 320.1,94.9 318.7,93.54 317.26,92.23 315.78,90.97 314.25,89.77 312.69,88.61 311.08,87.51 309.44,86.47 307.76,85.48 306.05,84.55 304.31,83.68 302.54,82.87 300.74,82.12 298.92,81.43 297.08,80.81 295.22,80.25 293.33,79.75 291.43,79.32 289.52,78.96 287.6,78.66 285.67,78.43 283.73,78.26 281.78,78.16 279.84,78.12 279.84,80.64 279.84,83.16 279.84,85.68 279.84,88.2 279.84,90.72 279.84,93.24 279.84,95.76 279.84,98.28 279.84,100.8 281.53,100.84 283.22,100.97 284.91,101.18 286.58,101.48 288.23,101.85 289.86,102.31 291.47,102.85 293.05,103.47 294.6,104.17 296.11,104.94 297.58,105.79 299,106.71 300.38,107.7 301.7,108.76 302.97,109.88 304.19,111.07 305.34,112.31 306.43,113.61 307.46,114.96 308.41,116.36 309.3,117.81 310.11,119.3 310.84,120.83 311.5,122.39 312.08,123.98 312.58,125.6 313,127.25 313.34,128.91 313.59,130.59 313.76,132.28 313.84,133.97 313.84,135.67 313.76,137.36 313.59,139.05 313.34,140.72 313,142.39 312.58,144.03 312.08,145.65 311.5,147.24 310.84,148.81 310.11,150.34 309.3,151.83 311.48,153.09 313.66,154.35 315.84,155.6 318.03,156.86 320.21,158.12 322.39,159.38 324.57,160.64 326.75,161.9 328.94,163.16 329.88,161.46 330.76,159.73 331.59,157.97 "
         style="fill:#888888;stroke:none;stroke-width:1.07;stroke-linecap:butt;stroke-linejoin:miter"
         id="polygon23" />
    </g>
    <g
       clip-path="url(#cpMC4wMHw2MTcuMDB8MC4wMHwzODkuMDA=)"
       id="g24">
      <text
         x="279.84"
         y="63.459999"
         text-anchor="middle"
         style="font-size:7px;font-family:Arial"
         textLength="87.529999"
         lengthAdjust="spacingAndGlyphs"
         id="text23">Basic Concepts &amp; Principles</text>
    </g>
    <defs
       id="defs24">
      <clipPath
         id="cpMzUwLjcwfDQ5Mi40NHw2My45NXwyMDUuNjg=">
        <rect
           x="350.70001"
           y="63.950001"
           width="141.73"
           height="141.73"
           id="rect24" />
      </clipPath>
    </defs>
    <g
       clip-path="url(#cpMzUwLjcwfDQ5Mi40NHw2My45NXwyMDUuNjg=)"
       id="g25" />
    <g
       clip-path="url(#cpMC4wMHw2MTcuMDB8MC4wMHwzODkuMDA=)"
       id="g26" />
    <g
       clip-path="url(#cpMzUwLjcwfDQ5Mi40NHw2My45NXwyMDUuNjg=)"
       id="g27" />
    <g
       clip-path="url(#cpMC4wMHw2MTcuMDB8MC4wMHwzODkuMDA=)"
       id="g28" />
    <defs
       id="defs28">
      <clipPath
         id="cpMzUwLjcwfDU0OS43Nnw1Mi40N3wyMDUuNjg=">
        <rect
           x="350.70001"
           y="52.470001"
           width="199.06"
           height="153.21001"
           id="rect28" />
      </clipPath>
    </defs>
    <g
       clip-path="url(#cpMzUwLjcwfDU0OS43Nnw1Mi40N3wyMDUuNjg=)"
       id="g29">
      <rect
         x="350.70001"
         y="52.470001"
         width="199.06"
         height="153.21001"
         style="stroke:none;stroke-width:0"
         id="rect29" />
    </g>
    <g
       clip-path="url(#cpMC4wMHw2MTcuMDB8MC4wMHwzODkuMDA=)"
       id="g30" />
    <g
       clip-path="url(#cpMzUwLjcwfDQ5Mi40NHw2My45NXwyMDUuNjg=)"
       id="g33">
      <polygon
         points="413.68,78.68 411.73,78.99 409.78,79.36 407.86,79.81 405.94,80.32 404.05,80.9 402.18,81.54 400.33,82.25 398.51,83.03 396.72,83.86 394.95,84.76 393.22,85.72 391.53,86.74 389.87,87.82 388.25,88.95 386.67,90.14 385.13,91.39 386.75,93.32 388.37,95.25 389.99,97.18 391.61,99.11 393.23,101.04 394.85,102.97 396.47,104.9 398.09,106.83 399.71,108.76 401.03,107.7 402.41,106.71 403.83,105.79 405.3,104.94 406.81,104.17 408.36,103.47 409.94,102.85 411.54,102.31 413.18,101.85 414.83,101.48 416.5,101.18 418.18,100.97 419.87,100.84 421.57,100.8 421.57,98.28 421.57,95.76 421.57,93.24 421.57,90.72 421.57,88.2 421.57,85.68 421.57,83.16 421.57,80.64 421.57,78.12 419.59,78.16 417.62,78.26 415.64,78.44 "
         style="fill:#009e73;stroke:none;stroke-width:1.07;stroke-linecap:butt;stroke-linejoin:miter"
         id="polygon30" />
      <polygon
         points="379.57,96.74 378.3,98.19 377.07,99.69 375.9,101.22 374.79,102.8 373.72,104.41 372.72,106.05 371.76,107.73 370.87,109.45 370.04,111.19 369.26,112.96 368.55,114.75 367.9,116.57 367.31,118.4 366.78,120.26 366.31,122.14 365.91,124.02 365.58,125.93 365.31,127.84 365.1,129.76 364.96,131.68 364.89,133.61 364.88,135.54 364.94,137.47 365.06,139.4 365.25,141.32 365.51,143.23 365.82,145.14 366.21,147.03 366.66,148.91 367.17,150.77 367.74,152.61 368.38,154.43 369.08,156.23 369.84,158.01 370.66,159.76 371.54,161.48 372.47,163.16 373.47,164.82 374.52,166.44 375.62,168.02 376.78,169.57 377.99,171.07 379.25,172.54 380.55,173.96 381.91,175.33 383.31,176.66 384.76,177.94 386.25,179.16 387.78,180.34 389.35,181.46 390.96,182.53 392.6,183.55 394.28,184.51 395.98,185.41 397.72,186.25 399.49,187.03 401.28,187.75 403.09,188.41 404.93,189.01 406.78,189.55 408.65,190.02 410.54,190.43 412.44,190.77 414.35,191.05 416.27,191.26 418.19,191.41 420.12,191.49 422.05,191.51 423.98,191.46 425.91,191.34 427.83,191.16 429.75,190.92 431.65,190.61 433.55,190.23 435.43,189.79 437.29,189.29 439.14,188.72 440.96,188.09 442.76,187.4 444.54,186.65 446.29,185.84 448.02,184.96 449.71,184.04 451.37,183.05 452.99,182.01 454.58,180.91 456.13,179.76 457.64,178.56 459.11,177.3 460.53,176 461.91,174.65 463.25,173.25 464.53,171.81 465.77,170.33 466.95,168.8 468.08,167.24 469.16,165.63 470.18,164 471.14,162.32 472.05,160.62 472.9,158.89 473.69,157.12 474.42,155.34 475.09,153.53 475.69,151.69 476.24,149.84 476.72,147.97 477.13,146.08 477.48,144.19 477.77,142.28 477.99,140.36 478.15,138.44 478.24,136.51 478.26,134.58 478.22,132.65 478.11,130.72 477.94,128.8 477.7,126.88 477.4,124.97 474.92,125.41 472.44,125.85 469.96,126.29 467.48,126.72 464.99,127.16 462.51,127.6 460.03,128.04 457.55,128.47 455.07,128.91 455.32,130.59 455.49,132.28 455.58,133.97 455.58,135.67 455.49,137.36 455.32,139.05 455.07,140.72 454.73,142.39 454.31,144.03 453.81,145.65 453.23,147.24 452.58,148.81 451.84,150.34 451.03,151.83 450.14,153.27 449.19,154.67 448.16,156.03 447.07,157.33 445.92,158.57 444.71,159.75 443.44,160.88 442.11,161.93 440.73,162.92 439.31,163.84 437.84,164.69 436.33,165.46 434.78,166.16 433.2,166.78 431.6,167.32 429.96,167.78 428.31,168.16 426.64,168.45 424.96,168.66 423.27,168.79 421.57,168.83 419.87,168.79 418.18,168.66 416.5,168.45 414.83,168.16 413.18,167.78 411.54,167.32 409.94,166.78 408.36,166.16 406.81,165.46 405.3,164.69 403.83,163.84 402.41,162.92 401.03,161.93 399.71,160.88 398.43,159.75 397.22,158.57 396.07,157.33 394.98,156.03 393.95,154.67 393,153.27 392.11,151.83 391.3,150.34 390.56,148.81 389.91,147.24 389.33,145.65 388.83,144.03 388.41,142.39 388.07,140.72 387.82,139.05 387.65,137.36 387.57,135.67 387.57,133.97 387.65,132.28 387.82,130.59 388.07,128.91 388.41,127.25 388.83,125.6 389.33,123.98 389.91,122.39 390.56,120.83 391.3,119.3 392.11,117.81 393,116.36 393.95,114.96 394.98,113.61 396.07,112.31 397.22,111.07 398.43,109.88 399.71,108.76 398.09,106.83 396.47,104.9 394.85,102.97 393.23,101.04 391.61,99.11 389.99,97.18 388.37,95.25 386.75,93.32 385.13,91.39 383.67,92.65 382.26,93.97 380.89,95.33 "
         style="fill:#56b4e9;stroke:none;stroke-width:1.07;stroke-linecap:butt;stroke-linejoin:miter"
         id="polygon31" />
      <polygon
         points="475.49,117.3 474.84,115.43 474.14,113.58 473.36,111.76 472.53,109.97 471.63,108.2 470.67,106.47 469.65,104.77 468.57,103.12 467.44,101.49 466.25,99.91 465,98.38 463.7,96.88 462.35,95.44 460.95,94.04 459.51,92.69 458.01,91.39 456.39,93.32 454.77,95.25 453.15,97.18 451.53,99.11 449.91,101.04 448.29,102.97 446.67,104.9 445.05,106.83 443.44,108.76 444.71,109.88 445.92,111.07 447.07,112.31 448.16,113.61 449.19,114.96 450.14,116.36 451.03,117.81 451.84,119.3 452.58,120.83 453.23,122.39 453.81,123.98 454.31,125.6 454.73,127.25 455.07,128.91 457.55,128.47 460.03,128.04 462.51,127.6 464.99,127.16 467.48,126.72 469.96,126.29 472.44,125.85 474.92,125.41 477.4,124.97 477.02,123.03 476.58,121.1 476.07,119.19 "
         style="fill:#f5c710;stroke:none;stroke-width:1.07;stroke-linecap:butt;stroke-linejoin:miter"
         id="polygon32" />
      <polygon
         points="451.61,86.74 449.92,85.72 448.19,84.76 446.42,83.86 444.63,83.03 442.81,82.25 440.96,81.54 439.09,80.9 437.2,80.32 435.29,79.81 433.36,79.36 431.41,78.99 429.46,78.68 427.5,78.44 425.53,78.26 423.55,78.16 421.57,78.12 421.57,80.64 421.57,83.16 421.57,85.68 421.57,88.2 421.57,90.72 421.57,93.24 421.57,95.76 421.57,98.28 421.57,100.8 423.27,100.84 424.96,100.97 426.64,101.18 428.31,101.48 429.96,101.85 431.6,102.31 433.2,102.85 434.78,103.47 436.33,104.17 437.84,104.94 439.31,105.79 440.73,106.71 442.11,107.7 443.44,108.76 445.05,106.83 446.67,104.9 448.29,102.97 449.91,101.04 451.53,99.11 453.15,97.18 454.77,95.25 456.39,93.32 458.01,91.39 456.47,90.14 454.89,88.95 453.27,87.82 "
         style="fill:#888888;stroke:none;stroke-width:1.07;stroke-linecap:butt;stroke-linejoin:miter"
         id="polygon33" />
    </g>
    <g
       clip-path="url(#cpMC4wMHw2MTcuMDB8MC4wMHwzODkuMDA=)"
       id="g34">
      <text
         x="421.57001"
         y="63.459999"
         text-anchor="middle"
         style="font-size:7px;font-family:Arial"
         textLength="96.470001"
         lengthAdjust="spacingAndGlyphs"
         id="text33">Fisheries-Dependent Approach</text>
    </g>
    <defs
       id="defs34">
      <clipPath
         id="cpNjcuMjR8MjA4Ljk3fDIxNy4xNnwzNTguOTA=">
        <rect
           x="67.239998"
           y="217.16"
           width="141.73"
           height="141.73"
           id="rect34" />
      </clipPath>
    </defs>
    <g
       clip-path="url(#cpNjcuMjR8MjA4Ljk3fDIxNy4xNnwzNTguOTA=)"
       id="g35" />
    <g
       clip-path="url(#cpMC4wMHw2MTcuMDB8MC4wMHwzODkuMDA=)"
       id="g36" />
    <g
       clip-path="url(#cpNjcuMjR8MjA4Ljk3fDIxNy4xNnwzNTguOTA=)"
       id="g37" />
    <g
       clip-path="url(#cpMC4wMHw2MTcuMDB8MC4wMHwzODkuMDA=)"
       id="g38" />
    <defs
       id="defs38">
      <clipPath
         id="cpNjcuMjR8MjA4Ljk3fDIwNS42OHwzNTguOTA=">
        <rect
           x="67.239998"
           y="205.67999"
           width="141.73"
           height="153.21001"
           id="rect38" />
      </clipPath>
    </defs>
    <g
       clip-path="url(#cpNjcuMjR8MjA4Ljk3fDIwNS42OHwzNTguOTA=)"
       id="g39">
      <rect
         x="67.239998"
         y="205.67999"
         width="141.73"
         height="153.21001"
         style="stroke:none;stroke-width:0"
         id="rect39" />
    </g>
    <g
       clip-path="url(#cpMC4wMHw2MTcuMDB8MC4wMHwzODkuMDA=)"
       id="g40" />
    <g
       clip-path="url(#cpNjcuMjR8MjA4Ljk3fDIxNy4xNnwzNTguOTA=)"
       id="g43">
      <polygon
         points="130.41,231.86 128.5,232.16 126.6,232.52 124.72,232.94 122.85,233.43 121,233.98 119.17,234.59 117.36,235.27 115.58,236 113.82,236.8 112.09,237.66 110.39,238.57 108.72,239.55 107.09,240.57 105.49,241.66 103.93,242.8 102.41,243.99 100.93,245.23 99.49,246.52 98.1,247.86 96.76,249.24 95.46,250.67 94.21,252.15 93.02,253.66 91.87,255.22 90.78,256.81 89.75,258.44 88.77,260.1 87.85,261.8 86.98,263.52 86.18,265.28 85.43,267.06 84.75,268.87 84.13,270.69 83.57,272.54 83.07,274.41 82.64,276.29 82.27,278.18 84.76,278.62 87.24,279.06 89.72,279.5 92.2,279.93 94.68,280.37 97.16,280.81 99.64,281.25 102.13,281.69 104.61,282.12 104.94,280.46 105.36,278.82 105.86,277.2 106.44,275.6 107.1,274.04 107.84,272.51 108.65,271.02 109.53,269.57 110.49,268.17 111.51,266.82 112.6,265.52 113.76,264.28 114.97,263.09 116.24,261.97 117.57,260.91 118.94,259.92 120.37,259 121.84,258.16 123.35,257.38 124.89,256.68 126.47,256.06 128.08,255.52 129.71,255.07 131.37,254.69 133.04,254.39 134.72,254.18 136.41,254.06 138.11,254.01 138.11,251.49 138.11,248.97 138.11,246.45 138.11,243.93 138.11,241.42 138.11,238.9 138.11,236.38 138.11,233.86 138.11,231.34 136.18,231.37 134.25,231.47 132.32,231.63 "
         style="fill:#009e73;stroke:none;stroke-width:1.07;stroke-linecap:butt;stroke-linejoin:miter"
         id="polygon40" />
      <polygon
         points="81.46,285.82 81.41,287.74 81.44,289.66 81.52,291.58 81.68,293.5 81.89,295.41 82.18,297.31 82.52,299.2 82.93,301.07 83.41,302.93 83.94,304.78 84.54,306.6 85.2,308.41 85.92,310.19 86.7,311.95 87.54,313.67 88.44,315.37 89.4,317.04 90.41,318.67 91.47,320.27 92.59,321.83 93.76,323.36 94.99,324.84 96.26,326.28 97.58,327.67 98.95,329.02 100.36,330.33 101.81,331.58 103.31,332.79 104.84,333.94 106.42,335.04 108.03,336.09 109.68,337.08 111.35,338.01 113.06,338.89 114.8,339.71 116.57,340.47 118.36,341.17 120.17,341.81 122,342.39 123.85,342.9 125.72,343.35 127.6,343.74 129.49,344.06 131.4,344.32 133.31,344.52 135.23,344.65 137.15,344.71 139.07,344.71 140.99,344.65 142.9,344.52 144.81,344.32 146.72,344.06 148.61,343.74 150.49,343.35 152.36,342.9 154.21,342.39 156.04,341.81 157.86,341.17 159.65,340.47 161.41,339.71 163.15,338.89 164.86,338.01 166.54,337.08 168.18,336.09 169.79,335.04 171.37,333.94 172.9,332.79 174.4,331.58 175.85,330.33 177.27,329.02 178.63,327.67 179.95,326.28 181.22,324.84 182.45,323.36 183.62,321.83 184.74,320.27 185.8,318.67 186.81,317.04 187.77,315.37 188.67,313.67 189.51,311.95 190.29,310.19 191.01,308.41 191.67,306.6 192.27,304.78 192.8,302.93 193.28,301.07 193.69,299.2 194.03,297.31 194.32,295.41 194.53,293.5 194.69,291.58 194.78,289.66 194.8,287.74 194.76,285.82 194.65,283.9 194.48,281.99 194.24,280.08 193.94,278.18 191.46,278.62 188.97,279.06 186.49,279.5 184.01,279.93 181.53,280.37 179.05,280.81 176.57,281.25 174.09,281.69 171.6,282.12 171.86,283.8 172.03,285.49 172.11,287.18 172.11,288.88 172.03,290.57 171.86,292.26 171.6,293.94 171.27,295.6 170.85,297.24 170.35,298.86 169.77,300.46 169.11,302.02 168.38,303.55 167.56,305.04 166.68,306.48 165.72,307.89 164.7,309.24 163.61,310.54 162.46,311.78 161.24,312.96 159.97,314.09 158.64,315.14 157.27,316.13 155.84,317.05 154.37,317.9 152.86,318.68 151.32,319.37 149.74,319.99 148.13,320.53 146.5,320.99 144.85,321.37 143.18,321.67 141.49,321.88 139.8,322 138.11,322.05 136.41,322 134.72,321.88 133.04,321.67 131.37,321.37 129.71,320.99 128.08,320.53 126.47,319.99 124.89,319.37 123.35,318.68 121.84,317.9 120.37,317.05 118.94,316.13 117.57,315.14 116.24,314.09 114.97,312.96 113.76,311.78 112.6,310.54 111.51,309.24 110.49,307.89 109.53,306.48 108.65,305.04 107.84,303.55 107.1,302.02 106.44,300.46 105.86,298.86 105.36,297.24 104.94,295.6 104.61,293.94 104.35,292.26 104.19,290.57 104.1,288.88 104.1,287.18 104.19,285.49 104.35,283.8 104.61,282.12 102.13,281.69 99.64,281.25 97.16,280.81 94.68,280.37 92.2,279.93 89.72,279.5 87.24,279.06 84.76,278.62 82.27,278.18 81.97,280.08 81.74,281.99 81.56,283.9 "
         style="fill:#56b4e9;stroke:none;stroke-width:1.07;stroke-linecap:butt;stroke-linejoin:miter"
         id="polygon41" />
      <polygon
         points="192.02,270.51 191.38,268.64 190.67,266.79 189.9,264.97 189.06,263.18 188.16,261.41 187.2,259.68 186.18,257.99 185.11,256.33 183.97,254.71 182.78,253.13 181.54,251.59 180.24,250.09 178.89,248.65 177.49,247.25 176.04,245.9 174.55,244.6 172.93,246.53 171.31,248.46 169.69,250.39 168.07,252.32 166.45,254.25 164.83,256.18 163.21,258.11 161.59,260.04 159.97,261.97 161.24,263.09 162.46,264.28 163.61,265.52 164.7,266.82 165.72,268.17 166.68,269.57 167.56,271.02 168.38,272.51 169.11,274.04 169.77,275.6 170.35,277.2 170.85,278.82 171.27,280.46 171.6,282.12 174.09,281.69 176.57,281.25 179.05,280.81 181.53,280.37 184.01,279.93 186.49,279.5 188.97,279.06 191.46,278.62 193.94,278.18 193.56,276.24 193.11,274.31 192.6,272.4 "
         style="fill:#f5c710;stroke:none;stroke-width:1.07;stroke-linecap:butt;stroke-linejoin:miter"
         id="polygon42" />
      <polygon
         points="168.15,239.95 166.45,238.93 164.72,237.97 162.96,237.07 161.16,236.24 159.34,235.46 157.5,234.76 155.62,234.11 153.73,233.53 151.82,233.02 149.89,232.58 147.95,232.2 146,231.89 144.03,231.65 142.06,231.47 140.08,231.37 138.11,231.34 138.11,233.86 138.11,236.38 138.11,238.9 138.11,241.42 138.11,243.93 138.11,246.45 138.11,248.97 138.11,251.49 138.11,254.01 139.8,254.06 141.49,254.18 143.18,254.39 144.85,254.69 146.5,255.07 148.13,255.52 149.74,256.06 151.32,256.68 152.86,257.38 154.37,258.16 155.84,259 157.27,259.92 158.64,260.91 159.97,261.97 161.59,260.04 163.21,258.11 164.83,256.18 166.45,254.25 168.07,252.32 169.69,250.39 171.31,248.46 172.93,246.53 174.55,244.6 173.01,243.35 171.43,242.16 169.81,241.03 "
         style="fill:#888888;stroke:none;stroke-width:1.07;stroke-linecap:butt;stroke-linejoin:miter"
         id="polygon43" />
    </g>
    <g
       clip-path="url(#cpMC4wMHw2MTcuMDB8MC4wMHwzODkuMDA=)"
       id="g44">
      <text
         x="138.11"
         y="216.67"
         text-anchor="middle"
         style="font-size:7px;font-family:Arial"
         textLength="101.12"
         lengthAdjust="spacingAndGlyphs"
         id="text43">Fisheries-Independent Approach</text>
    </g>
    <defs
       id="defs44">
      <clipPath
         id="cpMjA4Ljk3fDM1MC43MHwyMTcuMTZ8MzU4Ljkw">
        <rect
           x="208.97"
           y="217.16"
           width="141.73"
           height="141.73"
           id="rect44" />
      </clipPath>
    </defs>
    <g
       clip-path="url(#cpMjA4Ljk3fDM1MC43MHwyMTcuMTZ8MzU4Ljkw)"
       id="g45" />
    <g
       clip-path="url(#cpMC4wMHw2MTcuMDB8MC4wMHwzODkuMDA=)"
       id="g46" />
    <g
       clip-path="url(#cpMjA4Ljk3fDM1MC43MHwyMTcuMTZ8MzU4Ljkw)"
       id="g47" />
    <g
       clip-path="url(#cpMC4wMHw2MTcuMDB8MC4wMHwzODkuMDA=)"
       id="g48" />
    <defs
       id="defs48">
      <clipPath
         id="cpMjA4Ljk3fDM1MC43MHwyMDUuNjh8MzU4Ljkw">
        <rect
           x="208.97"
           y="205.67999"
           width="141.73"
           height="153.21001"
           id="rect48" />
      </clipPath>
    </defs>
    <g
       clip-path="url(#cpMjA4Ljk3fDM1MC43MHwyMDUuNjh8MzU4Ljkw)"
       id="g49">
      <rect
         x="208.97"
         y="205.67999"
         width="141.73"
         height="153.21001"
         style="stroke:none;stroke-width:0"
         id="rect49" />
    </g>
    <g
       clip-path="url(#cpMC4wMHw2MTcuMDB8MC4wMHwzODkuMDA=)"
       id="g50" />
    <g
       clip-path="url(#cpMjA4Ljk3fDM1MC43MHwyMTcuMTZ8MzU4Ljkw)"
       id="g52">
      <polygon
         points="271.95,231.89 269.99,232.2 268.05,232.58 266.12,233.02 264.21,233.53 262.32,234.11 260.45,234.76 258.6,235.46 256.78,236.24 254.99,237.07 253.22,237.97 251.49,238.93 249.8,239.95 248.14,241.03 246.51,242.16 244.93,243.35 243.4,244.6 245.02,246.53 246.64,248.46 248.26,250.39 249.88,252.32 251.49,254.25 253.11,256.18 254.73,258.11 256.35,260.04 257.97,261.97 259.3,260.91 260.68,259.92 262.1,259 263.57,258.16 265.08,257.38 266.63,256.68 268.2,256.06 269.81,255.52 271.44,255.07 273.1,254.69 274.77,254.39 276.45,254.18 278.14,254.06 279.84,254.01 279.84,251.49 279.84,248.97 279.84,246.45 279.84,243.93 279.84,241.42 279.84,238.9 279.84,236.38 279.84,233.86 279.84,231.34 277.86,231.37 275.88,231.47 273.91,231.65 "
         style="fill:#009e73;stroke:none;stroke-width:1.07;stroke-linecap:butt;stroke-linejoin:miter"
         id="polygon50" />
      <polygon
         points="237.86,249.92 236.59,251.37 235.38,252.85 234.21,254.38 233.1,255.95 232.04,257.55 231.03,259.19 230.08,260.86 229.19,262.56 228.36,264.29 227.58,266.05 226.87,267.83 226.21,269.64 225.62,271.46 225.09,273.31 224.62,275.17 224.22,277.05 223.88,278.94 223.6,280.84 223.39,282.75 223.24,284.67 223.16,286.59 223.15,288.51 223.2,290.43 223.31,292.35 223.49,294.26 223.73,296.17 224.04,298.06 224.41,299.95 224.85,301.82 225.35,303.67 225.91,305.51 226.53,307.33 227.22,309.12 227.96,310.9 228.77,312.64 229.63,314.36 230.55,316.04 231.53,317.7 232.56,319.32 233.65,320.9 234.79,322.45 235.98,323.95 237.22,325.42 238.51,326.84 239.85,328.22 241.24,329.55 242.67,330.83 244.14,332.07 245.65,333.25 247.2,334.39 248.79,335.47 250.42,336.49 252.08,337.46 253.77,338.37 255.49,339.23 257.24,340.02 259.01,340.76 260.81,341.43 262.63,342.05 264.47,342.6 266.33,343.09 268.2,343.52 270.09,343.88 271.99,344.18 273.89,344.41 275.81,344.58 277.73,344.68 279.65,344.72 281.57,344.7 283.49,344.6 285.4,344.45 287.31,344.23 289.21,343.94 291.1,343.59 292.97,343.18 294.84,342.7 296.68,342.16 298.5,341.56 300.31,340.9 302.09,340.17 303.84,339.39 305.57,338.55 307.26,337.65 308.93,336.69 310.56,335.68 312.16,334.61 313.72,333.48 315.24,332.31 316.72,331.09 318.16,329.81 319.55,328.49 320.9,327.12 322.2,325.71 323.45,324.25 324.65,322.75 325.81,321.21 326.9,319.64 327.95,318.02 328.94,316.38 326.75,315.12 324.57,313.86 322.39,312.6 320.21,311.34 318.03,310.08 315.84,308.82 313.66,307.56 311.48,306.3 309.3,305.04 308.41,306.48 307.46,307.89 306.43,309.24 305.34,310.54 304.19,311.78 302.97,312.96 301.7,314.09 300.38,315.14 299,316.13 297.58,317.05 296.11,317.9 294.6,318.68 293.05,319.37 291.47,319.99 289.86,320.53 288.23,320.99 286.58,321.37 284.91,321.67 283.22,321.88 281.53,322 279.84,322.05 278.14,322 276.45,321.88 274.77,321.67 273.1,321.37 271.44,320.99 269.81,320.53 268.2,319.99 266.63,319.37 265.08,318.68 263.57,317.9 262.1,317.05 260.68,316.13 259.3,315.14 257.97,314.09 256.7,312.96 255.49,311.78 254.33,310.54 253.24,309.24 252.22,307.89 251.26,306.48 250.38,305.04 249.57,303.55 248.83,302.02 248.17,300.46 247.59,298.86 247.09,297.24 246.68,295.6 246.34,293.94 246.09,292.26 245.92,290.57 245.83,288.88 245.83,287.18 245.92,285.49 246.09,283.8 246.34,282.12 246.68,280.46 247.09,278.82 247.59,277.2 248.17,275.6 248.83,274.04 249.57,272.51 250.38,271.02 251.26,269.57 252.22,268.17 253.24,266.82 254.33,265.52 255.49,264.28 256.7,263.09 257.97,261.97 256.35,260.04 254.73,258.11 253.11,256.18 251.49,254.25 249.88,252.32 248.26,250.39 246.64,248.46 245.02,246.53 243.4,244.6 241.95,245.86 240.54,247.17 239.18,248.52 "
         style="fill:#56b4e9;stroke:none;stroke-width:1.07;stroke-linecap:butt;stroke-linejoin:miter"
         id="polygon51" />
      <polygon
         points="332.35,309.39 333.06,307.57 333.7,305.73 334.27,303.87 334.78,302 335.23,300.1 335.61,298.19 335.93,296.27 336.18,294.34 336.36,292.4 336.48,290.46 336.53,288.52 336.51,286.57 336.43,284.62 336.28,282.68 336.06,280.75 335.78,278.82 335.43,276.91 335.02,275.01 334.54,273.12 333.99,271.25 333.38,269.4 332.71,267.58 331.98,265.77 331.18,264 330.33,262.25 329.41,260.53 328.44,258.84 327.41,257.19 326.32,255.58 325.18,254 323.99,252.46 322.74,250.97 321.44,249.52 320.1,248.11 318.7,246.76 317.26,245.45 315.78,244.19 314.25,242.98 312.69,241.82 311.08,240.72 309.44,239.68 307.76,238.69 306.05,237.76 304.31,236.89 302.54,236.08 300.74,235.33 298.92,234.65 297.08,234.02 295.22,233.46 293.33,232.97 291.43,232.54 289.52,232.17 287.6,231.87 285.67,231.64 283.73,231.47 281.78,231.37 279.84,231.34 279.84,233.86 279.84,236.38 279.84,238.9 279.84,241.42 279.84,243.93 279.84,246.45 279.84,248.97 279.84,251.49 279.84,254.01 281.53,254.06 283.22,254.18 284.91,254.39 286.58,254.69 288.23,255.07 289.86,255.52 291.47,256.06 293.05,256.68 294.6,257.38 296.11,258.16 297.58,259 299,259.92 300.38,260.91 301.7,261.97 302.97,263.09 304.19,264.28 305.34,265.52 306.43,266.82 307.46,268.17 308.41,269.57 309.3,271.02 310.11,272.51 310.84,274.04 311.5,275.6 312.08,277.2 312.58,278.82 313,280.46 313.34,282.12 313.59,283.8 313.76,285.49 313.84,287.18 313.84,288.88 313.76,290.57 313.59,292.26 313.34,293.94 313,295.6 312.58,297.24 312.08,298.86 311.5,300.46 310.84,302.02 310.11,303.55 309.3,305.04 311.48,306.3 313.66,307.56 315.84,308.82 318.03,310.08 320.21,311.34 322.39,312.6 324.57,313.86 326.75,315.12 328.94,316.38 329.88,314.67 330.76,312.94 331.59,311.18 "
         style="fill:#f5c710;stroke:none;stroke-width:1.07;stroke-linecap:butt;stroke-linejoin:miter"
         id="polygon52" />
    </g>
    <g
       clip-path="url(#cpMC4wMHw2MTcuMDB8MC4wMHwzODkuMDA=)"
       id="g73">
      <text
         x="279.84"
         y="216.67"
         text-anchor="middle"
         style="font-size:7px;font-family:Arial"
         textLength="101.84"
         lengthAdjust="spacingAndGlyphs"
         id="text52">Importance of Stock Assessment</text>
      <rect
         x="395.74258"
         y="249.57384"
         width="19.950562"
         height="19.950562"
         style="fill:#009e73;stroke:none;stroke-width:2.15193;stroke-linecap:butt;stroke-linejoin:miter"
         id="rect61" />
      <rect
         x="395.74258"
         y="272.38022"
         width="19.950562"
         height="19.950562"
         style="fill:#56b4e9;stroke:none;stroke-width:2.15193;stroke-linecap:butt;stroke-linejoin:miter"
         id="rect62" />
      <rect
         x="395.74258"
         y="295.18658"
         width="19.950562"
         height="19.950562"
         style="fill:#f5c710;stroke:none;stroke-width:2.15193;stroke-linecap:butt;stroke-linejoin:miter"
         id="rect63" />
      <rect
         x="395.74258"
         y="317.99304"
         width="19.950562"
         height="19.950562"
         style="fill:#888888;stroke:none;stroke-width:2.15193;stroke-linecap:butt;stroke-linejoin:miter"
         id="rect64" />
      <text
         x="520.21002"
         y="225.08"
         style="font-size:7px;font-family:Arial"
         textLength="20.219999"
         lengthAdjust="spacingAndGlyphs"
         id="text64"
         transform="matrix(2.0111453,0,0,2.0111453,-618.07581,-188.07148)">Expert</text>
      <text
         x="520.21002"
         y="236.42"
         style="font-size:7px;font-family:Arial"
         textLength="17.110001"
         lengthAdjust="spacingAndGlyphs"
         id="text65"
         transform="matrix(2.0111453,0,0,2.0111453,-618.07581,-188.07148)">Good</text>
      <text
         x="520.21002"
         y="247.75"
         style="font-size:7px;font-family:Arial"
         textLength="29.549999"
         lengthAdjust="spacingAndGlyphs"
         id="text66"
         transform="matrix(2.0111453,0,0,2.0111453,-618.07581,-188.07148)">Moderate</text>
      <text
         x="520.21002"
         y="259.09"
         style="font-size:7px;font-family:Arial"
         textLength="17.120001"
         lengthAdjust="spacingAndGlyphs"
         id="text67"
         transform="matrix(2.0111453,0,0,2.0111453,-618.07581,-188.07148)">Basic</text>
    </g>
  </g>
</svg>
