<?xml version="1.0" encoding="UTF-8" standalone="no"?>
<svg
   width="467.82779pt"
   height="304.01703pt"
   viewBox="0 0 467.82779 304.01702"
   version="1.1"
   id="svg63"
   sodipodi:docname="ratings_data_collection.svg"
   inkscape:version="1.4 (86a8ad7, 2024-10-11)"
   xmlns:inkscape="http://www.inkscape.org/namespaces/inkscape"
   xmlns:sodipodi="http://sodipodi.sourceforge.net/DTD/sodipodi-0.dtd"
   xmlns="http://www.w3.org/2000/svg"
   xmlns:svg="http://www.w3.org/2000/svg">
  <defs
     id="defs63" />
  <sodipodi:namedview
     id="namedview63"
     pagecolor="#ffffff"
     bordercolor="#000000"
     borderopacity="0.25"
     inkscape:showpageshadow="2"
     inkscape:pageopacity="0.0"
     inkscape:pagecheckerboard="0"
     inkscape:deskcolor="#d1d1d1"
     inkscape:document-units="pt"
     inkscape:zoom="1.6591561"
     inkscape:cx="228.12803"
     inkscape:cy="131.09074"
     inkscape:window-width="2560"
     inkscape:window-height="1494"
     inkscape:window-x="-11"
     inkscape:window-y="-11"
     inkscape:window-maximized="1"
     inkscape:current-layer="g62" />
  <g
     class="svglite"
     id="g63"
     transform="translate(39.779257,-11.752963)">
    <defs
       id="defs1">
      <style
         type="text/css"
         id="style1"><![CDATA[
    .svglite line, .svglite polyline, .svglite polygon, .svglite path, .svglite rect, .svglite circle {
      fill: none;
      stroke: #000000;
      stroke-linecap: round;
      stroke-linejoin: round;
      stroke-miterlimit: 10.00;
    }
    .svglite text {
      white-space: pre;
    }
    .svglite g.glyphgroup path {
      fill: inherit;
      stroke: none;
    }
  ]]></style>
    </defs>
    <defs
       id="defs2">
      <clipPath
         id="cpMC4wMHw2MTcuMDB8MC4wMHwzODkuMDA=">
        <rect
           x="0"
           y="0"
           width="617"
           height="389"
           id="rect2" />
      </clipPath>
    </defs>
    <g
       clip-path="url(#cpMC4wMHw2MTcuMDB8MC4wMHwzODkuMDA=)"
       id="g2" />
    <defs
       id="defs3">
      <clipPath
         id="cpNjEuNzZ8NTU1LjI0fDI0LjYzfDM2NC4zNw==">
        <rect
           x="61.759998"
           y="24.629999"
           width="493.48001"
           height="339.75"
           id="rect3" />
      </clipPath>
    </defs>
    <g
       clip-path="url(#cpMC4wMHw2MTcuMDB8MC4wMHwzODkuMDA=)"
       id="g5" />
    <defs
       id="defs5">
      <clipPath
         id="cpNjcuMjR8NDkyLjQ0fDYzLjk1fDM1OC45MA==">
        <rect
           x="67.239998"
           y="63.950001"
           width="425.20001"
           height="294.94"
           id="rect5" />
      </clipPath>
    </defs>
    <g
       clip-path="url(#cpNjcuMjR8NDkyLjQ0fDYzLjk1fDM1OC45MA==)"
       id="g6" />
    <g
       clip-path="url(#cpMC4wMHw2MTcuMDB8MC4wMHwzODkuMDA=)"
       id="g7" />
    <defs
       id="defs7">
      <clipPath
         id="cpNjcuMjR8MjA4Ljk3fDYzLjk1fDIwNS42OA==">
        <rect
           x="67.239998"
           y="63.950001"
           width="141.73"
           height="141.73"
           id="rect7" />
      </clipPath>
    </defs>
    <g
       clip-path="url(#cpNjcuMjR8MjA4Ljk3fDYzLjk1fDIwNS42OA==)"
       id="g8" />
    <g
       clip-path="url(#cpMC4wMHw2MTcuMDB8MC4wMHwzODkuMDA=)"
       id="g9" />
    <g
       clip-path="url(#cpNjcuMjR8MjA4Ljk3fDYzLjk1fDIwNS42OA==)"
       id="g10" />
    <g
       clip-path="url(#cpMC4wMHw2MTcuMDB8MC4wMHwzODkuMDA=)"
       id="g11" />
    <defs
       id="defs11">
      <clipPath
         id="cpNjcuMjR8MjA4Ljk3fDUyLjQ3fDIwNS42OA==">
        <rect
           x="67.239998"
           y="52.470001"
           width="141.73"
           height="153.21001"
           id="rect11" />
      </clipPath>
    </defs>
    <g
       clip-path="url(#cpNjcuMjR8MjA4Ljk3fDUyLjQ3fDIwNS42OA==)"
       id="g12"
       transform="translate(-100.35222,-30.738519)">
      <rect
         x="67.239998"
         y="52.470001"
         width="141.73"
         height="153.21001"
         style="stroke:none;stroke-width:0"
         id="rect12" />
    </g>
    <g
       clip-path="url(#cpMC4wMHw2MTcuMDB8MC4wMHwzODkuMDA=)"
       id="g13" />
    <g
       clip-path="url(#cpNjcuMjR8MjA4Ljk3fDYzLjk1fDIwNS42OA==)"
       id="g16"
       transform="translate(-100.35222,-30.738519)">
      <polygon
         points="138.11,83.16 138.11,80.64 138.11,78.12 136.13,78.16 134.15,78.26 132.18,78.44 130.22,78.68 128.26,78.99 126.32,79.36 124.39,79.81 122.48,80.32 120.59,80.9 118.72,81.54 116.87,82.25 115.05,83.03 113.25,83.86 111.49,84.76 109.76,85.72 108.06,86.74 106.4,87.82 104.78,88.95 103.2,90.14 101.66,91.39 103.28,93.32 104.9,95.25 106.52,97.18 108.14,99.11 109.76,101.04 111.38,102.97 113,104.9 114.62,106.83 116.24,108.76 117.57,107.7 118.94,106.71 120.37,105.79 121.84,104.94 123.35,104.17 124.89,103.47 126.47,102.85 128.08,102.31 129.71,101.85 131.37,101.48 133.04,101.18 134.72,100.97 136.41,100.84 138.11,100.8 138.11,98.28 138.11,95.76 138.11,93.24 138.11,90.72 138.11,88.2 138.11,85.68 "
         style="fill:#009e73;stroke:none;stroke-width:1.07;stroke-linecap:butt;stroke-linejoin:miter"
         id="polygon13" />
      <polygon
         points="104.9,95.25 103.28,93.32 101.66,91.39 100.21,92.65 98.79,93.97 97.43,95.33 96.1,96.74 94.83,98.19 93.61,99.69 92.44,101.22 91.32,102.8 90.26,104.41 89.25,106.05 88.3,107.73 87.41,109.45 86.57,111.19 85.8,112.96 85.08,114.75 84.43,116.57 83.84,118.4 83.31,120.26 82.85,122.14 82.45,124.02 82.11,125.93 81.84,127.84 81.64,129.76 81.5,131.68 81.43,133.61 81.42,135.54 81.48,137.47 81.6,139.4 81.79,141.32 82.04,143.23 82.36,145.14 82.74,147.03 83.19,148.91 83.7,150.77 84.28,152.61 84.91,154.43 85.61,156.23 86.37,158.01 87.19,159.76 88.07,161.48 89.01,163.16 91.19,161.9 93.37,160.64 95.55,159.38 97.74,158.12 99.92,156.86 102.1,155.6 104.28,154.35 106.47,153.09 108.65,151.83 107.84,150.34 107.1,148.81 106.44,147.24 105.86,145.65 105.36,144.03 104.94,142.39 104.61,140.72 104.35,139.05 104.19,137.36 104.1,135.67 104.1,133.97 104.19,132.28 104.35,130.59 104.61,128.91 104.94,127.25 105.36,125.6 105.86,123.98 106.44,122.39 107.1,120.83 107.84,119.3 108.65,117.81 109.53,116.36 110.49,114.96 111.51,113.61 112.6,112.31 113.76,111.07 114.97,109.88 116.24,108.76 114.62,106.83 113,104.9 111.38,102.97 109.76,101.04 108.14,99.11 106.52,97.18 "
         style="fill:#56b4e9;stroke:none;stroke-width:1.07;stroke-linecap:butt;stroke-linejoin:miter"
         id="polygon14" />
      <polygon
         points="93.37,160.64 91.19,161.9 89.01,163.16 90.01,164.83 91.07,166.47 92.18,168.06 93.35,169.62 94.57,171.13 95.84,172.61 97.17,174.04 98.54,175.42 99.95,176.75 101.42,178.04 102.92,179.27 104.47,180.45 106.05,181.58 107.68,182.65 109.34,183.67 111.03,184.63 112.76,185.53 114.51,186.37 116.3,187.15 118.11,187.87 119.94,188.52 121.79,189.11 123.67,189.64 125.56,190.1 127.46,190.5 129.38,190.84 131.31,191.1 133.25,191.3 135.19,191.44 137.13,191.5 139.08,191.5 141.02,191.44 142.97,191.3 144.9,191.1 146.83,190.84 148.75,190.5 150.65,190.1 152.54,189.64 154.42,189.11 156.27,188.52 158.1,187.87 159.91,187.15 161.7,186.37 163.45,185.53 165.18,184.63 166.87,183.67 168.53,182.65 170.16,181.58 171.74,180.45 173.29,179.27 174.8,178.04 176.26,176.75 177.67,175.42 179.04,174.04 180.37,172.61 181.64,171.13 182.86,169.62 184.03,168.06 185.14,166.47 186.2,164.83 187.2,163.16 185.02,161.9 182.84,160.64 180.66,159.38 178.47,158.12 176.29,156.86 174.11,155.6 171.93,154.35 169.75,153.09 167.56,151.83 166.68,153.27 165.72,154.67 164.7,156.03 163.61,157.33 162.46,158.57 161.24,159.75 159.97,160.88 158.64,161.93 157.27,162.92 155.84,163.84 154.37,164.69 152.86,165.46 151.32,166.16 149.74,166.78 148.13,167.32 146.5,167.78 144.85,168.16 143.18,168.45 141.49,168.66 139.8,168.79 138.11,168.83 136.41,168.79 134.72,168.66 133.04,168.45 131.37,168.16 129.71,167.78 128.08,167.32 126.47,166.78 124.89,166.16 123.35,165.46 121.84,164.69 120.37,163.84 118.94,162.92 117.57,161.93 116.24,160.88 114.97,159.75 113.76,158.57 112.6,157.33 111.51,156.03 110.49,154.67 109.53,153.27 108.65,151.83 106.47,153.09 104.28,154.35 102.1,155.6 99.92,156.86 97.74,158.12 95.55,159.38 "
         style="fill:#f5c710;stroke:none;stroke-width:1.07;stroke-linecap:butt;stroke-linejoin:miter"
         id="polygon15" />
      <polygon
         points="182.84,160.64 185.02,161.9 187.2,163.16 188.15,161.46 189.03,159.73 189.86,157.97 190.62,156.18 191.32,154.36 191.96,152.52 192.54,150.66 193.05,148.78 193.5,146.89 193.88,144.98 194.2,143.06 194.45,141.13 194.63,139.19 194.75,137.25 194.8,135.3 194.78,133.36 194.7,131.41 194.55,129.47 194.33,127.54 194.05,125.61 193.7,123.7 193.28,121.8 192.8,119.91 192.26,118.04 191.65,116.19 190.98,114.36 190.25,112.56 189.45,110.78 188.6,109.04 187.68,107.32 186.71,105.63 185.68,103.98 184.59,102.37 183.45,100.79 182.26,99.25 181.01,97.76 179.71,96.31 178.37,94.9 176.97,93.54 175.53,92.23 174.05,90.97 172.52,89.77 170.95,88.61 169.35,87.51 167.71,86.47 166.03,85.48 164.32,84.55 162.58,83.68 160.81,82.87 159.01,82.12 157.19,81.43 155.35,80.81 153.48,80.25 151.6,79.75 149.7,79.32 147.79,78.96 145.87,78.66 143.94,78.43 142,78.26 140.05,78.16 138.11,78.12 138.11,80.64 138.11,83.16 138.11,85.68 138.11,88.2 138.11,90.72 138.11,93.24 138.11,95.76 138.11,98.28 138.11,100.8 139.8,100.84 141.49,100.97 143.18,101.18 144.85,101.48 146.5,101.85 148.13,102.31 149.74,102.85 151.32,103.47 152.86,104.17 154.37,104.94 155.84,105.79 157.27,106.71 158.64,107.7 159.97,108.76 161.24,109.88 162.46,111.07 163.61,112.31 164.7,113.61 165.72,114.96 166.68,116.36 167.56,117.81 168.38,119.3 169.11,120.83 169.77,122.39 170.35,123.98 170.85,125.6 171.27,127.25 171.6,128.91 171.86,130.59 172.03,132.28 172.11,133.97 172.11,135.67 172.03,137.36 171.86,139.05 171.6,140.72 171.27,142.39 170.85,144.03 170.35,145.65 169.77,147.24 169.11,148.81 168.38,150.34 167.56,151.83 169.75,153.09 171.93,154.35 174.11,155.6 176.29,156.86 178.47,158.12 180.66,159.38 "
         style="fill:#888888;stroke:none;stroke-width:1.07;stroke-linecap:butt;stroke-linejoin:miter"
         id="polygon16" />
    </g>
    <g
       clip-path="url(#cpMC4wMHw2MTcuMDB8MC4wMHwzODkuMDA=)"
       id="g17"
       transform="translate(-100.35222,-30.738519)">
      <text
         x="138.11"
         y="63.459999"
         text-anchor="middle"
         style="font-size:7px;font-family:Arial"
         textLength="61.110001"
         lengthAdjust="spacingAndGlyphs"
         id="text16">Biological Sampling</text>
    </g>
    <defs
       id="defs17">
      <clipPath
         id="cpMjA4Ljk3fDM1MC43MHw2My45NXwyMDUuNjg=">
        <rect
           x="208.97"
           y="63.950001"
           width="141.73"
           height="141.73"
           id="rect17" />
      </clipPath>
    </defs>
    <g
       clip-path="url(#cpMjA4Ljk3fDM1MC43MHw2My45NXwyMDUuNjg=)"
       id="g18" />
    <g
       clip-path="url(#cpMC4wMHw2MTcuMDB8MC4wMHwzODkuMDA=)"
       id="g19" />
    <g
       clip-path="url(#cpMjA4Ljk3fDM1MC43MHw2My45NXwyMDUuNjg=)"
       id="g20" />
    <g
       clip-path="url(#cpMC4wMHw2MTcuMDB8MC4wMHwzODkuMDA=)"
       id="g21" />
    <defs
       id="defs21">
      <clipPath
         id="cpMjA4Ljk3fDM1MC43MHw1Mi40N3wyMDUuNjg=">
        <rect
           x="208.97"
           y="52.470001"
           width="141.73"
           height="153.21001"
           id="rect21" />
      </clipPath>
    </defs>
    <g
       clip-path="url(#cpMjA4Ljk3fDM1MC43MHw1Mi40N3wyMDUuNjg=)"
       id="g22"
       transform="translate(-100.35222,-30.738519)">
      <rect
         x="208.97"
         y="52.470001"
         width="141.73"
         height="153.21001"
         style="stroke:none;stroke-width:0"
         id="rect22" />
    </g>
    <g
       clip-path="url(#cpMC4wMHw2MTcuMDB8MC4wMHwzODkuMDA=)"
       id="g23" />
    <g
       clip-path="url(#cpMjA4Ljk3fDM1MC43MHw2My45NXwyMDUuNjg=)"
       id="g26"
       transform="translate(-100.35222,-30.738519)">
      <polygon
         points="279.84,83.16 279.84,80.64 279.84,78.12 277.86,78.16 275.88,78.26 273.91,78.44 271.95,78.68 269.99,78.99 268.05,79.36 266.12,79.81 264.21,80.32 262.32,80.9 260.45,81.54 258.6,82.25 256.78,83.03 254.99,83.86 253.22,84.76 251.49,85.72 249.8,86.74 248.14,87.82 246.51,88.95 244.93,90.14 243.4,91.39 245.02,93.32 246.64,95.25 248.26,97.18 249.88,99.11 251.49,101.04 253.11,102.97 254.73,104.9 256.35,106.83 257.97,108.76 259.3,107.7 260.68,106.71 262.1,105.79 263.57,104.94 265.08,104.17 266.63,103.47 268.2,102.85 269.81,102.31 271.44,101.85 273.1,101.48 274.77,101.18 276.45,100.97 278.14,100.84 279.84,100.8 279.84,98.28 279.84,95.76 279.84,93.24 279.84,90.72 279.84,88.2 279.84,85.68 "
         style="fill:#009e73;stroke:none;stroke-width:1.07;stroke-linecap:butt;stroke-linejoin:miter"
         id="polygon23" />
      <polygon
         points="246.64,95.25 245.02,93.32 243.4,91.39 241.93,92.66 240.5,93.99 239.12,95.37 237.79,96.79 236.51,98.25 235.28,99.76 234.11,101.31 232.98,102.9 231.92,104.53 230.9,106.19 229.95,107.89 229.05,109.62 228.22,111.37 227.45,113.16 226.73,114.97 226.08,116.81 225.5,118.66 224.97,120.54 224.52,122.43 224.12,124.33 223.8,126.25 223.53,128.18 223.34,130.12 223.21,132.06 223.15,134.01 223.16,135.95 223.23,137.9 223.37,139.84 223.57,141.78 223.85,143.7 224.18,145.62 224.59,147.52 225.06,149.41 225.59,151.28 226.19,153.14 226.85,154.97 227.57,156.78 228.35,158.56 229.2,160.31 230.1,162.03 231.07,163.72 232.09,165.38 233.17,167 234.3,168.59 235.48,170.13 236.72,171.63 238.01,173.09 239.35,174.5 240.74,175.87 242.17,177.19 243.65,178.45 245.16,179.67 246.73,180.84 248.32,181.94 249.96,183 251.63,184 253.34,184.94 255.07,185.82 256.84,186.64 258.63,187.39 260.45,188.09 261.31,185.72 262.17,183.36 263.03,180.99 263.9,178.62 264.76,176.25 265.62,173.89 266.48,171.52 267.34,169.15 268.2,166.78 266.63,166.16 265.08,165.46 263.57,164.69 262.1,163.84 260.68,162.92 259.3,161.93 257.97,160.88 256.7,159.75 255.49,158.57 254.33,157.33 253.24,156.03 252.22,154.67 251.26,153.27 250.38,151.83 249.57,150.34 248.83,148.81 248.17,147.24 247.59,145.65 247.09,144.03 246.68,142.39 246.34,140.72 246.09,139.05 245.92,137.36 245.83,135.67 245.83,133.97 245.92,132.28 246.09,130.59 246.34,128.91 246.68,127.25 247.09,125.6 247.59,123.98 248.17,122.39 248.83,120.83 249.57,119.3 250.38,117.81 251.26,116.36 252.22,114.96 253.24,113.61 254.33,112.31 255.49,111.07 256.7,109.88 257.97,108.76 256.35,106.83 254.73,104.9 253.11,102.97 251.49,101.04 249.88,99.11 248.26,97.18 "
         style="fill:#56b4e9;stroke:none;stroke-width:1.07;stroke-linecap:butt;stroke-linejoin:miter"
         id="polygon24" />
      <polygon
         points="262.17,183.36 261.31,185.72 260.45,188.09 262.29,188.73 264.15,189.3 266.03,189.8 267.92,190.24 269.83,190.62 271.76,190.93 273.69,191.18 275.62,191.35 277.57,191.47 279.51,191.51 281.46,191.49 283.4,191.4 285.34,191.24 287.28,191.02 289.2,190.73 291.12,190.38 293.02,189.96 294.9,189.47 296.77,188.92 298.62,188.31 300.44,187.63 302.24,186.9 304.02,186.1 305.76,185.24 307.48,184.32 309.16,183.34 310.81,182.3 312.42,181.21 314,180.07 315.53,178.87 317.02,177.61 318.47,176.31 319.87,174.96 321.22,173.57 322.53,172.12 323.78,170.63 324.99,169.1 326.14,167.53 327.23,165.93 328.27,164.28 329.26,162.6 330.18,160.89 331.05,159.14 331.85,157.37 332.6,155.57 333.28,153.75 333.89,151.9 334.45,150.04 334.94,148.15 335.37,146.26 335.73,144.34 336.02,142.42 336.25,140.49 336.41,138.55 336.5,136.6 336.53,134.66 336.49,132.71 336.39,130.77 336.21,128.83 335.97,126.9 335.67,124.97 333.19,125.41 330.71,125.85 328.23,126.29 325.74,126.72 323.26,127.16 320.78,127.6 318.3,128.04 315.82,128.47 313.34,128.91 313.59,130.59 313.76,132.28 313.84,133.97 313.84,135.67 313.76,137.36 313.59,139.05 313.34,140.72 313,142.39 312.58,144.03 312.08,145.65 311.5,147.24 310.84,148.81 310.11,150.34 309.3,151.83 308.41,153.27 307.46,154.67 306.43,156.03 305.34,157.33 304.19,158.57 302.97,159.75 301.7,160.88 300.38,161.93 299,162.92 297.58,163.84 296.11,164.69 294.6,165.46 293.05,166.16 291.47,166.78 289.86,167.32 288.23,167.78 286.58,168.16 284.91,168.45 283.22,168.66 281.53,168.79 279.84,168.83 278.14,168.79 276.45,168.66 274.77,168.45 273.1,168.16 271.44,167.78 269.81,167.32 268.2,166.78 267.34,169.15 266.48,171.52 265.62,173.89 264.76,176.25 263.9,178.62 263.03,180.99 "
         style="fill:#f5c710;stroke:none;stroke-width:1.07;stroke-linecap:butt;stroke-linejoin:miter"
         id="polygon25" />
      <polygon
         points="330.71,125.85 333.19,125.41 335.67,124.97 335.3,123.08 334.87,121.2 334.37,119.33 333.82,117.48 333.19,115.65 332.51,113.85 331.77,112.07 330.96,110.31 330.1,108.59 329.18,106.89 328.2,105.23 327.16,103.6 326.07,102 324.93,100.45 323.73,98.93 322.48,97.46 321.19,96.03 319.84,94.64 318.45,93.31 317.01,92.02 315.53,90.77 314.01,89.58 312.45,88.45 310.86,87.36 309.22,86.33 307.56,85.36 305.86,84.45 304.13,83.59 302.37,82.79 300.58,82.06 298.77,81.38 296.94,80.77 295.09,80.22 293.23,79.73 291.34,79.3 289.44,78.94 287.54,78.65 285.62,78.42 283.7,78.26 281.77,78.16 279.84,78.12 279.84,80.64 279.84,83.16 279.84,85.68 279.84,88.2 279.84,90.72 279.84,93.24 279.84,95.76 279.84,98.28 279.84,100.8 281.53,100.84 283.22,100.97 284.91,101.18 286.58,101.48 288.23,101.85 289.86,102.31 291.47,102.85 293.05,103.47 294.6,104.17 296.11,104.94 297.58,105.79 299,106.71 300.38,107.7 301.7,108.76 302.97,109.88 304.19,111.07 305.34,112.31 306.43,113.61 307.46,114.96 308.41,116.36 309.3,117.81 310.11,119.3 310.84,120.83 311.5,122.39 312.08,123.98 312.58,125.6 313,127.25 313.34,128.91 315.82,128.47 318.3,128.04 320.78,127.6 323.26,127.16 325.74,126.72 328.23,126.29 "
         style="fill:#888888;stroke:none;stroke-width:1.07;stroke-linecap:butt;stroke-linejoin:miter"
         id="polygon26" />
    </g>
    <g
       clip-path="url(#cpMC4wMHw2MTcuMDB8MC4wMHwzODkuMDA=)"
       id="g27"
       transform="translate(-100.35222,-30.738519)">
      <text
         x="279.84"
         y="63.459999"
         text-anchor="middle"
         style="font-size:7px;font-family:Arial"
         textLength="67.120003"
         lengthAdjust="spacingAndGlyphs"
         id="text26">Catch and Effort Data</text>
    </g>
    <defs
       id="defs27">
      <clipPath
         id="cpMzUwLjcwfDQ5Mi40NHw2My45NXwyMDUuNjg=">
        <rect
           x="350.70001"
           y="63.950001"
           width="141.73"
           height="141.73"
           id="rect27" />
      </clipPath>
    </defs>
    <g
       clip-path="url(#cpMzUwLjcwfDQ5Mi40NHw2My45NXwyMDUuNjg=)"
       id="g28" />
    <g
       clip-path="url(#cpMC4wMHw2MTcuMDB8MC4wMHwzODkuMDA=)"
       id="g29" />
    <g
       clip-path="url(#cpMzUwLjcwfDQ5Mi40NHw2My45NXwyMDUuNjg=)"
       id="g30" />
    <g
       clip-path="url(#cpMC4wMHw2MTcuMDB8MC4wMHwzODkuMDA=)"
       id="g31" />
    <defs
       id="defs31">
      <clipPath
         id="cpMzUwLjcwfDU0OS43Nnw1Mi40N3wyMDUuNjg=">
        <rect
           x="350.70001"
           y="52.470001"
           width="199.06"
           height="153.21001"
           id="rect31" />
      </clipPath>
    </defs>
    <g
       clip-path="url(#cpMzUwLjcwfDU0OS43Nnw1Mi40N3wyMDUuNjg=)"
       id="g32"
       transform="translate(-100.35222,-30.738519)">
      <rect
         x="350.70001"
         y="52.470001"
         width="199.06"
         height="153.21001"
         style="stroke:none;stroke-width:0"
         id="rect32" />
    </g>
    <g
       clip-path="url(#cpMC4wMHw2MTcuMDB8MC4wMHwzODkuMDA=)"
       id="g33" />
    <g
       clip-path="url(#cpMzUwLjcwfDQ5Mi40NHw2My45NXwyMDUuNjg=)"
       id="g35"
       transform="translate(-100.35222,-30.738519)">
      <polygon
         points="421.57,83.16 421.57,80.64 421.57,78.12 419.65,78.16 417.73,78.25 415.82,78.42 413.91,78.64 412.01,78.94 410.12,79.29 408.25,79.71 406.39,80.2 404.55,80.74 402.72,81.35 400.92,82.02 399.14,82.75 397.39,83.54 395.67,84.39 393.98,85.29 392.31,86.26 390.69,87.28 389.09,88.35 387.54,89.48 386.02,90.66 384.54,91.89 383.11,93.17 381.72,94.49 380.38,95.87 379.08,97.28 377.83,98.75 376.64,100.25 375.49,101.79 374.4,103.37 373.36,104.99 372.38,106.64 371.45,108.32 370.58,110.03 369.77,111.78 369.02,113.54 368.33,115.34 367.7,117.15 367.13,118.99 366.63,120.84 366.19,122.71 365.81,124.59 365.49,126.49 365.24,128.39 365.06,130.31 364.94,132.22 364.88,134.15 364.89,136.07 364.97,137.99 365.11,139.9 365.31,141.81 365.58,143.71 365.91,145.61 366.31,147.49 366.77,149.35 367.3,151.2 367.88,153.03 368.53,154.84 369.24,156.62 370.01,158.38 370.84,160.12 371.72,161.82 372.67,163.5 373.67,165.14 374.72,166.74 375.83,168.31 376.99,169.84 378.2,171.33 379.47,172.78 380.78,174.19 382.13,175.55 383.54,176.86 384.98,178.12 386.47,179.34 388,180.5 389.57,181.61 391.17,182.67 392.81,183.67 394.48,184.62 396.18,185.51 397.92,186.34 399.68,187.11 401.46,187.82 403.27,188.47 405.1,189.06 406.94,189.59 408.81,190.06 410.69,190.46 412.58,190.79 414.48,191.07 416.39,191.27 418.31,191.42 420.23,191.49 422.15,191.51 424.07,191.46 425.98,191.34 427.9,191.16 429.8,190.91 431.7,190.6 433.58,190.22 435.45,189.78 437.31,189.28 439.14,188.72 440.96,188.09 440.1,185.72 439.24,183.36 438.38,180.99 437.51,178.62 436.65,176.25 435.79,173.89 434.93,171.52 434.07,169.15 433.2,166.78 431.6,167.32 429.96,167.78 428.31,168.16 426.64,168.45 424.96,168.66 423.27,168.79 421.57,168.83 419.87,168.79 418.18,168.66 416.5,168.45 414.83,168.16 413.18,167.78 411.54,167.32 409.94,166.78 408.36,166.16 406.81,165.46 405.3,164.69 403.83,163.84 402.41,162.92 401.03,161.93 399.71,160.88 398.43,159.75 397.22,158.57 396.07,157.33 394.98,156.03 393.95,154.67 393,153.27 392.11,151.83 391.3,150.34 390.56,148.81 389.91,147.24 389.33,145.65 388.83,144.03 388.41,142.39 388.07,140.72 387.82,139.05 387.65,137.36 387.57,135.67 387.57,133.97 387.65,132.28 387.82,130.59 388.07,128.91 388.41,127.25 388.83,125.6 389.33,123.98 389.91,122.39 390.56,120.83 391.3,119.3 392.11,117.81 393,116.36 393.95,114.96 394.98,113.61 396.07,112.31 397.22,111.07 398.43,109.88 399.71,108.76 401.03,107.7 402.41,106.71 403.83,105.79 405.3,104.94 406.81,104.17 408.36,103.47 409.94,102.85 411.54,102.31 413.18,101.85 414.83,101.48 416.5,101.18 418.18,100.97 419.87,100.84 421.57,100.8 421.57,98.28 421.57,95.76 421.57,93.24 421.57,90.72 421.57,88.2 421.57,85.68 "
         style="fill:#56b4e9;stroke:none;stroke-width:1.07;stroke-linecap:butt;stroke-linejoin:miter"
         id="polygon33" />
      <polygon
         points="439.24,183.36 440.1,185.72 440.96,188.09 442.76,187.4 444.54,186.65 446.29,185.84 448.02,184.96 449.71,184.04 451.37,183.05 452.99,182.01 454.58,180.91 456.13,179.76 457.64,178.56 459.11,177.3 460.53,176 461.91,174.65 463.25,173.25 464.53,171.81 465.77,170.33 466.95,168.8 468.08,167.24 469.16,165.63 470.18,164 471.14,162.32 472.05,160.62 472.9,158.89 473.69,157.12 474.42,155.34 475.09,153.53 475.69,151.69 476.24,149.84 476.72,147.97 477.13,146.08 477.48,144.19 477.77,142.28 477.99,140.36 478.15,138.44 478.24,136.51 478.26,134.58 478.22,132.65 478.11,130.72 477.94,128.8 477.7,126.88 477.4,124.97 474.92,125.41 472.44,125.85 469.96,126.29 467.48,126.72 464.99,127.16 462.51,127.6 460.03,128.04 457.55,128.47 455.07,128.91 455.32,130.59 455.49,132.28 455.58,133.97 455.58,135.67 455.49,137.36 455.32,139.05 455.07,140.72 454.73,142.39 454.31,144.03 453.81,145.65 453.23,147.24 452.58,148.81 451.84,150.34 451.03,151.83 450.14,153.27 449.19,154.67 448.16,156.03 447.07,157.33 445.92,158.57 444.71,159.75 443.44,160.88 442.11,161.93 440.73,162.92 439.31,163.84 437.84,164.69 436.33,165.46 434.78,166.16 433.2,166.78 434.07,169.15 434.93,171.52 435.79,173.89 436.65,176.25 437.51,178.62 438.38,180.99 "
         style="fill:#f5c710;stroke:none;stroke-width:1.07;stroke-linecap:butt;stroke-linejoin:miter"
         id="polygon34" />
      <polygon
         points="472.44,125.85 474.92,125.41 477.4,124.97 477.03,123.08 476.6,121.2 476.11,119.33 475.55,117.48 474.93,115.65 474.24,113.85 473.5,112.07 472.69,110.31 471.83,108.59 470.91,106.89 469.93,105.23 468.89,103.6 467.8,102 466.66,100.45 465.46,98.93 464.21,97.46 462.92,96.03 461.57,94.64 460.18,93.31 458.75,92.02 457.27,90.77 455.75,89.58 454.19,88.45 452.59,87.36 450.96,86.33 449.29,85.36 447.59,84.45 445.86,83.59 444.1,82.79 442.31,82.06 440.51,81.38 438.68,80.77 436.83,80.22 434.96,79.73 433.07,79.3 431.18,78.94 429.27,78.65 427.35,78.42 425.43,78.26 423.5,78.16 421.57,78.12 421.57,80.64 421.57,83.16 421.57,85.68 421.57,88.2 421.57,90.72 421.57,93.24 421.57,95.76 421.57,98.28 421.57,100.8 423.27,100.84 424.96,100.97 426.64,101.18 428.31,101.48 429.96,101.85 431.6,102.31 433.2,102.85 434.78,103.47 436.33,104.17 437.84,104.94 439.31,105.79 440.73,106.71 442.11,107.7 443.44,108.76 444.71,109.88 445.92,111.07 447.07,112.31 448.16,113.61 449.19,114.96 450.14,116.36 451.03,117.81 451.84,119.3 452.58,120.83 453.23,122.39 453.81,123.98 454.31,125.6 454.73,127.25 455.07,128.91 457.55,128.47 460.03,128.04 462.51,127.6 464.99,127.16 467.48,126.72 469.96,126.29 "
         style="fill:#888888;stroke:none;stroke-width:1.07;stroke-linecap:butt;stroke-linejoin:miter"
         id="polygon35" />
    </g>
    <g
       clip-path="url(#cpMC4wMHw2MTcuMDB8MC4wMHwzODkuMDA=)"
       id="g36"
       transform="translate(-100.35222,-30.738519)">
      <text
         x="421.57001"
         y="63.459999"
         text-anchor="middle"
         style="font-size:7px;font-family:Arial"
         textLength="63"
         lengthAdjust="spacingAndGlyphs"
         id="text35">Data Quality Control</text>
    </g>
    <defs
       id="defs36">
      <clipPath
         id="cpNjcuMjR8MjA4Ljk3fDIxNy4xNnwzNTguOTA=">
        <rect
           x="67.239998"
           y="217.16"
           width="141.73"
           height="141.73"
           id="rect36" />
      </clipPath>
    </defs>
    <g
       clip-path="url(#cpNjcuMjR8MjA4Ljk3fDIxNy4xNnwzNTguOTA=)"
       id="g37" />
    <g
       clip-path="url(#cpMC4wMHw2MTcuMDB8MC4wMHwzODkuMDA=)"
       id="g38" />
    <g
       clip-path="url(#cpNjcuMjR8MjA4Ljk3fDIxNy4xNnwzNTguOTA=)"
       id="g39" />
    <g
       clip-path="url(#cpMC4wMHw2MTcuMDB8MC4wMHwzODkuMDA=)"
       id="g40" />
    <defs
       id="defs40">
      <clipPath
         id="cpNjcuMjR8MjA4Ljk3fDIwNS42OHwzNTguOTA=">
        <rect
           x="67.239998"
           y="205.67999"
           width="141.73"
           height="153.21001"
           id="rect40" />
      </clipPath>
    </defs>
    <g
       clip-path="url(#cpNjcuMjR8MjA4Ljk3fDIwNS42OHwzNTguOTA=)"
       id="g41"
       transform="translate(-100.35222,-30.738519)">
      <rect
         x="67.239998"
         y="205.67999"
         width="141.73"
         height="153.21001"
         style="stroke:none;stroke-width:0"
         id="rect41" />
    </g>
    <g
       clip-path="url(#cpMC4wMHw2MTcuMDB8MC4wMHwzODkuMDA=)"
       id="g42" />
    <g
       clip-path="url(#cpNjcuMjR8MjA4Ljk3fDIxNy4xNnwzNTguOTA=)"
       id="g45"
       transform="translate(-100.35222,-30.738519)">
      <polygon
         points="138.11,236.38 138.11,233.86 138.11,231.34 136.18,231.37 134.25,231.47 132.32,231.63 130.41,231.86 128.5,232.16 126.6,232.52 124.72,232.94 122.85,233.43 121,233.98 119.17,234.59 117.36,235.27 115.58,236 113.82,236.8 112.09,237.66 110.39,238.57 108.72,239.55 107.09,240.57 105.49,241.66 103.93,242.8 102.41,243.99 100.93,245.23 99.49,246.52 98.1,247.86 96.76,249.24 95.46,250.67 94.21,252.15 93.02,253.66 91.87,255.22 90.78,256.81 89.75,258.44 88.77,260.1 87.85,261.8 86.98,263.52 86.18,265.28 85.43,267.06 84.75,268.87 84.13,270.69 83.57,272.54 83.07,274.41 82.64,276.29 82.27,278.18 84.76,278.62 87.24,279.06 89.72,279.5 92.2,279.93 94.68,280.37 97.16,280.81 99.64,281.25 102.13,281.69 104.61,282.12 104.94,280.46 105.36,278.82 105.86,277.2 106.44,275.6 107.1,274.04 107.84,272.51 108.65,271.02 109.53,269.57 110.49,268.17 111.51,266.82 112.6,265.52 113.76,264.28 114.97,263.09 116.24,261.97 117.57,260.91 118.94,259.92 120.37,259 121.84,258.16 123.35,257.38 124.89,256.68 126.47,256.06 128.08,255.52 129.71,255.07 131.37,254.69 133.04,254.39 134.72,254.18 136.41,254.06 138.11,254.01 138.11,251.49 138.11,248.97 138.11,246.45 138.11,243.93 138.11,241.42 138.11,238.9 "
         style="fill:#009e73;stroke:none;stroke-width:1.07;stroke-linecap:butt;stroke-linejoin:miter"
         id="polygon42" />
      <polygon
         points="87.24,279.06 84.76,278.62 82.27,278.18 81.97,280.11 81.73,282.04 81.56,283.98 81.45,285.92 81.41,287.87 81.44,289.81 81.54,291.76 81.7,293.7 81.92,295.63 82.22,297.55 82.58,299.47 83,301.37 83.49,303.25 84.05,305.12 84.67,306.96 85.35,308.78 86.09,310.58 86.9,312.36 87.76,314.1 88.69,315.81 89.67,317.49 90.71,319.14 91.81,320.75 92.96,322.32 94.16,323.85 95.42,325.33 96.72,326.78 98.08,328.17 99.48,329.53 100.92,330.83 102.42,332.08 103.95,333.28 105.52,334.42 107.13,335.51 108.78,336.55 110.46,337.53 112.18,338.45 113.93,339.31 115.7,340.11 117.5,340.85 119.33,341.52 121.17,342.13 123.04,342.68 124.93,343.17 126.83,343.59 128.74,343.94 130.67,344.23 132.6,344.45 134.54,344.61 136.48,344.7 138.43,344.72 140.38,344.68 142.32,344.57 144.26,344.39 146.19,344.14 148.11,343.83 150.02,343.46 151.92,343.01 153.79,342.51 155.66,341.94 157.5,341.3 156.63,338.94 155.77,336.57 154.91,334.2 154.05,331.83 153.19,329.46 152.33,327.1 151.46,324.73 150.6,322.36 149.74,319.99 148.13,320.53 146.5,320.99 144.85,321.37 143.18,321.67 141.49,321.88 139.8,322 138.11,322.05 136.41,322 134.72,321.88 133.04,321.67 131.37,321.37 129.71,320.99 128.08,320.53 126.47,319.99 124.89,319.37 123.35,318.68 121.84,317.9 120.37,317.05 118.94,316.13 117.57,315.14 116.24,314.09 114.97,312.96 113.76,311.78 112.6,310.54 111.51,309.24 110.49,307.89 109.53,306.48 108.65,305.04 107.84,303.55 107.1,302.02 106.44,300.46 105.86,298.86 105.36,297.24 104.94,295.6 104.61,293.94 104.35,292.26 104.19,290.57 104.1,288.88 104.1,287.18 104.19,285.49 104.35,283.8 104.61,282.12 102.13,281.69 99.64,281.25 97.16,280.81 94.68,280.37 92.2,279.93 89.72,279.5 "
         style="fill:#56b4e9;stroke:none;stroke-width:1.07;stroke-linecap:butt;stroke-linejoin:miter"
         id="polygon43" />
      <polygon
         points="155.77,336.57 156.63,338.94 157.5,341.3 159.31,340.61 161.11,339.85 162.87,339.03 164.61,338.15 166.31,337.21 167.98,336.21 169.62,335.16 171.22,334.05 172.78,332.88 174.3,331.67 175.77,330.4 177.21,329.08 178.59,327.71 179.93,326.3 181.22,324.84 182.46,323.34 183.65,321.8 184.78,320.21 185.85,318.59 186.88,316.94 187.84,315.24 188.74,313.52 189.59,311.77 190.37,309.99 191.1,308.18 191.76,306.35 192.35,304.5 192.89,302.62 193.36,300.74 193.76,298.83 194.1,296.91 194.37,294.99 194.58,293.05 194.71,291.11 194.79,289.16 194.79,287.22 194.73,285.27 194.6,283.33 194.41,281.39 194.15,279.47 193.82,277.55 193.43,275.64 192.97,273.75 192.45,271.87 191.86,270.02 191.21,268.18 190.5,266.37 189.72,264.59 188.89,262.83 187.99,261.1 187.04,259.4 186.03,257.74 184.96,256.11 183.84,254.52 182.66,252.97 181.43,251.46 180.15,250 178.82,248.58 177.44,247.2 176.02,245.88 174.55,244.6 172.93,246.53 171.31,248.46 169.69,250.39 168.07,252.32 166.45,254.25 164.83,256.18 163.21,258.11 161.59,260.04 159.97,261.97 161.24,263.09 162.46,264.28 163.61,265.52 164.7,266.82 165.72,268.17 166.68,269.57 167.56,271.02 168.38,272.51 169.11,274.04 169.77,275.6 170.35,277.2 170.85,278.82 171.27,280.46 171.6,282.12 171.86,283.8 172.03,285.49 172.11,287.18 172.11,288.88 172.03,290.57 171.86,292.26 171.6,293.94 171.27,295.6 170.85,297.24 170.35,298.86 169.77,300.46 169.11,302.02 168.38,303.55 167.56,305.04 166.68,306.48 165.72,307.89 164.7,309.24 163.61,310.54 162.46,311.78 161.24,312.96 159.97,314.09 158.64,315.14 157.27,316.13 155.84,317.05 154.37,317.9 152.86,318.68 151.32,319.37 149.74,319.99 150.6,322.36 151.46,324.73 152.33,327.1 153.19,329.46 154.05,331.83 154.91,334.2 "
         style="fill:#f5c710;stroke:none;stroke-width:1.07;stroke-linecap:butt;stroke-linejoin:miter"
         id="polygon44" />
      <polygon
         points="171.31,248.46 172.93,246.53 174.55,244.6 173.01,243.35 171.43,242.16 169.81,241.03 168.15,239.95 166.45,238.93 164.72,237.97 162.96,237.07 161.16,236.24 159.34,235.46 157.5,234.76 155.62,234.11 153.73,233.53 151.82,233.02 149.89,232.58 147.95,232.2 146,231.89 144.03,231.65 142.06,231.47 140.08,231.37 138.11,231.34 138.11,233.86 138.11,236.38 138.11,238.9 138.11,241.42 138.11,243.93 138.11,246.45 138.11,248.97 138.11,251.49 138.11,254.01 139.8,254.06 141.49,254.18 143.18,254.39 144.85,254.69 146.5,255.07 148.13,255.52 149.74,256.06 151.32,256.68 152.86,257.38 154.37,258.16 155.84,259 157.27,259.92 158.64,260.91 159.97,261.97 161.59,260.04 163.21,258.11 164.83,256.18 166.45,254.25 168.07,252.32 169.69,250.39 "
         style="fill:#7f7f7f;stroke:none;stroke-width:1.07;stroke-linecap:butt;stroke-linejoin:miter"
         id="polygon45" />
    </g>
    <g
       clip-path="url(#cpMC4wMHw2MTcuMDB8MC4wMHwzODkuMDA=)"
       id="g62">
      <text
         x="138.11"
         y="216.67"
         text-anchor="middle"
         style="font-size:7px;font-family:Arial"
         textLength="90.639999"
         lengthAdjust="spacingAndGlyphs"
         id="text45"
         transform="translate(-100.35222,-30.738519)">Sampling Design &amp; Protocols</text>
      <g
         id="g76"
         transform="translate(-226.87324,-39.227596)">
        <rect
           x="395.74258"
           y="249.57384"
           width="19.950562"
           height="19.950562"
           style="fill:#009e73;stroke:none;stroke-width:2.15193;stroke-linecap:butt;stroke-linejoin:miter;stroke-miterlimit:10"
           id="rect61" />
        <rect
           x="395.74258"
           y="272.38022"
           width="19.950562"
           height="19.950562"
           style="fill:#56b4e9;stroke:none;stroke-width:2.15193;stroke-linecap:butt;stroke-linejoin:miter;stroke-miterlimit:10"
           id="rect62" />
        <rect
           x="395.74258"
           y="295.18658"
           width="19.950562"
           height="19.950562"
           style="fill:#f5c710;stroke:none;stroke-width:2.15193;stroke-linecap:butt;stroke-linejoin:miter;stroke-miterlimit:10"
           id="rect63" />
        <rect
           x="395.74258"
           y="317.99304"
           width="19.950562"
           height="19.950562"
           style="fill:#888888;stroke:none;stroke-width:2.15193;stroke-linecap:butt;stroke-linejoin:miter;stroke-miterlimit:10"
           id="rect64" />
        <text
           x="520.21002"
           y="225.08"
           style="font-size:7px;font-family:Arial;white-space:pre"
           textLength="20.219999"
           lengthAdjust="spacingAndGlyphs"
           id="text64"
           transform="matrix(2.0111453,0,0,2.0111453,-618.07581,-188.07148)">Expert</text>
        <text
           x="520.21002"
           y="236.42"
           style="font-size:7px;font-family:Arial;white-space:pre"
           textLength="17.110001"
           lengthAdjust="spacingAndGlyphs"
           id="text65"
           transform="matrix(2.0111453,0,0,2.0111453,-618.07581,-188.07148)">Good</text>
        <text
           x="520.21002"
           y="247.75"
           style="font-size:7px;font-family:Arial;white-space:pre"
           textLength="29.549999"
           lengthAdjust="spacingAndGlyphs"
           id="text66"
           transform="matrix(2.0111453,0,0,2.0111453,-618.07581,-188.07148)">Moderate</text>
        <text
           x="520.21002"
           y="259.09"
           style="font-size:7px;font-family:Arial;white-space:pre"
           textLength="17.120001"
           lengthAdjust="spacingAndGlyphs"
           id="text67"
           transform="matrix(2.0111453,0,0,2.0111453,-618.07581,-188.07148)">Basic</text>
      </g>
    </g>
  </g>
</svg>
