<?xml version="1.0" encoding="UTF-8" standalone="no"?>
<svg
   width="422.65982pt"
   height="304.61545pt"
   viewBox="0 0 422.65982 304.61545"
   version="1.1"
   id="svg62"
   sodipodi:docname="rating_modelling.svg"
   inkscape:version="1.4 (86a8ad7, 2024-10-11)"
   xmlns:inkscape="http://www.inkscape.org/namespaces/inkscape"
   xmlns:sodipodi="http://sodipodi.sourceforge.net/DTD/sodipodi-0.dtd"
   xmlns="http://www.w3.org/2000/svg"
   xmlns:svg="http://www.w3.org/2000/svg">
  <defs
     id="defs62" />
  <sodipodi:namedview
     id="namedview62"
     pagecolor="#ffffff"
     bordercolor="#000000"
     borderopacity="0.25"
     inkscape:showpageshadow="2"
     inkscape:pageopacity="0.0"
     inkscape:pagecheckerboard="0"
     inkscape:deskcolor="#d1d1d1"
     inkscape:document-units="pt"
     inkscape:zoom="1.1732005"
     inkscape:cx="654.61956"
     inkscape:cy="335.40729"
     inkscape:window-width="2560"
     inkscape:window-height="1494"
     inkscape:window-x="-11"
     inkscape:window-y="-11"
     inkscape:window-maximized="1"
     inkscape:current-layer="g62" />
  <g
     class="svglite"
     id="g62"
     transform="translate(-73.516845,-48.585045)">
    <defs
       id="defs1">
      <style
         type="text/css"
         id="style1"><![CDATA[
    .svglite line, .svglite polyline, .svglite polygon, .svglite path, .svglite rect, .svglite circle {
      fill: none;
      stroke: #000000;
      stroke-linecap: round;
      stroke-linejoin: round;
      stroke-miterlimit: 10.00;
    }
    .svglite text {
      white-space: pre;
    }
    .svglite g.glyphgroup path {
      fill: inherit;
      stroke: none;
    }
  ]]></style>
    </defs>
    <defs
       id="defs2">
      <clipPath
         id="cpMC4wMHw2MTcuMDB8MC4wMHwzODkuMDA=">
        <rect
           x="0"
           y="0"
           width="617"
           height="389"
           id="rect2" />
      </clipPath>
    </defs>
    <g
       clip-path="url(#cpMC4wMHw2MTcuMDB8MC4wMHwzODkuMDA=)"
       id="g2" />
    <defs
       id="defs3">
      <clipPath
         id="cpNjEuNzZ8NTU1LjI0fDI0LjYzfDM2NC4zNw==">
        <rect
           x="61.759998"
           y="24.629999"
           width="493.48001"
           height="339.75"
           id="rect3" />
      </clipPath>
    </defs>
    <g
       clip-path="url(#cpMC4wMHw2MTcuMDB8MC4wMHwzODkuMDA=)"
       id="g5" />
    <defs
       id="defs5">
      <clipPath
         id="cpNjcuMjR8NDkyLjQ0fDYzLjk1fDM1OC45MA==">
        <rect
           x="67.239998"
           y="63.950001"
           width="425.20001"
           height="294.94"
           id="rect5" />
      </clipPath>
    </defs>
    <g
       clip-path="url(#cpNjcuMjR8NDkyLjQ0fDYzLjk1fDM1OC45MA==)"
       id="g6" />
    <g
       clip-path="url(#cpMC4wMHw2MTcuMDB8MC4wMHwzODkuMDA=)"
       id="g7" />
    <defs
       id="defs7">
      <clipPath
         id="cpNjcuMjR8MjA4Ljk3fDYzLjk1fDIwNS42OA==">
        <rect
           x="67.239998"
           y="63.950001"
           width="141.73"
           height="141.73"
           id="rect7" />
      </clipPath>
    </defs>
    <g
       clip-path="url(#cpNjcuMjR8MjA4Ljk3fDYzLjk1fDIwNS42OA==)"
       id="g8" />
    <g
       clip-path="url(#cpMC4wMHw2MTcuMDB8MC4wMHwzODkuMDA=)"
       id="g9" />
    <g
       clip-path="url(#cpNjcuMjR8MjA4Ljk3fDYzLjk1fDIwNS42OA==)"
       id="g10" />
    <g
       clip-path="url(#cpMC4wMHw2MTcuMDB8MC4wMHwzODkuMDA=)"
       id="g11" />
    <defs
       id="defs11">
      <clipPath
         id="cpNjcuMjR8MjA4Ljk3fDUyLjQ3fDIwNS42OA==">
        <rect
           x="67.239998"
           y="52.470001"
           width="141.73"
           height="153.21001"
           id="rect11" />
      </clipPath>
    </defs>
    <g
       clip-path="url(#cpNjcuMjR8MjA4Ljk3fDUyLjQ3fDIwNS42OA==)"
       id="g12">
      <rect
         x="67.239998"
         y="52.470001"
         width="141.73"
         height="153.21001"
         style="stroke:none;stroke-width:0"
         id="rect12" />
    </g>
    <g
       clip-path="url(#cpMC4wMHw2MTcuMDB8MC4wMHwzODkuMDA=)"
       id="g13" />
    <g
       clip-path="url(#cpNjcuMjR8MjA4Ljk3fDYzLjk1fDIwNS42OA==)"
       id="g16">
      <polygon
         points="138.11,90.72 138.11,88.2 138.11,85.68 138.11,83.16 138.11,80.64 138.11,78.12 136.13,78.16 134.15,78.26 132.18,78.44 130.22,78.68 128.26,78.99 126.32,79.36 124.39,79.81 122.48,80.32 120.59,80.9 118.72,81.54 116.87,82.25 115.05,83.03 113.25,83.86 111.49,84.76 109.76,85.72 108.06,86.74 106.4,87.82 104.78,88.95 103.2,90.14 101.66,91.39 103.28,93.32 104.9,95.25 106.52,97.18 108.14,99.11 109.76,101.04 111.38,102.97 113,104.9 114.62,106.83 116.24,108.76 117.57,107.7 118.94,106.71 120.37,105.79 121.84,104.94 123.35,104.17 124.89,103.47 126.47,102.85 128.08,102.31 129.71,101.85 131.37,101.48 133.04,101.18 134.72,100.97 136.41,100.84 138.11,100.8 138.11,98.28 138.11,95.76 138.11,93.24 "
         style="fill:#009e73;stroke:none;stroke-width:1.07;stroke-linecap:butt;stroke-linejoin:miter"
         id="polygon13" />
      <polygon
         points="109.76,101.04 108.14,99.11 106.52,97.18 104.9,95.25 103.28,93.32 101.66,91.39 100.19,92.66 98.77,93.99 97.39,95.37 96.06,96.79 94.78,98.25 93.55,99.76 92.37,101.31 91.25,102.9 90.18,104.53 89.17,106.19 88.22,107.89 87.32,109.62 86.49,111.37 85.71,113.16 85,114.97 84.35,116.81 83.76,118.66 83.24,120.54 82.78,122.43 82.39,124.33 82.06,126.25 81.8,128.18 81.61,130.12 81.48,132.06 81.42,134.01 81.42,135.95 81.5,137.9 81.64,139.84 81.84,141.78 82.11,143.7 82.45,145.62 82.86,147.52 83.32,149.41 83.86,151.28 84.45,153.14 85.11,154.97 85.84,156.78 86.62,158.56 87.47,160.31 88.37,162.03 89.34,163.72 90.36,165.38 91.43,167 92.57,168.59 93.75,170.13 94.99,171.63 96.28,173.09 97.62,174.5 99,175.87 100.44,177.19 101.91,178.45 103.43,179.67 104.99,180.84 106.59,181.94 108.23,183 109.9,184 111.6,184.94 113.34,185.82 115.11,186.64 116.9,187.39 118.72,188.09 119.58,185.72 120.44,183.36 121.3,180.99 122.16,178.62 123.02,176.25 123.89,173.89 124.75,171.52 125.61,169.15 126.47,166.78 124.89,166.16 123.35,165.46 121.84,164.69 120.37,163.84 118.94,162.92 117.57,161.93 116.24,160.88 114.97,159.75 113.76,158.57 112.6,157.33 111.51,156.03 110.49,154.67 109.53,153.27 108.65,151.83 107.84,150.34 107.1,148.81 106.44,147.24 105.86,145.65 105.36,144.03 104.94,142.39 104.61,140.72 104.35,139.05 104.19,137.36 104.1,135.67 104.1,133.97 104.19,132.28 104.35,130.59 104.61,128.91 104.94,127.25 105.36,125.6 105.86,123.98 106.44,122.39 107.1,120.83 107.84,119.3 108.65,117.81 109.53,116.36 110.49,114.96 111.51,113.61 112.6,112.31 113.76,111.07 114.97,109.88 116.24,108.76 114.62,106.83 113,104.9 111.38,102.97 "
         style="fill:#56b4e9;stroke:none;stroke-width:1.07;stroke-linecap:butt;stroke-linejoin:miter"
         id="polygon14" />
      <polygon
         points="123.02,176.25 122.16,178.62 121.3,180.99 120.44,183.36 119.58,185.72 118.72,188.09 120.54,188.72 122.39,189.29 124.25,189.79 126.13,190.23 128.02,190.61 129.93,190.92 131.84,191.16 133.77,191.34 135.69,191.46 137.62,191.51 139.55,191.49 141.48,191.41 143.41,191.26 145.33,191.05 147.24,190.77 149.14,190.43 151.02,190.02 152.9,189.55 154.75,189.01 156.59,188.41 158.4,187.75 160.19,187.03 161.96,186.25 163.69,185.41 165.4,184.51 167.08,183.55 168.72,182.53 170.33,181.46 171.9,180.34 173.43,179.16 174.92,177.94 176.36,176.66 177.76,175.33 179.12,173.96 180.43,172.54 181.69,171.07 182.9,169.57 184.06,168.02 185.16,166.44 186.21,164.82 187.2,163.16 185.02,161.9 182.84,160.64 180.66,159.38 178.47,158.12 176.29,156.86 174.11,155.6 171.93,154.35 169.75,153.09 167.56,151.83 166.68,153.27 165.72,154.67 164.7,156.03 163.61,157.33 162.46,158.57 161.24,159.75 159.97,160.88 158.64,161.93 157.27,162.92 155.84,163.84 154.37,164.69 152.86,165.46 151.32,166.16 149.74,166.78 148.13,167.32 146.5,167.78 144.85,168.16 143.18,168.45 141.49,168.66 139.8,168.79 138.11,168.83 136.41,168.79 134.72,168.66 133.04,168.45 131.37,168.16 129.71,167.78 128.08,167.32 126.47,166.78 125.61,169.15 124.75,171.52 123.89,173.89 "
         style="fill:#f5c710;stroke:none;stroke-width:1.07;stroke-linecap:butt;stroke-linejoin:miter"
         id="polygon15" />
      <polygon
         points="176.29,156.86 178.47,158.12 180.66,159.38 182.84,160.64 185.02,161.9 187.2,163.16 188.15,161.46 189.03,159.73 189.86,157.97 190.62,156.18 191.32,154.36 191.96,152.52 192.54,150.66 193.05,148.78 193.5,146.89 193.88,144.98 194.2,143.06 194.45,141.13 194.63,139.19 194.75,137.25 194.8,135.3 194.78,133.36 194.7,131.41 194.55,129.47 194.33,127.54 194.05,125.61 193.7,123.7 193.28,121.8 192.8,119.91 192.26,118.04 191.65,116.19 190.98,114.36 190.25,112.56 189.45,110.78 188.6,109.04 187.68,107.32 186.71,105.63 185.68,103.98 184.59,102.37 183.45,100.79 182.26,99.25 181.01,97.76 179.71,96.31 178.37,94.9 176.97,93.54 175.53,92.23 174.05,90.97 172.52,89.77 170.95,88.61 169.35,87.51 167.71,86.47 166.03,85.48 164.32,84.55 162.58,83.68 160.81,82.87 159.01,82.12 157.19,81.43 155.35,80.81 153.48,80.25 151.6,79.75 149.7,79.32 147.79,78.96 145.87,78.66 143.94,78.43 142,78.26 140.05,78.16 138.11,78.12 138.11,80.64 138.11,83.16 138.11,85.68 138.11,88.2 138.11,90.72 138.11,93.24 138.11,95.76 138.11,98.28 138.11,100.8 139.8,100.84 141.49,100.97 143.18,101.18 144.85,101.48 146.5,101.85 148.13,102.31 149.74,102.85 151.32,103.47 152.86,104.17 154.37,104.94 155.84,105.79 157.27,106.71 158.64,107.7 159.97,108.76 161.24,109.88 162.46,111.07 163.61,112.31 164.7,113.61 165.72,114.96 166.68,116.36 167.56,117.81 168.38,119.3 169.11,120.83 169.77,122.39 170.35,123.98 170.85,125.6 171.27,127.25 171.6,128.91 171.86,130.59 172.03,132.28 172.11,133.97 172.11,135.67 172.03,137.36 171.86,139.05 171.6,140.72 171.27,142.39 170.85,144.03 170.35,145.65 169.77,147.24 169.11,148.81 168.38,150.34 167.56,151.83 169.75,153.09 171.93,154.35 174.11,155.6 "
         style="fill:#888888;stroke:none;stroke-width:1.07;stroke-linecap:butt;stroke-linejoin:miter"
         id="polygon16" />
    </g>
    <g
       clip-path="url(#cpMC4wMHw2MTcuMDB8MC4wMHwzODkuMDA=)"
       id="g17">
      <text
         x="138.11"
         y="63.459999"
         text-anchor="middle"
         style="font-size:7px;font-family:Arial"
         textLength="114.72"
         lengthAdjust="spacingAndGlyphs"
         id="text16">Applying Stock Assessment Methods</text>
    </g>
    <defs
       id="defs17">
      <clipPath
         id="cpMjA4Ljk3fDM1MC43MHw2My45NXwyMDUuNjg=">
        <rect
           x="208.97"
           y="63.950001"
           width="141.73"
           height="141.73"
           id="rect17" />
      </clipPath>
    </defs>
    <g
       clip-path="url(#cpMjA4Ljk3fDM1MC43MHw2My45NXwyMDUuNjg=)"
       id="g18" />
    <g
       clip-path="url(#cpMC4wMHw2MTcuMDB8MC4wMHwzODkuMDA=)"
       id="g19" />
    <g
       clip-path="url(#cpMjA4Ljk3fDM1MC43MHw2My45NXwyMDUuNjg=)"
       id="g20" />
    <g
       clip-path="url(#cpMC4wMHw2MTcuMDB8MC4wMHwzODkuMDA=)"
       id="g21" />
    <defs
       id="defs21">
      <clipPath
         id="cpMjA4Ljk3fDM1MC43MHw1Mi40N3wyMDUuNjg=">
        <rect
           x="208.97"
           y="52.470001"
           width="141.73"
           height="153.21001"
           id="rect21" />
      </clipPath>
    </defs>
    <g
       clip-path="url(#cpMjA4Ljk3fDM1MC43MHw1Mi40N3wyMDUuNjg=)"
       id="g22">
      <rect
         x="208.97"
         y="52.470001"
         width="141.73"
         height="153.21001"
         style="stroke:none;stroke-width:0"
         id="rect22" />
    </g>
    <g
       clip-path="url(#cpMC4wMHw2MTcuMDB8MC4wMHwzODkuMDA=)"
       id="g23" />
    <g
       clip-path="url(#cpMjA4Ljk3fDM1MC43MHw2My45NXwyMDUuNjg=)"
       id="g25">
      <polygon
         points="279.84,90.72 279.84,88.2 279.84,85.68 279.84,83.16 279.84,80.64 279.84,78.12 277.91,78.16 275.98,78.26 274.06,78.42 272.14,78.65 270.23,78.94 268.33,79.3 266.45,79.73 264.58,80.22 262.73,80.77 260.9,81.38 259.09,82.06 257.31,82.79 255.55,83.59 253.82,84.45 252.12,85.36 250.45,86.33 248.82,87.36 247.22,88.45 245.66,89.58 244.14,90.77 242.66,92.02 241.23,93.31 239.84,94.64 238.49,96.03 237.19,97.46 235.95,98.93 234.75,100.45 233.61,102 232.52,103.6 231.48,105.23 230.5,106.89 229.58,108.59 228.71,110.31 227.91,112.07 227.17,113.85 226.48,115.65 225.86,117.48 225.3,119.33 224.81,121.2 224.37,123.08 224.01,124.97 223.7,126.88 223.47,128.8 223.29,130.72 223.19,132.65 223.15,134.58 223.17,136.51 223.26,138.44 223.42,140.36 223.64,142.28 223.92,144.19 224.28,146.08 224.69,147.97 225.17,149.84 225.71,151.69 226.32,153.53 226.99,155.34 227.72,157.12 228.51,158.89 229.36,160.62 230.27,162.32 231.23,164 232.25,165.63 233.33,167.24 234.46,168.8 235.64,170.33 236.88,171.81 238.16,173.25 239.49,174.65 240.87,176 242.3,177.3 243.77,178.56 245.28,179.76 246.83,180.91 248.42,182.01 250.04,183.05 251.7,184.04 253.39,184.96 255.12,185.84 256.87,186.65 258.65,187.4 260.45,188.09 261.31,185.72 262.17,183.36 263.03,180.99 263.9,178.62 264.76,176.25 265.62,173.89 266.48,171.52 267.34,169.15 268.2,166.78 266.63,166.16 265.08,165.46 263.57,164.69 262.1,163.84 260.68,162.92 259.3,161.93 257.97,160.88 256.7,159.75 255.49,158.57 254.33,157.33 253.24,156.03 252.22,154.67 251.26,153.27 250.38,151.83 249.57,150.34 248.83,148.81 248.17,147.24 247.59,145.65 247.09,144.03 246.68,142.39 246.34,140.72 246.09,139.05 245.92,137.36 245.83,135.67 245.83,133.97 245.92,132.28 246.09,130.59 246.34,128.91 246.68,127.25 247.09,125.6 247.59,123.98 248.17,122.39 248.83,120.83 249.57,119.3 250.38,117.81 251.26,116.36 252.22,114.96 253.24,113.61 254.33,112.31 255.49,111.07 256.7,109.88 257.97,108.76 259.3,107.7 260.68,106.71 262.1,105.79 263.57,104.94 265.08,104.17 266.63,103.47 268.2,102.85 269.81,102.31 271.44,101.85 273.1,101.48 274.77,101.18 276.45,100.97 278.14,100.84 279.84,100.8 279.84,98.28 279.84,95.76 279.84,93.24 "
         style="fill:#56b4e9;stroke:none;stroke-width:1.07;stroke-linecap:butt;stroke-linejoin:miter"
         id="polygon23" />
      <polygon
         points="264.76,176.25 263.9,178.62 263.03,180.99 262.17,183.36 261.31,185.72 260.45,188.09 262.27,188.72 264.12,189.29 265.98,189.79 267.86,190.23 269.76,190.61 271.66,190.92 273.58,191.16 275.5,191.34 277.43,191.46 279.36,191.51 281.29,191.49 283.21,191.41 285.14,191.26 287.06,191.05 288.97,190.77 290.87,190.43 292.76,190.02 294.63,189.55 296.48,189.01 298.32,188.41 300.13,187.75 301.92,187.03 303.69,186.25 305.43,185.41 307.13,184.51 308.81,183.55 310.45,182.53 312.06,181.46 313.63,180.34 315.16,179.16 316.65,177.94 318.09,176.66 319.5,175.33 320.85,173.96 322.16,172.54 323.42,171.07 324.63,169.57 325.79,168.02 326.89,166.44 327.94,164.82 328.94,163.16 329.87,161.48 330.75,159.76 331.57,158.01 332.33,156.23 333.03,154.43 333.67,152.61 334.24,150.77 334.75,148.91 335.2,147.03 335.58,145.14 335.9,143.23 336.16,141.32 336.35,139.4 336.47,137.47 336.53,135.54 336.52,133.61 336.44,131.68 336.3,129.76 336.1,127.84 335.83,125.93 335.49,124.02 335.09,122.14 334.63,120.26 334.1,118.4 333.51,116.57 332.86,114.75 332.15,112.96 331.37,111.19 330.54,109.45 329.64,107.73 328.69,106.05 327.68,104.41 326.62,102.8 325.5,101.22 324.33,99.69 323.11,98.19 321.84,96.74 320.52,95.33 319.15,93.97 317.74,92.65 316.28,91.39 314.66,93.32 313.04,95.25 311.42,97.18 309.8,99.11 308.18,101.04 306.56,102.97 304.94,104.9 303.32,106.83 301.7,108.76 302.97,109.88 304.19,111.07 305.34,112.31 306.43,113.61 307.46,114.96 308.41,116.36 309.3,117.81 310.11,119.3 310.84,120.83 311.5,122.39 312.08,123.98 312.58,125.6 313,127.25 313.34,128.91 313.59,130.59 313.76,132.28 313.84,133.97 313.84,135.67 313.76,137.36 313.59,139.05 313.34,140.72 313,142.39 312.58,144.03 312.08,145.65 311.5,147.24 310.84,148.81 310.11,150.34 309.3,151.83 308.41,153.27 307.46,154.67 306.43,156.03 305.34,157.33 304.19,158.57 302.97,159.75 301.7,160.88 300.38,161.93 299,162.92 297.58,163.84 296.11,164.69 294.6,165.46 293.05,166.16 291.47,166.78 289.86,167.32 288.23,167.78 286.58,168.16 284.91,168.45 283.22,168.66 281.53,168.79 279.84,168.83 278.14,168.79 276.45,168.66 274.77,168.45 273.1,168.16 271.44,167.78 269.81,167.32 268.2,166.78 267.34,169.15 266.48,171.52 265.62,173.89 "
         style="fill:#f5c710;stroke:none;stroke-width:1.07;stroke-linecap:butt;stroke-linejoin:miter"
         id="polygon24" />
      <polygon
         points="308.18,101.04 309.8,99.11 311.42,97.18 313.04,95.25 314.66,93.32 316.28,91.39 314.74,90.14 313.16,88.95 311.54,87.82 309.88,86.74 308.18,85.72 306.45,84.76 304.69,83.86 302.9,83.03 301.08,82.25 299.23,81.54 297.36,80.9 295.46,80.32 293.55,79.81 291.63,79.36 289.68,78.99 287.73,78.68 285.76,78.44 283.79,78.26 281.82,78.16 279.84,78.12 279.84,80.64 279.84,83.16 279.84,85.68 279.84,88.2 279.84,90.72 279.84,93.24 279.84,95.76 279.84,98.28 279.84,100.8 281.53,100.84 283.22,100.97 284.91,101.18 286.58,101.48 288.23,101.85 289.86,102.31 291.47,102.85 293.05,103.47 294.6,104.17 296.11,104.94 297.58,105.79 299,106.71 300.38,107.7 301.7,108.76 303.32,106.83 304.94,104.9 306.56,102.97 "
         style="fill:#7f7f7f;stroke:none;stroke-width:1.07;stroke-linecap:butt;stroke-linejoin:miter"
         id="polygon25" />
    </g>
    <g
       clip-path="url(#cpMC4wMHw2MTcuMDB8MC4wMHwzODkuMDA=)"
       id="g26">
      <text
         x="279.84"
         y="63.459999"
         text-anchor="middle"
         style="font-size:7px;font-family:Arial"
         textLength="97.610001"
         lengthAdjust="spacingAndGlyphs"
         id="text25">Integrate EBFM Considerations</text>
    </g>
    <defs
       id="defs26">
      <clipPath
         id="cpMzUwLjcwfDQ5Mi40NHw2My45NXwyMDUuNjg=">
        <rect
           x="350.70001"
           y="63.950001"
           width="141.73"
           height="141.73"
           id="rect26" />
      </clipPath>
    </defs>
    <g
       clip-path="url(#cpMzUwLjcwfDQ5Mi40NHw2My45NXwyMDUuNjg=)"
       id="g27" />
    <g
       clip-path="url(#cpMC4wMHw2MTcuMDB8MC4wMHwzODkuMDA=)"
       id="g28" />
    <g
       clip-path="url(#cpMzUwLjcwfDQ5Mi40NHw2My45NXwyMDUuNjg=)"
       id="g29" />
    <g
       clip-path="url(#cpMC4wMHw2MTcuMDB8MC4wMHwzODkuMDA=)"
       id="g30" />
    <defs
       id="defs30">
      <clipPath
         id="cpMzUwLjcwfDU0OS43Nnw1Mi40N3wyMDUuNjg=">
        <rect
           x="350.70001"
           y="52.470001"
           width="199.06"
           height="153.21001"
           id="rect30" />
      </clipPath>
    </defs>
    <g
       clip-path="url(#cpMC4wMHw2MTcuMDB8MC4wMHwzODkuMDA=)"
       id="g32" />
    <g
       clip-path="url(#cpMzUwLjcwfDQ5Mi40NHw2My45NXwyMDUuNjg=)"
       id="g35">
      <polygon
         points="421.57,90.72 421.57,88.2 421.57,85.68 421.57,83.16 421.57,80.64 421.57,78.12 419.64,78.16 417.71,78.26 415.79,78.42 413.87,78.65 411.96,78.94 410.07,79.3 408.18,79.73 406.32,80.22 404.46,80.77 402.63,81.38 400.83,82.06 399.04,82.79 397.28,83.59 395.55,84.45 393.85,85.36 392.19,86.33 390.55,87.36 388.95,88.45 387.39,89.58 385.87,90.77 384.39,92.02 382.96,93.31 381.57,94.64 380.22,96.03 378.93,97.46 377.68,98.93 376.48,100.45 375.34,102 374.25,103.6 373.21,105.23 372.23,106.89 371.31,108.59 370.45,110.31 369.64,112.07 368.9,113.85 368.21,115.65 367.59,117.48 367.03,119.33 366.54,121.2 366.11,123.08 365.74,124.97 365.44,126.88 365.2,128.8 365.03,130.72 364.92,132.65 364.88,134.58 364.9,136.51 364.99,138.44 365.15,140.36 365.37,142.28 365.66,144.19 366.01,146.08 366.42,147.97 366.9,149.84 367.45,151.69 368.05,153.53 368.72,155.34 369.45,157.12 370.24,158.89 371.09,160.62 372,162.32 372.96,164 373.98,165.63 375.06,167.24 376.19,168.8 377.38,170.33 378.61,171.81 379.89,173.25 381.23,174.65 382.61,176 384.03,177.3 385.5,178.56 387.01,179.76 388.56,180.91 390.15,182.01 391.77,183.05 393.43,184.04 395.13,184.96 396.85,185.84 398.6,186.65 400.38,187.4 402.18,188.09 403.04,185.72 403.9,183.36 404.77,180.99 405.63,178.62 406.49,176.25 407.35,173.89 408.21,171.52 409.07,169.15 409.94,166.78 408.36,166.16 406.81,165.46 405.3,164.69 403.83,163.84 402.41,162.92 401.03,161.93 399.71,160.88 398.43,159.75 397.22,158.57 396.07,157.33 394.98,156.03 393.95,154.67 393,153.27 392.11,151.83 391.3,150.34 390.56,148.81 389.91,147.24 389.33,145.65 388.83,144.03 388.41,142.39 388.07,140.72 387.82,139.05 387.65,137.36 387.57,135.67 387.57,133.97 387.65,132.28 387.82,130.59 388.07,128.91 388.41,127.25 388.83,125.6 389.33,123.98 389.91,122.39 390.56,120.83 391.3,119.3 392.11,117.81 393,116.36 393.95,114.96 394.98,113.61 396.07,112.31 397.22,111.07 398.43,109.88 399.71,108.76 401.03,107.7 402.41,106.71 403.83,105.79 405.3,104.94 406.81,104.17 408.36,103.47 409.94,102.85 411.54,102.31 413.18,101.85 414.83,101.48 416.5,101.18 418.18,100.97 419.87,100.84 421.57,100.8 421.57,98.28 421.57,95.76 421.57,93.24 "
         style="fill:#56b4e9;stroke:none;stroke-width:1.07;stroke-linecap:butt;stroke-linejoin:miter"
         id="polygon32" />
      <polygon
         points="406.49,176.25 405.63,178.62 404.77,180.99 403.9,183.36 403.04,185.72 402.18,188.09 404.01,188.72 405.85,189.29 407.71,189.79 409.59,190.23 411.49,190.61 413.39,190.92 415.31,191.16 417.23,191.34 419.16,191.46 421.09,191.51 423.02,191.49 424.95,191.41 426.87,191.26 428.79,191.05 430.7,190.77 432.6,190.43 434.49,190.02 436.36,189.55 438.22,189.01 440.05,188.41 441.86,187.75 443.66,187.03 445.42,186.25 447.16,185.41 448.87,184.51 450.54,183.55 452.18,182.53 453.79,181.46 455.36,180.34 456.89,179.16 458.38,177.94 459.83,176.66 461.23,175.33 462.59,173.96 463.89,172.54 465.15,171.07 466.36,169.57 467.52,168.02 468.62,166.44 469.67,164.82 470.67,163.16 468.49,161.9 466.3,160.64 464.12,159.38 461.94,158.12 459.76,156.86 457.58,155.6 455.39,154.35 453.21,153.09 451.03,151.83 450.14,153.27 449.19,154.67 448.16,156.03 447.07,157.33 445.92,158.57 444.71,159.75 443.44,160.88 442.11,161.93 440.73,162.92 439.31,163.84 437.84,164.69 436.33,165.46 434.78,166.16 433.2,166.78 431.6,167.32 429.96,167.78 428.31,168.16 426.64,168.45 424.96,168.66 423.27,168.79 421.57,168.83 419.87,168.79 418.18,168.66 416.5,168.45 414.83,168.16 413.18,167.78 411.54,167.32 409.94,166.78 409.07,169.15 408.21,171.52 407.35,173.89 "
         style="fill:#f5c710;stroke:none;stroke-width:1.07;stroke-linecap:butt;stroke-linejoin:miter"
         id="polygon33" />
      <polygon
         points="459.76,156.86 461.94,158.12 464.12,159.38 466.3,160.64 468.49,161.9 470.67,163.16 471.63,161.43 472.53,159.67 473.36,157.88 474.14,156.06 474.84,154.21 475.49,152.34 476.07,150.44 476.58,148.53 477.02,146.6 477.4,144.66 477.71,142.71 477.95,140.74 478.13,138.77 478.23,136.8 478.26,134.82 478.23,132.84 478.13,130.86 477.95,128.89 477.71,126.93 477.4,124.97 474.92,125.41 472.44,125.85 469.96,126.29 467.48,126.72 464.99,127.16 462.51,127.6 460.03,128.04 457.55,128.47 455.07,128.91 455.32,130.59 455.49,132.28 455.58,133.97 455.58,135.67 455.49,137.36 455.32,139.05 455.07,140.72 454.73,142.39 454.31,144.03 453.81,145.65 453.23,147.24 452.58,148.81 451.84,150.34 451.03,151.83 453.21,153.09 455.39,154.35 457.58,155.6 "
         style="fill:#888888;stroke:none;stroke-width:1.07;stroke-linecap:butt;stroke-linejoin:miter"
         id="polygon34" />
      <polygon
         points="464.99,127.16 467.48,126.72 469.96,126.29 472.44,125.85 474.92,125.41 477.4,124.97 477.03,123.08 476.6,121.2 476.11,119.33 475.55,117.48 474.93,115.65 474.24,113.85 473.5,112.07 472.69,110.31 471.83,108.59 470.91,106.89 469.93,105.23 468.89,103.6 467.8,102 466.66,100.45 465.46,98.93 464.21,97.46 462.92,96.03 461.57,94.64 460.18,93.31 458.75,92.02 457.27,90.77 455.75,89.58 454.19,88.45 452.59,87.36 450.96,86.33 449.29,85.36 447.59,84.45 445.86,83.59 444.1,82.79 442.31,82.06 440.51,81.38 438.68,80.77 436.83,80.22 434.96,79.73 433.07,79.3 431.18,78.94 429.27,78.65 427.35,78.42 425.43,78.26 423.5,78.16 421.57,78.12 421.57,80.64 421.57,83.16 421.57,85.68 421.57,88.2 421.57,90.72 421.57,93.24 421.57,95.76 421.57,98.28 421.57,100.8 423.27,100.84 424.96,100.97 426.64,101.18 428.31,101.48 429.96,101.85 431.6,102.31 433.2,102.85 434.78,103.47 436.33,104.17 437.84,104.94 439.31,105.79 440.73,106.71 442.11,107.7 443.44,108.76 444.71,109.88 445.92,111.07 447.07,112.31 448.16,113.61 449.19,114.96 450.14,116.36 451.03,117.81 451.84,119.3 452.58,120.83 453.23,122.39 453.81,123.98 454.31,125.6 454.73,127.25 455.07,128.91 457.55,128.47 460.03,128.04 462.51,127.6 "
         style="fill:#7f7f7f;stroke:none;stroke-width:1.07;stroke-linecap:butt;stroke-linejoin:miter"
         id="polygon35" />
    </g>
    <g
       clip-path="url(#cpMC4wMHw2MTcuMDB8MC4wMHwzODkuMDA=)"
       id="g36">
      <text
         x="421.57001"
         y="63.459999"
         text-anchor="middle"
         style="font-size:7px;font-family:Arial"
         textLength="105.41"
         lengthAdjust="spacingAndGlyphs"
         id="text35">Length-Based &amp; Empirical Models</text>
    </g>
    <defs
       id="defs36">
      <clipPath
         id="cpNjcuMjR8MjA4Ljk3fDIxNy4xNnwzNTguOTA=">
        <rect
           x="67.239998"
           y="217.16"
           width="141.73"
           height="141.73"
           id="rect36" />
      </clipPath>
    </defs>
    <g
       clip-path="url(#cpNjcuMjR8MjA4Ljk3fDIxNy4xNnwzNTguOTA=)"
       id="g37" />
    <g
       clip-path="url(#cpMC4wMHw2MTcuMDB8MC4wMHwzODkuMDA=)"
       id="g38" />
    <g
       clip-path="url(#cpNjcuMjR8MjA4Ljk3fDIxNy4xNnwzNTguOTA=)"
       id="g39" />
    <g
       clip-path="url(#cpMC4wMHw2MTcuMDB8MC4wMHwzODkuMDA=)"
       id="g40" />
    <defs
       id="defs40">
      <clipPath
         id="cpNjcuMjR8MjA4Ljk3fDIwNS42OHwzNTguOTA=">
        <rect
           x="67.239998"
           y="205.67999"
           width="141.73"
           height="153.21001"
           id="rect40" />
      </clipPath>
    </defs>
    <g
       clip-path="url(#cpNjcuMjR8MjA4Ljk3fDIwNS42OHwzNTguOTA=)"
       id="g41">
      <rect
         x="67.239998"
         y="205.67999"
         width="141.73"
         height="153.21001"
         style="stroke:none;stroke-width:0"
         id="rect41" />
    </g>
    <g
       clip-path="url(#cpMC4wMHw2MTcuMDB8MC4wMHwzODkuMDA=)"
       id="g42" />
    <g
       clip-path="url(#cpNjcuMjR8MjA4Ljk3fDIxNy4xNnwzNTguOTA=)"
       id="g45">
      <polygon
         points="138.11,243.93 138.11,241.42 138.11,238.9 138.11,236.38 138.11,233.86 138.11,231.34 136.18,231.37 134.25,231.47 132.32,231.63 130.41,231.86 128.5,232.16 126.6,232.52 124.72,232.94 122.85,233.43 121,233.98 119.17,234.59 117.36,235.27 115.58,236 113.82,236.8 112.09,237.66 110.39,238.57 108.72,239.55 107.09,240.57 105.49,241.66 103.93,242.8 102.41,243.99 100.93,245.23 99.49,246.52 98.1,247.86 96.76,249.24 95.46,250.67 94.21,252.15 93.02,253.66 91.87,255.22 90.78,256.81 89.75,258.44 88.77,260.1 87.85,261.8 86.98,263.52 86.18,265.28 85.43,267.06 84.75,268.87 84.13,270.69 83.57,272.54 83.07,274.41 82.64,276.29 82.27,278.18 84.76,278.62 87.24,279.06 89.72,279.5 92.2,279.93 94.68,280.37 97.16,280.81 99.64,281.25 102.13,281.69 104.61,282.12 104.94,280.46 105.36,278.82 105.86,277.2 106.44,275.6 107.1,274.04 107.84,272.51 108.65,271.02 109.53,269.57 110.49,268.17 111.51,266.82 112.6,265.52 113.76,264.28 114.97,263.09 116.24,261.97 117.57,260.91 118.94,259.92 120.37,259 121.84,258.16 123.35,257.38 124.89,256.68 126.47,256.06 128.08,255.52 129.71,255.07 131.37,254.69 133.04,254.39 134.72,254.18 136.41,254.06 138.11,254.01 138.11,251.49 138.11,248.97 138.11,246.45 "
         style="fill:#009e73;stroke:none;stroke-width:1.07;stroke-linecap:butt;stroke-linejoin:miter"
         id="polygon42" />
      <polygon
         points="94.68,280.37 92.2,279.93 89.72,279.5 87.24,279.06 84.76,278.62 82.27,278.18 81.97,280.11 81.73,282.04 81.56,283.98 81.45,285.92 81.41,287.87 81.44,289.81 81.54,291.76 81.7,293.7 81.92,295.63 82.22,297.55 82.58,299.47 83,301.37 83.49,303.25 84.05,305.12 84.67,306.96 85.35,308.78 86.09,310.58 86.9,312.36 87.76,314.1 88.69,315.81 89.67,317.49 90.71,319.14 91.81,320.75 92.96,322.32 94.16,323.85 95.42,325.33 96.72,326.78 98.08,328.17 99.48,329.53 100.92,330.83 102.42,332.08 103.95,333.28 105.52,334.42 107.13,335.51 108.78,336.55 110.46,337.53 112.18,338.45 113.93,339.31 115.7,340.11 117.5,340.85 119.33,341.52 121.17,342.13 123.04,342.68 124.93,343.17 126.83,343.59 128.74,343.94 130.67,344.23 132.6,344.45 134.54,344.61 136.48,344.7 138.43,344.72 140.38,344.68 142.32,344.57 144.26,344.39 146.19,344.14 148.11,343.83 150.02,343.46 151.92,343.01 153.79,342.51 155.66,341.94 157.5,341.3 156.63,338.94 155.77,336.57 154.91,334.2 154.05,331.83 153.19,329.46 152.33,327.1 151.46,324.73 150.6,322.36 149.74,319.99 148.13,320.53 146.5,320.99 144.85,321.37 143.18,321.67 141.49,321.88 139.8,322 138.11,322.05 136.41,322 134.72,321.88 133.04,321.67 131.37,321.37 129.71,320.99 128.08,320.53 126.47,319.99 124.89,319.37 123.35,318.68 121.84,317.9 120.37,317.05 118.94,316.13 117.57,315.14 116.24,314.09 114.97,312.96 113.76,311.78 112.6,310.54 111.51,309.24 110.49,307.89 109.53,306.48 108.65,305.04 107.84,303.55 107.1,302.02 106.44,300.46 105.86,298.86 105.36,297.24 104.94,295.6 104.61,293.94 104.35,292.26 104.19,290.57 104.1,288.88 104.1,287.18 104.19,285.49 104.35,283.8 104.61,282.12 102.13,281.69 99.64,281.25 97.16,280.81 "
         style="fill:#56b4e9;stroke:none;stroke-width:1.07;stroke-linecap:butt;stroke-linejoin:miter"
         id="polygon43" />
      <polygon
         points="153.19,329.46 154.05,331.83 154.91,334.2 155.77,336.57 156.63,338.94 157.5,341.3 159.3,340.61 161.08,339.86 162.83,339.05 164.55,338.18 166.24,337.25 167.9,336.26 169.53,335.22 171.12,334.12 172.67,332.97 174.18,331.77 175.64,330.51 177.07,329.21 178.45,327.86 179.78,326.46 181.07,325.02 182.3,323.54 183.48,322.01 184.62,320.45 185.69,318.85 186.71,317.21 187.68,315.54 188.59,313.83 189.44,312.1 190.23,310.34 190.95,308.55 191.62,306.74 192.23,304.9 192.77,303.05 193.25,301.18 193.67,299.3 194.02,297.4 194.31,295.49 194.53,293.57 194.68,291.65 194.77,289.72 194.8,287.79 194.76,285.86 194.65,283.93 194.48,282.01 194.24,280.09 193.94,278.18 191.46,278.62 188.97,279.06 186.49,279.5 184.01,279.93 181.53,280.37 179.05,280.81 176.57,281.25 174.09,281.69 171.6,282.12 171.86,283.8 172.03,285.49 172.11,287.18 172.11,288.88 172.03,290.57 171.86,292.26 171.6,293.94 171.27,295.6 170.85,297.24 170.35,298.86 169.77,300.46 169.11,302.02 168.38,303.55 167.56,305.04 166.68,306.48 165.72,307.89 164.7,309.24 163.61,310.54 162.46,311.78 161.24,312.96 159.97,314.09 158.64,315.14 157.27,316.13 155.84,317.05 154.37,317.9 152.86,318.68 151.32,319.37 149.74,319.99 150.6,322.36 151.46,324.73 152.33,327.1 "
         style="fill:#f5c710;stroke:none;stroke-width:1.07;stroke-linecap:butt;stroke-linejoin:miter"
         id="polygon44" />
      <polygon
         points="181.53,280.37 184.01,279.93 186.49,279.5 188.97,279.06 191.46,278.62 193.94,278.18 193.57,276.29 193.14,274.41 192.64,272.54 192.08,270.69 191.46,268.87 190.78,267.06 190.03,265.28 189.23,263.52 188.37,261.8 187.44,260.1 186.46,258.44 185.43,256.81 184.34,255.22 183.19,253.66 182,252.15 180.75,250.67 179.45,249.24 178.11,247.86 176.72,246.52 175.28,245.23 173.8,243.99 172.28,242.8 170.72,241.66 169.12,240.57 167.49,239.55 165.82,238.57 164.12,237.66 162.39,236.8 160.63,236 158.85,235.27 157.04,234.59 155.21,233.98 153.36,233.43 151.49,232.94 149.61,232.52 147.71,232.16 145.8,231.86 143.89,231.63 141.96,231.47 140.04,231.37 138.11,231.34 138.11,233.86 138.11,236.38 138.11,238.9 138.11,241.42 138.11,243.93 138.11,246.45 138.11,248.97 138.11,251.49 138.11,254.01 139.8,254.06 141.49,254.18 143.18,254.39 144.85,254.69 146.5,255.07 148.13,255.52 149.74,256.06 151.32,256.68 152.86,257.38 154.37,258.16 155.84,259 157.27,259.92 158.64,260.91 159.97,261.97 161.24,263.09 162.46,264.28 163.61,265.52 164.7,266.82 165.72,268.17 166.68,269.57 167.56,271.02 168.38,272.51 169.11,274.04 169.77,275.6 170.35,277.2 170.85,278.82 171.27,280.46 171.6,282.12 174.09,281.69 176.57,281.25 179.05,280.81 "
         style="fill:#888888;stroke:none;stroke-width:1.07;stroke-linecap:butt;stroke-linejoin:miter"
         id="polygon45" />
    </g>
    <g
       clip-path="url(#cpMC4wMHw2MTcuMDB8MC4wMHwzODkuMDA=)"
       id="g61">
      <text
         x="138.11"
         y="216.67"
         text-anchor="middle"
         style="font-size:7px;font-family:Arial"
         textLength="92.940002"
         lengthAdjust="spacingAndGlyphs"
         id="text45">Use of Analytical Software (R)</text>
    </g>
    <g
       id="g76"
       transform="translate(-107.37262,-6.360602)">
      <rect
         x="395.74258"
         y="249.57384"
         width="19.950562"
         height="19.950562"
         style="fill:#009e73;stroke:none;stroke-width:2.15193;stroke-linecap:butt;stroke-linejoin:miter;stroke-miterlimit:10"
         id="rect61" />
      <rect
         x="395.74258"
         y="272.38022"
         width="19.950562"
         height="19.950562"
         style="fill:#56b4e9;stroke:none;stroke-width:2.15193;stroke-linecap:butt;stroke-linejoin:miter;stroke-miterlimit:10"
         id="rect62" />
      <rect
         x="395.74258"
         y="295.18658"
         width="19.950562"
         height="19.950562"
         style="fill:#f5c710;stroke:none;stroke-width:2.15193;stroke-linecap:butt;stroke-linejoin:miter;stroke-miterlimit:10"
         id="rect63" />
      <rect
         x="395.74258"
         y="317.99304"
         width="19.950562"
         height="19.950562"
         style="fill:#888888;stroke:none;stroke-width:2.15193;stroke-linecap:butt;stroke-linejoin:miter;stroke-miterlimit:10"
         id="rect64" />
      <text
         x="520.21002"
         y="225.08"
         style="font-size:7px;font-family:Arial;white-space:pre"
         textLength="20.219999"
         lengthAdjust="spacingAndGlyphs"
         id="text64"
         transform="matrix(2.0111453,0,0,2.0111453,-618.07581,-188.07148)">Expert</text>
      <text
         x="520.21002"
         y="236.42"
         style="font-size:7px;font-family:Arial;white-space:pre"
         textLength="17.110001"
         lengthAdjust="spacingAndGlyphs"
         id="text65"
         transform="matrix(2.0111453,0,0,2.0111453,-618.07581,-188.07148)">Good</text>
      <text
         x="520.21002"
         y="247.75"
         style="font-size:7px;font-family:Arial;white-space:pre"
         textLength="29.549999"
         lengthAdjust="spacingAndGlyphs"
         id="text66"
         transform="matrix(2.0111453,0,0,2.0111453,-618.07581,-188.07148)">Moderate</text>
      <text
         x="520.21002"
         y="259.09"
         style="font-size:7px;font-family:Arial;white-space:pre"
         textLength="17.120001"
         lengthAdjust="spacingAndGlyphs"
         id="text67"
         transform="matrix(2.0111453,0,0,2.0111453,-618.07581,-188.07148)">Basic</text>
    </g>
  </g>
</svg>
